<?xml version="1.0" encoding="utf-8"?>
<svg width="100%" height="100%" viewBox="0 -200 1800 2136" version="1.1" style="fill-rule:evenodd;clip-rule:evenodd;stroke-linecap:round;stroke-linejoin:round;stroke-miterlimit:1.5;" xmlns="http://www.w3.org/2000/svg">
  <g id="Слой2" transform="matrix(0.689392, 0, 0, 0.633296, -208.317337, 207.271515)" style="">
    <g transform="matrix(1.22551,0,0,1.33333,313.747,13.0431)">
      <path d="M668.428,314.357C703.686,309.693 734.959,289.374 753.548,259.054C827.107,139.667 999.923,55.713 1201.19,55.713C1469.04,55.713 1686.49,204.39 1686.49,387.519C1686.49,492.608 1614.88,586.352 1503.23,647.165C1467.63,666.536 1448.72,706.771 1456.53,746.541C1461.43,771.463 1463.96,796.969 1463.96,822.919C1463.96,1107.76 1159.57,1339.02 784.651,1339.02C409.732,1339.02 105.345,1107.76 105.345,822.919C105.345,568.177 348.798,356.294 668.428,314.357Z" style="fill:rgb(229,241,237);"/>
    </g>
    <g transform="matrix(1.22551,0,0,1.33333,2124.42,106.717)">
      <ellipse cx="343.796" cy="271.032" rx="68.13" ry="66.111" style="fill:rgb(229,241,237);"/>
    </g>
  </g>
  <g transform="matrix(-0.869729, 0.101552, 0.101608, 0.869254, 1725.417358, -74.179337)" style="">
    <g transform="matrix(0.93565,-0.352929,0.352929,0.93565,-121.522,170.271)">
      <path d="M411.808,567.853L411.808,567.853L411.808,850.674L411.808,850.674L411.808,1188.63C309.055,1188.63 225.757,1104.54 225.757,1000.8C225.757,933.08 261.252,873.732 314.485,840.682C318.491,838.237 321.052,833.99 321.346,829.306C321.639,824.621 319.628,820.089 315.958,817.163C281.709,789.713 259.828,747.868 259.828,700.989C259.828,644.109 292.04,594.639 339.478,569.31C343.869,566.98 346.755,562.559 347.122,557.601C347.488,552.644 345.283,547.846 341.282,544.897C312.053,523.71 293.143,489.6 293.143,451.146C293.143,386.69 346.271,334.438 411.808,334.438L411.808,567.853Z" style="fill:rgb(44,112,64);"/>
      <g transform="matrix(1,0,0,0.878243,-10.5549,143.365)">
        <path d="M411.808,334.438L411.808,1410.72" style="fill:none;stroke:rgb(44,112,64);stroke-width:20.5px;"/>
      </g>
    </g>
    <g transform="matrix(0.747231,-0.519465,0.519465,0.747231,-276.074,497.972)">
      <path d="M411.808,567.853L411.808,567.853L411.808,850.674L411.808,850.674L411.808,1188.63C309.055,1188.63 225.757,1104.54 225.757,1000.8C225.757,933.741 260.564,874.89 312.933,841.656C317.248,838.959 320,834.348 320.324,829.269C320.649,824.19 318.507,819.267 314.57,816.042C281.12,788.578 259.828,747.232 259.828,700.989C259.828,644.821 291.238,595.88 337.702,570.273C342.408,567.688 345.489,562.901 345.895,557.548C346.3,552.194 343.974,546.998 339.711,543.734C311.376,522.476 293.143,488.905 293.143,451.146C293.143,386.69 346.271,334.438 411.808,334.438L411.808,567.853Z" style="fill:rgb(105,188,163);stroke:rgb(105,188,163);stroke-width:4.24px;"/>
      <g transform="matrix(1,0,0,0.878243,-10.5549,143.365)">
        <path d="M411.808,334.438L411.808,1410.72" style="fill:none;stroke:rgb(105,188,163);stroke-width:22.53px;"/>
      </g>
    </g>
  </g>
  <g transform="matrix(1.374885, 0, 0, 1.359425, -947.605042, -470.720642)" style="">
    <path d="M1146.81,1335.39L726.625,1335.39C726.624,1004.02 995.254,735.392 1326.62,735.392C1658,735.392 1926.62,1004.02 1926.62,1335.39L1506.12,1335.39C1500.3,1241.28 1422.03,1166.65 1326.47,1166.65C1230.9,1166.65 1152.63,1241.28 1146.81,1335.39Z" style="fill:rgb(255,107,0);"/>
    <clipPath id="_clip1">
      <path d="M1146.81,1335.39L726.625,1335.39C726.624,1004.02 995.254,735.392 1326.62,735.392C1658,735.392 1926.62,1004.02 1926.62,1335.39L1506.12,1335.39C1500.3,1241.28 1422.03,1166.65 1326.47,1166.65C1230.9,1166.65 1152.63,1241.28 1146.81,1335.39Z"/>
    </clipPath>
    <g clip-path="url(#_clip1)">
      <g transform="matrix(7.28117e-07,-1.20355,-1.17239,-7.09271e-07,2359.31,3054.17)">
        <path d="M1780.61,518.955C1687.12,422.979 1560.32,369.06 1428.1,369.06L1428.1,880.834L1780.61,518.955Z" style="fill:rgb(44,112,64);"/>
      </g>
      <g transform="matrix(-0.851035,-0.851035,-0.829007,0.829007,3272.2,1820.54)">
        <path d="M1780.61,518.955C1687.12,422.979 1560.32,369.06 1428.1,369.06L1428.1,880.834L1780.61,518.955Z" style="fill:rgb(139,196,64);"/>
      </g>
      <g transform="matrix(-1.20355,0,0,1.17239,3045.4,302.709)">
        <path d="M1780.61,518.955C1687.12,422.979 1560.32,369.06 1428.1,369.06L1428.1,880.834L1780.61,518.955Z" style="fill:rgb(255,198,0);"/>
      </g>
    </g>
  </g>
  <g id="мужчина" transform="matrix(0.680137, 0, 0, 0.624794, -196.67775, 236.185669)" style="">
    <path d="M585.71,727.355L639.824,758.173L642.33,818.78L629.271,943.603L903.399,943.603L900.446,770.28L952.901,745.56C952.901,745.56 918.636,646.37 877.784,618.147C847.871,597.482 775.778,591.841 775.778,591.841C775.778,591.841 716.332,594.854 693.136,605.282C681.84,610.361 669.497,618.681 659.806,625.881C649.079,633.852 639.756,643.856 632.281,655.414C615.976,680.557 585.71,727.355 585.71,727.355Z" style="fill:rgb(255,198,0);"/>
    <clipPath id="_clip2">
      <path d="M585.71,727.355L639.824,758.173L642.33,818.78L629.271,943.603L903.399,943.603L900.446,770.28L952.901,745.56C952.901,745.56 918.636,646.37 877.784,618.147C847.871,597.482 775.778,591.841 775.778,591.841C775.778,591.841 716.332,594.854 693.136,605.282C681.84,610.361 669.497,618.681 659.806,625.881C649.079,633.852 639.756,643.856 632.281,655.414C615.976,680.557 585.71,727.355 585.71,727.355Z"/>
    </clipPath>
    <g clip-path="url(#_clip2)">
      <g transform="matrix(1.01361,0,0,1.01361,-17.1132,-46.2779)">
        <path d="M623.755,700.105C623.755,700.105 680.299,698.064 696.452,697.481C699.075,697.386 701.531,698.874 702.839,701.349C702.839,701.35 702.84,701.35 702.84,701.351C704.204,703.934 704.427,707.047 703.447,709.829C702.467,712.61 700.387,714.763 697.785,715.691C697.303,715.863 696.814,716.037 696.321,716.213C693.419,717.247 691.373,720.076 691.129,723.387C690.886,726.698 692.494,729.844 695.207,731.367C697.421,732.609 699.619,733.843 701.623,734.967C706.795,737.869 709.793,743.932 709.169,750.226C709.169,750.227 709.168,750.228 709.168,750.229C708.485,757.115 703.644,762.648 697.356,763.729C665.319,769.237 572.06,785.269 572.06,785.269L623.755,700.105Z" style="fill:none;stroke:rgb(248,248,249);stroke-width:5.1px;"/>
      </g>
      <g transform="matrix(1.01361,0,0,1.01361,-17.1132,-46.2779)">
        <path d="M946.362,690.274C946.362,690.274 910.25,689.744 887.436,689.41C882.726,689.34 878.202,691.407 874.95,695.113C871.697,698.819 870.008,703.83 870.288,708.946C870.288,708.947 870.288,708.948 870.288,708.949C870.678,716.062 875.448,721.985 881.878,723.34C907.066,728.65 967.062,741.298 967.062,741.298L946.362,690.274Z" style="fill:none;stroke:rgb(248,248,249);stroke-width:5.1px;"/>
      </g>
      <g transform="matrix(1.01361,0,0,1.01361,-17.1132,-46.2779)">
        <path d="M918.132,805.734C918.132,805.734 828.615,808.955 800.139,809.979C795.155,810.159 790.988,814.162 790.209,819.522C790.209,819.522 790.209,819.523 790.209,819.523C789.185,826.561 793.5,833.205 799.939,834.506C815.976,837.747 844.669,843.545 859.592,846.561C865.163,847.687 869.203,852.974 869.203,859.138C869.203,859.139 869.203,859.14 869.203,859.142C869.203,865.885 864.346,871.447 858.156,871.792C834.267,873.123 778.328,876.24 758.122,877.366C753.686,877.613 749.906,880.953 748.773,885.625C748.773,885.626 748.773,885.628 748.772,885.629C747.828,889.524 748.519,893.675 750.66,896.963C752.8,900.25 756.17,902.337 759.861,902.66C805.176,906.628 938.256,918.281 938.256,918.281L918.132,805.734Z" style="fill:none;stroke:rgb(248,248,249);stroke-width:5.1px;"/>
      </g>
      <g transform="matrix(1.01361,0,0,1.01361,-17.1132,-46.2779)">
        <path d="M632.319,822.588L627.876,880.55C627.876,880.55 715.346,862.566 739.08,857.687C742.698,856.943 745.642,854.085 746.733,850.259C746.733,850.259 746.733,850.258 746.733,850.258C748.166,845.232 747.384,839.768 744.616,835.453C741.847,831.138 737.402,828.456 732.572,828.186C698.306,826.273 632.319,822.588 632.319,822.588Z" style="fill:none;stroke:rgb(248,248,249);stroke-width:5.1px;"/>
      </g>
      <g transform="matrix(1.01361,0,0,1.01361,-17.1132,-46.2779)">
        <path d="M627.876,929.097C627.876,929.097 656.573,930.037 677.381,930.719C690.356,931.144 702.036,939.39 707.679,952.109C707.679,952.109 707.679,952.109 707.679,952.11C709.23,955.605 712.445,957.866 716.011,957.97C721.636,958.133 730.601,958.394 739.514,958.653C756.884,959.158 772.405,970.589 779.287,987.948C779.287,987.948 779.287,987.948 779.287,987.948L611.157,996.03L627.876,929.097Z" style="fill:none;stroke:rgb(248,248,249);stroke-width:5.1px;"/>
      </g>
      <path d="M683.773,604.407L720.562,615.759L752.014,593.548L683.773,604.407Z" style="fill:rgb(25,25,27);"/>
      <path d="M828.295,612.879L807.733,595.636L854.354,601.838C854.354,601.838 879.108,606.253 900.733,610.111C903.374,610.582 905.317,613.054 905.336,615.965C905.355,618.875 903.443,621.377 900.809,621.888C883.82,625.184 866.32,628.579 866.32,628.579L828.295,612.879Z" style="fill:rgb(25,25,27);"/>
      <path d="M586.386,727.978L614.157,715.013L640.187,702.779L639.443,818.504L586.386,727.978Z" style="fill:rgb(25,25,27);"/>
      <path d="M899.909,770.532L904.553,726.891L963.577,760.709L899.909,770.532Z"/>
      <g transform="matrix(1.01361,0,0,1.01361,-17.1132,-46.2779)">
        <path d="M628.991,924.281C628.991,924.281 634.601,923.229 643.048,921.646C692.98,912.289 737.724,882.488 768.094,838.363C769.21,836.741 770.31,835.143 771.388,833.577C784.974,813.837 805.015,800.538 827.364,796.431C827.365,796.431 827.366,796.431 827.366,796.431C841.378,793.856 851.076,779.784 849.421,764.428C848.975,760.29 848.66,757.371 848.66,757.371L720.517,796.291L627.806,879.99L628.991,924.281Z"/>
      </g>
    </g>
    <g transform="matrix(1.78951,0,0,1.19426,-1093.54,-196.252)">
      <path d="M1140.26,790.834L1114.15,809.356L1114.47,848.705C1114.47,848.705 1117.76,860.94 1121.18,873.635C1125.51,889.733 1136.35,898.345 1146.8,893.975C1146.8,893.975 1146.8,893.975 1146.8,893.975C1152.67,891.517 1158.09,886.744 1162.56,880.076C1176.12,859.876 1206.09,815.243 1216.68,799.467C1219.12,795.826 1222.32,793.807 1225.63,793.807C1232.6,793.807 1244.85,793.807 1250.75,793.807C1252.93,793.807 1255.05,792.676 1256.81,790.577C1260.87,785.74 1268.38,776.781 1271.54,773.01C1272.36,772.039 1272.55,770.187 1271.97,768.837C1271.97,768.836 1271.97,768.836 1271.97,768.835C1271.5,767.717 1270.6,767.303 1269.84,767.848C1266.7,770.079 1259.05,775.522 1259.05,775.522C1259.05,775.522 1263.75,767.335 1267.27,761.221C1268.09,759.786 1268.41,757.767 1268.12,755.859C1267.83,753.952 1266.96,752.416 1265.82,751.782C1265.82,751.782 1265.82,751.782 1265.82,751.782C1265.18,751.429 1264.48,751.61 1263.94,752.264C1260.43,756.54 1247.35,772.464 1247.35,772.464C1247.35,772.464 1252.24,758.513 1255.33,749.698C1255.93,748.007 1256.01,745.964 1255.55,744.162C1255.1,742.359 1254.16,741 1253.01,740.479C1253.01,740.478 1253.01,740.478 1253.01,740.478C1251.77,739.92 1250.46,740.601 1249.65,742.215C1246.05,749.382 1236.42,768.586 1236.42,768.586C1236.42,768.586 1239.56,753.84 1241.5,744.736C1241.85,743.084 1241.7,741.259 1241.1,739.81C1240.5,738.362 1239.52,737.459 1238.45,737.376C1238.45,737.376 1238.45,737.376 1238.45,737.376C1237.49,737.3 1236.58,738.112 1236.11,739.474C1233.71,746.354 1226.58,766.853 1226.58,766.853C1226.58,766.853 1210.93,771.549 1204.28,773.546C1202.34,774.127 1200.5,775.372 1198.88,777.2C1190.35,786.841 1161.91,818.963 1151.27,830.988C1150.34,832.033 1149.16,832.272 1148.11,831.628C1147.06,830.984 1146.26,829.539 1145.99,827.76C1144,814.931 1140.26,790.834 1140.26,790.834Z" style="fill:rgb(255,107,0);"/>
      <clipPath id="_clip3">
        <path d="M1140.26,790.834L1114.15,809.356L1114.47,848.705C1114.47,848.705 1117.76,860.94 1121.18,873.635C1125.51,889.733 1136.35,898.345 1146.8,893.975C1146.8,893.975 1146.8,893.975 1146.8,893.975C1152.67,891.517 1158.09,886.744 1162.56,880.076C1176.12,859.876 1206.09,815.243 1216.68,799.467C1219.12,795.826 1222.32,793.807 1225.63,793.807C1232.6,793.807 1244.85,793.807 1250.75,793.807C1252.93,793.807 1255.05,792.676 1256.81,790.577C1260.87,785.74 1268.38,776.781 1271.54,773.01C1272.36,772.039 1272.55,770.187 1271.97,768.837C1271.97,768.836 1271.97,768.836 1271.97,768.835C1271.5,767.717 1270.6,767.303 1269.84,767.848C1266.7,770.079 1259.05,775.522 1259.05,775.522C1259.05,775.522 1263.75,767.335 1267.27,761.221C1268.09,759.786 1268.41,757.767 1268.12,755.859C1267.83,753.952 1266.96,752.416 1265.82,751.782C1265.82,751.782 1265.82,751.782 1265.82,751.782C1265.18,751.429 1264.48,751.61 1263.94,752.264C1260.43,756.54 1247.35,772.464 1247.35,772.464C1247.35,772.464 1252.24,758.513 1255.33,749.698C1255.93,748.007 1256.01,745.964 1255.55,744.162C1255.1,742.359 1254.16,741 1253.01,740.479C1253.01,740.478 1253.01,740.478 1253.01,740.478C1251.77,739.92 1250.46,740.601 1249.65,742.215C1246.05,749.382 1236.42,768.586 1236.42,768.586C1236.42,768.586 1239.56,753.84 1241.5,744.736C1241.85,743.084 1241.7,741.259 1241.1,739.81C1240.5,738.362 1239.52,737.459 1238.45,737.376C1238.45,737.376 1238.45,737.376 1238.45,737.376C1237.49,737.3 1236.58,738.112 1236.11,739.474C1233.71,746.354 1226.58,766.853 1226.58,766.853C1226.58,766.853 1210.93,771.549 1204.28,773.546C1202.34,774.127 1200.5,775.372 1198.88,777.2C1190.35,786.841 1161.91,818.963 1151.27,830.988C1150.34,832.033 1149.16,832.272 1148.11,831.628C1147.06,830.984 1146.26,829.539 1145.99,827.76C1144,814.931 1140.26,790.834 1140.26,790.834Z"/>
      </clipPath>
      <g clip-path="url(#_clip3)">
        <g transform="matrix(0.566417,0,0,0.848731,601.523,125.579)">
          <path d="M885.163,807.418L948.85,784.891C925.931,819.672 918.025,856.545 918.853,894.634L885.163,807.418Z"/>
        </g>
        <g transform="matrix(0.566417,0,0,0.848731,601.523,125.579)">
          <path d="M1098.34,787.804L1077.23,784.891L1078.98,808.78L1098.34,787.804Z"/>
        </g>
      </g>
    </g>
    <g transform="matrix(1.78951,0,0,1.19426,-1400.44,-202.185)">
      <path d="M1140.31,797.963L1115.16,780.959C1115.16,780.959 1112.45,811.067 1109.56,843.06C1108.26,857.559 1112.02,872.035 1119.32,880.59C1126.62,889.144 1136.24,890.348 1144.25,883.712C1144.25,883.711 1144.25,883.711 1144.25,883.71C1145.78,882.443 1147.25,880.976 1148.63,879.326C1158.97,867.023 1204.74,812.539 1217.29,797.605C1219.37,795.127 1221.85,793.692 1224.42,793.474C1230.91,792.926 1243.76,791.84 1250.21,791.294C1252.73,791.082 1255.1,789.377 1256.89,786.501C1260.27,781.077 1265.84,772.123 1268.5,767.857C1268.89,767.23 1269.11,766.371 1269.1,765.479C1269.09,764.587 1268.85,763.74 1268.45,763.139C1268.45,763.138 1268.44,763.137 1268.44,763.137C1267.77,762.132 1266.75,762.059 1266.03,762.962C1262.95,766.781 1255.31,776.293 1255.31,776.293C1255.31,776.293 1261.84,765.18 1265.96,758.159C1266.57,757.135 1266.75,755.635 1266.44,754.309C1266.13,752.984 1265.38,752.07 1264.51,751.963C1264.51,751.963 1264.51,751.963 1264.51,751.963C1264.21,751.926 1263.91,752.069 1263.67,752.367C1261.19,755.41 1247.35,772.464 1247.35,772.464C1247.35,772.464 1253.68,761.246 1258.1,753.421C1258.8,752.18 1258.97,750.374 1258.53,748.844C1258.1,747.314 1257.14,746.362 1256.11,746.433C1256.11,746.433 1256.11,746.433 1256.11,746.433C1255.81,746.453 1255.53,746.63 1255.3,746.937C1252.93,750.143 1239.33,768.554 1239.33,768.554C1239.33,768.554 1235.62,767.656 1232.95,767.006C1232.64,766.933 1232.41,766.532 1232.38,766.037C1232.36,765.541 1232.54,765.08 1232.83,764.92C1234.22,764.155 1235.95,763.197 1237.5,762.344C1238.41,761.842 1239.12,760.663 1239.41,759.169C1239.7,757.676 1239.54,756.047 1238.97,754.782C1238.97,754.782 1238.97,754.781 1238.97,754.781C1238.7,754.193 1238.26,753.891 1237.82,753.995C1235.36,754.576 1227.09,756.53 1220.65,758.049C1215.3,759.313 1210.25,762.872 1206.02,768.361C1204.59,770.209 1203.25,771.952 1202.37,773.092C1201.68,773.98 1200.95,774.761 1200.17,775.423C1193.36,781.252 1158.5,811.064 1145.37,822.291C1144.3,823.199 1143.03,823.138 1142,822.128C1140.97,821.119 1140.34,819.308 1140.34,817.352C1140.33,808.99 1140.31,797.963 1140.31,797.963Z" style="fill:rgb(255,107,0);"/>
      <clipPath id="_clip4">
        <path d="M1140.31,797.963L1115.16,780.959C1115.16,780.959 1112.45,811.067 1109.56,843.06C1108.26,857.559 1112.02,872.035 1119.32,880.59C1126.62,889.144 1136.24,890.348 1144.25,883.712C1144.25,883.711 1144.25,883.711 1144.25,883.71C1145.78,882.443 1147.25,880.976 1148.63,879.326C1158.97,867.023 1204.74,812.539 1217.29,797.605C1219.37,795.127 1221.85,793.692 1224.42,793.474C1230.91,792.926 1243.76,791.84 1250.21,791.294C1252.73,791.082 1255.1,789.377 1256.89,786.501C1260.27,781.077 1265.84,772.123 1268.5,767.857C1268.89,767.23 1269.11,766.371 1269.1,765.479C1269.09,764.587 1268.85,763.74 1268.45,763.139C1268.45,763.138 1268.44,763.137 1268.44,763.137C1267.77,762.132 1266.75,762.059 1266.03,762.962C1262.95,766.781 1255.31,776.293 1255.31,776.293C1255.31,776.293 1261.84,765.18 1265.96,758.159C1266.57,757.135 1266.75,755.635 1266.44,754.309C1266.13,752.984 1265.38,752.07 1264.51,751.963C1264.51,751.963 1264.51,751.963 1264.51,751.963C1264.21,751.926 1263.91,752.069 1263.67,752.367C1261.19,755.41 1247.35,772.464 1247.35,772.464C1247.35,772.464 1253.68,761.246 1258.1,753.421C1258.8,752.18 1258.97,750.374 1258.53,748.844C1258.1,747.314 1257.14,746.362 1256.11,746.433C1256.11,746.433 1256.11,746.433 1256.11,746.433C1255.81,746.453 1255.53,746.63 1255.3,746.937C1252.93,750.143 1239.33,768.554 1239.33,768.554C1239.33,768.554 1235.62,767.656 1232.95,767.006C1232.64,766.933 1232.41,766.532 1232.38,766.037C1232.36,765.541 1232.54,765.08 1232.83,764.92C1234.22,764.155 1235.95,763.197 1237.5,762.344C1238.41,761.842 1239.12,760.663 1239.41,759.169C1239.7,757.676 1239.54,756.047 1238.97,754.782C1238.97,754.782 1238.97,754.781 1238.97,754.781C1238.7,754.193 1238.26,753.891 1237.82,753.995C1235.36,754.576 1227.09,756.53 1220.65,758.049C1215.3,759.313 1210.25,762.872 1206.02,768.361C1204.59,770.209 1203.25,771.952 1202.37,773.092C1201.68,773.98 1200.95,774.761 1200.17,775.423C1193.36,781.252 1158.5,811.064 1145.37,822.291C1144.3,823.199 1143.03,823.138 1142,822.128C1140.97,821.119 1140.34,819.308 1140.34,817.352C1140.33,808.99 1140.31,797.963 1140.31,797.963Z"/>
      </clipPath>
      <g clip-path="url(#_clip4)">
        <g transform="matrix(0.566417,0,0,0.848731,773.019,130.547)">
          <path d="M613.058,770.415C631.478,780.6 642.9,795.363 648.992,813.612L670.12,778.099L613.058,770.415Z" style="fill:rgb(25,25,27);"/>
        </g>
        <g transform="matrix(0.566417,0,0,0.848731,773.019,130.547)">
          <path d="M629.073,835.933L648.906,818.684" style="fill:none;stroke:rgb(25,25,27);stroke-width:5.1px;"/>
        </g>
        <g transform="matrix(0.566417,0,0,0.848731,773.019,130.547)">
          <path d="M771.706,781.298L805.739,780.516L780.259,804.32L771.706,781.298Z"/>
        </g>
      </g>
    </g>
    <path id="голова" d="M719.268,462.258C726.762,430.463 748.967,407.385 775.164,407.385C803.799,407.385 827.664,434.959 832.761,471.35C834.05,471.108 835.379,470.982 836.737,470.982C848.705,470.982 858.421,480.799 858.421,492.891C858.421,504.983 848.705,514.8 836.737,514.8C834.377,514.8 832.104,514.418 829.976,513.712C826.748,525.106 821.597,535.236 815.054,543.388L815.054,598.745C826.128,603.096 832.999,609.146 832.999,615.831C832.999,629.065 806.076,639.809 772.915,639.809C739.754,639.809 712.831,629.065 712.831,615.831C712.831,607.202 724.278,599.632 741.436,595.408L741.436,550.088C728.952,538.289 720.056,520.122 717.391,499.127C715.928,499.466 714.401,499.645 712.831,499.645C701.961,499.645 693.136,491.033 693.136,480.426C693.136,469.819 701.961,461.207 712.831,461.207C715.085,461.207 717.251,461.577 719.268,462.258Z" style="fill:rgb(255,107,0);"/>
    <clipPath id="_clip5">
      <path id="голова1" d="M719.268,462.258C726.762,430.463 748.967,407.385 775.164,407.385C803.799,407.385 827.664,434.959 832.761,471.35C834.05,471.108 835.379,470.982 836.737,470.982C848.705,470.982 858.421,480.799 858.421,492.891C858.421,504.983 848.705,514.8 836.737,514.8C834.377,514.8 832.104,514.418 829.976,513.712C826.748,525.106 821.597,535.236 815.054,543.388L815.054,598.745C826.128,603.096 832.999,609.146 832.999,615.831C832.999,629.065 806.076,639.809 772.915,639.809C739.754,639.809 712.831,629.065 712.831,615.831C712.831,607.202 724.278,599.632 741.436,595.408L741.436,550.088C728.952,538.289 720.056,520.122 717.391,499.127C715.928,499.466 714.401,499.645 712.831,499.645C701.961,499.645 693.136,491.033 693.136,480.426C693.136,469.819 701.961,461.207 712.831,461.207C715.085,461.207 717.251,461.577 719.268,462.258Z"/>
    </clipPath>
    <g clip-path="url(#_clip5)">
      <path d="M718.138,460.179L723.83,465.273C723.83,465.273 723.83,465.273 723.83,465.273C726.643,452.138 732.341,439.94 740.435,429.725C742.216,427.477 743.462,425.905 743.462,425.905C743.462,425.905 748.306,427.788 753.69,429.882C765.729,434.564 778.886,434.571 790.929,429.901C775.977,434.25 783.516,432.616 790.209,430.143C797.771,427.297 806.136,430.554 810.32,437.975C810.331,437.972 810.333,437.976 810.335,437.979C810.5,438.272 810.582,438.612 810.57,438.956C810.536,439.966 810.457,442.296 810.371,444.818C810.175,450.556 812.158,456.129 815.855,460.228C815.855,460.228 815.855,460.229 815.856,460.229C817.713,462.289 818.935,464.927 819.351,467.776C819.765,470.613 820.228,473.78 820.228,473.78C820.228,473.78 820.228,473.78 820.228,473.78C823.703,470.949 827.736,469.035 832.007,468.192C833.466,467.903 834.593,467.681 834.593,467.681L823.81,430.287L795.138,403.905C795.138,403.905 757.687,398.877 756.349,398.772C755.011,398.667 724.201,424.865 724.201,424.865L718.138,460.179Z" style="fill:rgb(25,25,27);"/>
      <path d="M741.785,549.983C741.785,549.983 741.785,549.983 741.785,549.984C748.091,555.552 755.494,559.46 763.416,561.403C766.015,562.04 768,562.527 768,562.527L734.791,579.457L741.785,549.983Z" style="fill:rgb(25,25,27);"/>
      <path d="M741.418,591.232L741.785,610.181L723.83,600.92L741.418,591.232Z" style="fill:rgb(25,25,27);"/>
      <path d="M815.087,591.232L814.759,615.467L835.879,614.447L815.087,591.232Z" style="fill:rgb(25,25,27);"/>
      <g transform="matrix(1.01361,0,0,1.01361,-208.347,-53.0221)">
        <path d="M962.709,518.816L962.709,548.334C962.709,548.334 957.565,549.575 954.284,550.366C952.764,550.733 951.736,552.277 951.891,553.963C951.891,553.963 951.891,553.964 951.891,553.964C952.038,555.57 953.233,556.823 954.713,556.924C958.186,557.162 963.953,557.557 963.953,557.557" style="fill:none;stroke:black;stroke-width:5.1px;"/>
      </g>
      <g transform="matrix(1.01361,0,0,1.01361,-208.347,-53.0221)">
        <path d="M953.448,571.018C964.337,585.814 982.572,579.818 985.484,563.176" style="fill:none;stroke:black;stroke-width:5.1px;"/>
      </g>
      <path d="M699.232,479.337C699.232,479.337 700.107,478.127 701.144,476.693C703.221,473.823 706.558,472.393 709.876,472.953C709.877,472.953 709.877,472.953 709.878,472.953C713.28,473.528 716.121,476.08 717.283,479.605C717.759,481.049 718.138,482.198 718.138,482.198" style="fill:none;stroke:rgb(25,25,27);stroke-width:5.17px;"/>
      <g transform="matrix(1,0,0,1,130.616,11.361)">
        <path d="M695.832,477.156C695.832,477.156 697.062,475.806 698.143,474.618C699.2,473.458 700.49,472.579 701.911,472.052C701.912,472.052 701.912,472.051 701.913,472.051C705.054,470.885 708.499,471.186 711.43,472.881C714.36,474.577 716.515,477.515 717.384,481.001C717.952,483.282 718.363,484.93 718.363,484.93" style="fill:none;stroke:rgb(25,25,27);stroke-width:5.17px;"/>
      </g>
      <ellipse cx="790.607" cy="486.389" rx="3.859" ry="3.786" style="fill:rgb(25,25,27);"/>
      <g transform="matrix(1,0,0,1,-42.6119,-3.78647)">
        <ellipse cx="790.607" cy="486.389" rx="3.859" ry="3.786"/>
      </g>
    </g>
    <path id="👖" d="M628.61,943.603L902.912,943.603C902.912,943.603 1066.69,1668.08 1078.93,1722.25C1079.37,1724.2 1078.74,1726.26 1077.31,1727.52C1077.3,1727.52 1077.3,1727.53 1077.3,1727.53C1075.15,1729.42 1074.29,1732.55 1075.13,1735.42C1075.97,1738.29 1078.33,1740.31 1081.09,1740.5C1087.93,1740.99 1096.03,1741.57 1103.87,1742.13C1123.25,1743.51 1140.17,1756.9 1147.34,1776.54C1147.34,1776.54 1147.35,1776.54 1147.35,1776.54C1147.36,1776.59 1147.36,1776.65 1147.33,1776.69C1147.3,1776.74 1147.26,1776.76 1147.21,1776.76C1140.81,1776.76 995.442,1776.76 995.442,1776.76L995.301,1746.39C995.301,1746.39 962.415,1690.56 935.329,1644.58C912.157,1605.24 896.184,1561.4 888.287,1515.48C881.805,1477.78 873.908,1431.85 867.863,1396.68C862.022,1362.72 849.226,1330.61 830.424,1302.76C798.647,1256.76 786.495,1226.9 767.462,1148.29C767.462,1148.29 750.496,1296.35 740.362,1384.78C735.487,1427.32 738.716,1470.5 749.847,1511.62C749.847,1511.62 749.847,1511.62 749.847,1511.62C761.452,1554.5 764.368,1599.61 758.393,1643.83C750.433,1702.75 740.115,1779.11 740.115,1779.11L599.652,1777.24C599.652,1777.24 599.652,1777.24 599.652,1777.24C607.247,1764.88 618.856,1756.1 632.152,1752.65C640.484,1750.49 650.006,1748.02 658.044,1745.94C661.08,1745.15 663.386,1742.46 663.893,1739.11C664.4,1735.76 663.01,1732.4 660.366,1730.6C654.644,1726.69 648.39,1722.42 643.539,1719.11C638.205,1715.47 634.634,1709.43 633.793,1702.64C628.118,1656.83 605.631,1475.3 593.525,1377.58C588.328,1335.62 587.014,1293.21 589.601,1250.97C592.057,1210.88 595.176,1159.98 597.404,1123.61C599.305,1092.57 603.497,1061.76 609.938,1031.45C618.15,992.814 628.61,943.603 628.61,943.603Z" style="fill:rgb(62,10,205);"/>
    <clipPath id="_clip6">
      <path id="👖1" d="M628.61,943.603L902.912,943.603C902.912,943.603 1066.69,1668.08 1078.93,1722.25C1079.37,1724.2 1078.74,1726.26 1077.31,1727.52C1077.3,1727.52 1077.3,1727.53 1077.3,1727.53C1075.15,1729.42 1074.29,1732.55 1075.13,1735.42C1075.97,1738.29 1078.33,1740.31 1081.09,1740.5C1087.93,1740.99 1096.03,1741.57 1103.87,1742.13C1123.25,1743.51 1140.17,1756.9 1147.34,1776.54C1147.34,1776.54 1147.35,1776.54 1147.35,1776.54C1147.36,1776.59 1147.36,1776.65 1147.33,1776.69C1147.3,1776.74 1147.26,1776.76 1147.21,1776.76C1140.81,1776.76 995.442,1776.76 995.442,1776.76L995.301,1746.39C995.301,1746.39 962.415,1690.56 935.329,1644.58C912.157,1605.24 896.184,1561.4 888.287,1515.48C881.805,1477.78 873.908,1431.85 867.863,1396.68C862.022,1362.72 849.226,1330.61 830.424,1302.76C798.647,1256.76 786.495,1226.9 767.462,1148.29C767.462,1148.29 750.496,1296.35 740.362,1384.78C735.487,1427.32 738.716,1470.5 749.847,1511.62C749.847,1511.62 749.847,1511.62 749.847,1511.62C761.452,1554.5 764.368,1599.61 758.393,1643.83C750.433,1702.75 740.115,1779.11 740.115,1779.11L599.652,1777.24C599.652,1777.24 599.652,1777.24 599.652,1777.24C607.247,1764.88 618.856,1756.1 632.152,1752.65C640.484,1750.49 650.006,1748.02 658.044,1745.94C661.08,1745.15 663.386,1742.46 663.893,1739.11C664.4,1735.76 663.01,1732.4 660.366,1730.6C654.644,1726.69 648.39,1722.42 643.539,1719.11C638.205,1715.47 634.634,1709.43 633.793,1702.64C628.118,1656.83 605.631,1475.3 593.525,1377.58C588.328,1335.62 587.014,1293.21 589.601,1250.97C592.057,1210.88 595.176,1159.98 597.404,1123.61C599.305,1092.57 603.497,1061.76 609.938,1031.45C618.15,992.814 628.61,943.603 628.61,943.603Z"/>
    </clipPath>
    <g clip-path="url(#_clip6)">
      <path d="M619.788,943.603L615.277,1008.12C615.277,1008.12 662.824,988.646 685.527,979.345C692.838,976.349 701.06,977.775 707.154,983.094C708.387,984.17 709.62,985.247 710.774,986.255C714.521,989.526 719.709,990.026 723.926,987.523C723.927,987.522 723.927,987.522 723.927,987.522C747.458,973.555 775.682,972.551 800.001,984.815C800.583,985.108 801.167,985.403 801.753,985.698C842.945,1006.47 889.877,1009.33 932.941,993.68C936.418,992.417 938.511,991.656 938.511,991.656L902.321,944.462L619.788,943.603Z" style="fill:rgb(25,25,27);"/>
      <path d="M808.967,1094.35C786.502,1112.52 755.09,1109.55 735.855,1087.41C729.078,1079.61 723.99,1073.76 723.99,1073.76C723.99,1073.76 713.567,1088.03 703.235,1102.17C691.142,1118.72 690.061,1141.81 700.547,1159.62C700.547,1159.62 700.547,1159.62 700.547,1159.62C711.668,1178.5 714.672,1201.72 708.777,1223.21C707.011,1229.64 705.079,1236.68 703.058,1244.05C683.997,1313.53 684.756,1387.66 705.235,1456.66C732.63,1548.96 768,1668.13 768,1668.13L818.837,1465.17C778.392,1301.09 775.65,1168.39 826.398,1080.24C826.398,1080.24 818.698,1086.47 808.967,1094.35Z" style="fill:rgb(25,25,27);"/>
      <path d="M633.201,1712.24L769.58,1769.51L741.614,1817.08L578.004,1796.6L633.201,1712.24Z" style="fill:rgb(25,25,27);"/>
      <path d="M987.456,1746.99L1093.41,1720.15L1186.47,1764.66L1103.75,1838.9C1023.11,1833.54 981.384,1804.69 987.456,1746.99Z" style="fill:rgb(25,25,27);"/>
    </g>
  </g>
  <g id="Слой1" transform="matrix(0.689392, 0, 0, 0.633296, -208.317337, 207.271515)" style="">
    <g transform="matrix(1,0,0,1,10.1526,-9.95194)">
      <path d="M603.896,747.537C613.173,723.571 629.251,699.259 653.836,674.517" style="fill:none;stroke:black;stroke-width:5.1px;"/>
    </g>
    <path d="M911.187,688.719C929.457,714.654 944.517,744.71 956.62,778.563" style="fill:none;stroke:black;stroke-width:5.1px;"/>
  </g>
</svg>