<?xml version="1.0" encoding="UTF-8" standalone="no"?>
<!DOCTYPE svg PUBLIC "-//W3C//DTD SVG 1.1//EN" "http://www.w3.org/Graphics/SVG/1.1/DTD/svg11.dtd">
<svg width="100%" height="100%" viewBox="0 0 1650 2300" version="1.1" xmlns="http://www.w3.org/2000/svg" xmlns:xlink="http://www.w3.org/1999/xlink" xml:space="preserve" xmlns:serif="http://www.serif.com/" style="fill-rule:evenodd;clip-rule:evenodd;stroke-linecap:round;stroke-linejoin:round;stroke-miterlimit:1.5;">
    <g transform="matrix(1.15295,0,0,1.15295,-183.97,71.2282)">
        <g transform="matrix(-0.689917,-0.268254,-0.268254,0.689917,1677.45,627.646)">
            <path d="M411.808,567.853L411.808,567.853L411.808,850.674L411.808,850.674L411.808,1188.63C309.055,1188.63 225.757,1104.54 225.757,1000.8C225.757,934.488 259.793,876.202 311.19,842.777C315.849,839.783 318.812,834.756 319.172,829.229C319.533,823.703 317.249,818.333 313.017,814.76C280.465,787.295 259.828,746.515 259.828,700.989C259.828,645.618 290.354,597.269 335.734,571.377C340.787,568.49 344.082,563.287 344.531,557.485C344.98,551.683 342.524,546.035 337.975,542.406C310.632,521.091 293.143,488.127 293.143,451.146C293.143,386.69 346.271,334.438 411.808,334.438L411.808,567.853Z" style="fill:rgb(44,112,64);"/>
            <g transform="matrix(1,0,0,0.878243,-10.5549,143.365)">
                <path d="M411.808,334.438L411.808,1410.72" style="fill:none;stroke:rgb(44,112,64);stroke-width:24.9px;"/>
            </g>
        </g>
        <g transform="matrix(-0.680535,-0.100654,-0.100654,0.680535,1442.01,573.365)">
            <path d="M411.808,567.853L411.808,567.853L411.808,850.674L411.808,850.674L411.808,1188.63C309.055,1188.63 225.757,1104.54 225.757,1000.8C225.757,935.066 259.201,877.219 309.849,843.657C314.772,840.427 317.895,835.075 318.284,829.199C318.673,823.324 316.283,817.607 311.829,813.756C279.965,786.301 259.828,745.961 259.828,700.989C259.828,646.23 289.683,598.339 334.235,572.243C339.554,569.115 343.009,563.587 343.492,557.435C343.975,551.284 341.423,545.285 336.657,541.365C310.072,520.025 293.143,487.53 293.143,451.146C293.143,386.69 346.271,334.438 411.808,334.438L411.808,567.853Z" style="fill:rgb(105,188,163);stroke:rgb(105,188,163);stroke-width:5.04px;"/>
            <g transform="matrix(1,0,0,0.878243,-10.5549,143.365)">
                <path d="M411.808,334.438L411.808,1410.72" style="fill:none;stroke:rgb(105,188,163);stroke-width:26.79px;"/>
            </g>
        </g>
        <g transform="matrix(0.670209,-0.103067,0.103067,0.670209,-225.311,484.432)">
            <path d="M972.817,456.152L990.486,1604.89" style="fill:none;stroke:rgb(255,107,0);stroke-width:38.37px;"/>
        </g>
        <g id="Слой6" transform="matrix(0.670209,-0.103067,0.103067,0.670209,-225.311,484.432)">
            <path d="M850.621,694.517C859.954,685.689 861.248,671.29 853.639,660.939C833.535,633.656 821.619,599.898 821.619,563.362C821.619,472.928 894.621,399.506 984.538,399.506C1074.45,399.506 1147.46,472.928 1147.46,563.362C1147.46,599.898 1135.54,633.656 1115.41,660.918C1107.79,671.283 1109.09,685.701 1118.43,694.541C1155.06,729.363 1177.86,778.338 1177.86,832.545C1177.86,852.643 1174.73,872.023 1168.92,890.23C1166.13,899.021 1168.29,908.632 1174.58,915.38C1215.21,959.477 1239.92,1017.79 1239.92,1081.69C1239.92,1219.2 1125.49,1330.84 984.538,1330.84C843.59,1330.84 729.158,1219.2 729.158,1081.69C729.158,1017.79 753.87,959.477 794.471,915.356C800.749,908.617 802.91,899.019 800.126,890.24C794.35,872.023 791.215,852.643 791.215,832.545C791.215,778.338 814.012,729.363 850.621,694.517Z" style="fill:rgb(255,107,0);"/>
            <clipPath id="_clip1">
                <path d="M850.621,694.517C859.954,685.689 861.248,671.29 853.639,660.939C833.535,633.656 821.619,599.898 821.619,563.362C821.619,472.928 894.621,399.506 984.538,399.506C1074.45,399.506 1147.46,472.928 1147.46,563.362C1147.46,599.898 1135.54,633.656 1115.41,660.918C1107.79,671.283 1109.09,685.701 1118.43,694.541C1155.06,729.363 1177.86,778.338 1177.86,832.545C1177.86,852.643 1174.73,872.023 1168.92,890.23C1166.13,899.021 1168.29,908.632 1174.58,915.38C1215.21,959.477 1239.92,1017.79 1239.92,1081.69C1239.92,1219.2 1125.49,1330.84 984.538,1330.84C843.59,1330.84 729.158,1219.2 729.158,1081.69C729.158,1017.79 753.87,959.477 794.471,915.356C800.749,908.617 802.91,899.019 800.126,890.24C794.35,872.023 791.215,852.643 791.215,832.545C791.215,778.338 814.012,729.363 850.621,694.517Z"/>
            </clipPath>
            <g clip-path="url(#_clip1)">
                <g transform="matrix(1.26423,0.194419,-0.194419,1.26423,697.358,-719.954)">
                    <path d="M329.761,781.344L466.043,1548.73C577.936,1536.23 682.964,1579.22 790.287,1603.65L563.967,701.354L329.761,781.344Z" style="fill:rgb(62,10,205);"/>
                </g>
            </g>
        </g>
        <g transform="matrix(0.630165,-0.20859,0.20859,0.630165,59.2752,673.351)">
            <path d="M411.808,567.853L411.808,567.853L411.808,850.674L411.808,850.674L411.808,1188.63C309.055,1188.63 225.757,1104.54 225.757,1000.8C225.757,935.358 258.905,877.733 309.175,844.105C314.23,840.754 317.434,835.237 317.837,829.185C318.241,823.133 315.799,817.239 311.233,813.246C279.716,785.799 259.828,745.681 259.828,700.989C259.828,646.537 289.348,598.877 333.486,572.685C338.937,569.432 342.474,563.739 342.973,557.41C343.473,551.082 340.874,544.904 336.001,540.836C309.793,519.489 293.143,487.23 293.143,451.146C293.143,386.69 346.271,334.438 411.808,334.438L411.808,567.853Z" style="fill:rgb(139,196,64);"/>
            <g transform="matrix(1,0,0,0.878243,-10.5549,143.365)">
                <path d="M411.808,334.438L411.808,1410.72" style="fill:none;stroke:rgb(139,196,64);stroke-width:27.77px;"/>
            </g>
        </g>
    </g>
    <g id="Слой7">
    </g>
    <g>
        <path d="M523.317,503.422C537.222,452.147 601.707,442.22 621.246,493.82" style="fill:none;stroke:rgb(105,188,163);stroke-width:15px;"/>
        <g transform="matrix(0.466639,-0.884448,0.884448,0.466639,39.8183,784.86)">
            <path d="M523.317,503.422C537.222,452.147 601.707,442.22 621.246,493.82" style="fill:none;stroke:rgb(62,10,205);stroke-width:15px;"/>
        </g>
        <g transform="matrix(0.870968,-0.491339,0.491339,0.870968,500.615,391.449)">
            <path d="M523.317,503.422C537.222,452.147 601.707,442.22 621.246,493.82" style="fill:none;stroke:rgb(62,10,205);stroke-width:15px;"/>
        </g>
        <g transform="matrix(0.362556,-0.931962,0.931962,0.362556,310.146,706.651)">
            <path d="M523.317,503.422C537.222,452.147 601.707,442.22 621.246,493.82" style="fill:none;stroke:rgb(255,198,0);stroke-width:15px;"/>
        </g>
        <g transform="matrix(-0.493353,0.869829,-0.869829,-0.493353,1765.17,470.362)">
            <path d="M523.317,503.422C537.222,452.147 601.707,442.22 621.246,493.82" style="fill:none;stroke:rgb(139,196,64);stroke-width:15px;"/>
        </g>
        <g transform="matrix(0.893223,0.449614,-0.449614,0.893223,562.789,-288.752)">
            <path d="M523.317,503.422C537.222,452.147 601.707,442.22 621.246,493.82" style="fill:none;stroke:rgb(105,188,163);stroke-width:15px;"/>
        </g>
        <g transform="matrix(0.719827,0.694153,-0.694153,0.719827,633.031,-39.3029)">
            <path d="M523.317,503.422C537.222,452.147 601.707,442.22 621.246,493.82" style="fill:none;stroke:rgb(255,198,0);stroke-width:15px;"/>
        </g>
        <g transform="matrix(0.843035,-0.537859,0.537859,0.843035,-136.615,495.124)">
            <path d="M523.317,503.422C537.222,452.147 601.707,442.22 621.246,493.82" style="fill:none;stroke:rgb(255,198,0);stroke-width:15px;"/>
        </g>
        <g transform="matrix(0.714624,0.699509,-0.699509,0.714624,940.902,-159.987)">
            <path d="M523.317,503.422C537.222,452.147 601.707,442.22 621.246,493.82" style="fill:none;stroke:rgb(62,10,205);stroke-width:15px;"/>
        </g>
        <g transform="matrix(-0.636394,-0.771364,0.771364,-0.636394,294.8,1274.59)">
            <path d="M523.317,503.422C537.222,452.147 601.707,442.22 621.246,493.82" style="fill:none;stroke:rgb(255,198,0);stroke-width:15px;"/>
        </g>
        <g transform="matrix(0.922429,-0.386168,0.386168,0.922429,-413.666,873.279)">
            <path d="M523.317,503.422C537.222,452.147 601.707,442.22 621.246,493.82" style="fill:none;stroke:rgb(255,198,0);stroke-width:15px;"/>
        </g>
        <g transform="matrix(-0.398684,-0.917089,0.917089,-0.398684,101.574,1663.45)">
            <path d="M523.317,503.422C537.222,452.147 601.707,442.22 621.246,493.82" style="fill:none;stroke:rgb(62,10,205);stroke-width:15px;"/>
        </g>
        <g transform="matrix(0.993194,-0.116474,0.116474,0.993194,81.886,775.514)">
            <path d="M523.317,503.422C537.222,452.147 601.707,442.22 621.246,493.82" style="fill:none;stroke:rgb(255,107,0);stroke-width:15px;"/>
        </g>
        <g transform="matrix(0.776937,-0.629579,0.629579,0.776937,-450.041,659.795)">
            <path d="M523.317,503.422C537.222,452.147 601.707,442.22 621.246,493.82" style="fill:none;stroke:rgb(255,107,0);stroke-width:15px;"/>
        </g>
        <g transform="matrix(0.378032,0.925793,-0.925793,0.378032,1412.81,73.1299)">
            <path d="M523.317,503.422C537.222,452.147 601.707,442.22 621.246,493.82" style="fill:none;stroke:rgb(105,188,163);stroke-width:15px;"/>
        </g>
        <g transform="matrix(-0.415741,-0.909483,0.909483,-0.415741,236.308,1647.68)">
            <path d="M523.317,503.422C537.222,452.147 601.707,442.22 621.246,493.82" style="fill:none;stroke:rgb(255,198,0);stroke-width:15px;"/>
        </g>
        <g transform="matrix(-0.447072,0.894498,-0.894498,-0.447072,1896.27,847.041)">
            <path d="M523.317,503.422C537.222,452.147 601.707,442.22 621.246,493.82" style="fill:none;stroke:rgb(62,10,205);stroke-width:15px;"/>
        </g>
        <g transform="matrix(0.698198,0.715905,-0.715905,0.698198,1203.38,179.318)">
            <path d="M523.317,503.422C537.222,452.147 601.707,442.22 621.246,493.82" style="fill:none;stroke:rgb(62,10,205);stroke-width:15px;"/>
        </g>
        <g transform="matrix(-0.727015,-0.686621,0.686621,-0.727015,441.201,1532.98)">
            <path d="M523.317,503.422C537.222,452.147 601.707,442.22 621.246,493.82" style="fill:none;stroke:rgb(139,196,64);stroke-width:15px;"/>
        </g>
        <g transform="matrix(0.519608,-0.854405,0.854405,0.519608,-24.5095,655.305)">
            <path d="M523.317,503.422C537.222,452.147 601.707,442.22 621.246,493.82" style="fill:none;stroke:rgb(44,112,64);stroke-width:15px;"/>
        </g>
        <g transform="matrix(-0.484074,0.875027,-0.875027,-0.484074,1018.37,921.338)">
            <path d="M523.317,503.422C537.222,452.147 601.707,442.22 621.246,493.82" style="fill:none;stroke:rgb(44,112,64);stroke-width:15px;"/>
        </g>
        <g transform="matrix(0.0345234,-0.999404,0.999404,0.0345234,299.039,1135.74)">
            <path d="M523.317,503.422C537.222,452.147 601.707,442.22 621.246,493.82" style="fill:none;stroke:rgb(255,107,0);stroke-width:15px;"/>
        </g>
        <g transform="matrix(0.00655745,0.999978,-0.999978,0.00655745,1305.49,540.215)">
            <path d="M523.317,503.422C537.222,452.147 601.707,442.22 621.246,493.82" style="fill:none;stroke:rgb(255,107,0);stroke-width:15px;"/>
        </g>
        <g transform="matrix(-0.949425,0.313994,-0.313994,-0.949425,1873.14,937.49)">
            <path d="M523.317,503.422C537.222,452.147 601.707,442.22 621.246,493.82" style="fill:none;stroke:rgb(44,112,64);stroke-width:15px;"/>
        </g>
        <g transform="matrix(0.935726,-0.352727,0.352727,0.935726,-259.137,802.955)">
            <path d="M523.317,503.422C537.222,452.147 601.707,442.22 621.246,493.82" style="fill:none;stroke:rgb(44,112,64);stroke-width:15px;"/>
        </g>
        <g transform="matrix(0.959043,-0.28326,0.28326,0.959043,318.264,164.558)">
            <path d="M523.317,503.422C537.222,452.147 601.707,442.22 621.246,493.82" style="fill:none;stroke:rgb(255,107,0);stroke-width:15px;"/>
        </g>
        <g transform="matrix(-0.946599,0.322415,-0.322415,-0.946599,1980.09,994.401)">
            <path d="M523.317,503.422C537.222,452.147 601.707,442.22 621.246,493.82" style="fill:none;stroke:rgb(255,107,0);stroke-width:15px;"/>
        </g>
        <g transform="matrix(-0.41019,0.912,-0.912,-0.41019,1808.38,105.617)">
            <path d="M523.317,503.422C537.222,452.147 601.707,442.22 621.246,493.82" style="fill:none;stroke:rgb(139,196,64);stroke-width:15px;"/>
        </g>
        <g transform="matrix(0.372382,-0.928079,0.928079,0.372382,-160.259,1631.47)">
            <path d="M523.317,503.422C537.222,452.147 601.707,442.22 621.246,493.82" style="fill:none;stroke:rgb(139,196,64);stroke-width:15px;"/>
        </g>
        <g transform="matrix(0.78213,0.623115,-0.623115,0.78213,567.397,94.5513)">
            <path d="M523.317,503.422C537.222,452.147 601.707,442.22 621.246,493.82" style="fill:none;stroke:rgb(62,10,205);stroke-width:15px;"/>
        </g>
        <g transform="matrix(-0.807065,-0.590462,0.590462,-0.807065,1080.13,1591.55)">
            <path d="M523.317,503.422C537.222,452.147 601.707,442.22 621.246,493.82" style="fill:none;stroke:rgb(62,10,205);stroke-width:15px;"/>
        </g>
        <g transform="matrix(0.444129,0.895963,-0.895963,0.444129,647.639,-329.95)">
            <path d="M523.317,503.422C537.222,452.147 601.707,442.22 621.246,493.82" style="fill:none;stroke:rgb(255,107,0);stroke-width:15px;"/>
        </g>
        <g transform="matrix(-0.480557,-0.876963,0.876963,-0.480557,1017.39,2018.99)">
            <path d="M523.317,503.422C537.222,452.147 601.707,442.22 621.246,493.82" style="fill:none;stroke:rgb(255,107,0);stroke-width:15px;"/>
        </g>
    </g>
    <g id="женщина">
        <path d="M500.729,741.912C502.759,708.16 533.345,681.325 570.724,681.325C609.415,681.325 640.827,710.076 640.827,745.489C640.827,750.954 640.079,756.261 638.671,761.327C638.033,763.623 637.501,765.946 637.076,768.291C634.381,782.877 625.241,833.266 625.241,833.266L606.423,950.274L519.818,1038.14L386.531,1081.68C386.531,1081.68 384.807,1073.08 383.049,1064.32C380.602,1052.12 379.967,1039.62 381.164,1027.23C382.141,1017.11 383.409,1003.99 384.692,990.705C388.439,951.918 404.115,915.245 429.563,885.734C434.806,879.655 439.928,873.715 444.455,868.465C455.204,856 463.638,841.713 469.357,826.278C481.094,794.603 500.622,741.905 500.622,741.905L500.729,741.912Z" style="fill:rgb(105,188,163);"/>
        <clipPath id="_clip2">
            <path d="M500.729,741.912C502.759,708.16 533.345,681.325 570.724,681.325C609.415,681.325 640.827,710.076 640.827,745.489C640.827,750.954 640.079,756.261 638.671,761.327C638.033,763.623 637.501,765.946 637.076,768.291C634.381,782.877 625.241,833.266 625.241,833.266L606.423,950.274L519.818,1038.14L386.531,1081.68C386.531,1081.68 384.807,1073.08 383.049,1064.32C380.602,1052.12 379.967,1039.62 381.164,1027.23C382.141,1017.11 383.409,1003.99 384.692,990.705C388.439,951.918 404.115,915.245 429.563,885.734C434.806,879.655 439.928,873.715 444.455,868.465C455.204,856 463.638,841.713 469.357,826.278C481.094,794.603 500.622,741.905 500.622,741.905L500.729,741.912Z"/>
        </clipPath>
        <g clip-path="url(#_clip2)">
            <path d="M543.137,724.289L626.846,753.813C626.846,753.813 627.12,756.617 627.503,760.533C629.041,776.269 626.133,792.121 619.11,806.286C598.948,846.951 557.464,930.622 557.464,930.622C540.502,991.199 521.943,1050.97 448.556,1082.98C448.556,1082.98 443.502,1064.15 438.472,1045.4C431.9,1020.92 429.951,995.417 432.725,970.216C432.725,970.215 432.725,970.215 432.725,970.215C436.635,934.694 450.853,901.093 473.626,873.553C487.358,856.948 499.906,841.773 499.906,841.773L543.137,724.289Z" style="fill:rgb(25,25,27);"/>
        </g>
        <path d="M489.097,1091.83L683.74,1091.83C683.74,1091.83 687.891,1115.83 689.024,1126.23C689.232,1128.13 689.299,1133.26 689.298,1139.23C689.294,1157.41 692.856,1175.41 699.782,1192.22C709.936,1216.86 724.951,1253.3 734.253,1275.88C739.827,1289.4 743.361,1303.69 744.74,1318.25C747.411,1346.48 752.038,1395.38 754.847,1425.06C756.425,1441.74 760.113,1458.16 765.821,1473.91C769.509,1484.09 773.814,1495.98 777.525,1506.22C783.322,1522.23 785.452,1539.33 783.757,1556.27C780.646,1587.36 775.385,1639.93 771.805,1675.69C769.333,1700.4 774.786,1725.25 787.376,1746.65C790.605,1752.14 793.627,1757.27 795.866,1761.08C798.356,1765.31 799.697,1770.12 799.757,1775.03C799.804,1778.82 799.861,1783.44 799.91,1787.42C799.977,1792.85 796.686,1797.76 791.638,1799.76C791.637,1799.76 791.637,1799.76 791.636,1799.76C786.539,1801.78 780.72,1800.27 777.246,1796.03C772.877,1790.69 766.996,1783.52 763.05,1778.7C760.245,1775.27 758.478,1771.11 757.959,1766.72C757.543,1763.18 757.025,1758.8 756.566,1754.91C755.811,1748.5 753.896,1742.29 750.914,1736.57C745.981,1727.1 738.048,1711.88 732.586,1701.4C728.578,1693.71 725.207,1685.71 722.507,1677.47C715.54,1656.22 701.39,1613.06 694.496,1592.04C691.865,1584.01 689.822,1575.8 688.385,1567.48C684.967,1547.67 678.366,1509.43 675.164,1490.87C673.946,1483.82 671.987,1476.91 669.319,1470.27C652.905,1429.38 591.738,1277.03 591.738,1277.03C591.738,1277.03 583.203,1391.4 579.154,1445.65C577.768,1464.22 578.196,1482.88 580.432,1501.37C582.424,1517.85 584.845,1537.87 586.351,1550.33C587.304,1558.21 587.347,1566.18 586.479,1574.07C581.433,1619.95 563.496,1783.02 563.496,1783.02L470.4,1781.75C470.4,1781.75 471.778,1776.11 472.99,1771.14C474.103,1766.58 477.59,1762.98 482.11,1761.72C486.263,1760.56 491.604,1759.07 496.544,1757.69C504.741,1755.41 510.129,1747.58 509.342,1739.11C507.284,1716.96 503.614,1677.47 503.614,1677.47C503.614,1677.47 487.414,1614.19 478.874,1580.84C475.473,1567.55 474.133,1553.83 474.902,1540.14C476.281,1515.58 478.587,1474.49 480.124,1447.12C481.163,1428.62 479.31,1410.08 474.633,1392.15C471.336,1379.51 467.244,1363.83 463.163,1348.19C451.227,1302.44 450.671,1254.46 461.543,1208.45C474.058,1155.48 489.097,1091.83 489.097,1091.83Z" style="fill:rgb(139,196,64);"/>
        <clipPath id="_clip3">
            <path d="M489.097,1091.83L683.74,1091.83C683.74,1091.83 687.891,1115.83 689.024,1126.23C689.232,1128.13 689.299,1133.26 689.298,1139.23C689.294,1157.41 692.856,1175.41 699.782,1192.22C709.936,1216.86 724.951,1253.3 734.253,1275.88C739.827,1289.4 743.361,1303.69 744.74,1318.25C747.411,1346.48 752.038,1395.38 754.847,1425.06C756.425,1441.74 760.113,1458.16 765.821,1473.91C769.509,1484.09 773.814,1495.98 777.525,1506.22C783.322,1522.23 785.452,1539.33 783.757,1556.27C780.646,1587.36 775.385,1639.93 771.805,1675.69C769.333,1700.4 774.786,1725.25 787.376,1746.65C790.605,1752.14 793.627,1757.27 795.866,1761.08C798.356,1765.31 799.697,1770.12 799.757,1775.03C799.804,1778.82 799.861,1783.44 799.91,1787.42C799.977,1792.85 796.686,1797.76 791.638,1799.76C791.637,1799.76 791.637,1799.76 791.636,1799.76C786.539,1801.78 780.72,1800.27 777.246,1796.03C772.877,1790.69 766.996,1783.52 763.05,1778.7C760.245,1775.27 758.478,1771.11 757.959,1766.72C757.543,1763.18 757.025,1758.8 756.566,1754.91C755.811,1748.5 753.896,1742.29 750.914,1736.57C745.981,1727.1 738.048,1711.88 732.586,1701.4C728.578,1693.71 725.207,1685.71 722.507,1677.47C715.54,1656.22 701.39,1613.06 694.496,1592.04C691.865,1584.01 689.822,1575.8 688.385,1567.48C684.967,1547.67 678.366,1509.43 675.164,1490.87C673.946,1483.82 671.987,1476.91 669.319,1470.27C652.905,1429.38 591.738,1277.03 591.738,1277.03C591.738,1277.03 583.203,1391.4 579.154,1445.65C577.768,1464.22 578.196,1482.88 580.432,1501.37C582.424,1517.85 584.845,1537.87 586.351,1550.33C587.304,1558.21 587.347,1566.18 586.479,1574.07C581.433,1619.95 563.496,1783.02 563.496,1783.02L470.4,1781.75C470.4,1781.75 471.778,1776.11 472.99,1771.14C474.103,1766.58 477.59,1762.98 482.11,1761.72C486.263,1760.56 491.604,1759.07 496.544,1757.69C504.741,1755.41 510.129,1747.58 509.342,1739.11C507.284,1716.96 503.614,1677.47 503.614,1677.47C503.614,1677.47 487.414,1614.19 478.874,1580.84C475.473,1567.55 474.133,1553.83 474.902,1540.14C476.281,1515.58 478.587,1474.49 480.124,1447.12C481.163,1428.62 479.31,1410.08 474.633,1392.15C471.336,1379.51 467.244,1363.83 463.163,1348.19C451.227,1302.44 450.671,1254.46 461.543,1208.45C474.058,1155.48 489.097,1091.83 489.097,1091.83Z"/>
        </clipPath>
        <g clip-path="url(#_clip3)">
            <g id="Слой5">
                <path d="M697.522,1127.43C697.522,1127.43 661.037,1127.42 646.604,1127.41C643.083,1127.41 639.885,1129.46 638.415,1132.66C638.325,1132.86 638.234,1133.06 638.142,1133.26C636.398,1137.05 637.798,1141.55 641.387,1143.69C641.389,1143.69 641.39,1143.69 641.391,1143.69C642.777,1144.52 643.588,1146.05 643.493,1147.66C643.398,1149.27 642.413,1150.69 640.939,1151.35C639.519,1151.98 638.033,1152.64 636.607,1153.28C632.059,1155.31 629.585,1160.27 630.706,1165.12C630.706,1165.13 630.706,1165.13 630.706,1165.13C631.866,1170.15 636.451,1173.62 641.601,1173.38C662.836,1172.4 714.756,1169.98 714.756,1169.98L697.522,1127.43Z" style="fill:none;stroke:rgb(248,248,249);stroke-width:4px;"/>
                <path d="M714.756,1208.3C714.756,1208.3 688.148,1213.84 676.798,1216.2C673.676,1216.85 671.125,1219.09 670.077,1222.11C670.077,1222.11 670.076,1222.11 670.076,1222.11C669.171,1224.71 669.497,1227.58 670.962,1229.91C672.427,1232.24 674.872,1233.78 677.608,1234.09C698.479,1236.48 741.085,1241.36 741.085,1241.36L714.756,1208.3Z" style="fill:none;stroke:rgb(248,248,249);stroke-width:4px;"/>
                <path d="M434.25,1208.3C434.25,1208.3 515.8,1196.26 542.994,1192.25C548.166,1191.49 552.229,1187.43 553.003,1182.26C553.003,1182.26 553.003,1182.26 553.003,1182.26C553.732,1177.38 550.814,1172.7 546.117,1171.21C539.159,1168.99 529.418,1165.9 523.849,1164.12C520.954,1163.2 518.216,1161.85 515.732,1160.1C515.732,1160.1 515.731,1160.1 515.731,1160.1C506.808,1153.82 496.833,1149.19 486.278,1146.43C473.654,1143.12 458.141,1139.06 458.141,1139.06L434.25,1208.3Z" style="fill:none;stroke:rgb(248,248,249);stroke-width:4px;"/>
                <path d="M434.25,1283.18C434.25,1283.18 463.725,1282.38 476.467,1282.03C480.094,1281.93 483.558,1283.53 485.832,1286.36C485.832,1286.36 485.833,1286.36 485.833,1286.36C490.637,1292.33 490.21,1300.95 484.839,1306.41C483.416,1307.86 481.956,1309.35 480.554,1310.77C478.371,1313 477.227,1316.04 477.402,1319.14C477.578,1322.25 479.057,1325.14 481.476,1327.11C485.558,1330.42 489.948,1333.98 492.374,1335.94C493.607,1336.94 494.546,1338.26 495.089,1339.75C495.508,1340.9 496.052,1342.4 496.642,1344.02C499.262,1351.21 496.553,1359.26 490.115,1363.41C490.115,1363.41 490.114,1363.41 490.113,1363.41C487.027,1365.4 486.004,1369.44 487.771,1372.65C489.693,1376.16 492.024,1380.4 493.303,1382.73C493.93,1383.87 494.259,1385.16 494.259,1386.46C494.259,1386.46 494.259,1386.46 494.259,1386.46C494.259,1397.5 485.786,1406.69 474.784,1407.59C463.625,1408.49 451.817,1409.45 451.817,1409.45L434.25,1283.18Z" style="fill:none;stroke:rgb(248,248,249);stroke-width:4px;"/>
                <path d="M645.794,1471.05C645.794,1471.05 703.736,1466.12 724.947,1464.32C729.671,1463.92 734.237,1466.12 736.854,1470.08C736.855,1470.08 736.855,1470.08 736.855,1470.08C739.319,1473.8 739.171,1478.67 736.486,1482.23C733.561,1486.11 730.275,1490.96 729.998,1493.53C729.785,1495.51 733.841,1499.7 737.106,1502.74C739.641,1505.09 741.082,1508.38 741.082,1511.84C741.085,1511.84 741.085,1511.84 741.085,1511.84C741.085,1518.44 736.735,1524.25 730.403,1526.1C707.833,1532.71 657.352,1547.48 657.352,1547.48L645.794,1471.05Z" style="fill:none;stroke:rgb(248,248,249);stroke-width:4px;"/>
                <path d="M467.685,1527.67C467.685,1527.67 514.338,1533.92 535.927,1536.81C541.965,1537.62 546.341,1542.97 545.937,1549.05C545.937,1549.05 545.937,1549.05 545.937,1549.05C545.652,1553.33 542.77,1557 538.678,1558.3C519.738,1564.28 467.685,1580.73 467.685,1580.73L467.685,1527.67Z" style="fill:none;stroke:rgb(248,248,249);stroke-width:4px;"/>
                <path d="M588.577,1668.02C588.577,1668.02 561.524,1668.4 547.565,1668.6C542.929,1668.66 539.073,1672.18 538.584,1676.79C538.582,1676.81 538.579,1676.83 538.577,1676.86C537.989,1682.4 541.707,1687.49 547.169,1688.61C563.053,1691.88 593.013,1698.04 593.013,1698.04L588.577,1668.02Z" style="fill:none;stroke:rgb(248,248,249);stroke-width:4px;"/>
                <path d="M799.191,1573.25C796.609,1575.35 771.225,1584.16 754.873,1589.71C751.252,1590.94 748.279,1593.57 746.629,1597.02C744.98,1600.47 744.792,1604.44 746.108,1608.03C746.194,1608.27 746.28,1608.5 746.365,1608.73C748.601,1614.83 754.486,1618.81 760.975,1618.62C775.838,1618.18 800.683,1617.44 800.683,1617.44C800.683,1617.44 803.03,1570.13 799.191,1573.25Z" style="fill:none;stroke:rgb(248,248,249);stroke-width:4px;"/>
            </g>
            <path d="M450.861,1139.37C450.861,1139.37 490.272,1125.78 514.542,1117.4C526.615,1113.24 539.713,1113.11 551.867,1117.03C556.126,1118.4 560.614,1119.85 564.755,1121.19C575.321,1124.6 586.618,1125.05 597.424,1122.51C606.195,1120.44 616.946,1117.91 625.728,1115.84C636.504,1113.3 647.809,1114.28 657.991,1118.63C657.991,1118.63 657.991,1118.63 657.992,1118.63C668.406,1123.08 676.084,1132.21 678.671,1143.24C680.554,1151.27 682.676,1160.31 684.091,1166.34C685.133,1170.78 684.723,1175.44 682.919,1179.63C682.329,1181.01 681.699,1182.47 681.09,1183.89C679.212,1188.26 681.157,1193.32 685.474,1195.31C685.475,1195.31 685.475,1195.31 685.476,1195.31C688.304,1196.61 690.3,1199.24 690.8,1202.31C694.167,1222.97 707.268,1303.37 713.094,1339.13C714.96,1350.58 718.858,1361.61 724.605,1371.68C727.658,1377.04 730.84,1382.62 732.912,1386.26C734.437,1388.93 735.609,1391.79 736.4,1394.77C737.017,1397.09 737.811,1400.08 738.627,1403.15C741.343,1413.37 745.971,1422.99 752.266,1431.49C761.956,1444.57 775.555,1462.93 775.555,1462.93L722.138,1075.58L453.145,1077.04L450.861,1139.37Z" style="fill:rgb(25,25,27);"/>
            <path d="M548.916,1254.54C549.904,1250.18 553.194,1246.7 557.497,1245.47C561.8,1244.23 566.433,1245.44 569.583,1248.62C579.335,1258.47 590.015,1269.26 590.015,1269.26C590.015,1269.26 619.182,1235.1 633.639,1218.18C635.594,1215.89 638.468,1214.59 641.479,1214.64C644.489,1214.68 647.322,1216.07 649.206,1218.42C649.281,1218.51 649.356,1218.61 649.43,1218.7C651.784,1221.63 652.198,1225.68 650.487,1229.03C648.212,1233.48 644.901,1239.96 641.868,1245.9C637.481,1254.49 639.698,1264.98 647.188,1271.07C647.188,1271.07 647.189,1271.07 647.189,1271.07C652.355,1275.26 654.214,1282.32 651.785,1288.51C648.939,1295.77 645.051,1305.69 641.627,1314.42C636.861,1326.58 639.163,1340.37 647.618,1350.32C656.342,1360.59 667.663,1373.91 676.758,1384.61C686.822,1396.45 691.491,1411.95 689.642,1427.39C689.163,1431.38 688.667,1435.52 688.19,1439.49C686.37,1454.67 689.733,1470.03 697.732,1483.06C699.59,1486.08 701.482,1489.16 703.269,1492.07C709.401,1502.06 711.459,1514.03 709.017,1525.49C701.179,1562.28 683.961,1643.09 683.961,1643.09C683.961,1643.09 609.793,1640.67 582.864,1639.79C577.454,1639.62 573.111,1635.27 572.942,1629.86C572.296,1609.15 570.77,1560.26 570.003,1535.68C569.701,1526.02 567.376,1516.54 563.178,1507.84C560.572,1502.43 557.457,1495.98 554.413,1489.66C545.986,1472.2 542.637,1452.71 544.748,1433.43C547.475,1408.53 551.211,1374.41 552.986,1358.2C553.66,1352.04 553.484,1345.82 552.46,1339.71C550.335,1327.02 546.523,1304.25 544.364,1291.36C543.302,1285.02 543.486,1278.54 544.905,1272.27C546.05,1267.21 547.51,1260.76 548.916,1254.54Z" style="fill:rgb(25,25,27);"/>
            <path d="M466.04,1743.98L463.609,1810.79L838.657,1811.89L821.503,1727.52L466.04,1743.98Z" style="fill:rgb(255,107,0);"/>
            <path d="M749.419,1732.1C749.419,1732.1 751.796,1732.08 754.849,1732.06C763.359,1731.99 771.589,1729.01 778.169,1723.61C780.511,1721.69 782.33,1720.19 782.33,1720.19L789.002,1731.8C789.002,1731.8 786.179,1734.05 782.386,1737.07C769.995,1746.95 762.761,1761.92 762.723,1777.77C762.706,1784.57 762.693,1790.09 762.693,1790.09L749.419,1732.1Z" style="fill:rgb(25,25,27);"/>
            <path d="M507.158,1747.35L570.388,1749.54L568.934,1790.09L494.447,1790.09C494.447,1790.09 501.982,1782.93 509.358,1775.92C512.51,1772.93 513.976,1768.57 513.272,1764.28C512.569,1759.99 509.788,1756.33 505.845,1754.5C504.085,1753.68 502.93,1753.14 502.93,1753.14L507.158,1747.35Z" style="fill:rgb(25,25,27);"/>
            <path d="M738.125,1724.83C752.827,1727.69 769.066,1720.28 782.327,1710.39L785.251,1723.14C771.469,1732.92 756.811,1736.98 741.497,1736.73L738.125,1724.83Z" style="fill:rgb(44,112,64);"/>
            <path d="M502.93,1748.62L505.324,1736.73L577.243,1736.73L574.616,1751.24L502.93,1748.62Z" style="fill:rgb(44,112,64);"/>
        </g>
        <path d="M697.522,951.363L725.399,887.252L846.108,1006.28L906.871,1017.01L913.49,1052.82L833.591,1049.06L832.764,1077.57L820.18,1083.29L817.535,1033.28L697.522,951.363Z" style="fill:white;"/>
        <path d="M469.208,761.58L533.142,741.905L478.031,517.213C478.031,517.213 476.606,505.684 478.627,500.438C480.544,495.465 484.179,486.751 485.382,483.879C485.634,483.278 485.606,482.596 485.306,482.018C485.306,482.018 485.305,482.017 485.305,482.017C484.242,479.967 482.174,478.632 479.869,478.507C477.563,478.383 475.363,479.486 474.085,481.409C472.043,484.479 470.093,487.412 469.325,488.567C469.097,488.91 468.893,489.269 468.714,489.64C467.544,492.07 462.815,501.897 459.724,508.317C458.026,511.847 454.523,514.156 450.609,514.326C445.163,514.564 437.395,514.902 432.187,515.129C428.783,515.278 425.597,513.454 424.003,510.443C420,502.885 412.434,488.6 408.846,481.825C407.69,479.643 405.161,478.571 402.789,479.258C402.742,479.272 402.695,479.286 402.647,479.299C400.068,480.046 398.497,482.651 399.04,485.281C400.14,490.607 401.79,498.6 401.79,498.6C401.79,498.6 396.05,491.861 392.61,487.822C391.169,486.131 388.693,485.78 386.839,487.004C386.838,487.004 386.837,487.005 386.837,487.005C385.019,488.205 384.314,490.529 385.159,492.536C387.539,498.191 391.999,508.789 391.999,508.789C391.999,508.789 384.572,501.807 379.803,497.324C377.634,495.284 374.227,495.374 372.167,497.523C372.13,497.562 372.093,497.601 372.056,497.64C370.191,499.587 369.974,502.585 371.54,504.78C376.844,512.212 388.673,528.788 395.202,537.937C398.164,542.086 402.31,545.243 407.098,546.993C417.839,550.919 436.56,557.76 436.56,557.76L469.208,761.58Z" style="fill:white;"/>
        <clipPath id="_clip4">
            <path d="M469.208,761.58L533.142,741.905L478.031,517.213C478.031,517.213 476.606,505.684 478.627,500.438C480.544,495.465 484.179,486.751 485.382,483.879C485.634,483.278 485.606,482.596 485.306,482.018C485.306,482.018 485.305,482.017 485.305,482.017C484.242,479.967 482.174,478.632 479.869,478.507C477.563,478.383 475.363,479.486 474.085,481.409C472.043,484.479 470.093,487.412 469.325,488.567C469.097,488.91 468.893,489.269 468.714,489.64C467.544,492.07 462.815,501.897 459.724,508.317C458.026,511.847 454.523,514.156 450.609,514.326C445.163,514.564 437.395,514.902 432.187,515.129C428.783,515.278 425.597,513.454 424.003,510.443C420,502.885 412.434,488.6 408.846,481.825C407.69,479.643 405.161,478.571 402.789,479.258C402.742,479.272 402.695,479.286 402.647,479.299C400.068,480.046 398.497,482.651 399.04,485.281C400.14,490.607 401.79,498.6 401.79,498.6C401.79,498.6 396.05,491.861 392.61,487.822C391.169,486.131 388.693,485.78 386.839,487.004C386.838,487.004 386.837,487.005 386.837,487.005C385.019,488.205 384.314,490.529 385.159,492.536C387.539,498.191 391.999,508.789 391.999,508.789C391.999,508.789 384.572,501.807 379.803,497.324C377.634,495.284 374.227,495.374 372.167,497.523C372.13,497.562 372.093,497.601 372.056,497.64C370.191,499.587 369.974,502.585 371.54,504.78C376.844,512.212 388.673,528.788 395.202,537.937C398.164,542.086 402.31,545.243 407.098,546.993C417.839,550.919 436.56,557.76 436.56,557.76L469.208,761.58Z"/>
        </clipPath>
        <g clip-path="url(#_clip4)">
            <path d="M436.625,556.362L433.555,544.92L449.437,540.902L436.625,556.362Z" style="fill:rgb(25,25,27);"/>
            <path d="M482.6,767.021L533.142,671.182L566.499,738.52L482.6,767.021Z" style="fill:rgb(25,25,27);"/>
            <g id="Слой3">
                <path d="M444.987,587.005L466.929,741.905" style="fill:none;stroke:rgb(25,25,27);stroke-width:4px;"/>
                <path d="M512.56,668.554L484.512,557.02" style="fill:none;stroke:rgb(25,25,27);stroke-width:4px;"/>
                <g transform="matrix(3.2779,0,0,2.48104,-1095.97,-807.346)">
                    <ellipse cx="481.217" cy="545.565" rx="0.577" ry="0.746" style="fill:rgb(25,25,27);"/>
                </g>
            </g>
        </g>
        <g id="Слой4">
            <path d="M383.137,519.928C383.137,519.928 376.463,511.111 372.814,506.29C371.486,504.534 371.654,502.068 373.209,500.509C373.21,500.508 373.211,500.507 373.212,500.507C375.088,498.626 378.077,498.457 380.154,500.113C384.279,503.404 390.43,508.31 390.43,508.31C390.43,508.31 387.609,498.426 386.187,493.444C385.718,491.799 386.432,490.047 387.918,489.2C387.918,489.2 387.918,489.2 387.919,489.2C389.237,488.448 390.883,488.596 392.046,489.57C395.34,492.33 401.686,497.647 401.686,497.647C401.686,497.647 400.479,489.334 399.779,484.512C399.497,482.572 400.654,480.712 402.519,480.107C402.519,480.106 402.52,480.106 402.521,480.106C404.398,479.496 406.452,480.207 407.551,481.846C410.206,485.808 414.77,492.617 414.77,492.617" style="fill:none;stroke:rgb(25,25,27);stroke-width:4px;"/>
            <path d="M423.376,524.961C423.376,524.961 425.569,523.518 428.414,521.645C436.584,516.268 446.519,514.264 456.134,516.053C456.397,516.102 456.542,516.129 456.542,516.129C456.542,516.129 467.979,492.119 473.679,480.151C474.437,478.56 475.885,477.408 477.605,477.027C479.325,476.646 481.125,477.079 482.483,478.202C482.484,478.202 482.485,478.203 482.485,478.203C483.729,479.231 484.26,480.889 483.844,482.448C481.867,489.858 476.275,510.815 476.275,510.815" style="fill:none;stroke:rgb(25,25,27);stroke-width:4px;"/>
        </g>
        <path d="M450.861,767.021L532.882,741.905L575.963,806.61C575.963,806.61 606.031,811.352 627.87,814.796C642.49,817.101 656.371,822.785 668.41,831.395C694.826,850.289 740.5,882.956 740.5,882.956L701.391,959.838C701.391,959.838 688.493,947.943 679.883,940.002C678.665,938.879 676.883,938.616 675.392,939.34C673.902,940.064 673.007,941.627 673.136,943.279C675.897,978.384 684.809,1091.7 684.809,1091.7L485.925,1091.83C485.925,1091.83 481.168,943.133 479.884,903.013C479.674,896.447 478.834,889.915 477.376,883.509C470.666,854.03 450.861,767.021 450.861,767.021Z" style="fill:rgb(255,107,0);"/>
        <clipPath id="_clip5">
            <path d="M450.861,767.021L532.882,741.905L575.963,806.61C575.963,806.61 606.031,811.352 627.87,814.796C642.49,817.101 656.371,822.785 668.41,831.395C694.826,850.289 740.5,882.956 740.5,882.956L701.391,959.838C701.391,959.838 688.493,947.943 679.883,940.002C678.665,938.879 676.883,938.616 675.392,939.34C673.902,940.064 673.007,941.627 673.136,943.279C675.897,978.384 684.809,1091.7 684.809,1091.7L485.925,1091.83C485.925,1091.83 481.168,943.133 479.884,903.013C479.674,896.447 478.834,889.915 477.376,883.509C470.666,854.03 450.861,767.021 450.861,767.021Z"/>
        </clipPath>
        <g clip-path="url(#_clip5)">
            <path d="M503.614,741.905C503.614,741.905 506.964,761.014 509.058,772.958C510.122,779.027 513.223,784.551 517.85,788.62C518.181,788.911 518.506,789.197 518.822,789.474C521.078,791.458 521.988,794.564 521.161,797.452C521.161,797.452 521.161,797.453 521.161,797.453C518.139,807.996 523.461,819.136 533.561,823.41C545.523,828.473 559.151,834.24 559.151,834.24L570.783,770.81L503.614,741.905Z" style="fill:rgb(25,25,27);"/>
            <path d="M595.681,828.253C595.681,828.253 595.681,828.253 595.681,828.253C602.103,831.992 609.967,832.28 616.646,829.022C616.693,829 616.739,828.977 616.785,828.955C620.712,827.04 625.241,826.776 629.363,828.222C629.985,828.44 630.63,828.666 631.289,828.897C639.946,831.935 649.352,832.102 658.112,829.374C666.17,826.865 674.852,824.162 674.852,824.162L619.628,803.495L591.224,806.423L595.681,828.253Z" style="fill:rgb(25,25,27);"/>
            <path d="M721.604,864.165C721.604,864.165 716.692,873.284 711.802,882.36C705.494,894.07 702.7,907.353 703.756,920.612C703.756,920.612 703.756,920.613 703.756,920.613C703.863,921.954 703.335,923.268 702.329,924.162C701.643,924.772 700.794,925.527 699.901,926.322C696.291,929.532 691.034,930.08 686.84,927.681C673.999,920.337 648.032,905.485 648.032,905.485L678.338,1006.77L768,879.89L721.604,864.165Z" style="fill:rgb(25,25,27);"/>
        </g>
        <path d="M600.004,776.935L600.004,821.851C600.004,832.817 588.803,841.719 575.006,841.719C561.209,841.719 550.008,832.817 550.008,821.851L550.008,779.209C539.66,774.134 531.473,765.733 527.085,755.533C525.03,756.389 522.76,756.864 520.375,756.864C511.124,756.864 503.614,749.72 503.614,740.921C503.614,732.122 511.124,724.978 520.375,724.978C522.142,724.978 523.847,725.239 525.447,725.722C531.354,706.448 550.392,692.322 572.939,692.322C595.621,692.322 614.752,706.619 620.536,726.072C622.429,725.366 624.49,724.978 626.645,724.978C635.895,724.978 643.405,732.122 643.405,740.921C643.405,749.72 635.895,756.864 626.645,756.864C623.882,756.864 621.275,756.227 618.976,755.099C615.223,764.087 608.531,771.709 600.004,776.935Z" style="fill:white;"/>
        <clipPath id="_clip6">
            <path d="M600.004,776.935L600.004,821.851C600.004,832.817 588.803,841.719 575.006,841.719C561.209,841.719 550.008,832.817 550.008,821.851L550.008,779.209C539.66,774.134 531.473,765.733 527.085,755.533C525.03,756.389 522.76,756.864 520.375,756.864C511.124,756.864 503.614,749.72 503.614,740.921C503.614,732.122 511.124,724.978 520.375,724.978C522.142,724.978 523.847,725.239 525.447,725.722C531.354,706.448 550.392,692.322 572.939,692.322C595.621,692.322 614.752,706.619 620.536,726.072C622.429,725.366 624.49,724.978 626.645,724.978C635.895,724.978 643.405,732.122 643.405,740.921C643.405,749.72 635.895,756.864 626.645,756.864C623.882,756.864 621.275,756.227 618.976,755.099C615.223,764.087 608.531,771.709 600.004,776.935Z"/>
        </clipPath>
        <g clip-path="url(#_clip6)">
            <path d="M549.155,726.3L595.681,726.069C592.934,737.848 589.094,748.5 582.59,756.405C580.661,758.71 577.932,760.202 574.95,760.58C572.733,760.901 570.688,760.71 568.737,760.255C566.177,759.673 563.892,758.239 562.254,756.188C554.889,746.902 550.419,736.723 549.155,726.3Z" style="fill:rgb(25,25,27);"/>
            <path d="M563.606,716.11C563.606,716.11 563.822,715.207 564.104,714.025C564.877,710.788 567.732,708.478 571.059,708.397C571.345,708.39 571.517,708.386 571.517,708.386" style="fill:none;stroke:rgb(25,25,27);stroke-width:4px;"/>
            <ellipse cx="579.712" cy="706.954" rx="1.725" ry="1.621" style="fill:rgb(25,25,27);stroke:rgb(25,25,27);stroke-width:4px;"/>
            <g transform="matrix(1,0,0,1,-21.0446,0)">
                <ellipse cx="579.712" cy="706.954" rx="1.725" ry="1.621" style="fill:rgb(25,25,27);stroke:rgb(25,25,27);stroke-width:4px;"/>
            </g>
            <path d="M570.564,771.859C576.777,773.599 581.27,771.456 584.747,767.021" style="fill:none;stroke:rgb(25,25,27);stroke-width:4px;"/>
            <g transform="matrix(1,0,0,1,0.776676,-1.70016)">
                <path d="M508.442,741.905C513.477,748.125 519.825,748.028 527.427,741.905" style="fill:none;stroke:rgb(25,25,27);stroke-width:4px;"/>
            </g>
            <g transform="matrix(1,0,0,1,110.928,-1.70016)">
                <path d="M508.442,741.905C513.477,748.125 519.825,748.028 527.427,741.905" style="fill:none;stroke:rgb(25,25,27);stroke-width:4px;"/>
            </g>
            <path d="M548.649,804.257C552.785,820.162 563.273,831.536 575.137,844.91L541.34,842.558L548.649,804.257Z" style="fill:rgb(25,25,27);"/>
        </g>
        <g id="Слой2">
            <path d="M579.689,692.675C579.689,692.675 585.222,701.916 594.633,707.645C603.629,713.121 616.506,715.044 617.159,717.167L605.608,696.77L579.689,692.675Z" style="fill:rgb(105,188,163);"/>
        </g>
    </g>
    <g transform="matrix(0.483437,-0.875379,0.875379,0.483437,-278.64,804.906)">
        <path d="M523.317,503.422C537.222,452.147 601.707,442.22 621.246,493.82" style="fill:none;stroke:rgb(62,10,205);stroke-width:15px;"/>
    </g>
    <g id="мужчина">
        <path d="M798.218,1080.62L1055.32,1072.53C1055.32,1072.53 1063.55,1209.13 1066.43,1256.92C1067.08,1267.75 1067.16,1278.62 1066.67,1289.46C1062.87,1372.66 1045.81,1746.39 1045.81,1746.39L1007.05,1752.02C1007.05,1752.02 1044.17,1756.12 1067.71,1758.71C1078.66,1759.92 1087.16,1768.83 1087.85,1779.82C1087.85,1779.82 1087.85,1779.82 1087.85,1779.82L967.845,1781.84C967.845,1781.84 960.002,1744.89 957.217,1731.77C956.573,1728.74 956.125,1725.66 955.876,1722.57C954.311,1703.19 948.379,1629.68 948.379,1629.68C948.379,1629.68 944.662,1542.43 943.939,1525.45C943.858,1523.56 943.746,1521.66 943.602,1519.77C942.902,1510.53 940.73,1481.92 940.73,1481.92C940.73,1481.92 934.773,1533.31 933.049,1548.18C932.74,1550.84 932.516,1553.51 932.375,1556.18C931.572,1571.45 928.748,1625.14 928.748,1625.14C928.748,1625.14 926.635,1681.59 926.034,1697.64C925.929,1700.44 925.58,1703.23 924.989,1705.97C923.256,1714.02 919.374,1732.06 916.901,1743.55C915.436,1750.35 915.23,1757.37 916.292,1764.25C917.529,1772.26 919.029,1781.98 919.029,1781.98L801.26,1781.51C801.26,1781.51 803.003,1775.98 804.657,1770.73C806.407,1765.17 811.438,1761.3 817.256,1761.03C833.895,1760.25 866.14,1758.74 866.14,1758.74L834.736,1753.29L818.059,1660.89C818.059,1660.89 794.668,1381.3 787.579,1296.57C786.24,1280.57 786.098,1264.48 787.155,1248.45C790.551,1196.92 798.218,1080.62 798.218,1080.62Z" style="fill:rgb(62,10,205);"/>
        <clipPath id="_clip7">
            <path d="M798.218,1080.62L1055.32,1072.53C1055.32,1072.53 1063.55,1209.13 1066.43,1256.92C1067.08,1267.75 1067.16,1278.62 1066.67,1289.46C1062.87,1372.66 1045.81,1746.39 1045.81,1746.39L1007.05,1752.02C1007.05,1752.02 1044.17,1756.12 1067.71,1758.71C1078.66,1759.92 1087.16,1768.83 1087.85,1779.82C1087.85,1779.82 1087.85,1779.82 1087.85,1779.82L967.845,1781.84C967.845,1781.84 960.002,1744.89 957.217,1731.77C956.573,1728.74 956.125,1725.66 955.876,1722.57C954.311,1703.19 948.379,1629.68 948.379,1629.68C948.379,1629.68 944.662,1542.43 943.939,1525.45C943.858,1523.56 943.746,1521.66 943.602,1519.77C942.902,1510.53 940.73,1481.92 940.73,1481.92C940.73,1481.92 934.773,1533.31 933.049,1548.18C932.74,1550.84 932.516,1553.51 932.375,1556.18C931.572,1571.45 928.748,1625.14 928.748,1625.14C928.748,1625.14 926.635,1681.59 926.034,1697.64C925.929,1700.44 925.58,1703.23 924.989,1705.97C923.256,1714.02 919.374,1732.06 916.901,1743.55C915.436,1750.35 915.23,1757.37 916.292,1764.25C917.529,1772.26 919.029,1781.98 919.029,1781.98L801.26,1781.51C801.26,1781.51 803.003,1775.98 804.657,1770.73C806.407,1765.17 811.438,1761.3 817.256,1761.03C833.895,1760.25 866.14,1758.74 866.14,1758.74L834.736,1753.29L818.059,1660.89C818.059,1660.89 794.668,1381.3 787.579,1296.57C786.24,1280.57 786.098,1264.48 787.155,1248.45C790.551,1196.92 798.218,1080.62 798.218,1080.62Z"/>
        </clipPath>
        <g clip-path="url(#_clip7)">
            <path d="M902.19,1162.78L937.151,1194.39L977.746,1168.65C977.746,1168.65 976.066,1175.12 973.792,1183.89C965.933,1214.18 968.736,1246.26 981.73,1274.73C982.423,1276.25 983.11,1277.76 983.785,1279.24C991.561,1296.28 994.612,1315.09 992.618,1333.71C991.522,1343.95 990.27,1355.64 989.112,1366.45C986.533,1390.54 987.188,1414.87 991.06,1438.78C994.492,1459.98 998.682,1485.85 1001.42,1502.76C1003.33,1514.55 1002.75,1526.6 999.717,1538.14C996.034,1552.17 990.835,1571.98 986.801,1587.34C982.745,1602.79 980.809,1618.72 981.047,1634.7C981.18,1643.66 981.326,1653.48 981.439,1661.01C981.564,1669.4 980.742,1677.78 978.988,1685.99C975.378,1702.89 969.343,1731.14 969.343,1731.14L1043.59,1744.52L1115.42,1774.56L1052.19,1819.38L779.465,1806L789.52,1762.15L835.859,1751L911.323,1746.39C911.323,1746.39 907.039,1725.57 903.553,1708.61C900.648,1694.49 900.903,1679.9 904.297,1665.88C904.297,1665.88 904.297,1665.88 904.298,1665.88C908.298,1649.37 907.769,1632.08 902.767,1615.85C902.049,1613.51 901.307,1611.11 900.554,1608.66C891.56,1579.47 892.555,1548.11 903.382,1519.54C903.382,1519.54 903.382,1519.54 903.382,1519.54C908.585,1505.81 909.392,1490.81 905.691,1476.6C901.666,1461.15 896.149,1439.97 891.334,1421.48C884.433,1394.99 884.155,1367.21 890.523,1340.58C891.154,1337.94 891.758,1335.42 892.312,1333.1C894.339,1324.63 894.315,1315.8 892.243,1307.34C892.243,1307.34 892.243,1307.34 892.243,1307.34C887.839,1289.36 888.825,1270.48 895.077,1253.05C895.465,1251.97 895.847,1250.9 896.22,1249.86C899.506,1240.71 899.78,1230.74 897.004,1221.41C896.689,1220.36 896.369,1219.28 896.049,1218.2C892.53,1206.39 892.598,1193.79 896.242,1182.01C899.185,1172.5 902.19,1162.78 902.19,1162.78Z"/>
            <path d="M786.456,1082.34L1087.85,1072.53L1072.72,1115.07C1072.72,1115.07 1067.32,1113.49 1059.75,1111.29C1028.43,1102.15 995.841,1098.12 963.238,1099.33C962.783,1099.35 962.33,1099.37 961.88,1099.38C945.442,1100 929.118,1102.38 913.191,1106.5C898.822,1110.21 881.195,1114.76 869.86,1117.69C862.172,1119.68 854.324,1120.98 846.408,1121.6C824.379,1123.3 779.465,1126.77 779.465,1126.77L786.456,1082.34Z"/>
        </g>
        <path d="M717.378,935.038L781.207,949.184L796.318,1084.55L1056.79,1077.02L1069.59,944.031L1134.38,926.042C1134.38,926.042 1127.24,901.813 1121.12,881.027C1115.5,861.942 1104.3,844.978 1088.95,832.319C1087.92,831.474 1086.88,830.615 1085.83,829.746C1054.82,804.172 1016.61,788.9 976.518,786.056C968.872,785.514 961.409,784.985 954.741,784.512C937.458,783.286 920.095,783.838 902.925,786.16C889.686,787.95 872.983,790.208 856.835,792.392C818.883,797.523 783.664,814.964 756.579,842.039C756.134,842.484 755.695,842.923 755.263,843.355C746.956,851.659 740.757,861.83 737.184,873.019C729.764,896.254 717.378,935.038 717.378,935.038Z" style="fill:rgb(255,198,0);"/>
        <clipPath id="_clip8">
            <path d="M717.378,935.038L781.207,949.184L796.318,1084.55L1056.79,1077.02L1069.59,944.031L1134.38,926.042C1134.38,926.042 1127.24,901.813 1121.12,881.027C1115.5,861.942 1104.3,844.978 1088.95,832.319C1087.92,831.474 1086.88,830.615 1085.83,829.746C1054.82,804.172 1016.61,788.9 976.518,786.056C968.872,785.514 961.409,784.985 954.741,784.512C937.458,783.286 920.095,783.838 902.925,786.16C889.686,787.95 872.983,790.208 856.835,792.392C818.883,797.523 783.664,814.964 756.579,842.039C756.134,842.484 755.695,842.923 755.263,843.355C746.956,851.659 740.757,861.83 737.184,873.019C729.764,896.254 717.378,935.038 717.378,935.038Z"/>
        </clipPath>
        <g clip-path="url(#_clip8)">
            <g id="Слой1" transform="matrix(1.04679,0.256102,-0.256102,1.04679,163.951,-321.642)">
                <path d="M1106.4,822.663C1106.4,822.663 1070.75,830.725 1056.25,834.004C1052.79,834.785 1050.43,837.99 1050.72,841.523C1050.74,841.82 1050.76,842.117 1050.79,842.412C1051.06,845.786 1053.76,848.455 1057.13,848.69C1060.09,848.895 1063.7,849.146 1066.83,849.364C1068.13,849.454 1069.26,850.3 1069.71,851.524C1070.16,852.748 1069.84,854.121 1068.91,855.029C1065.76,858.089 1061.81,861.93 1058.8,864.862C1056.09,867.498 1055.51,871.634 1057.38,874.917C1057.58,875.266 1057.78,875.618 1057.98,875.966C1059.82,879.192 1063.55,880.84 1067.17,880.028C1084.45,876.158 1132.49,865.397 1132.49,865.397L1106.4,822.663Z" style="fill:none;stroke:white;stroke-width:3.71px;"/>
            </g>
            <g transform="matrix(0.98987,0.141975,-0.141975,0.98987,152.152,-106.855)">
                <path d="M775.106,993.734C775.106,993.734 831.31,985.81 846.865,983.618C849.318,983.272 851.774,984.224 853.354,986.132C853.427,986.22 853.501,986.309 853.576,986.399C854.831,987.915 855.36,989.904 855.025,991.844C854.689,993.783 853.523,995.479 851.832,996.485C850.514,997.27 849.112,998.104 847.734,998.924C846.369,999.737 845.662,1001.32 845.967,1002.88C846.273,1004.44 847.525,1005.64 849.096,1005.87C854.404,1006.67 860.694,1007.62 865.295,1008.32C869.159,1008.9 872.245,1011.84 873.014,1015.67C873.014,1015.67 873.014,1015.67 873.014,1015.67C873.456,1017.88 873.002,1020.17 871.752,1022.04C870.502,1023.91 868.558,1025.2 866.351,1025.64C843.251,1030.18 780.092,1042.6 780.092,1042.6L775.106,993.734Z" style="fill:none;stroke:white;stroke-width:4px;"/>
            </g>
            <path d="M726.226,870.365C726.226,870.365 788.623,868.372 805.223,867.841C807.784,867.759 810.194,866.614 811.874,864.68C812.752,863.67 813.729,862.545 814.611,861.53C815.322,860.712 815.675,859.642 815.59,858.561C815.504,857.48 814.988,856.479 814.158,855.782C814.157,855.781 814.156,855.781 814.156,855.78C812.932,854.754 812.405,853.117 812.801,851.57C813.197,850.023 814.445,848.84 816.011,848.527C823.784,846.977 835.069,844.725 841.784,843.386C845.218,842.701 847.937,840.077 848.743,836.67C848.743,836.669 848.743,836.669 848.743,836.669C849.895,831.8 846.917,826.91 842.063,825.699C840.474,825.302 838.766,824.876 837.027,824.442C832.987,823.435 829.693,820.52 828.2,816.634C826.707,812.748 827.203,808.377 829.528,804.924C836.389,794.738 844.195,783.148 844.195,783.148L818.491,765.839L726.226,870.365Z" style="fill:none;stroke:white;stroke-width:4px;"/>
            <g transform="matrix(0.990322,-0.138786,0.138786,0.990322,-127.735,148.626)">
                <path d="M1081.66,967.503C1081.66,967.503 1050.55,962.587 1029.85,959.316C1018.77,957.565 1007.65,962.207 1001.11,971.314C1001.1,971.314 1001.1,971.315 1001.1,971.315C995.486,979.13 986.926,984.318 977.399,985.682C963.339,987.694 942.785,990.636 931.463,992.257C926.665,992.943 923.011,996.909 922.719,1001.75C922.719,1001.75 922.719,1001.75 922.719,1001.75C922.34,1008.02 927.084,1013.42 933.351,1013.86C969.389,1016.37 1079.11,1024 1079.11,1024L1081.66,967.503Z" style="fill:none;stroke:white;stroke-width:4px;"/>
            </g>
            <ellipse cx="1006.71" cy="913.735" rx="48.291" ry="21.062" style="fill:none;stroke:white;stroke-width:4px;"/>
            <path d="M760.378,944.073L809.498,892.036L800.075,927.137L832.942,1079.27L1027.09,1073.12L1045.3,927.547L1038.29,878.2L1085.58,939.157L1056.36,1083.68L796.163,1095.7L778.089,949.351L760.378,944.073Z"/>
            <path d="M819.922,800.302C819.922,800.302 819.922,800.302 819.922,800.302C838.835,805.271 858.644,805.776 877.785,801.775C881.937,800.907 884.832,800.302 884.832,800.302L977.468,800.302L1036.85,783.878L961.675,765.474C908.048,757.586 858.612,762.511 819.922,800.302Z"/>
        </g>
        <path d="M1067.41,942.524L1128.5,926.464C1128.5,926.464 1141.47,883.263 1147.89,861.885C1150.07,854.624 1155.89,849.029 1163.23,847.132C1181.29,842.464 1213.69,834.092 1213.69,834.092C1213.69,834.092 1223.39,812.191 1227.04,803.95C1227.89,802.034 1229.67,800.697 1231.75,800.424C1231.92,800.401 1232.1,800.378 1232.28,800.354C1234.31,800.086 1236.34,800.855 1237.69,802.401C1239.03,803.948 1239.52,806.065 1238.97,808.041C1236.22,818.014 1232.13,832.808 1232.13,832.808C1232.13,832.808 1245.69,813.324 1252.43,803.636C1254.51,800.634 1258.58,799.77 1261.7,801.663C1261.7,801.664 1261.71,801.664 1261.71,801.665C1264.93,803.613 1266.07,807.737 1264.31,811.064C1259.4,820.33 1250.46,837.199 1250.46,837.199C1250.46,837.199 1267.66,823.709 1275.79,817.329C1278.16,815.471 1281.55,815.707 1283.64,817.874C1283.68,817.92 1283.73,817.967 1283.77,818.014C1285.96,820.287 1285.91,823.899 1283.66,826.111C1273.69,835.907 1248.17,860.988 1238.88,870.109C1236.64,872.316 1233.8,873.821 1230.71,874.441C1217.42,877.11 1180.71,884.484 1180.71,884.484C1180.71,884.484 1175.26,984.541 1173.1,1024.22C1172.5,1035.29 1168.02,1045.79 1160.43,1053.87C1158.71,1055.64 1157.09,1057.35 1155.5,1058.96C1146.57,1067.83 1133.61,1071.32 1121.42,1068.13C1109.24,1064.94 1099.65,1055.56 1096.2,1043.45C1084.19,1001.45 1067.41,942.524 1067.41,942.524Z" style="fill:rgb(255,107,0);"/>
        <clipPath id="_clip9">
            <path d="M1067.41,942.524L1128.5,926.464C1128.5,926.464 1141.47,883.263 1147.89,861.885C1150.07,854.624 1155.89,849.029 1163.23,847.132C1181.29,842.464 1213.69,834.092 1213.69,834.092C1213.69,834.092 1223.39,812.191 1227.04,803.95C1227.89,802.034 1229.67,800.697 1231.75,800.424C1231.92,800.401 1232.1,800.378 1232.28,800.354C1234.31,800.086 1236.34,800.855 1237.69,802.401C1239.03,803.948 1239.52,806.065 1238.97,808.041C1236.22,818.014 1232.13,832.808 1232.13,832.808C1232.13,832.808 1245.69,813.324 1252.43,803.636C1254.51,800.634 1258.58,799.77 1261.7,801.663C1261.7,801.664 1261.71,801.664 1261.71,801.665C1264.93,803.613 1266.07,807.737 1264.31,811.064C1259.4,820.33 1250.46,837.199 1250.46,837.199C1250.46,837.199 1267.66,823.709 1275.79,817.329C1278.16,815.471 1281.55,815.707 1283.64,817.874C1283.68,817.92 1283.73,817.967 1283.77,818.014C1285.96,820.287 1285.91,823.899 1283.66,826.111C1273.69,835.907 1248.17,860.988 1238.88,870.109C1236.64,872.316 1233.8,873.821 1230.71,874.441C1217.42,877.11 1180.71,884.484 1180.71,884.484C1180.71,884.484 1175.26,984.541 1173.1,1024.22C1172.5,1035.29 1168.02,1045.79 1160.43,1053.87C1158.71,1055.64 1157.09,1057.35 1155.5,1058.96C1146.57,1067.83 1133.61,1071.32 1121.42,1068.13C1109.24,1064.94 1099.65,1055.56 1096.2,1043.45C1084.19,1001.45 1067.41,942.524 1067.41,942.524Z"/>
        </clipPath>
        <g clip-path="url(#_clip9)">
            <path d="M1059,941.666L1072.32,969.592L1124.17,946.803L1130.07,919.169L1059,941.666Z"/>
            <path d="M1122.45,957.596L1113.03,989.465" style="fill:none;stroke:black;stroke-width:4px;"/>
        </g>
        <path d="M723.465,935.915L781.048,947.053L798.331,1084.55C798.331,1084.55 773.546,1089.95 754.098,1094.19C739.998,1097.26 725.35,1092.35 715.951,1081.4C715.951,1081.4 715.951,1081.4 715.951,1081.4C707.973,1072.11 704.452,1059.79 706.31,1047.69C711.883,1011.38 723.465,935.915 723.465,935.915Z" style="fill:rgb(255,107,0);"/>
        <clipPath id="_clip10">
            <path d="M723.465,935.915L781.048,947.053L798.331,1084.55C798.331,1084.55 773.546,1089.95 754.098,1094.19C739.998,1097.26 725.35,1092.35 715.951,1081.4C715.951,1081.4 715.951,1081.4 715.951,1081.4C707.973,1072.11 704.452,1059.79 706.31,1047.69C711.883,1011.38 723.465,935.915 723.465,935.915Z"/>
        </clipPath>
        <g clip-path="url(#_clip10)">
            <path d="M775,941.694L786.456,943.497L805.759,1057.34L768,1070.66L775,941.694Z"/>
        </g>
        <path d="M881.289,649.171C887.438,621.809 906.103,601.891 928.15,601.891C950.36,601.891 969.138,622.105 975.145,649.78C977.531,648.285 980.339,647.422 983.345,647.422C991.988,647.422 999.005,654.559 999.005,663.35C999.005,672.142 991.988,679.279 983.345,679.279C980.976,679.279 978.73,678.743 976.716,677.784C974.98,695.405 968.21,710.862 958.45,721.364L958.45,789.591C973.362,793.593 983.345,800.876 983.345,809.189C983.345,821.809 960.339,832.054 932.002,832.054C903.665,832.054 880.658,821.809 880.658,809.189C880.658,801.434 889.345,794.576 902.618,790.441L902.618,725.898C890.418,715.704 881.731,698.429 879.633,678.274C877.927,678.924 876.08,679.279 874.152,679.279C865.509,679.279 858.492,672.142 858.492,663.35C858.492,654.559 865.509,647.422 874.152,647.422C876.722,647.422 879.148,648.053 881.289,649.171Z" style="fill:rgb(255,107,0);"/>
        <clipPath id="_clip11">
            <path d="M881.289,649.171C887.438,621.809 906.103,601.891 928.15,601.891C950.36,601.891 969.138,622.105 975.145,649.78C977.531,648.285 980.339,647.422 983.345,647.422C991.988,647.422 999.005,654.559 999.005,663.35C999.005,672.142 991.988,679.279 983.345,679.279C980.976,679.279 978.73,678.743 976.716,677.784C974.98,695.405 968.21,710.862 958.45,721.364L958.45,789.591C973.362,793.593 983.345,800.876 983.345,809.189C983.345,821.809 960.339,832.054 932.002,832.054C903.665,832.054 880.658,821.809 880.658,809.189C880.658,801.434 889.345,794.576 902.618,790.441L902.618,725.898C890.418,715.704 881.731,698.429 879.633,678.274C877.927,678.924 876.08,679.279 874.152,679.279C865.509,679.279 858.492,672.142 858.492,663.35C858.492,654.559 865.509,647.422 874.152,647.422C876.722,647.422 879.148,648.053 881.289,649.171Z"/>
        </clipPath>
        <g clip-path="url(#_clip11)">
            <path d="M879.849,645.09L884.704,649.08C884.704,649.08 888.314,641.711 891.806,634.581C896.024,625.97 902.465,618.641 910.462,613.351C910.462,613.351 910.462,613.351 910.462,613.35C913.105,611.602 916.443,611.279 919.372,612.488C919.783,612.657 920.196,612.828 920.599,612.994C923.183,614.061 925.957,614.591 928.753,614.552C928.769,614.552 928.785,614.552 928.802,614.551C931.981,614.507 935.108,613.744 937.95,612.319C937.971,612.308 937.991,612.298 938.012,612.287C941.349,610.613 945.331,610.88 948.415,612.985C948.415,612.985 948.415,612.985 948.415,612.985C953.057,616.154 956.952,620.296 959.829,625.125C965.048,633.884 973.085,647.373 973.085,647.373L979.19,644.11L972.288,617.033L937.62,596.298L901.072,601.322L879.849,645.09Z"/>
            <path d="M875.957,681.53C879.077,678.724 882.606,676.159 884.882,672.294L883.799,682.988L877.285,689.65L875.957,681.53Z"/>
            <path d="M973.478,671.932L976.418,677.474L981.439,682.691L976.905,688.913C976.905,688.913 976.447,688.017 975.832,686.812C973.741,682.717 972.87,678.109 973.32,673.534C973.414,672.586 973.478,671.932 973.478,671.932Z"/>
            <path d="M925.876,632.314L925.876,648.929C925.876,648.929 921.372,649.266 918.43,649.486C916.969,649.595 915.768,650.681 915.514,652.124C915.512,652.133 915.51,652.142 915.509,652.151C915.337,653.125 915.592,654.127 916.21,654.9C916.827,655.673 917.747,656.144 918.736,656.192C921.995,656.351 926.109,656.551 926.109,656.551" style="fill:none;stroke:black;stroke-width:4px;"/>
            <path d="M899.475,644.094C899.475,644.094 899.042,637.63 907.446,637.843C915.365,638.044 914.913,643.766 914.913,643.766" style="fill:none;stroke:black;stroke-width:4px;"/>
            <g transform="matrix(1,0,0,1,39.6563,0)">
                <path d="M899.475,644.094C899.475,644.094 899.042,637.63 907.446,637.843C915.365,638.044 914.913,643.766 914.913,643.766" style="fill:none;stroke:black;stroke-width:4px;"/>
            </g>
            <path d="M899.819,659.172C899.819,659.172 915.276,676.863 928.748,675.73C942.22,674.596 957.86,657.692 957.86,657.692" style="fill:none;stroke:black;stroke-width:4px;"/>
            <path d="M927.253,684.047L942.038,680.061" style="fill:none;stroke:black;stroke-width:4px;"/>
            <path d="M865.572,663.327C865.572,663.327 866.934,657.634 872.86,655.952C878.787,654.27 883.409,661.209 883.409,661.209" style="fill:none;stroke:black;stroke-width:4px;"/>
            <g transform="matrix(-1,0,0,1,1858.66,0)">
                <path d="M865.572,663.327C865.572,663.327 866.934,657.634 872.86,655.952C878.787,654.27 883.409,661.209 883.409,661.209" style="fill:none;stroke:black;stroke-width:4px;"/>
            </g>
            <path d="M961.11,719.946C951.924,724.831 942.78,728.761 933.712,730.978L964.316,742.172L961.11,719.946Z"/>
            <path d="M958.412,789.72L959.246,801.344L985.483,805.956L970.071,789.267L958.412,789.72Z"/>
            <path d="M902.757,790.279L899.526,811.306C899.526,811.306 874.102,811.381 873.563,811.836C873.024,812.291 876.632,795.138 876.632,795.138L902.757,790.279Z"/>
        </g>
    </g>
</svg>
