<?xml version="1.0" encoding="UTF-8" standalone="no"?>
<!DOCTYPE svg PUBLIC "-//W3C//DTD SVG 1.1//EN" "http://www.w3.org/Graphics/SVG/1.1/DTD/svg11.dtd">
<svg width="100%" height="100%" viewBox="0 0 1536 2048" version="1.1" xmlns="http://www.w3.org/2000/svg" xmlns:xlink="http://www.w3.org/1999/xlink" xml:space="preserve" xmlns:serif="http://www.serif.com/" style="fill-rule:evenodd;clip-rule:evenodd;stroke-linecap:round;stroke-linejoin:round;stroke-miterlimit:1.5;">
    <g transform="matrix(1.64355,0,0,1.64355,-288.194,-206.51)">
        <g transform="matrix(0.747727,-0.282045,0.282045,0.747727,14.4972,294.796)">
            <path d="M411.808,567.853L411.808,567.853L411.808,850.674L411.808,850.674L411.808,1188.63C309.055,1188.63 225.757,1104.54 225.757,1000.8C225.757,931.599 262.823,871.139 318.004,838.551C321.306,836.641 323.428,833.202 323.655,829.395C323.883,825.588 322.184,821.92 319.134,819.631C283.066,792.264 259.828,749.299 259.828,700.989C259.828,642.472 293.921,591.798 343.61,567.183C347.264,565.384 349.683,561.776 349.958,557.713C350.234,553.649 348.324,549.747 344.947,547.471C313.649,526.524 293.143,491.19 293.143,451.146C293.143,386.69 346.271,334.438 411.808,334.438L411.808,567.853Z" style="fill:rgb(62,10,205);"/>
            <g transform="matrix(1,0,0,0.878243,-10.5549,143.365)">
                <path d="M411.808,334.438L411.808,1410.72" style="fill:none;stroke:rgb(62,10,205);stroke-width:16.18px;"/>
            </g>
        </g>
        <g transform="matrix(0.851825,-0.0659644,0.0659644,0.851825,297.223,117.597)">
            <path d="M411.808,567.853L411.808,567.853L411.808,850.674L411.808,850.674L411.808,1188.63C309.055,1188.63 225.757,1104.54 225.757,1000.8C225.757,931.225 263.225,870.485 318.901,838.025C322.022,836.244 324.032,833.006 324.243,829.419C324.454,825.832 322.839,822.381 319.949,820.245C283.416,792.91 259.828,749.662 259.828,700.989C259.828,642.049 294.416,591.065 344.691,566.653C348.151,564.979 350.444,561.574 350.696,557.739C350.947,553.904 349.119,550.229 345.908,548.116C314.072,527.248 293.143,491.601 293.143,451.146C293.143,386.69 346.271,334.438 411.808,334.438L411.808,567.853Z" style="fill:rgb(139,196,64);"/>
            <g transform="matrix(1,0,0,0.878243,-10.5549,143.365)">
                <path d="M411.808,334.438L411.808,1410.72" style="fill:none;stroke:rgb(139,196,64);stroke-width:15.13px;"/>
            </g>
        </g>
        <g transform="matrix(-0.651382,-0.221272,-0.221272,0.651382,1271.64,426.162)">
            <path d="M411.808,567.853L411.808,567.853L411.808,850.674L411.808,850.674L411.808,1188.63C309.055,1188.63 225.757,1104.54 225.757,1000.8C225.757,932.507 261.856,872.728 315.84,839.849C319.576,837.616 321.969,833.683 322.236,829.339C322.504,824.995 320.611,820.799 317.177,818.125C282.228,790.699 259.828,748.42 259.828,700.989C259.828,643.482 292.754,593.55 341.05,568.482C345.161,566.364 347.873,562.258 348.204,557.646C348.536,553.033 346.441,548.581 342.675,545.898C312.657,524.79 293.143,490.209 293.143,451.146C293.143,386.69 346.271,334.438 411.808,334.438L411.808,567.853Z" style="fill:rgb(255,198,0);stroke:rgb(255,198,0);stroke-width:3.54px;"/>
            <g transform="matrix(1,0,0,0.878243,-10.5549,143.365)">
                <path d="M411.808,334.438L411.808,1410.72" style="fill:none;stroke:rgb(255,198,0);stroke-width:18.8px;"/>
            </g>
        </g>
    </g>
    <g>
        <path d="M824.327,820.693L887.915,790.311C887.915,790.311 924.302,905.57 926.39,912.184C926.62,912.912 926.838,913.645 927.043,914.381C932.19,933.062 932.944,949.964 930.594,965.619C929.782,971.072 928.346,976.414 926.315,981.54C916.213,1007.35 870.249,1123.35 870.249,1123.35L830.68,1051.55C830.68,1051.55 839.677,991.958 844.765,958.257C846.999,943.464 845.466,928.347 840.309,914.304C836.335,903.481 832.344,892.611 832.344,892.611L824.327,820.693Z" style="fill:rgb(255,107,0);"/>
        <clipPath id="_clip1">
            <path d="M824.327,820.693L887.915,790.311C887.915,790.311 924.302,905.57 926.39,912.184C926.62,912.912 926.838,913.645 927.043,914.381C932.19,933.062 932.944,949.964 930.594,965.619C929.782,971.072 928.346,976.414 926.315,981.54C916.213,1007.35 870.249,1123.35 870.249,1123.35L830.68,1051.55C830.68,1051.55 839.677,991.958 844.765,958.257C846.999,943.464 845.466,928.347 840.309,914.304C836.335,903.481 832.344,892.611 832.344,892.611L824.327,820.693Z"/>
        </clipPath>
        <g clip-path="url(#_clip1)">
            <path d="M824.327,820.833L851.79,807.844L839.007,912.729L813.089,840.971L824.327,820.833Z"/>
        </g>
        <path d="M555.994,1089.32L850.104,1018.38C850.104,1018.38 858.382,1029.16 866.671,1039.97C877.597,1054.2 884.894,1070.88 887.935,1088.57C887.935,1088.57 887.935,1088.57 887.935,1088.57C890.844,1105.49 889.693,1122.86 884.577,1139.24C880.69,1151.69 876.805,1164.14 876.805,1164.14C876.805,1164.14 913.477,1264 932.668,1316.27C940.24,1336.88 945.071,1358.41 947.037,1380.29C949.423,1406.83 952.727,1443.6 954.907,1467.85C956.418,1484.67 956.69,1501.57 955.721,1518.42C952.588,1572.88 945.282,1699.91 942.668,1745.36C942.035,1756.36 942.447,1767.39 943.899,1778.31C947.571,1805.93 954.585,1858.69 954.585,1858.69L922.821,1883.17C922.821,1883.17 948.805,1886.84 967.666,1889.51C979.578,1891.19 989.755,1898.95 994.525,1910C994.525,1910 994.526,1910 994.526,1910L835.882,1906.06C835.882,1906.06 813.865,1818.32 800.343,1764.42C793.504,1737.17 790.812,1709.04 792.357,1680.98C793.772,1655.29 795.594,1622.22 797.121,1594.5C799.134,1557.95 795.617,1521.3 786.69,1485.81C770.441,1421.19 745.276,1321.12 745.276,1321.12C745.276,1321.12 733.652,1418.28 728.062,1465C726.109,1481.33 725.362,1497.78 725.829,1514.22C727.009,1555.78 729.401,1639.99 730.808,1689.54C731.541,1715.35 735.446,1740.96 742.434,1765.82C753.087,1803.7 768,1856.73 768,1856.73L715.957,1875.64C715.957,1875.64 739.57,1878.84 754.985,1880.93C763.329,1882.06 770.901,1886.41 776.083,1893.04C780.559,1898.78 785.227,1904.76 785.227,1904.76L629.164,1898.76C629.164,1898.76 596.311,1748.21 579.093,1669.31C572.276,1638.08 568.915,1606.18 569.071,1574.21C569.196,1548.44 569.346,1517.54 569.454,1495.47C569.547,1476.22 567.813,1457.01 564.274,1438.09C563.679,1434.91 563.065,1431.63 562.446,1428.33C557.169,1400.11 554.585,1371.47 554.728,1342.77C555.139,1260.5 555.994,1089.32 555.994,1089.32Z" style="fill:rgb(62,10,205);"/>
        <clipPath id="_clip2">
            <path d="M555.994,1089.32L850.104,1018.38C850.104,1018.38 858.382,1029.16 866.671,1039.97C877.597,1054.2 884.894,1070.88 887.935,1088.57C887.935,1088.57 887.935,1088.57 887.935,1088.57C890.844,1105.49 889.693,1122.86 884.577,1139.24C880.69,1151.69 876.805,1164.14 876.805,1164.14C876.805,1164.14 913.477,1264 932.668,1316.27C940.24,1336.88 945.071,1358.41 947.037,1380.29C949.423,1406.83 952.727,1443.6 954.907,1467.85C956.418,1484.67 956.69,1501.57 955.721,1518.42C952.588,1572.88 945.282,1699.91 942.668,1745.36C942.035,1756.36 942.447,1767.39 943.899,1778.31C947.571,1805.93 954.585,1858.69 954.585,1858.69L922.821,1883.17C922.821,1883.17 948.805,1886.84 967.666,1889.51C979.578,1891.19 989.755,1898.95 994.525,1910C994.525,1910 994.526,1910 994.526,1910L835.882,1906.06C835.882,1906.06 813.865,1818.32 800.343,1764.42C793.504,1737.17 790.812,1709.04 792.357,1680.98C793.772,1655.29 795.594,1622.22 797.121,1594.5C799.134,1557.95 795.617,1521.3 786.69,1485.81C770.441,1421.19 745.276,1321.12 745.276,1321.12C745.276,1321.12 733.652,1418.28 728.062,1465C726.109,1481.33 725.362,1497.78 725.829,1514.22C727.009,1555.78 729.401,1639.99 730.808,1689.54C731.541,1715.35 735.446,1740.96 742.434,1765.82C753.087,1803.7 768,1856.73 768,1856.73L715.957,1875.64C715.957,1875.64 739.57,1878.84 754.985,1880.93C763.329,1882.06 770.901,1886.41 776.083,1893.04C780.559,1898.78 785.227,1904.76 785.227,1904.76L629.164,1898.76C629.164,1898.76 596.311,1748.21 579.093,1669.31C572.276,1638.08 568.915,1606.18 569.071,1574.21C569.196,1548.44 569.346,1517.54 569.454,1495.47C569.547,1476.22 567.813,1457.01 564.274,1438.09C563.679,1434.91 563.065,1431.63 562.446,1428.33C557.169,1400.11 554.585,1371.47 554.728,1342.77C555.139,1260.5 555.994,1089.32 555.994,1089.32Z"/>
        </clipPath>
        <g clip-path="url(#_clip2)">
            <path d="M529.142,1084.86L534.59,1219.76C534.59,1219.76 549.473,1203.99 563.346,1189.29C578.705,1173.01 598.127,1161.13 619.61,1154.86C623.731,1153.66 627.719,1152.49 631.206,1151.48C639.073,1149.18 646.185,1144.83 651.807,1138.87C652.909,1137.7 654.084,1136.45 655.315,1135.15C677.602,1111.51 707.657,1096.7 739.975,1093.42C739.975,1093.42 739.975,1093.42 739.976,1093.42C750.221,1092.38 760.138,1089.21 769.09,1084.12C778.068,1079.01 790.336,1072.04 802.229,1065.27C828.082,1050.57 857.21,1042.6 886.945,1042.07C886.945,1042.07 886.946,1042.07 886.946,1042.07L876.96,992.39L529.142,1084.86Z"/>
            <path d="M745.052,1320.96L761.837,1209.81L802.9,1273.85C802.9,1273.85 819.084,1301.95 833.388,1326.78C847.407,1351.12 854.166,1378.97 852.864,1407.03C852.239,1420.5 851.578,1434.76 851.061,1445.91C850.431,1459.49 851.492,1473.08 854.218,1486.4C856.574,1497.9 859.523,1512.31 861.882,1523.83C864.599,1537.09 864.46,1550.79 861.474,1564C855.11,1592.16 843.466,1643.68 835.999,1676.72C831.421,1696.97 831.443,1717.99 836.064,1738.24C836.966,1742.19 837.838,1746.01 838.595,1749.33C840.255,1756.6 841.054,1764.05 840.976,1771.51C840.666,1801.14 839.851,1879.19 839.851,1879.19L959.722,1857.21C959.722,1857.21 1034.89,1923.54 1029.4,1927.82C1023.92,1932.09 826.9,1949.36 826.9,1949.36L611.905,1893.68L781.74,1852.84L745.052,1320.96Z" style="fill:rgb(25,25,27);"/>
            <path d="M886.946,1157.47L858.173,1176.96L897.639,1209.81L886.946,1157.47Z" style="fill:rgb(25,25,27);"/>
            <path d="M554.722,1255.8C554.722,1255.8 567.9,1305.24 576.652,1338.09C581.643,1356.81 581.788,1376.5 577.073,1395.3C568.329,1430.17 554.722,1484.42 554.722,1484.42C554.722,1484.42 576.225,1524.12 592.859,1554.83C605.359,1577.91 611.905,1603.74 611.905,1629.99L611.905,1649.77C611.905,1686.93 602.732,1723.52 585.199,1756.29C579.533,1766.88 574.748,1775.28 573.076,1776.78C554.437,1793.49 513.363,1281.04 554.722,1255.8Z"/>
        </g>
        <path d="M481.784,879.535C481.784,879.535 478.159,858.825 474.401,837.361C469.144,807.33 476.494,776.46 494.72,752.021C501.567,742.839 508.805,733.134 515.401,724.29C530.767,703.685 552.184,688.393 576.661,680.547C603.415,671.972 639.127,660.526 665.449,652.089C688.694,644.639 713.696,644.708 736.898,652.287C751.861,657.174 769.484,662.93 785.559,668.181C816.551,678.304 842.893,699.192 859.814,727.061C876.861,755.138 895.935,786.552 895.935,786.552L824.351,820.685L854.495,1024L554.722,1089.32L508.239,886.494L481.784,879.535Z" style="fill:rgb(255,198,0);"/>
        <clipPath id="_clip3">
            <path d="M481.784,879.535C481.784,879.535 478.159,858.825 474.401,837.361C469.144,807.33 476.494,776.46 494.72,752.021C501.567,742.839 508.805,733.134 515.401,724.29C530.767,703.685 552.184,688.393 576.661,680.547C603.415,671.972 639.127,660.526 665.449,652.089C688.694,644.639 713.696,644.708 736.898,652.287C751.861,657.174 769.484,662.93 785.559,668.181C816.551,678.304 842.893,699.192 859.814,727.061C876.861,755.138 895.935,786.552 895.935,786.552L824.351,820.685L854.495,1024L554.722,1089.32L508.239,886.494L481.784,879.535Z"/>
        </clipPath>
        <g clip-path="url(#_clip3)">
            <path d="M451.364,799.331C451.364,799.331 495.741,779.438 512.628,771.868C514.208,771.16 516.021,771.195 517.571,771.965C519.121,772.734 520.246,774.156 520.637,775.842C520.637,775.843 520.637,775.843 520.637,775.843C521.05,777.623 522.177,779.155 523.753,780.08C525.329,781.005 527.216,781.242 528.971,780.735C544.799,776.161 582.988,765.126 582.988,765.126L598.833,789.844L463.204,860.898L451.364,799.331Z" style="fill:none;stroke:white;stroke-width:4px;"/>
            <path d="M827.987,674.543C827.987,674.543 819.521,686.284 813.35,694.843C809.234,700.551 806.977,707.388 806.884,714.425C806.871,715.394 806.858,716.375 806.846,717.343C806.753,724.405 804.716,731.304 800.96,737.284C799.397,739.771 797.704,742.466 796.138,744.959C792.721,750.399 793.437,757.465 797.876,762.109C797.876,762.109 797.877,762.11 797.877,762.11C803.139,767.615 811.847,767.872 817.424,762.686C835.472,745.905 871.491,712.413 871.491,712.413L827.987,674.543Z" style="fill:none;stroke:white;stroke-width:4px;"/>
            <path d="M619.778,800.552C619.778,800.552 709.066,785.434 732.363,781.49C735.604,780.941 738.805,782.654 740.147,785.655C740.147,785.656 740.147,785.657 740.148,785.658C741.012,787.591 741.062,789.791 740.286,791.762C739.509,793.732 737.973,795.307 736.022,796.132C731.53,798.03 726.103,800.324 723.095,801.596C721.636,802.213 720.501,803.411 719.965,804.902C719.965,804.902 719.964,804.902 719.964,804.903C719.296,806.759 719.574,808.824 720.708,810.438C721.843,812.052 723.692,813.012 725.664,813.012C736.073,813.012 753.293,813.012 762.225,813.012C765.774,813.012 769.027,814.988 770.663,818.136C770.71,818.226 770.757,818.317 770.805,818.408C772.186,821.066 772.292,824.205 771.094,826.949C769.895,829.694 767.521,831.75 764.633,832.544C728.396,842.502 621.363,871.917 621.363,871.917L619.778,800.552Z" style="fill:none;stroke:white;stroke-width:4px;"/>
            <path d="M844.475,849.077C844.475,849.077 824.597,853.417 808.929,856.837C797.064,859.427 786.808,866.828 780.611,877.273C780.611,877.273 780.611,877.273 780.61,877.273C777.92,881.808 773.81,885.33 768.916,887.295C759.859,890.93 745.027,896.884 738.095,899.666C735.693,900.63 733.848,902.618 733.065,905.085C733.065,905.086 733.065,905.087 733.064,905.088C731.904,908.745 732.697,912.742 735.165,915.679C737.634,918.616 741.434,920.084 745.236,919.57C756.671,918.023 771.172,916.062 780.595,914.788C786.76,913.954 792.976,915.908 797.554,920.12C797.554,920.12 797.554,920.12 797.555,920.12C802.17,924.366 808.425,926.356 814.646,925.557C830.739,923.491 860.976,919.609 860.976,919.609L844.475,849.077Z" style="fill:none;stroke:white;stroke-width:4px;"/>
            <path d="M496.992,1007.4C496.992,1007.4 593.235,979.324 649.151,963.014C673.735,955.842 700.26,960.595 720.826,975.855C720.826,975.855 720.826,975.855 720.826,975.856C725.383,979.237 730.509,981.774 735.962,983.346C745.361,986.057 761.29,990.651 775.693,994.805C795.214,1000.43 810.445,1015.74 815.979,1035.29C815.979,1035.29 815.98,1035.29 815.98,1035.29L501.344,1116.65L496.992,1007.4Z" style="fill:none;stroke:white;stroke-width:4px;"/>
            <path d="M465.798,893.539L516.844,835.291L558.046,711.439L577.075,829.969L465.798,893.539Z"/>
            <path d="M504.738,711.872C504.738,711.872 504.738,711.873 504.739,711.873C517.054,721.949 534.075,724.022 548.449,717.196C567.189,708.297 590.292,697.326 590.292,697.326L590.013,653.032L504.738,711.872Z"/>
            <path d="M824.742,820.769L817.814,751.815L851.703,808.11L824.742,820.769Z"/>
        </g>
        <path d="M579.79,514.717C579.371,475.684 598.682,442.831 628.444,436.614C660.714,429.873 694.26,456.746 707.807,498.073C709.734,497.458 711.786,497.126 713.915,497.126C725.101,497.126 734.182,506.289 734.182,517.576C734.182,528.863 725.101,538.027 713.915,538.027L713.896,538.027C713.405,565.43 703.137,589.438 686.394,602.769L688.795,650.255C702.29,651.35 711.619,655.468 713.393,662.268C716.802,675.338 691.02,693.396 655.854,702.57C620.688,711.743 589.37,708.58 585.961,695.51C583.613,686.51 595.109,675.143 613.981,665.942L610.278,592.685C601.637,583.83 594.258,572.556 588.911,559.556C586.1,560.703 583.016,561.337 579.783,561.337C566.654,561.337 555.994,550.892 555.994,538.027C555.994,525.162 566.654,514.717 579.783,514.717L579.79,514.717Z" style="fill:rgb(255,107,0);"/>
        <clipPath id="_clip4">
            <path d="M579.79,514.717C579.371,475.684 598.682,442.831 628.444,436.614C660.714,429.873 694.26,456.746 707.807,498.073C709.734,497.458 711.786,497.126 713.915,497.126C725.101,497.126 734.182,506.289 734.182,517.576C734.182,528.863 725.101,538.027 713.915,538.027L713.896,538.027C713.405,565.43 703.137,589.438 686.394,602.769L688.795,650.255C702.29,651.35 711.619,655.468 713.393,662.268C716.802,675.338 691.02,693.396 655.854,702.57C620.688,711.743 589.37,708.58 585.961,695.51C583.613,686.51 595.109,675.143 613.981,665.942L610.278,592.685C601.637,583.83 594.258,572.556 588.911,559.556C586.1,560.703 583.016,561.337 579.783,561.337C566.654,561.337 555.994,550.892 555.994,538.027C555.994,525.162 566.654,514.717 579.783,514.717L579.79,514.717Z"/>
        </clipPath>
        <g clip-path="url(#_clip4)">
            <path d="M580.157,514.071C588.479,514.232 594.93,519.95 601.136,526.398C601.136,526.398 602.453,520.92 603.4,516.982C604.027,514.374 605.032,511.871 606.384,509.554C606.643,509.11 606.915,508.644 607.194,508.166C610.037,503.295 611.193,497.622 610.485,492.027C610.244,490.124 609.987,488.092 609.739,486.136C608.911,479.599 610.416,472.981 613.987,467.444C613.987,467.444 613.988,467.444 613.988,467.444C619.105,459.511 628.538,455.494 637.803,457.301C641.256,457.975 644.778,458.662 647.759,459.243C652.721,460.211 657.866,459.272 662.166,456.612C662.167,456.612 662.167,456.612 662.167,456.612C666.302,454.054 671.59,454.326 675.44,457.296C691.437,469.588 701.128,481.509 707.424,499.442C714.071,477.375 708.673,448.189 675.113,432.706L631.59,423.853L585.588,450.008C581.425,470.089 576.084,489.532 580.157,514.071Z" style="fill:rgb(25,25,27);"/>
            <path d="M611.022,619.756L658.534,614.152C658.534,614.152 658.723,614.431 659.033,614.887C662.256,619.629 662.548,625.778 659.79,630.804C658.265,633.582 656.732,636.375 655.875,637.937C655.462,638.688 655.588,639.621 656.184,640.236C656.184,640.237 656.185,640.237 656.185,640.238C659.96,644.138 661.186,649.847 659.344,654.953C657.695,659.525 655.757,664.897 654.604,668.094C653.969,669.855 654.23,671.815 655.303,673.349C655.303,673.35 655.304,673.35 655.304,673.35C658.138,677.4 658.44,682.703 656.084,687.048C651.732,695.075 645.241,707.048 645.241,707.048L604.348,673.79L611.022,619.756Z"/>
            <path d="M688.793,647.671L689.187,667.482L707.46,654.048L688.793,647.671Z"/>
            <path d="M664.285,610.039L692.984,600.538L694.56,619.252L664.285,610.039Z"/>
            <path d="M627.622,550.4C640.052,556.962 652.341,560.244 666.235,560.096L664.285,584.651C664.285,584.651 652.9,581.139 645.38,578.82C640.516,577.32 636.363,574.101 633.697,569.764C630.116,563.971 627.833,557.627 627.622,550.4Z"/>
            <path d="M674.068,505.782L688.793,497.014" style="fill:none;stroke:black;stroke-width:4px;"/>
            <path d="M618.441,516.394L633.01,505.782" style="fill:none;stroke:black;stroke-width:4px;"/>
            <path d="M666.235,501.398L668.622,539.363" style="fill:none;stroke:black;stroke-width:4px;"/>
            <path d="M668.622,539.363L678.621,539.363C680.279,539.363 681.731,540.475 682.163,542.075C682.163,542.075 682.163,542.076 682.163,542.076C682.417,543.017 682.269,544.021 681.755,544.848C681.241,545.676 680.406,546.253 679.45,546.442C673.96,547.527 664.285,549.441 664.285,549.441" style="fill:none;stroke:black;stroke-width:4px;"/>
            <path d="M676.423,519.976C676.423,519.976 676.974,518.786 677.539,517.565C678.311,515.899 679.723,514.615 681.455,514.004C681.455,514.004 681.456,514.004 681.456,514.004C684.125,513.063 687.091,513.588 689.276,515.387C689.851,515.86 690.263,516.2 690.263,516.2" style="fill:none;stroke:black;stroke-width:4px;"/>
            <g transform="matrix(1.29272,0,0,1.56142,-245.911,-280.233)">
                <path d="M676.423,519.976C676.423,519.976 677.237,518.218 677.902,516.783C678.441,515.617 679.53,514.683 680.917,514.194C680.917,514.194 680.918,514.194 680.918,514.194C683.843,513.163 687.23,513.703 689.484,515.558C689.948,515.94 690.263,516.2 690.263,516.2" style="fill:none;stroke:black;stroke-width:2.79px;"/>
            </g>
            <g transform="matrix(0.861152,0.508347,-0.508347,0.861152,219.825,-283.239)">
                <path d="M720.067,534.03C720.067,534.03 720.067,534.029 720.067,534.029C716.858,530.43 716.067,525.28 718.047,520.885C720.028,516.489 724.41,513.67 729.231,513.69C730.166,513.693 730.707,513.696 730.707,513.696" style="fill:none;stroke:black;stroke-width:4px;"/>
            </g>
            <path d="M712.379,528.108C712.379,528.108 712.924,525.175 713.511,522.02C714.391,517.288 717.726,513.384 722.263,511.776C723.629,511.292 724.637,510.935 724.637,510.935" style="fill:none;stroke:black;stroke-width:4px;"/>
            <g id="Слой1">
                <path d="M661.095,598.709L645.088,596.928" style="fill:none;stroke:black;stroke-width:4px;"/>
            </g>
        </g>
        <g transform="matrix(0.710314,-0.299221,0.299973,0.712099,1.06367,323.646)">
            <path d="M622.648,543.727C622.648,542.697 622.238,541.71 621.508,540.982C620.778,540.254 619.788,539.844 618.756,539.844L568.489,539.844C567.456,539.844 566.466,540.254 565.737,540.982C565.007,541.71 564.597,542.697 564.597,543.727L564.597,653.069L622.648,653.069L622.648,543.727Z" style="fill:rgb(25,25,27);"/>
            <clipPath id="_clip5">
                <path d="M622.648,543.727C622.648,542.697 622.238,541.71 621.508,540.982C620.778,540.254 619.788,539.844 618.756,539.844L568.489,539.844C567.456,539.844 566.466,540.254 565.737,540.982C565.007,541.71 564.597,542.697 564.597,543.727L564.597,653.069L622.648,653.069L622.648,543.727Z"/>
            </clipPath>
            <g clip-path="url(#_clip5)">
                <g transform="matrix(1.29726,0.0201301,-0.0201807,1.294,-178.711,-165.602)">
                    <path d="M590.295,541.229C590.295,540.465 589.674,539.844 588.91,539.844L586.141,539.844C585.377,539.844 584.756,540.465 584.756,541.229L584.756,550.475C584.756,551.24 585.377,551.86 586.141,551.86L588.91,551.86C589.674,551.86 590.295,551.24 590.295,550.475L590.295,541.229Z" style="fill:white;"/>
                </g>
                <g transform="matrix(1.32683,0.557527,-0.503672,1.19266,85.7481,-420.207)">
                    <ellipse cx="573.335" cy="544.233" rx="1.504" ry="1.603"/>
                </g>
            </g>
        </g>
        <path d="M485.128,877.326L548.682,822.563L552.611,691.742C552.611,691.742 547.804,643.426 545.831,623.597C545.294,618.204 546.635,612.79 549.626,608.269C559.831,592.847 584.091,556.185 593.179,542.451C594.082,541.087 595.516,540.167 597.132,539.914C598.748,539.662 600.395,540.101 601.67,541.125C601.726,541.169 601.782,541.214 601.837,541.259C603.966,542.967 604.606,545.933 603.371,548.367C598.63,557.713 587.58,579.5 587.58,579.5C587.58,579.5 613.714,555.105 621.454,547.88C622.784,546.638 624.655,546.158 626.419,546.606C626.42,546.606 626.421,546.606 626.422,546.606C628.125,547.039 629.521,548.257 630.18,549.887C630.839,551.517 630.683,553.363 629.759,554.858C620.862,569.254 600.046,602.934 600.046,602.934C600.046,602.934 634.365,588.557 644.293,584.398C645.984,583.69 647.898,583.743 649.547,584.545C649.555,584.549 649.563,584.553 649.572,584.557C651.804,585.642 653.254,587.871 653.34,590.352C653.426,592.832 652.134,595.157 649.982,596.394C635.317,604.823 611.148,618.714 611.148,618.714C611.148,618.714 641.774,612.37 652.028,610.246C654.051,609.827 656.137,610.587 657.416,612.209C657.416,612.209 657.416,612.21 657.416,612.21C658.387,613.442 658.751,615.046 658.407,616.576C658.062,618.106 657.046,619.399 655.64,620.095C642.757,626.478 612.69,641.376 612.69,641.376C612.69,641.376 613.167,645.725 613.579,649.484C613.972,653.061 613.954,656.67 613.528,660.243C612.426,669.475 610.292,687.361 610.292,687.361C610.292,687.361 634.026,838.421 644.138,902.781C646.866,920.143 639.232,937.505 624.594,947.232C624.593,947.232 624.593,947.232 624.592,947.233C595.485,966.574 556.516,961.109 533.851,934.509C510.346,906.923 485.128,877.326 485.128,877.326Z" style="fill:rgb(255,107,0);"/>
        <clipPath id="_clip6">
            <path d="M485.128,877.326L548.682,822.563L552.611,691.742C552.611,691.742 547.804,643.426 545.831,623.597C545.294,618.204 546.635,612.79 549.626,608.269C559.831,592.847 584.091,556.185 593.179,542.451C594.082,541.087 595.516,540.167 597.132,539.914C598.748,539.662 600.395,540.101 601.67,541.125C601.726,541.169 601.782,541.214 601.837,541.259C603.966,542.967 604.606,545.933 603.371,548.367C598.63,557.713 587.58,579.5 587.58,579.5C587.58,579.5 613.714,555.105 621.454,547.88C622.784,546.638 624.655,546.158 626.419,546.606C626.42,546.606 626.421,546.606 626.422,546.606C628.125,547.039 629.521,548.257 630.18,549.887C630.839,551.517 630.683,553.363 629.759,554.858C620.862,569.254 600.046,602.934 600.046,602.934C600.046,602.934 634.365,588.557 644.293,584.398C645.984,583.69 647.898,583.743 649.547,584.545C649.555,584.549 649.563,584.553 649.572,584.557C651.804,585.642 653.254,587.871 653.34,590.352C653.426,592.832 652.134,595.157 649.982,596.394C635.317,604.823 611.148,618.714 611.148,618.714C611.148,618.714 641.774,612.37 652.028,610.246C654.051,609.827 656.137,610.587 657.416,612.209C657.416,612.209 657.416,612.21 657.416,612.21C658.387,613.442 658.751,615.046 658.407,616.576C658.062,618.106 657.046,619.399 655.64,620.095C642.757,626.478 612.69,641.376 612.69,641.376C612.69,641.376 613.167,645.725 613.579,649.484C613.972,653.061 613.954,656.67 613.528,660.243C612.426,669.475 610.292,687.361 610.292,687.361C610.292,687.361 634.026,838.421 644.138,902.781C646.866,920.143 639.232,937.505 624.594,947.232C624.593,947.232 624.593,947.232 624.592,947.233C595.485,966.574 556.516,961.109 533.851,934.509C510.346,906.923 485.128,877.326 485.128,877.326Z"/>
        </clipPath>
        <g clip-path="url(#_clip6)">
            <path d="M479.096,882.867L489.194,866.99L548.683,822.563L544.414,897.563L479.096,882.867Z"/>
        </g>
    </g>
</svg>
