<svg width="47" height="47" viewBox="0 0 47 47" fill="none" xmlns="http://www.w3.org/2000/svg">
<circle cx="23.5" cy="23.5" r="23.5" fill="#2C7040"/>
<path d="M23.5 47C10.5 47 0 36.5 0 23.5C0 10.5 10.5 0 23.5 0C36.5 0 47 10.5 47 23.5C47 36.5 36.5 47 23.5 47ZM23.5 2C11.6 2 2 11.6 2 23.5C2 35.4 11.6 45 23.5 45C35.4 45 45 35.4 45 23.5C45 11.6 35.4 2 23.5 2Z" fill="#2C7040"/>
<path d="M36.5 24.5H7.5C6.9 24.5 6.5 24.1 6.5 23.5C6.5 22.9 6.9 22.5 7.5 22.5H36.5C37.1 22.5 37.5 22.9 37.5 23.5C37.5 24.1 37.1 24.5 36.5 24.5Z" fill="white"/>
<path d="M25.2002 35.8C24.9002 35.8 24.7002 35.7 24.5002 35.5C24.1002 35.1 24.1002 34.5 24.5002 34.1L35.1002 23.5L24.5002 12.9C24.1002 12.5 24.1002 11.9 24.5002 11.5C24.9002 11.1 25.5002 11.1 25.9002 11.5L37.2002 22.8C37.6002 23.2 37.6002 23.8 37.2002 24.2L25.9002 35.5C25.7002 35.7 25.4002 35.8 25.2002 35.8Z" fill="white"/>
</svg>
