<svg width="31" height="29" viewBox="0 0 31 29" fill="none" xmlns="http://www.w3.org/2000/svg">
<path d="M15.0241 1.05539C15.1862 0.556385 15.8922 0.556384 16.0543 1.05539L18.7937 9.48654C19.0113 10.156 19.6352 10.6093 20.3391 10.6093H29.2041C29.7288 10.6093 29.947 11.2807 29.5225 11.5891L22.3505 16.7998C21.781 17.2136 21.5427 17.947 21.7603 18.6165L24.4997 27.0477C24.6618 27.5467 24.0907 27.9616 23.6662 27.6532L16.4943 22.4425C15.9248 22.0287 15.1536 22.0287 14.5841 22.4425L7.41214 27.6532C6.98766 27.9616 6.41652 27.5467 6.57866 27.0477L9.31811 18.6165C9.53563 17.947 9.29733 17.2136 8.72784 16.7998L1.55587 11.5891C1.13139 11.2807 1.34955 10.6093 1.87423 10.6093H10.7393C11.4432 10.6093 12.0671 10.156 12.2846 9.48654L15.0241 1.05539L14.5089 0.888019L15.0241 1.05539Z" fill="white" stroke="#2C7040" stroke-width="1.08325"/>
</svg>
