<svg id="Layer_1" data-name="Layer 1" xmlns="http://www.w3.org/2000/svg" xmlns:xlink="http://www.w3.org/1999/xlink" viewBox="0 0 294.37 519.14"><defs><style>.cls-1,.cls-13,.cls-17,.cls-23,.cls-3,.cls-5,.cls-7{fill:none;}.cls-2{fill:#2c7040;}.cls-10,.cls-11,.cls-14,.cls-16,.cls-2,.cls-21,.cls-4,.cls-6,.cls-8{fill-rule:evenodd;}.cls-3{stroke:#2c7040;stroke-width:18.43px;}.cls-13,.cls-17,.cls-21,.cls-22,.cls-23,.cls-3,.cls-5,.cls-6,.cls-7{stroke-linecap:round;stroke-linejoin:round;}.cls-4{fill:#8bc440;}.cls-5{stroke:#8bc440;stroke-width:21.57px;}.cls-6{fill:#69bca3;stroke-width:1.55px;}.cls-6,.cls-7{stroke:#69bca3;}.cls-7{stroke-width:26.79px;}.cls-8{fill:#3e0acd;}.cls-9{clip-path:url(#clip-path);}.cls-10,.cls-20,.cls-22{fill:#19191b;}.cls-11{fill:#ffc600;}.cls-12{clip-path:url(#clip-path-2);}.cls-13{stroke:#f8f8f9;}.cls-13,.cls-17{stroke-width:1.55px;}.cls-14{fill:#ff6b00;}.cls-15{clip-path:url(#clip-path-3);}.cls-17,.cls-21,.cls-22,.cls-23{stroke:#19191b;}.cls-18{clip-path:url(#clip-path-4);}.cls-19{clip-path:url(#clip-path-5);}.cls-21,.cls-24{fill:#fff;}.cls-21{stroke-width:4.22px;}.cls-22{stroke-width:3.6px;}.cls-23{stroke-width:1.55px;}.cls-25{isolation:isolate;font-size:7.43px;font-family:Helvetica;}</style><clipPath id="clip-path" transform="translate(-12 -20.62)"><path class="cls-1" d="M163.39,212.79l92.27-.17c7.45,19.07,9.46,38.9,9.12,59.06,0,0,.08,23.22.13,38.71a217.82,217.82,0,0,1-1.58,27c-1.87,15.47-4.82,39.9-5.93,49.07-.3,2.43-.65,4.84-1.07,7.25-1.66,9.58-6.18,35.68-8.08,46.61a74.66,74.66,0,0,0-1,9.9c-.5,13.19-1.8,47.95-1.8,47.95l-8.52,10.26,9.91.63a13.24,13.24,0,0,1,10.65,6.62l.47.8-54.45-.72-3.34-10.61a63.54,63.54,0,0,1-2.89-17c-.26-7.94-.63-19.41-.84-25.88a68.52,68.52,0,0,1,.38-9.82C198,441.16,201,414,201,414l13.62-98.41L202.86,358s-21,92-25.94,113.48a71.33,71.33,0,0,0-1.46,8.95c-.59,5.95-1.54,15.66-1.54,15.66l-14.34,9.05,12.63,2.64a12.44,12.44,0,0,1,9,7.48h0l-49.71-.47c-3.54-27.46.51-55.56,6.56-81.4.07-.29.13-.58.19-.87,1.07-5.47,12-61.19,14.47-73.77a41.12,41.12,0,0,0,.66-5.07c.87-12.75,4.69-68.9,4.69-68.9Z"/></clipPath><clipPath id="clip-path-2" transform="translate(-12 -20.62)"><path class="cls-1" d="M255.43,156l19.94-18.45L266.78,117a38.51,38.51,0,0,0-15.52-18.07L246,95.71a43.72,43.72,0,0,0-14.21-5.53L216,87.06a52.17,52.17,0,0,0-25.19,1.23L174.61,93.2a32.4,32.4,0,0,0-17,12.22c-8.43,11.81-22.14,31.05-22.14,31.05l26.74,26.46L163,214.7l94.36-1.64Z"/></clipPath><clipPath id="clip-path-3" transform="translate(-12 -20.62)"><path class="cls-1" d="M146.18,137.39a25,25,0,0,0,5.31,12.34L162.18,163l-10.46,21.42a14,14,0,0,1-14.08,7.78h0a13.15,13.15,0,0,1-10.52-7.55c-1-2.22-2.22-4.8-3.45-7.46a83.49,83.49,0,0,1-7.58-39.57c.76-14,1.63-29.9,1.63-29.9l-8.79-4.14a4.84,4.84,0,0,1-2.57-3c-.52-1.71-1.27-4.14-1.82-6a7.75,7.75,0,0,1,.08-4.81c1.07-3.15,2.83-8.28,2.83-8.28s-1.61-11.65-2.11-15.33a1.35,1.35,0,0,1,.89-1.46h0a1.42,1.42,0,0,1,1.69.64l3.85,6.83.71-.4a2.17,2.17,0,0,1,3,.77l.15.26a2.43,2.43,0,0,1,.35,1.39l-.14,3.25,1.26-.33a2.31,2.31,0,0,1,1.67.19h0A2.5,2.5,0,0,1,120,80c-.36,2-.9,5-.9,5l2.48,7L136,87.06l-4-13.81,4.73-9.7a1.81,1.81,0,0,1,1.63-1h0a2.21,2.21,0,0,1,2.18,2.36c-.19,2.3-.45,5.53-.51,6.23,0,.1,0,.19,0,.28l-.86,13.86S144.07,121.81,146.18,137.39Z"/></clipPath><clipPath id="clip-path-4" transform="translate(-12 -20.62)"><path class="cls-1" d="M255.43,155.89,275.5,137.3,280,102.63l-4-9.51a9.4,9.4,0,0,1,2.3-10.55l2.72-2.5s2.13-21.69,2.81-28.6a1.94,1.94,0,0,1,2.27-1.71l.22,0a1.78,1.78,0,0,1,1.48,1.75c.06,4.87.22,20.07.22,20.07l1.33-2.89a2.55,2.55,0,0,1,2.61-1.46l.6.07a2.54,2.54,0,0,1,2.24,2.45c0,.48,0,.84,0,.84l1.72-2a2.52,2.52,0,0,1,2.67-.78l.33.1a2.63,2.63,0,0,1,1.7,1.66l.49,1.44h0a2.69,2.69,0,0,1,4.23,1.6c.05.23.1.43.13.57a3.55,3.55,0,0,1,.06.47c.66,17,.07,21.48-3.89,29,0,0,1.44,30.28,2.35,49.65A58,58,0,0,1,298,182.1l-1.72,3.25A15.48,15.48,0,0,1,285,193.42h0A17.14,17.14,0,0,1,266.43,183Z"/></clipPath><clipPath id="clip-path-5" transform="translate(-12 -20.62)"><path class="cls-1" d="M188.43,44.54C190.34,32,199,22.44,209.37,22.44c10.69,0,19.55,10.08,21.09,23.22.24,0,.48,0,.73,0a6.4,6.4,0,0,1,0,12.8,6.56,6.56,0,0,1-1.54-.19C227.77,65.6,223.51,71.6,218,74.72l1.11,14.06c4.86,1.42,8,3.63,8,6.11,0,4.27-9.26,7.74-20.66,7.74s-20.66-3.47-20.66-7.74c0-2.28,2.64-4.33,6.83-5.75l-2.11-26.57-.3-.76a9.79,9.79,0,0,1-2.73.39,8.87,8.87,0,1,1,0-17.71C187.82,44.49,188.13,44.51,188.43,44.54Z"/></clipPath></defs><title>wealthsimple_coin</title><path class="cls-2" d="M84,147.44h0l44.5,118h0l53.18,141c-42.86,16.17-90.84-5.8-107.17-49.08a83.88,83.88,0,0,1,12.35-81.44A5.77,5.77,0,0,0,84,266.78,66.23,66.23,0,0,1,54.64,158.7a5.78,5.78,0,0,0-2.83-9.5,51.59,51.59,0,0,1-35.73-31.78c-10.14-26.89,3.8-57,31.14-67.36Z" transform="translate(-12 -20.62)"/><path class="cls-3" d="M59,94.54,207.71,488.87" transform="translate(-12 -20.62)"/><path class="cls-4" d="M189.4,179.23h0l8.32,107.41h0L207.66,415c-39,3-73.13-26.47-76.18-65.87a71.63,71.63,0,0,1,28.69-63.2,5.76,5.76,0,0,0-.14-9.4,56.57,56.57,0,0,1,1.6-94.4,5.79,5.79,0,0,0,0-9.76,44,44,0,0,1-20.71-34C139,113.91,157.65,92.5,182.54,90.58Z" transform="translate(-12 -20.62)"/><path class="cls-5" d="M181.55,129.87l27.8,359" transform="translate(-12 -20.62)"/><path class="cls-6" d="M69.41,281.9h0l49.52,71.23h0l59.17,85.11c-25.88,18-61.58,11.4-79.75-14.73A57.7,57.7,0,0,1,92,369.21a5.76,5.76,0,0,0-4.74-7.87,45.54,45.54,0,0,1-36.64-64.75,5.79,5.79,0,0,0-4.79-8.2,35.38,35.38,0,0,1-26.76-15.11c-11.29-16.23-7-38.69,9.45-50.17Z" transform="translate(-12 -20.62)"/><path class="cls-7" d="M43.86,250.81,209.35,488.87" transform="translate(-12 -20.62)"/><path class="cls-8" d="M163.39,212.79l92.27-.17c7.45,19.07,9.46,38.9,9.12,59.06,0,0,.08,23.22.13,38.71a217.82,217.82,0,0,1-1.58,27c-1.87,15.47-4.82,39.9-5.93,49.07-.3,2.43-.65,4.84-1.07,7.25-1.66,9.58-6.18,35.68-8.08,46.61a74.66,74.66,0,0,0-1,9.9c-.5,13.19-1.8,47.95-1.8,47.95l-8.52,10.26,9.91.63a13.24,13.24,0,0,1,10.65,6.62l.47.8-54.45-.72-3.34-10.61a63.54,63.54,0,0,1-2.89-17c-.26-7.94-.63-19.41-.84-25.88a68.52,68.52,0,0,1,.38-9.82C198,441.16,201,414,201,414l13.62-98.41L202.86,358s-21,92-25.94,113.48a71.33,71.33,0,0,0-1.46,8.95c-.59,5.95-1.54,15.66-1.54,15.66l-14.34,9.05,12.63,2.64a12.44,12.44,0,0,1,9,7.48h0l-49.71-.47c-3.54-27.46.51-55.56,6.56-81.4.07-.29.13-.58.19-.87,1.07-5.47,12-61.19,14.47-73.77a41.12,41.12,0,0,0,.66-5.07c.87-12.75,4.69-68.9,4.69-68.9Z" transform="translate(-12 -20.62)"/><g class="cls-9"><path class="cls-10" d="M162.18,212.88h98.93l-.42,7.81-11.55,2.72a38.22,38.22,0,0,1-8.59,1l-20.21.14a54.42,54.42,0,0,0-14.35,2l-16.7,4.72-29.22,10.07Z" transform="translate(-12 -20.62)"/><path class="cls-10" d="M215.92,272.72l21.55-21.17.09.17A63.77,63.77,0,0,1,246,287.15c-.08,1.62-.17,3.19-.25,4.67a53.93,53.93,0,0,1-3.93,17.43h0a68.38,68.38,0,0,0-4.81,32c0,.56.1,1.11.14,1.64a92.55,92.55,0,0,1,.24,13.32c-.11,2-.24,4.28-.37,6.65a85.38,85.38,0,0,1-9.95,35.6h0a90.44,90.44,0,0,0-10.65,43.39c0,2.39,0,4.63.06,6.55a40.16,40.16,0,0,1-1.7,11.88c-1.11,3.66-2.53,8.37-3.64,12.05a42.26,42.26,0,0,0-1.8,12.18h0a15.25,15.25,0,0,1-4.45,10.77l-12.12,12.18,10.38,5,47.15-14.35s30.06,30.35,27,31.1-56.8,7.58-59.94,10.13-68.73-9.4-68.73-9.4l-24.69-12.66,4.77-11.94L183.57,493,191.38,439C204.07,383.9,215.18,328.66,215.92,272.72Z" transform="translate(-12 -20.62)"/></g><path class="cls-11" d="M255.43,156l19.94-18.45L266.78,117a38.51,38.51,0,0,0-15.52-18.07L246,95.71a43.72,43.72,0,0,0-14.21-5.53L216,87.06a52.17,52.17,0,0,0-25.19,1.23L174.61,93.2a32.4,32.4,0,0,0-17,12.22c-8.43,11.81-22.14,31.05-22.14,31.05l26.74,26.46L163,214.7l94.36-1.64Z" transform="translate(-12 -20.62)"/><g class="cls-12"><path class="cls-13" d="M264.91,102.63l-5.59,1.3a20.15,20.15,0,0,0-12.26,8.56h0a7.35,7.35,0,0,1-4.84,3.2l-28.31,5.12a5.54,5.54,0,0,0-4.56,5.46h0a5.68,5.68,0,0,0,5.38,5.67L241,133.37a3.24,3.24,0,0,1,3.07,3.29h0a2.75,2.75,0,0,1-2.58,2.7l-48.56,3.16a3.92,3.92,0,0,0-3.35,2.4h0a3.55,3.55,0,0,0,3.22,4.93l68.11,1.44-11.32,4.13a47.72,47.72,0,0,0-13.22,7.38h0a21.23,21.23,0,0,1-7.1,3.7l-12.45,3.74a4.92,4.92,0,0,0-2.7,2h0a5.17,5.17,0,0,0,3.76,8l44.5,4.61Z" transform="translate(-12 -20.62)"/><path class="cls-13" d="M156.05,106.91,138.18,128.6l12.25.84a46.55,46.55,0,0,0,10.87-.53l16.91-2.84a2.45,2.45,0,0,0,1.53-.9h0a2.52,2.52,0,0,0,.45-2.18,2.48,2.48,0,0,0-1.48-1.67L170,117.8a14.4,14.4,0,0,1-7.14-6.26h0a4.6,4.6,0,0,0-1.76-1.77Z" transform="translate(-12 -20.62)"/><path class="cls-13" d="M156.8,192.47c-.76,0,12.57,2.07,19,3.07a13.12,13.12,0,0,1,6.14,2.68h0a27.05,27.05,0,0,0,12.66,5.53l14.07,2.19a29.09,29.09,0,0,1,17.54,9.7h0l-71.61,2.09S157.79,192.47,156.8,192.47Z" transform="translate(-12 -20.62)"/><path class="cls-10" d="M255.43,155.89V125.23l12.82,19Z" transform="translate(-12 -20.62)"/><path class="cls-10" d="M219.19,87.51l.11,5L224,91.1l1.8-2.74Z" transform="translate(-12 -20.62)"/><path class="cls-10" d="M192.09,86.82l.66,2.33-5.44,7.5-9.46,1A10.23,10.23,0,0,1,168.77,94h0Z" transform="translate(-12 -20.62)"/><path class="cls-10" d="M144.87,141.21l8.38,3.33,7.65-8.22,1.39,26.93C156.2,156.13,150.34,148.83,144.87,141.21Z" transform="translate(-12 -20.62)"/></g><path class="cls-14" d="M146.18,137.39a25,25,0,0,0,5.31,12.34L162.18,163l-10.46,21.42a14,14,0,0,1-14.08,7.78h0a13.15,13.15,0,0,1-10.52-7.55c-1-2.22-2.22-4.8-3.45-7.46a83.49,83.49,0,0,1-7.58-39.57c.76-14,1.63-29.9,1.63-29.9l-8.79-4.14a4.84,4.84,0,0,1-2.57-3c-.52-1.71-1.27-4.14-1.82-6a7.75,7.75,0,0,1,.08-4.81c1.07-3.15,2.83-8.28,2.83-8.28s-1.61-11.65-2.11-15.33a1.35,1.35,0,0,1,.89-1.46h0a1.42,1.42,0,0,1,1.69.64l3.85,6.83.71-.4a2.17,2.17,0,0,1,3,.77l.15.26a2.43,2.43,0,0,1,.35,1.39l-.14,3.25,1.26-.33a2.31,2.31,0,0,1,1.67.19h0A2.5,2.5,0,0,1,120,80c-.36,2-.9,5-.9,5l2.48,7L136,87.06l-4-13.81,4.73-9.7a1.81,1.81,0,0,1,1.63-1h0a2.21,2.21,0,0,1,2.18,2.36c-.19,2.3-.45,5.53-.51,6.23,0,.1,0,.19,0,.28l-.86,13.86S144.07,121.81,146.18,137.39Z" transform="translate(-12 -20.62)"/><g class="cls-15"><path class="cls-16" d="M147.31,142.18l1.51,12.61,4.18-3.16Z" transform="translate(-12 -20.62)"/><path class="cls-10" d="M117.58,107.76l10.19-.2L116.3,122.49Z" transform="translate(-12 -20.62)"/><path class="cls-17" d="M112.58,95.67l5-8.23" transform="translate(-12 -20.62)"/><path class="cls-17" d="M107.63,86l7.45-7.33" transform="translate(-12 -20.62)"/><path class="cls-17" d="M109,80.09l2.32-5.75" transform="translate(-12 -20.62)"/></g><path class="cls-14" d="M255.43,155.89,275.5,137.3,280,102.63l-4-9.51a9.4,9.4,0,0,1,2.3-10.55l2.72-2.5s2.13-21.69,2.81-28.6a1.94,1.94,0,0,1,2.27-1.71l.22,0a1.78,1.78,0,0,1,1.48,1.75c.06,4.87.22,20.07.22,20.07l1.33-2.89a2.55,2.55,0,0,1,2.61-1.46l.6.07a2.54,2.54,0,0,1,2.24,2.45c0,.48,0,.84,0,.84l1.72-2a2.52,2.52,0,0,1,2.67-.78l.33.1a2.63,2.63,0,0,1,1.7,1.66l.49,1.44h0a2.69,2.69,0,0,1,4.23,1.6c.05.23.1.43.13.57a3.55,3.55,0,0,1,.06.47c.66,17,.07,21.48-3.89,29,0,0,1.44,30.28,2.35,49.65A58,58,0,0,1,298,182.1l-1.72,3.25A15.48,15.48,0,0,1,285,193.42h0A17.14,17.14,0,0,1,266.43,183Z" transform="translate(-12 -20.62)"/><g class="cls-18"><path class="cls-17" d="M289.63,100.29s-2.45-6.66,1.83-11.18a21.44,21.44,0,0,1,8.46-5.78" transform="translate(-12 -20.62)"/><path class="cls-17" d="M295.23,82.26l4.08,1.08h0A7.64,7.64,0,0,0,302.55,77c0-1.72,0-3.34,0-3.34.47,4.34-.39,7.73-3.2,9.68l.94.18a5.48,5.48,0,0,0,5.16-1.82h0" transform="translate(-12 -20.62)"/><path class="cls-17" d="M282,88.87l13.25-6.59,3.52-3.94a2,2,0,0,0,.36-2.14h0a2.34,2.34,0,0,0-2.95-1.29l-11.63,4.24" transform="translate(-12 -20.62)"/><path class="cls-10" d="M268.18,144.13l-6.45,32-6.3-20.23Z" transform="translate(-12 -20.62)"/><path class="cls-17" d="M275.68,139.84l-1.45,25.46" transform="translate(-12 -20.62)"/></g><path class="cls-14" d="M188.43,44.54C190.34,32,199,22.44,209.37,22.44c10.69,0,19.55,10.08,21.09,23.22.24,0,.48,0,.73,0a6.4,6.4,0,0,1,0,12.8,6.56,6.56,0,0,1-1.54-.19C227.77,65.6,223.51,71.6,218,74.72l1.11,14.06c4.86,1.42,8,3.63,8,6.11,0,4.27-9.26,7.74-20.66,7.74s-20.66-3.47-20.66-7.74c0-2.28,2.64-4.33,6.83-5.75l-2.11-26.57-.3-.76a9.79,9.79,0,0,1-2.73.39,8.87,8.87,0,1,1,0-17.71C187.82,44.49,188.13,44.51,188.43,44.54Z" transform="translate(-12 -20.62)"/><g class="cls-19"><g id="Слой1"><path class="cls-10" d="M187.52,43.59l2.31,1.29A17.46,17.46,0,0,1,193,47.17l1.34,1.21,1.33-3.8a5.37,5.37,0,0,1,2.59-3l.17-.09A4.82,4.82,0,0,0,201,36.22h0a4.28,4.28,0,0,1,1.17-3.89c.25-.23.5-.49.77-.75a6.75,6.75,0,0,1,8.11-1h0a9,9,0,0,0,7.35.75l8.48-2.81-12.94-7.86s-21.27,1.59-21.86,2.31S187.52,43.59,187.52,43.59Z" transform="translate(-12 -20.62)"/><path class="cls-10" d="M189.38,62.76l4.34-3-3.45,6.1Z" transform="translate(-12 -20.62)"/><path class="cls-10" d="M192.65,89.1l.44,4.6-6.66,2.89-2.24-2.1,4-4.35Z" transform="translate(-12 -20.62)"/><path class="cls-10" d="M219.68,92l4.46-1.21-2.72-2.46-2.21.49Z" transform="translate(-12 -20.62)"/></g><path class="cls-10" d="M209.35,76.6,219,74.66l.49,6.42Z" transform="translate(-12 -20.62)"/><ellipse class="cls-20" cx="201.36" cy="44.53" rx="2.83" ry="3.62"/><path class="cls-17" d="M220.46,47.91l-.08,3.83" transform="translate(-12 -20.62)"/><path class="cls-17" d="M200.43,44.87,207,41.73" transform="translate(-12 -20.62)"/><path class="cls-17" d="M220.37,41l5,3.92" transform="translate(-12 -20.62)"/><path class="cls-17" d="M216.85,42.91l.58,11.87h2.22a1.29,1.29,0,0,1,1.16.73h0a1.34,1.34,0,0,1,0,1.2,1.32,1.32,0,0,1-1,.68l-5.38.77v4.37" transform="translate(-12 -20.62)"/><path class="cls-17" d="M204.05,47.26l.08,3.83" transform="translate(-12 -20.62)"/><path class="cls-17" d="M230.4,52.72s0-.34,0-.87a2.7,2.7,0,0,1,4.44-2h0" transform="translate(-12 -20.62)"/><path class="cls-17" d="M183.05,54.79s-.25-3.13,1.56-4.24l.21-.12A3.07,3.07,0,0,1,189,51.67l1.31,2.39" transform="translate(-12 -20.62)"/></g><g id="Слой21"><path class="cls-21" d="M105.35,57a1.12,1.12,0,0,1,.05-.88,1.15,1.15,0,0,1,.66-.6l18.07-6.38a1.15,1.15,0,0,1,.89.05,1.13,1.13,0,0,1,.59.66L138.73,87a1.15,1.15,0,0,1,0,.89,1.19,1.19,0,0,1-.66.59L120,94.83a1.15,1.15,0,0,1-.89,0,1.13,1.13,0,0,1-.59-.66Z" transform="translate(-12 -20.62)"/><rect class="cls-22" x="115.14" y="62.49" width="8.84" height="6.33" transform="translate(-26.83 21.75) rotate(-18.94)"/><path class="cls-23" d="M121.26,63.39s-1-2.9-1.68-4.86a1.81,1.81,0,0,0-.93-1,1.79,1.79,0,0,0-1.38-.06l-.9.33a1.88,1.88,0,0,0-1.23,1.69h0a2.13,2.13,0,0,0,.11.75l1.08,3.09" transform="translate(-12 -20.62)"/><ellipse class="cls-24" cx="119.26" cy="65.39" rx="1.06" ry="1.1" transform="translate(-17.16 -10.17) rotate(-4.91)"/><text class="cls-25" transform="translate(105.39 62.05) rotate(-19.37)">SOS</text></g></svg>