<?xml version="1.0" encoding="utf-8"?>
<!-- Generator: Adobe Illustrator 24.0.1, SVG Export Plug-In . SVG Version: 6.00 Build 0)  -->
<svg version="1.1" id="Layer_1" xmlns="http://www.w3.org/2000/svg" xmlns:xlink="http://www.w3.org/1999/xlink" x="0px" y="0px"
	 viewBox="0 0 1016.5 1016.8" style="enable-background:new 0 0 1016.5 1016.8;" xml:space="preserve">
<style type="text/css">
	.st0{fill:#FEFEFE;}
	.st1{fill:#5270FE;}
	.st2{fill:#F2F2F2;}
</style>
<title>hiclipart.com</title>
<path class="st0" d="M508.5,0.1C229.6-4.4-4.7,233.4,0.1,507.5c-5.7,276.3,230.3,513.7,507.5,509.2c279,5.2,514.3-233.7,508.8-507.8
	C1022.3,235,788.1-4.2,508.5,0.1z"/>
<path class="st1" d="M508.5,0.1c279.6-4.3,513.8,234.9,507.9,508.8c5.5,274.1-229.8,513-508.8,507.8
	C230.4,1021.2-5.6,783.8,0.1,507.5C-4.7,233.4,229.6-4.4,508.5,0.1z M763.1,683.1c0-16,0-32,0-48c0-17.9-11.7-30-29.7-30
	c-33.2,0-66.2-5.3-97.7-15.5c-12.4-4-22.8-1.2-31.9,8c-18.8,18.9-37.7,37.7-56.4,56.7c-3.1,3.2-5.3,3.6-9.2,1.5
	c-77.9-41.7-137.6-101.5-179.1-179.4c-1.6-3-1.5-4.6,1-7.1c19.4-19.2,38.6-38.7,58-58c9.1-9.1,11.4-19.5,7.6-31.6
	c-10.1-31.4-15.4-64.2-15.6-97.2c-0.1-18.1-11.3-30-29.4-30.2c-32.3-0.3-64.7-0.3-97,0c-17.4,0.1-28.7,12.3-28.8,29.7
	c-0.1,38.3,4.5,76.5,13.9,113.7c24.1,96,72.8,177.3,146.8,243c90.5,80.3,196.9,120.3,317.8,121.8c17.5,0.2,29.6-12,29.7-29.4
	C763.1,715.1,763.1,699.1,763.1,683.1z"/>
<path class="st2" d="M763.1,683.1c0,16,0.1,32,0,48c-0.1,17.5-12.2,29.7-29.7,29.4c-121-1.5-227.3-41.5-317.9-121.9
	c-74-65.6-122.7-147-146.8-243c-9.3-37.2-14-75.4-13.8-113.7c0.1-17.4,11.4-29.6,28.7-29.7c32.3-0.3,64.7-0.3,97,0
	c18.1,0.1,29.3,12,29.4,30.2c0.2,33,5.4,65.8,15.5,97.2c3.9,12,1.5,22.5-7.6,31.6c-19.4,19.3-38.5,38.8-58,58
	c-2.5,2.5-2.6,4.1-1,7.1c41.4,78,101.1,137.8,179,179.4c3.9,2.1,6.1,1.7,9.2-1.5c18.7-19.1,37.6-37.8,56.4-56.7
	c9.1-9.2,19.5-12,31.9-8c31.6,10.2,64.5,15.5,97.7,15.5c18,0,29.6,12.1,29.7,30C763.1,651.1,763.1,667.1,763.1,683.1z"/>
</svg>
