<svg width="13" height="13" viewBox="0 0 13 13" fill="none" xmlns="http://www.w3.org/2000/svg">
<path fill-rule="evenodd" clip-rule="evenodd" d="M0 6.5C0 2.90934 2.90934 0 6.5 0C10.0907 0 13 2.90934 13 6.5C13 10.0907 10.0907 13 6.5 13C2.90934 13 0 10.0907 0 6.5ZM11.9167 6.5C11.9167 3.50814 9.49186 1.08333 6.5 1.08333C3.50814 1.08333 1.08333 3.50814 1.08333 6.5C1.08333 9.49186 3.50814 11.9167 6.5 11.9167C9.49186 11.9167 11.9167 9.49186 11.9167 6.5ZM6.5 3.14844L6.47292 3.1484C6.38529 3.14823 6.30984 3.14808 6.22917 3.16536C6.1403 3.18441 6.05778 3.23307 5.99219 3.28385C5.92659 3.33464 5.87793 3.40446 5.83984 3.48698C5.80176 3.5695 5.78906 3.66683 5.78906 3.79167C5.78906 3.91439 5.80176 4.01172 5.83984 4.09635C5.87793 4.18099 5.92659 4.2487 5.99219 4.29948C6.05778 4.35026 6.1403 4.37988 6.22917 4.40104C6.31803 4.4222 6.40055 4.4349 6.5 4.4349C6.59733 4.4349 6.70101 4.4222 6.78776 4.40104C6.87451 4.37988 6.94222 4.35026 7.00781 4.29948C7.07341 4.2487 7.12207 4.18099 7.16016 4.09635C7.19824 4.01383 7.22786 3.91439 7.22786 3.79167C7.22786 3.66683 7.19824 3.5695 7.16016 3.48698C7.12207 3.40446 7.07341 3.33464 7.00781 3.28385C6.94222 3.23307 6.87451 3.18441 6.78776 3.16536C6.70886 3.14805 6.61597 3.14823 6.52658 3.1484L6.5 3.14844ZM5.95833 9.73307V4.875H7.04167V9.73307H5.95833Z" fill="#2C7040"/>
</svg>
