<svg width="26" height="24" viewBox="0 0 26 24" fill="none" xmlns="http://www.w3.org/2000/svg">
<path fill-rule="evenodd" clip-rule="evenodd" d="M17.6609 2.90909V2.90909C17.4896 1.81 16.5433 1 15.4311 1H10.5684C9.45618 1 8.50982 1.81 8.33855 2.90909C8.16727 4.00818 7.22091 4.81818 6.10873 4.81818H3.18182C1.97691 4.81818 1 5.79509 1 7V20.0909C1 21.2958 1.97691 22.2727 3.18182 22.2727H22.8182C24.0231 22.2727 25 21.2958 25 20.0909V7C25 5.79509 24.0231 4.81818 22.8182 4.81818H19.8907C18.7785 4.81818 17.8322 4.00818 17.6609 2.90909Z" stroke="#2C7040" stroke-width="2" stroke-linecap="round" stroke-linejoin="round"/>
<path fill-rule="evenodd" clip-rule="evenodd" d="M17.9089 12.4545C17.9089 15.166 15.7112 17.3636 12.9998 17.3636C10.2883 17.3636 8.0907 15.166 8.0907 12.4545C8.0907 9.74305 10.2883 7.54541 12.9998 7.54541C15.7112 7.54541 17.9089 9.74305 17.9089 12.4545Z" stroke="#2C7040" stroke-width="2" stroke-linecap="round" stroke-linejoin="round"/>
</svg>
