<?xml version="1.0" encoding="utf-8"?>
<!-- Generator: Adobe Illustrator 18.0.0, SVG Export Plug-In . SVG Version: 6.00 Build 0)  -->
<!DOCTYPE svg PUBLIC "-//W3C//DTD SVG 1.1//EN" "http://www.w3.org/Graphics/SVG/1.1/DTD/svg11.dtd">
<svg version="1.1" xmlns="http://www.w3.org/2000/svg" xmlns:xlink="http://www.w3.org/1999/xlink" x="0px" y="0px"
	 viewBox="0 0 48 48" enable-background="new 0 0 48 48" xml:space="preserve">
<g id="Layer_1">
</g>
<g id="right-rotate">
</g>
<g id="left-rotate">
</g>
<g id="share-down">
</g>
<g id="share-top">
</g>
<g id="share-both">
</g>
<g id="share-top-right">
</g>
<g id="share-top-left">
</g>
<g id="share-right-down">
</g>
<g id="share-left-down">
</g>
<g id="recycle-arw">
</g>
<g id="verticle-hidden-arw">
</g>
<g id="horizontal-arw">
</g>
<g id="verticle-arw">
</g>
<g id="connection-arw-r">
</g>
<g id="connection-arw-l">
</g>
<g id="connection-arw">
</g>
<g id="hook-left-arw">
</g>
<g id="clock-arw">
</g>
<g id="anti-clock-arw">
</g>
<g id="infinity">
</g>
<g id="sing-sang-arw">
</g>
<g id="anti-reload">
</g>
<g id="reload">
</g>
<g id="double-arrow">
</g>
<g id="single-circle-arw">
</g>
<g id="circle-arw">
</g>
<g id="two-side-bend-arw">
</g>
<g id="left-blend-arw">
</g>
<g id="right-blend-arw">
</g>
<g id="round-extand">
</g>
<g id="round-close-arrow">
</g>
<g id="pluse-arrow">
</g>
<g id="crose-arrow">
</g>
<g id="corn-arrow">
</g>
<g id="side-arrow">
</g>
<g id="close-arrow-four">
</g>
<g id="stretch-arrow">
</g>
<g id="_x33__x2F_1-arrow">
</g>
<g id="_x32__x2F_1-arrow">
</g>
<g id="left-crose-rd">
</g>
<g id="left-crose-arrow">
</g>
<g id="left-top_arrows">
</g>
<g id="close-arrows">
</g>
<g id="extand-arrow">
</g>
<g id="parallel-arrows">
</g>
<g id="two-side_arrows">
</g>
<g id="right-arrows">
</g>
<g id="down-arrow-3">
</g>
<g id="top-arrow-3">
</g>
<g id="right-arrow-3">
</g>
<g id="left-arrow-3">
</g>
<g id="left-arrow-2">
</g>
<g id="right-arrow-2">
</g>
<g id="down-arrow-2">
</g>
<g id="top-arrow-2">
</g>
<g id="down-arrow-1">
</g>
<g id="top-arrow-1">
</g>
<g id="rightarrow-1">
</g>
<g id="left-arrow-1">
</g>
<g id="down-play">
</g>
<g id="top-play">
</g>
<g id="right-play">
</g>
<g id="left-play">
</g>
<g id="down-arrow">
</g>
<g id="top-arrow">
</g>
<g id="right-arrow">
</g>
<g id="left-arrow">
</g>
<g id="channel">
</g>
<g id="stop_1_">
</g>
<g id="music-control">
</g>
<g id="adjust-lavel">
</g>
<g id="adjustsound">
</g>
<g id="graph-point">
</g>
<g id="symbol">
</g>
<g id="visual-graph">
</g>
<g id="visual">
</g>
<g id="adjust">
</g>
<g id="controal-4">
</g>
<g id="control-3">
	<path fill="none" stroke="#000000" stroke-width="2" stroke-linecap="round" stroke-linejoin="round" stroke-miterlimit="10" d="
		M46,24.2719593v-0.5439186C46,22.221386,44.778614,21,43.2719574,21h-0.4077339
		c-1.2265205,0-2.2681999-0.8286934-2.6276207-2.0013695c-0.3143234-1.0255432-0.7224503-2.0096188-1.2154922-2.9422436
		c-0.5739403-1.0856524-0.4258423-2.4090424,0.4425049-3.2773867l0.2850418-0.2850428
		c1.0653648-1.0653658,1.0653648-2.7926664,0-3.8580322l-0.3845825-0.3845825c-1.0653648-1.0653663-2.7926674-1.0653663-3.8580322,0
		l-0.2850418,0.2850428c-0.8683472,0.8683443-2.1917343,1.0164433-3.2773876,0.442503
		c-0.9326248-0.493042-1.9167004-0.9011679-2.9422436-1.2154922C27.8286934,7.403976,27,6.3622956,27,5.1357746V4.7280407
		C27,3.2213855,25.778614,2,24.2719593,2h-0.5439186C22.221386,2,21,3.2213855,21,4.7280407v0.4077339
		c0,1.226521-0.8286934,2.2682014-2.0013695,2.6276217c-1.0255432,0.3143244-2.0096188,0.7224503-2.9422436,1.2154922
		c-1.0856524,0.5739403-2.4090424,0.4258413-3.2773867-0.442503l-0.2850428-0.2850428
		c-1.0653658-1.0653663-2.7926664-1.0653663-3.8580322,0L8.2513428,8.6359253c-1.0653663,1.0653658-1.0653663,2.7926664,0,3.8580322
		l0.2850428,0.2850428c0.8683443,0.8683443,1.0164433,2.1917343,0.442503,3.2773867
		c-0.493042,0.9326248-0.9011679,1.9167004-1.2154922,2.9422436C7.403976,20.1713066,6.3622956,21,5.1357746,21H4.7280407
		C3.2213855,21,2,22.221386,2,23.7280407v0.5439186C2,25.778614,3.2213855,27,4.7280407,27h0.4076962
		c1.2265358,0,2.2682204,0.8287125,2.6276331,2.0014076c0.3143086,1.0255299,0.7224259,2.0095921,1.2154593,2.9422073
		c0.5739384,1.0856514,0.4258404,2.4090385-0.4425039,3.2773857l-0.284996,0.284996
		c-1.065361,1.065361-1.0653672,2.7926483-0.0000143,3.858017l0.3846102,0.3846169
		c1.0653639,1.0653763,2.792675,1.0653839,3.8580465,0.0000114l0.2850285-0.2850266
		c0.8683443-0.8683472,2.1917343-1.0164452,3.2773867-0.4425049c0.9326248,0.493042,1.9167004,0.9011688,2.9422436,1.2154922
		C20.1713066,40.5960236,21,41.6377029,21,42.8642235v0.4077339C21,44.778614,22.221386,46,23.7280407,46h0.5439186
		C25.778614,46,27,44.778614,27,43.2719574v-0.4077339c0-1.2265205,0.8286934-2.2681999,2.0013695-2.6276207
		c1.0255432-0.3143234,2.0096188-0.7224503,2.9422436-1.2154922c1.0856533-0.5739403,2.4090405-0.4258423,3.2773876,0.4425049
		l0.2850266,0.2850266c1.0653725,1.0653725,2.7926826,1.0653648,3.8580475-0.0000114l0.3846092-0.3846169
		c1.0653534-1.0653687,1.0653496-2.7926559-0.0000114-3.858017l-0.284996-0.284996
		c-0.8683472-0.8683472-1.0164452-2.1917343-0.4425049-3.2773857c0.4930344-0.9326153,0.9011497-1.9166775,1.2154579-2.9422073
		C40.5960426,27.8287125,41.6377258,27,42.8642616,27h0.4076958C44.778614,27,46,25.778614,46,24.2719593z"/>
	
		<circle fill="none" stroke="#000000" stroke-width="2" stroke-linecap="round" stroke-linejoin="round" stroke-miterlimit="10" cx="24" cy="24" r="8"/>
</g>
<g id="control-2">
</g>
<g id="control_1_">
</g>
<g id="control">
</g>
<g id="volume-increase">
</g>
<g id="volume">
</g>
<g id="volume-close">
</g>
<g id="volume-minus">
</g>
<g id="volume-pluse">
</g>
<g id="block">
</g>
<g id="sound">
</g>
<g id="play-backward">
</g>
<g id="backward">
</g>
<g id="play">
</g>
<g id="hold">
</g>
<g id="stop">
</g>
<g id="pause">
</g>
<g id="forward">
</g>
<g id="play-forward">
</g>
<g id="top-bottom-arrow">
</g>
<g id="hook-right-arw">
</g>
</svg>
