<?xml version="1.0" encoding="utf-8"?>
<!-- Generator: Adobe Illustrator 24.0.1, SVG Export Plug-In . SVG Version: 6.00 Build 0)  -->
<svg version="1.1" id="svg8" xmlns="http://www.w3.org/2000/svg" xmlns:xlink="http://www.w3.org/1999/xlink" x="0px" y="0px"
	 viewBox="0 0 662.2 662.4" style="enable-background:new 0 0 662.2 662.4;" xml:space="preserve">
<style type="text/css">
	.st0{fill:#00D856;}
	.st1{fill:#FFFFFF;}
	.st2{fill-rule:evenodd;clip-rule:evenodd;fill:#FFFFFF;}
</style>
<title>whatsapp</title>
<path class="st0" d="M331.3,0C513.5-2.7,666,153.1,662.2,331.5c3.6,178.6-149.7,334.2-331.5,330.8C150.1,665.3-3.7,510.6,0.1,330.6
	C-3.1,152.1,149.6-2.9,331.3,0z"/>
<path id="path400" class="st1" d="M492.7,168.8c-37.8-38.1-89.3-59.4-143-59.2c-111.4,0-202,90.6-202.1,202c0,35.5,9.3,70.3,27,101
	L146,517.3l107.1-28.1c29.6,16.1,62.8,24.6,96.6,24.6h0.1c111.4,0,202-90.6,202.1-202C552,258.1,530.7,206.7,492.7,168.8z
	 M349.7,479.7L349.7,479.7c-30.1,0-59.6-8.1-85.5-23.4l-6.1-3.6l-63.6,16.7l17-62l-4-6.3c-16.8-26.8-25.7-57.7-25.7-89.4
	c0-92.6,75.4-167.9,168-167.9c92.8,0,167.9,75.3,167.9,168.1c0,0,0,0,0,0C517.7,404.3,442.3,479.7,349.7,479.7z"/>
<path class="st2" d="M447.8,383.8c-4.2,11.8-24.8,23.2-34.1,24s-17.9,4.2-60.6-12.6c-51.3-20.2-83.7-72.8-86.2-76.2
	c-2.5-3.4-20.6-27.4-20.6-52.2c0-24.9,13-37.1,17.7-42.1c3.4-3.9,8.3-6.2,13.5-6.3c3.4,0,6.7,0,9.7,0.1c3.6,0.1,7.6,0.3,11.4,8.7
	c4.5,10,14.3,34.9,15.6,37.5c1.3,2.5,2.1,5.5,0.4,8.8c-1.7,3.4-2.5,5.5-5,8.4c-2.5,3-5.3,6.6-7.6,8.8c-2.5,2.5-5.2,5.2-2.2,10.3
	c3,5.1,13.1,21.6,28.1,35c19.3,17.2,35.6,22.5,40.6,25.1c5.1,2.6,8,2.1,10.9-1.3c2.9-3.4,12.6-14.7,16-19.8s6.7-4.2,11.4-2.5
	c4.6,1.7,29.5,13.9,34.5,16.4c5,2.5,8.4,3.7,9.7,5.9C452,361.9,452,372,447.8,383.8z"/>
<path class="st0" d="M447.8,385.5c-4.2,11.8-24.8,23.2-34.1,24s-17.9,4.2-60.6-12.6c-51.3-20.2-83.7-72.8-86.2-76.2
	c-2.5-3.4-20.6-27.4-20.6-52.2c0-24.9,13-37.1,17.7-42.1c3.4-3.9,8.3-6.2,13.5-6.3c3.4,0,6.7,0,9.7,0.1c3.6,0.1,7.6,0.3,11.4,8.7
	c4.5,10,14.3,34.9,15.6,37.5c1.3,2.5,2.1,5.5,0.4,8.8s-2.5,5.5-5,8.4c-2.5,3-5.3,6.6-7.6,8.8c-2.5,2.5-5.2,5.2-2.2,10.3
	c3,5.1,13.1,21.6,28.1,35c19.3,17.2,35.6,22.5,40.6,25.1c5.1,2.6,8,2.1,10.9-1.3s12.6-14.7,16-19.8s6.7-4.2,11.4-2.5
	c4.6,1.7,29.5,13.9,34.5,16.4c5,2.5,8.4,3.7,9.7,5.9S452,373.7,447.8,385.5z M467.7,194.7c-31.4-31.6-74.2-49.3-118.7-49.2
	c-92.7,0-168,75.3-168,167.9c0,31.6,8.9,62.6,25.7,89.4l4,6.3l-17,62l63.6-16.7l6.1,3.6c25.9,15.3,55.4,23.4,85.5,23.4h0
	c92.6,0,167.9-75.3,168-167.9C517,268.9,499.3,226.1,467.7,194.7L467.7,194.7z"/>
</svg>
