<?xml version="1.0" encoding="UTF-8" standalone="no"?>
<!DOCTYPE svg PUBLIC "-//W3C//DTD SVG 1.1//EN" "http://www.w3.org/Graphics/SVG/1.1/DTD/svg11.dtd">
<svg width="100%" height="100%" viewBox="0 0 1536 2048" version="1.1" xmlns="http://www.w3.org/2000/svg" xmlns:xlink="http://www.w3.org/1999/xlink" xml:space="preserve" xmlns:serif="http://www.serif.com/" style="fill-rule:evenodd;clip-rule:evenodd;stroke-linecap:round;stroke-linejoin:round;stroke-miterlimit:1.5;">
    <g transform="matrix(1,0,0,1,-7.08386,-113.989)">
        <g id="Слой1">
            <path d="M509.637,838.815C483.156,813.664 468.266,785.333 468.266,755.376C468.266,651.515 647.245,567.194 867.697,567.194C1088.15,567.194 1267.13,651.515 1267.13,755.376C1267.13,822.219 1192.99,880.97 1081.38,914.357C1062.84,919.941 1048.17,934.18 1042.04,952.542C1035.9,970.904 1039.07,991.101 1050.53,1006.7C1103.53,1079.02 1134.6,1166.88 1134.6,1261.58C1134.6,1508.4 923.515,1708.79 663.522,1708.79C403.528,1708.79 192.447,1508.4 192.447,1261.58C192.447,1065.9 325.111,899.414 509.637,838.815Z" style="fill:rgb(229,241,237);stroke:rgb(248,248,249);stroke-width:4px;"/>
        </g>
    </g>
    <g transform="matrix(1.15295,0,0,1.15295,-193.536,80.664)">
        <g transform="matrix(0.987885,-0.155188,0.155188,0.987885,83.2369,10.0651)">
            <path d="M411.808,567.853L411.808,567.853L411.808,850.674L411.808,850.674L411.808,1188.63C309.055,1188.63 225.757,1104.54 225.757,1000.8C225.757,932.384 261.987,872.511 316.134,839.67C319.811,837.482 322.168,833.617 322.429,829.347C322.691,825.076 320.824,820.952 317.442,818.332C282.341,790.913 259.828,748.54 259.828,700.989C259.828,643.346 292.91,593.313 341.394,568.304C345.444,566.231 348.117,562.193 348.441,557.655C348.765,553.117 346.694,548.74 342.98,546.113C312.789,525.025 293.143,490.342 293.143,451.146C293.143,386.69 346.271,334.438 411.808,334.438L411.808,567.853Z" style="fill:rgb(44,112,64);"/>
            <g transform="matrix(1,0,0,0.878243,-10.5549,143.365)">
                <path d="M411.808,334.438L411.808,1410.72" style="fill:none;stroke:rgb(44,112,64);stroke-width:18.43px;"/>
            </g>
        </g>
        <g transform="matrix(0.78671,-0.333235,0.333235,0.78671,-49.1386,331.211)">
            <path d="M411.808,567.853L411.808,567.853L411.808,850.674L411.808,850.674L411.808,1188.63C309.055,1188.63 225.757,1104.54 225.757,1000.8C225.757,933.432 260.885,874.347 313.659,841.198C317.83,838.62 320.492,834.18 320.802,829.286C321.112,824.392 319.031,819.652 315.218,816.568C281.395,789.11 259.828,747.53 259.828,700.989C259.828,644.489 291.611,595.3 338.529,569.821C343.088,567.357 346.079,562.741 346.467,557.573C346.854,552.405 344.583,547.396 340.442,544.28C311.69,523.053 293.143,489.229 293.143,451.146C293.143,386.69 346.271,334.438 411.808,334.438L411.808,567.853Z" style="fill:rgb(139,196,64);"/>
            <g transform="matrix(1,0,0,0.878243,-10.5549,143.365)">
                <path d="M411.808,334.438L411.808,1410.72" style="fill:none;stroke:rgb(139,196,64);stroke-width:21.57px;"/>
            </g>
        </g>
        <g transform="matrix(0.564856,-0.39268,0.39268,0.564856,-24.0086,698.777)">
            <path d="M411.808,567.853L411.808,567.853L411.808,850.674L411.808,850.674L411.808,1188.63C309.055,1188.63 225.757,1104.54 225.757,1000.8C225.757,935.066 259.201,877.219 309.849,843.657C314.772,840.427 317.895,835.075 318.285,829.199C318.674,823.324 316.284,817.606 311.829,813.756C279.965,786.301 259.828,745.961 259.828,700.989C259.828,646.23 289.683,598.339 334.235,572.243C339.554,569.115 343.01,563.587 343.492,557.435C343.975,551.284 341.424,545.284 336.658,541.365C310.072,520.025 293.143,487.53 293.143,451.146C293.143,386.69 346.271,334.438 411.808,334.438L411.808,567.853Z" style="fill:rgb(105,188,163);stroke:rgb(105,188,163);stroke-width:5.04px;"/>
            <g transform="matrix(1,0,0,0.878243,-10.5549,143.365)">
                <path d="M411.808,334.438L411.808,1410.72" style="fill:none;stroke:rgb(105,188,163);stroke-width:26.79px;"/>
            </g>
        </g>
    </g>
    <g id="atm">
        <path d="M1166.05,798.959L979.31,798.959" style="fill:none;stroke:rgb(25,25,27);stroke-width:4px;"/>
        <path d="M979.31,798.959L1072.82,612.41" style="fill:none;stroke:rgb(25,25,27);stroke-width:4px;"/>
        <path d="M1072.82,612.41L1351.59,612.41" style="fill:none;stroke:rgb(25,25,27);stroke-width:4px;"/>
        <path d="M1351.59,612.41L1256.91,801.818" style="fill:none;stroke:rgb(25,25,27);stroke-width:4px;"/>
        <path d="M1179.6,798.827L1223.93,798.827" style="fill:none;stroke:rgb(25,25,27);stroke-width:4px;"/>
        <path d="M978.806,798.827L978.806,1004.38" style="fill:none;stroke:rgb(25,25,27);stroke-width:4px;"/>
        <path d="M978.806,1017.17L978.806,1044.09" style="fill:none;stroke:rgb(25,25,27);stroke-width:4px;"/>
        <path d="M999.571,832.941L999.571,878.912" style="fill:none;stroke:rgb(25,25,27);stroke-width:4px;"/>
        <path d="M999.571,832.941L1091.67,832.941" style="fill:none;stroke:rgb(25,25,27);stroke-width:4px;"/>
        <path d="M1091.67,832.941L1091.67,877.536" style="fill:none;stroke:rgb(25,25,27);stroke-width:4px;"/>
        <path d="M1091.67,877.536L1074.26,877.536" style="fill:none;stroke:rgb(25,25,27);stroke-width:4px;"/>
        <path d="M999.735,878.887L1015.39,878.887" style="fill:none;stroke:rgb(25,25,27);stroke-width:4px;"/>
        <path d="M1000.81,852.664L1090.67,852.664" style="fill:none;stroke:rgb(25,25,27);stroke-width:4px;"/>
        <path d="M1016.85,852.804L1016.85,889.491" style="fill:none;stroke:rgb(25,25,27);stroke-width:4px;"/>
        <path d="M1074.34,852.664L1074.34,889.613" style="fill:none;stroke:rgb(25,25,27);stroke-width:4px;"/>
        <path d="M1017,889.613L1074.34,889.613" style="fill:none;stroke:rgb(25,25,27);stroke-width:4px;"/>
        <path d="M1033.91,778.197L1221.9,778.197L1286.55,642.304L1096.67,642.304L1033.91,778.197Z" style="fill:rgb(62,10,205);"/>
        <path d="M1107.76,670.268L1249.4,670.268" style="fill:none;stroke:rgb(248,248,249);stroke-width:4px;"/>
        <path d="M1093.47,700.875L1171.4,700.875" style="fill:none;stroke:rgb(248,248,249);stroke-width:4px;"/>
        <path d="M1085.1,723.617L1164.95,723.617" style="fill:none;stroke:rgb(248,248,249);stroke-width:4px;"/>
        <path d="M1075.37,745.915L1157.69,745.915" style="fill:none;stroke:rgb(248,248,249);stroke-width:4px;"/>
    </g>
    <g id="мужчина">
        <path d="M426.405,858.605L672.319,850.131C672.319,850.131 690.981,985.749 698.589,1041.03C700.696,1056.34 701.088,1071.84 699.757,1087.24C694.852,1144 682.634,1285.38 682.634,1285.38L689.937,1567.21L668.684,1587.08C668.684,1587.08 717.864,1604.37 735.692,1610.63C739.741,1612.06 743.001,1615.12 744.67,1619.08C747.03,1624.67 750.132,1632.01 750.132,1632.01L593.812,1631.42L564.238,1415.67L566.902,1293.6L419.246,1568.1L376.498,1585.26L412.472,1600.28C412.472,1600.28 430.181,1605.61 439.18,1608.31C442.332,1609.26 444.708,1611.87 445.361,1615.09C446.266,1619.56 447.422,1625.26 447.422,1625.26C415.897,1630.56 385.152,1628.94 354.829,1623.6C341.637,1621.31 329.033,1616.41 317.75,1609.21C306.58,1602.13 293.557,1593.81 293.557,1593.81C293.557,1593.81 405.896,1265.75 429.062,1198.1C431.797,1190.11 432.815,1181.64 432.05,1173.23C431.888,1171.46 431.721,1169.62 431.557,1167.82C430.722,1158.65 432.22,1149.41 435.912,1140.97C435.912,1140.97 435.912,1140.97 435.912,1140.97C440.824,1129.74 442.011,1117.23 439.299,1105.28C437.558,1097.6 435.588,1088.92 434.053,1082.15C432.302,1074.44 431.326,1066.56 431.138,1058.65C430.081,1013.95 426.405,858.605 426.405,858.605Z" style="fill:rgb(62,10,205);"/>
        <clipPath id="_clip1">
            <path d="M426.405,858.605L672.319,850.131C672.319,850.131 690.981,985.749 698.589,1041.03C700.696,1056.34 701.088,1071.84 699.757,1087.24C694.852,1144 682.634,1285.38 682.634,1285.38L689.937,1567.21L668.684,1587.08C668.684,1587.08 717.864,1604.37 735.692,1610.63C739.741,1612.06 743.001,1615.12 744.67,1619.08C747.03,1624.67 750.132,1632.01 750.132,1632.01L593.812,1631.42L564.238,1415.67L566.902,1293.6L419.246,1568.1L376.498,1585.26L412.472,1600.28C412.472,1600.28 430.181,1605.61 439.18,1608.31C442.332,1609.26 444.708,1611.87 445.361,1615.09C446.266,1619.56 447.422,1625.26 447.422,1625.26C415.897,1630.56 385.152,1628.94 354.829,1623.6C341.637,1621.31 329.033,1616.41 317.75,1609.21C306.58,1602.13 293.557,1593.81 293.557,1593.81C293.557,1593.81 405.896,1265.75 429.062,1198.1C431.797,1190.11 432.815,1181.64 432.05,1173.23C431.888,1171.46 431.721,1169.62 431.557,1167.82C430.722,1158.65 432.22,1149.41 435.912,1140.97C435.912,1140.97 435.912,1140.97 435.912,1140.97C440.824,1129.74 442.011,1117.23 439.299,1105.28C437.558,1097.6 435.588,1088.92 434.053,1082.15C432.302,1074.44 431.326,1066.56 431.138,1058.65C430.081,1013.95 426.405,858.605 426.405,858.605Z"/>
        </clipPath>
        <g clip-path="url(#_clip1)">
            <path d="M594.002,1048.26L616.748,1024C616.748,1024 633.28,1047.09 648.044,1067.72C662.239,1087.55 665.757,1113.1 657.45,1136.02C654.513,1144.13 651.57,1152.25 649.186,1158.83C645.736,1168.35 643.943,1178.39 643.884,1188.52C643.848,1194.76 643.806,1202.07 643.768,1208.73C643.691,1222.03 641.03,1235.2 635.932,1247.49C630.096,1261.55 622.019,1281.02 615.586,1296.53C608.726,1313.06 606.941,1331.26 610.46,1348.82C615.664,1374.81 622.721,1411 622.655,1415.83C622.525,1425.31 609.235,1493.42 605.816,1510.79C605.288,1513.47 604.964,1516.19 604.85,1518.92C604.106,1536.62 601.21,1605.6 601.21,1605.6L709.18,1560.48L779.734,1664.9L551.864,1664L566.696,1295.33L593.138,1172.75L594.002,1048.26Z"/>
            <path d="M411.482,850.131L412.378,957.612C412.378,957.612 435.394,952.671 455.618,948.33C475.238,944.118 493.354,934.68 508.048,921.015C508.048,921.015 508.048,921.015 508.049,921.015C528.838,901.682 555.495,889.857 583.779,887.42C595.543,886.407 607.786,885.352 617.849,884.486C632.54,883.22 646.723,878.495 659.238,870.698C674.101,861.437 692.246,850.131 692.246,850.131L411.482,850.131Z"/>
            <path d="M275.76,1560.48L457.281,1568.77L466.602,1667.88L263.236,1681.49L275.76,1560.48Z"/>
        </g>
        <path d="M339.115,697.257L431.856,703.811L424.753,858.605L675.65,851.849L664.785,687.781L714.06,675.737C714.06,675.737 707.533,659.169 699.716,639.33C682.824,596.454 651.08,561.081 610.276,539.663C603.308,536.006 596.903,532.644 591.803,529.967C584.025,525.884 575.771,522.78 567.23,520.725C565.855,520.395 564.409,520.047 562.911,519.687C535.734,513.149 507.2,515.174 481.22,525.486C480.879,525.621 480.541,525.755 480.204,525.889C465.498,531.725 451.694,539.617 439.203,549.328C433.598,553.686 427.141,558.705 420.408,563.94C383.184,592.881 356.404,633.163 344.124,678.687C341.193,689.554 339.115,697.257 339.115,697.257Z" style="fill:rgb(255,198,0);"/>
        <clipPath id="_clip2">
            <path d="M339.115,697.257L431.856,703.811L424.753,858.605L675.65,851.849L664.785,687.781L714.06,675.737C714.06,675.737 707.533,659.169 699.716,639.33C682.824,596.454 651.08,561.081 610.276,539.663C603.308,536.006 596.903,532.644 591.803,529.967C584.025,525.884 575.771,522.78 567.23,520.725C565.855,520.395 564.409,520.047 562.911,519.687C535.734,513.149 507.2,515.174 481.22,525.486C480.879,525.621 480.541,525.755 480.204,525.889C465.498,531.725 451.694,539.617 439.203,549.328C433.598,553.686 427.141,558.705 420.408,563.94C383.184,592.881 356.404,633.163 344.124,678.687C341.193,689.554 339.115,697.257 339.115,697.257Z"/>
        </clipPath>
        <g clip-path="url(#_clip2)">
            <path d="M392.794,554.987C392.794,554.987 394.222,557.211 396.302,560.449C406.131,575.749 423.186,584.865 441.368,584.538C469.4,584.031 507.576,583.285 508.358,582.961C508.851,582.757 513.134,585.063 518.109,587.911C529.025,594.13 541.971,595.739 554.078,592.383C596.293,580.681 692.861,553.911 692.861,553.911L600.793,491.635L392.794,554.987Z" style="fill:none;stroke:white;stroke-width:4px;"/>
            <path d="M688.544,773.476L674.503,745.584C674.503,745.584 674.503,745.584 674.502,745.584C661.121,745.113 647.951,749.013 636.985,756.695C635.308,757.87 633.585,759.077 631.856,760.288C616.444,771.085 604.633,786.265 597.956,803.857C595.129,811.305 592.138,819.184 589.582,825.92C585.277,837.262 583.963,849.521 585.767,861.518C586.761,868.128 587.643,873.995 587.643,873.995L667.459,874.817L705.844,855.182L681.249,834.673C681.249,834.673 673.714,833.161 665.198,831.452C661.436,830.697 658.531,827.699 657.896,823.915C657.261,820.132 659.028,816.349 662.337,814.407C672.213,808.613 681.869,802.947 681.869,802.947L688.544,773.476Z" style="fill:none;stroke:white;stroke-width:4px;"/>
            <path d="M296.794,632.235C296.794,632.235 362.339,638.717 394.275,641.875C404.787,642.914 413.864,649.676 417.869,659.451C417.869,659.452 417.87,659.452 417.87,659.453C420.966,667.01 427.352,672.735 435.202,674.989C448.942,678.935 470.868,685.232 484.032,689.013C490.725,690.935 495.596,696.706 496.369,703.626C496.402,703.92 496.435,704.217 496.468,704.515C497.004,709.317 495.538,714.127 492.414,717.812C489.291,721.498 484.786,723.733 479.962,723.992C433.585,726.476 316.385,732.755 316.385,732.755L296.794,632.235Z" style="fill:none;stroke:white;stroke-width:4px;"/>
            <path d="M430.853,753.101L448.448,644.411L487.643,762.201L430.853,753.101Z"/>
            <path d="M419.7,549.534C419.7,549.534 438.55,551.856 453.077,553.645C462.958,554.862 472.523,549.677 476.896,540.733C476.896,540.733 476.896,540.733 476.896,540.733L590.19,526.505C590.19,526.505 570.974,511.906 571.234,509.314C571.494,506.721 465.499,515.117 464.454,516.835C463.408,518.552 419.7,549.534 419.7,549.534Z"/>
            <path d="M664.281,687.266L653.617,624.724L691.626,679.789L664.281,687.266Z"/>
        </g>
        <g transform="matrix(0.326663,-0.945141,0.945141,0.326663,-227.112,1461.66)">
            <rect x="873.355" y="839.849" width="64.269" height="121.355" style="fill:rgb(105,188,163);"/>
            <clipPath id="_clip3">
                <rect x="873.355" y="839.849" width="64.269" height="121.355"/>
            </clipPath>
            <g clip-path="url(#_clip3)">
                <g transform="matrix(0.0038136,0.999993,-0.999993,0.0038136,1814.58,-4.07761)">
                    <rect x="937.625" y="875.047" width="26.123" height="75.163" style="fill:rgb(44,112,64);"/>
                </g>
                <g transform="matrix(0.0038136,0.999993,-0.999993,0.0038136,1815.49,-102.706)">
                    <rect x="937.625" y="875.047" width="26.123" height="75.163" style="fill:rgb(44,112,64);"/>
                </g>
                <g transform="matrix(-0.00177249,0.999998,-0.999998,-0.00177249,1799.13,-28.5216)">
                    <ellipse cx="931.189" cy="892.36" rx="10.979" ry="16.031" style="fill:rgb(44,112,64);"/>
                </g>
            </g>
        </g>
        <g transform="matrix(0.997922,0.064428,-0.064428,0.997922,50.1684,-36.3785)">
            <path d="M549.648,785.955C549.648,785.955 573.012,757.21 579.672,749.016C580.705,747.744 582.464,747.327 583.958,748C593.343,752.223 626.222,767.021 638.624,772.602C639.75,773.109 640.57,774.118 640.836,775.323C641.103,776.529 640.784,777.789 639.977,778.723C632.936,786.869 617.093,805.197 612.104,810.969C611.192,812.024 609.698,812.361 608.421,811.8C597.608,807.045 549.648,785.955 549.648,785.955Z" style="fill:rgb(110,106,121);"/>
            <clipPath id="_clip4">
                <path d="M549.648,785.955C549.648,785.955 573.012,757.21 579.672,749.016C580.705,747.744 582.464,747.327 583.958,748C593.343,752.223 626.222,767.021 638.624,772.602C639.75,773.109 640.57,774.118 640.836,775.323C641.103,776.529 640.784,777.789 639.977,778.723C632.936,786.869 617.093,805.197 612.104,810.969C611.192,812.024 609.698,812.361 608.421,811.8C597.608,807.045 549.648,785.955 549.648,785.955Z"/>
            </clipPath>
            <g clip-path="url(#_clip4)">
                <path d="M582.834,750.451L580.222,754.625L633.056,779.802L637.646,774.8L582.834,750.451Z" style="fill:rgb(105,188,163);"/>
            </g>
        </g>
        <path d="M348.536,698.036L440.871,700.484C440.871,700.484 438.346,722.778 436.891,735.631C436.327,740.608 439.738,745.162 444.673,746.022C464.378,749.455 510.39,757.472 510.39,757.472C510.39,757.472 522.855,752.255 530.901,748.887C535.234,747.073 540.028,746.664 544.606,747.717C555.401,750.199 574.806,754.662 574.806,754.662L560.96,769.063C560.96,769.063 607.357,791.735 620.148,797.985C622.035,798.907 623.025,801.019 622.527,803.059C622.527,803.059 622.527,803.06 622.527,803.061C622.026,805.113 620.129,806.515 618.02,806.39C611.068,805.98 596.59,805.126 596.59,805.126C596.59,805.126 597.749,806.304 599.208,807.786C600.652,809.255 601.375,811.285 601.183,813.336C600.991,815.387 599.903,817.248 598.211,818.422C598.211,818.423 598.211,818.423 598.211,818.423C597.84,818.68 597.391,818.802 596.94,818.768C594.783,818.604 588.354,818.114 588.354,818.114C588.354,818.114 587.142,820.163 585.926,822.22C584.453,824.713 581.577,826.015 578.732,825.477C562.85,822.476 512.507,812.963 512.507,812.963C512.507,812.963 433.898,823.859 398.284,828.795C387.223,830.328 375.985,827.741 366.708,821.526C366.708,821.526 366.707,821.526 366.707,821.526C355.46,813.99 348.701,801.351 348.679,787.812C348.627,755.399 348.536,698.036 348.536,698.036Z" style="fill:rgb(255,107,0);"/>
        <clipPath id="_clip5">
            <path d="M348.536,698.036L440.871,700.484C440.871,700.484 438.346,722.778 436.891,735.631C436.327,740.608 439.738,745.162 444.673,746.022C464.378,749.455 510.39,757.472 510.39,757.472C510.39,757.472 522.855,752.255 530.901,748.887C535.234,747.073 540.028,746.664 544.606,747.717C555.401,750.199 574.806,754.662 574.806,754.662L560.96,769.063C560.96,769.063 607.357,791.735 620.148,797.985C622.035,798.907 623.025,801.019 622.527,803.059C622.527,803.059 622.527,803.06 622.527,803.061C622.026,805.113 620.129,806.515 618.02,806.39C611.068,805.98 596.59,805.126 596.59,805.126C596.59,805.126 597.749,806.304 599.208,807.786C600.652,809.255 601.375,811.285 601.183,813.336C600.991,815.387 599.903,817.248 598.211,818.422C598.211,818.423 598.211,818.423 598.211,818.423C597.84,818.68 597.391,818.802 596.94,818.768C594.783,818.604 588.354,818.114 588.354,818.114C588.354,818.114 587.142,820.163 585.926,822.22C584.453,824.713 581.577,826.015 578.732,825.477C562.85,822.476 512.507,812.963 512.507,812.963C512.507,812.963 433.898,823.859 398.284,828.795C387.223,830.328 375.985,827.741 366.708,821.526C366.708,821.526 366.707,821.526 366.707,821.526C355.46,813.99 348.701,801.351 348.679,787.812C348.627,755.399 348.536,698.036 348.536,698.036Z"/>
        </clipPath>
        <g clip-path="url(#_clip5)">
            <path d="M339.115,687.266L447.217,698.036L451.26,726.946L334.179,713.653L339.115,687.266Z"/>
            <path d="M378.163,784.761C378.163,784.761 381.889,774.243 399.597,763.631C417.306,753.019 430.677,751.482 430.677,751.482" style="fill:none;stroke:black;stroke-width:4px;"/>
            <path d="M590.603,802.173L554.552,788.776" style="fill:none;stroke:black;stroke-width:4px;"/>
            <path d="M581.22,816.937L549.178,806.08" style="fill:none;stroke:black;stroke-width:4px;"/>
        </g>
        <path d="M476.059,405.108C482.167,372.704 504.53,348.646 531.152,348.646C557.773,348.646 580.137,372.704 586.244,405.108C586.787,405.053 587.337,405.025 587.893,405.025C597.347,405.025 605.022,413.056 605.022,422.947C605.022,432.838 597.347,440.869 587.893,440.869C587.337,440.869 586.787,440.841 586.244,440.787C582.574,460.258 573.035,476.715 560.229,486.751L560.229,523.732C571.07,527.002 577.922,531.804 577.922,537.154C577.922,546.996 554.731,554.987 526.166,554.987C497.601,554.987 474.41,546.996 474.41,537.154C474.41,531.898 481.024,527.17 491.538,523.905L491.538,476.124C484.091,466.61 478.632,454.439 476.059,440.787C475.516,440.841 474.966,440.869 474.41,440.869C464.956,440.869 457.281,432.838 457.281,422.947C457.281,413.056 464.956,405.025 474.41,405.025C474.966,405.025 475.516,405.053 476.059,405.108Z" style="fill:rgb(255,107,0);"/>
        <clipPath id="_clip6">
            <path d="M476.059,405.108C482.167,372.704 504.53,348.646 531.152,348.646C557.773,348.646 580.137,372.704 586.244,405.108C586.787,405.053 587.337,405.025 587.893,405.025C597.347,405.025 605.022,413.056 605.022,422.947C605.022,432.838 597.347,440.869 587.893,440.869C587.337,440.869 586.787,440.841 586.244,440.787C582.574,460.258 573.035,476.715 560.229,486.751L560.229,523.732C571.07,527.002 577.922,531.804 577.922,537.154C577.922,546.996 554.731,554.987 526.166,554.987C497.601,554.987 474.41,546.996 474.41,537.154C474.41,531.898 481.024,527.17 491.538,523.905L491.538,476.124C484.091,466.61 478.632,454.439 476.059,440.787C475.516,440.841 474.966,440.869 474.41,440.869C464.956,440.869 457.281,432.838 457.281,422.947C457.281,413.056 464.956,405.025 474.41,405.025C474.966,405.025 475.516,405.053 476.059,405.108Z"/>
        </clipPath>
        <g clip-path="url(#_clip6)">
            <path d="M470.41,401.981C477.418,403.181 485.114,403.96 489.688,410.532C491.645,403.183 498.62,396.207 504.613,389.447C507.597,386.047 509.169,381.635 509.007,377.114C509.013,377.113 509.013,377.113 509.013,377.113C509.012,377.109 509.012,377.106 509.012,377.102C509.008,377.022 508.962,376.093 508.892,374.671C508.74,371.612 510.442,368.761 513.207,367.443C515.971,366.125 519.257,366.597 521.539,368.64C521.54,368.64 521.54,368.641 521.541,368.641C524.53,371.318 528.494,372.639 532.491,372.289C534.909,372.078 537.715,371.833 540.312,371.606C545.77,371.129 550.794,368.44 554.218,364.164C555.584,362.458 556.673,361.097 556.673,361.097C570.596,374.516 579.159,390.634 582.363,409.451L587.186,402.212L577.927,344.489L518.822,338.261L481.797,359.634L470.41,401.981Z" style="fill:rgb(25,25,27);"/>
            <path d="M473.008,442C477.498,440.894 480.339,438.906 487.073,437.093L479.76,463.275L473.008,442Z" style="fill:rgb(25,25,27);"/>
            <path d="M561.292,487.071L561.565,502.907L540.781,492.161L561.292,487.071Z" style="fill:rgb(25,25,27);"/>
            <path d="M490.74,518.867L492.379,535.595L471.733,543.933L469.72,531.155L490.74,518.867Z" style="fill:rgb(25,25,27);"/>
            <path d="M561.565,523.812L561.565,536.499L582.253,537.025L582.252,524.766L561.565,523.812Z" style="fill:rgb(25,25,27);"/>
            <g transform="matrix(1,0,0,1,-0.483382,-2.35871)">
                <ellipse cx="521.413" cy="424.483" rx="4.011" ry="3.974" style="fill:rgb(25,25,27);"/>
            </g>
            <g transform="matrix(1,0,0,1,39.4223,-2.35871)">
                <ellipse cx="521.413" cy="424.483" rx="4.011" ry="3.974" style="fill:rgb(25,25,27);"/>
            </g>
            <path d="M546.936,447.649C546.936,447.649 557.544,445.407 563.198,444.212C564.071,444.027 564.822,443.476 565.259,442.698C565.696,441.921 565.778,440.993 565.482,440.151C565.482,440.15 565.481,440.149 565.481,440.148C565.088,439.03 564.128,438.207 562.963,437.99C558.834,437.221 549.349,435.452 549.349,435.452L548.73,404.404" style="fill:none;stroke:rgb(25,25,27);stroke-width:4px;"/>
            <path d="M521.845,460.475C521.845,460.475 528.982,467.822 540.698,467.639C552.414,467.455 561.264,458.618 561.264,458.618" style="fill:none;stroke:rgb(25,25,27);stroke-width:4px;"/>
            <path d="M584.895,426.378C584.895,426.378 585.178,415.405 590.599,415.017C596.021,414.629 599.265,420.531 599.265,420.531" style="fill:none;stroke:rgb(25,25,27);stroke-width:4px;"/>
            <path d="M463.654,426.378C463.654,426.378 465.216,418.261 470.41,414.999C475.604,411.736 481.05,426.026 481.05,426.026" style="fill:none;stroke:rgb(25,25,27);stroke-width:4px;"/>
        </g>
        <path d="M664.158,686.488L707.019,675.733C707.019,675.733 718.38,715.709 725.993,742.496C730.306,757.669 740.315,770.589 753.929,778.555C787.677,798.303 849.815,834.664 849.815,834.664C849.815,834.664 889.428,848.477 902.553,853.053C905.288,854.007 907.742,855.629 909.69,857.773C915.936,864.643 930.343,880.489 936.263,887.001C937.815,888.708 938.066,891.228 936.883,893.208C936.883,893.208 936.882,893.208 936.882,893.209C935.482,895.551 932.517,896.427 930.069,895.221C919.695,890.11 894.294,877.596 894.294,877.596C894.294,877.596 893.983,877.994 893.473,878.648C887.721,886.015 879.3,890.821 870.032,892.025C866.797,892.446 864.303,892.77 864.303,892.77L858.292,911.051L908.976,928.786C908.976,928.786 910.525,955.839 911.05,964.998C911.156,966.865 910.317,968.659 908.816,969.773C906.385,971.577 902.59,974.393 899.746,976.504C897.544,978.138 894.479,977.92 892.531,975.991C883.446,966.996 859.221,943.01 859.221,943.01C859.221,943.01 861.674,966.603 862.713,976.598C862.828,977.712 862.462,978.822 861.705,979.647C860.948,980.472 859.875,980.933 858.755,980.914C858.755,980.914 858.754,980.914 858.754,980.914C856.94,980.884 855.355,979.681 854.837,977.941C852.393,969.728 845.637,947.024 845.637,947.024C845.637,947.024 844.997,967.288 844.73,975.726C844.649,978.323 842.52,980.387 839.92,980.388C838.866,980.388 837.933,980.128 837.507,979.345C833.248,971.507 831.576,929.082 831.177,916.782C831.111,914.599 830.406,912.484 829.151,910.697C826.073,906.316 820.392,898.229 820.392,898.229L673.753,840.145L664.158,686.488Z" style="fill:rgb(255,107,0);"/>
        <clipPath id="_clip7">
            <path d="M664.158,686.488L707.019,675.733C707.019,675.733 718.38,715.709 725.993,742.496C730.306,757.669 740.315,770.589 753.929,778.555C787.677,798.303 849.815,834.664 849.815,834.664C849.815,834.664 889.428,848.477 902.553,853.053C905.288,854.007 907.742,855.629 909.69,857.773C915.936,864.643 930.343,880.489 936.263,887.001C937.815,888.708 938.066,891.228 936.883,893.208C936.883,893.208 936.882,893.208 936.882,893.209C935.482,895.551 932.517,896.427 930.069,895.221C919.695,890.11 894.294,877.596 894.294,877.596C894.294,877.596 893.983,877.994 893.473,878.648C887.721,886.015 879.3,890.821 870.032,892.025C866.797,892.446 864.303,892.77 864.303,892.77L858.292,911.051L908.976,928.786C908.976,928.786 910.525,955.839 911.05,964.998C911.156,966.865 910.317,968.659 908.816,969.773C906.385,971.577 902.59,974.393 899.746,976.504C897.544,978.138 894.479,977.92 892.531,975.991C883.446,966.996 859.221,943.01 859.221,943.01C859.221,943.01 861.674,966.603 862.713,976.598C862.828,977.712 862.462,978.822 861.705,979.647C860.948,980.472 859.875,980.933 858.755,980.914C858.755,980.914 858.754,980.914 858.754,980.914C856.94,980.884 855.355,979.681 854.837,977.941C852.393,969.728 845.637,947.024 845.637,947.024C845.637,947.024 844.997,967.288 844.73,975.726C844.649,978.323 842.52,980.387 839.92,980.388C838.866,980.388 837.933,980.128 837.507,979.345C833.248,971.507 831.576,929.082 831.177,916.782C831.111,914.599 830.406,912.484 829.151,910.697C826.073,906.316 820.392,898.229 820.392,898.229L673.753,840.145L664.158,686.488Z"/>
        </clipPath>
        <g clip-path="url(#_clip7)">
            <path d="M661.632,685.598L708.633,674.927L665.672,732.06L661.632,685.598Z" style="fill:rgb(25,25,27);"/>
            <path d="M664.158,767.089C664.158,767.089 664.158,767.089 664.158,767.089C674.633,806.28 700.326,839.664 735.528,859.824C749.579,867.871 760.8,874.297 760.8,874.297L693.105,860.731L654.581,835.359L664.158,767.089Z" style="fill:rgb(25,25,27);"/>
            <path d="M820.483,897.825L819.065,883.052L805.389,896.753L820.483,897.825Z" style="fill:rgb(25,25,27);"/>
            <g transform="matrix(1,0,0,1,-3.84874,0.111775)">
                <path d="M842.005,923.45L859.744,912.214" style="fill:none;stroke:rgb(25,25,27);stroke-width:4px;"/>
            </g>
            <path d="M882.625,931.66L899.825,964.486" style="fill:none;stroke:rgb(25,25,27);stroke-width:4px;"/>
        </g>
    </g>
</svg>
