<?xml version="1.0" encoding="utf-8"?>
<!-- Generator: Adobe Illustrator 24.0.1, SVG Export Plug-In . SVG Version: 6.00 Build 0)  -->
<svg version="1.1" id="Layer_1" xmlns="http://www.w3.org/2000/svg" xmlns:xlink="http://www.w3.org/1999/xlink" x="0px" y="0px"
	 viewBox="0 0 354 615" style="enable-background:new 0 0 354 615;" xml:space="preserve">
<style type="text/css">
	.st0{fill-rule:evenodd;clip-rule:evenodd;fill:#2C7040;}
	.st1{fill:none;stroke:#2C7040;stroke-width:18.43;stroke-linecap:round;stroke-linejoin:round;}
	.st2{fill-rule:evenodd;clip-rule:evenodd;fill:#8BC440;}
	.st3{fill:none;stroke:#8BC440;stroke-width:21.57;stroke-linecap:round;stroke-linejoin:round;}
	
		.st4{fill-rule:evenodd;clip-rule:evenodd;fill:#69BCA3;stroke:#69BCA3;stroke-width:1.55;stroke-linecap:round;stroke-linejoin:round;}
	.st5{fill:none;stroke:#69BCA3;stroke-width:26.79;stroke-linecap:round;stroke-linejoin:round;}
	.st6{fill-rule:evenodd;clip-rule:evenodd;fill:#3E0ACD;}
	.st7{clip-path:url(#SVGID_2_);}
	.st8{fill-rule:evenodd;clip-rule:evenodd;fill:#19191B;}
	.st9{fill-rule:evenodd;clip-rule:evenodd;fill:#FFC600;}
	.st10{clip-path:url(#SVGID_4_);}
	.st11{fill:none;stroke:#F8F8F9;stroke-width:1.55;stroke-linecap:round;stroke-linejoin:round;}
	.st12{fill-rule:evenodd;clip-rule:evenodd;fill:#FF6B00;}
	.st13{clip-path:url(#SVGID_6_);}
	.st14{fill-rule:evenodd;clip-rule:evenodd;}
	.st15{fill:none;stroke:#19191B;stroke-width:1.55;stroke-linecap:round;stroke-linejoin:round;}
	.st16{clip-path:url(#SVGID_8_);}
	.st17{clip-path:url(#SVGID_10_);}
	.st18{fill:#19191B;}
	
		.st19{fill-rule:evenodd;clip-rule:evenodd;fill:#FFFFFF;stroke:#19191B;stroke-width:4.22;stroke-linecap:round;stroke-linejoin:round;}
	.st20{fill:#19191B;stroke:#19191B;stroke-width:3.6;stroke-linecap:round;stroke-linejoin:round;}
	.st21{fill:#FFFFFF;}
	.st22{font-family:'Helvetica';}
	.st23{font-size:8.2731px;}
</style>
<title>blocking</title>
<path class="st0" d="M92.6,154.6L92.6,154.6l49.7,131.9l0,0l59.4,157.6c-47.9,18.1-101.5-6.5-119.8-54.9
	c-11.6-30.7-6.4-65.2,13.8-91c2.2-2.8,1.8-6.8-1-9.1c-0.6-0.5-1.4-0.9-2.2-1.2c-39.1-12-61-53.5-49-92.5
	c3.2-10.5,8.8-20.1,16.2-28.2c2.4-2.7,2.2-6.8-0.5-9.2c-0.8-0.7-1.7-1.2-2.7-1.4c-18.3-4.6-33.3-17.8-39.9-35.5
	c-11.3-30,4.2-63.8,34.8-75.2L92.6,154.6z"/>
<path class="st1" d="M64.7,95.5L231,536.2"/>
<path class="st2" d="M210.4,190.2L210.4,190.2l9.3,120l0,0l11.1,143.5c-43.7,3.4-81.7-29.6-85.1-73.6c-2.2-27.5,9.9-54.2,32.1-70.6
	c2.9-2.1,3.5-6.1,1.4-9c-0.4-0.6-0.9-1.1-1.5-1.5c-28.8-19.7-36.2-59.1-16.4-87.9c4.8-7,11-13,18.2-17.6c3-2,3.9-6,1.9-9
	c-0.5-0.8-1.1-1.4-1.9-1.9c-13.3-8.3-21.9-22.4-23.1-38c-2.1-27.4,18.7-51.3,46.5-53.4L210.4,190.2z"/>
<path class="st3" d="M201.6,135l31.1,401.2"/>
<path class="st4" d="M76.3,304.9L76.3,304.9l55.3,79.6l0,0l66.1,95.1c-28.9,20.1-68.8,12.7-89.1-16.5c-12.4-17.8-15.1-40.6-7.1-60.7
	c1.3-3.3-0.2-7-3.5-8.4c-0.6-0.2-1.2-0.4-1.8-0.4c-28-2.8-48.4-27.7-45.6-55.7c0.6-5.8,2.1-11.4,4.6-16.7c1.5-3.3,0-7.1-3.2-8.6
	c-0.7-0.3-1.4-0.5-2.1-0.6c-12-0.8-23-7-29.9-16.9c-12.6-18.1-7.9-43.2,10.6-56.1L76.3,304.9z"/>
<path class="st5" d="M47.8,270.2l185,266.1"/>
<path class="st6" d="M181.4,227.7l103.1-0.2c8.4,21.3,10.6,43.5,10.2,66c0,0,0.1,26,0.2,43.3c0,10.1-0.6,20.2-1.8,30.2
	c-2.1,17.3-5.4,44.6-6.6,54.8c-0.3,2.7-0.7,5.4-1.2,8.1c-1.9,10.7-6.9,39.9-9,52.1c-0.6,3.7-1,7.4-1.2,11.1c-0.5,14.7-2,53.6-2,53.6
	l-9.6,11.4l11.1,0.7c5,0.3,9.4,3.1,11.9,7.4l0.5,0.9l-60.9-0.8c0,0-1.9-6.2-3.7-11.9c-1.9-6.2-3-12.5-3.2-19
	c-0.3-8.9-0.7-21.7-0.9-28.9c-0.1-3.7,0-7.3,0.4-11c1.4-12.7,4.7-43.1,4.7-43.1l15.2-110L225.5,390l-29,126.8
	c-0.8,3.3-1.3,6.6-1.6,10c-0.7,6.7-1.7,17.5-1.7,17.5l-16,10.1l14.1,3c4.5,1,8.3,4.1,10,8.4l0,0l-55.6-0.5
	c-3.9-30.7,0.6-62.1,7.3-91c0.1-0.3,0.1-0.7,0.2-0.9c1.2-6.1,13.4-68.4,16.2-82.4c0.4-1.9,0.6-3.8,0.7-5.7c0.9-14.3,5.2-77,5.2-77
	L181.4,227.7z"/>
<g>
	<defs>
		<path id="SVGID_1_" d="M181.4,227.7l103.1-0.2c8.4,21.3,10.6,43.5,10.2,66c0,0,0.1,26,0.2,43.3c0,10.1-0.6,20.2-1.8,30.2
			c-2.1,17.3-5.4,44.6-6.6,54.8c-0.3,2.7-0.7,5.4-1.2,8.1c-1.9,10.7-6.9,39.9-9,52.1c-0.6,3.7-1,7.4-1.2,11.1
			c-0.5,14.7-2,53.6-2,53.6l-9.6,11.4l11.1,0.7c5,0.3,9.4,3.1,11.9,7.4l0.5,0.9l-60.9-0.8c0,0-1.9-6.2-3.7-11.9
			c-1.9-6.2-3-12.5-3.2-19c-0.3-8.9-0.7-21.7-0.9-28.9c-0.1-3.7,0-7.3,0.4-11c1.4-12.7,4.7-43.1,4.7-43.1l15.2-110L225.5,390
			l-29,126.8c-0.8,3.3-1.3,6.6-1.6,10c-0.7,6.7-1.7,17.5-1.7,17.5l-16,10.1l14.1,3c4.5,1,8.3,4.1,10,8.4l0,0l-55.6-0.5
			c-3.9-30.7,0.6-62.1,7.3-91c0.1-0.3,0.1-0.7,0.2-0.9c1.2-6.1,13.4-68.4,16.2-82.4c0.4-1.9,0.6-3.8,0.7-5.7c0.9-14.3,5.2-77,5.2-77
			L181.4,227.7z"/>
	</defs>
	<clipPath id="SVGID_2_">
		<use xlink:href="#SVGID_1_"  style="overflow:visible;"/>
	</clipPath>
	<g class="st7">
		<path class="st8" d="M180,227.8h110.5l-0.5,8.7l-12.9,3c-3.1,0.7-6.4,1.1-9.6,1.2l-22.6,0.2c-5.4,0.1-10.8,0.8-16,2.3l-18.7,5.3
			l-32.7,11.2L180,227.8z"/>
		<path class="st8" d="M240.1,294.7l24.1-23.6l0.1,0.2c6.9,12,10.2,25.7,9.4,39.6c-0.1,1.8-0.2,3.6-0.3,5.2
			c-0.4,6.7-1.8,13.3-4.4,19.5l0,0c-4.6,11.3-6.5,23.6-5.4,35.8c0.1,0.6,0.1,1.2,0.2,1.9c0.4,4.9,0.5,9.9,0.3,14.9
			c-0.1,2.2-0.3,4.8-0.4,7.4c-0.8,13.9-4.6,27.5-11.1,39.8l0,0c-8,14.9-12,31.6-11.9,48.5c0,2.7,0,5.2,0.1,7.3c0,4.5-0.6,9-1.9,13.3
			l-4.1,13.5c-1.3,4.4-2,9-2,13.6l0,0c0,4.5-1.8,8.9-5,12.1L214.2,557l11.6,5.6l52.7-16c0,0,33.6,33.9,30.2,34.8
			c-3.4,0.8-63.5,8.5-67,11.3c-3.5,2.9-76.8-10.4-76.8-10.4l-27.6-14.1l5.3-13.4l61.3-13.9l8.7-60.3
			C226.8,418.9,239.2,357.2,240.1,294.7z"/>
	</g>
</g>
<path class="st9" d="M284.2,164.2l22.3-20.6c0,0-5.3-12.7-9.6-23c-3.5-8.4-9.6-15.5-17.4-20.2l-5.9-3.5c-4.9-3-10.2-5.1-15.8-6.2
	l-17.6-3.5c-9.4-1.9-19-1.4-28.2,1.4L194,94c-7.7,2.3-14.4,7.1-19,13.7c-9.5,13.2-24.8,34.7-24.8,34.7L180,172l0.9,57.9l105.5-1.9
	L284.2,164.2z"/>
<g>
	<defs>
		<path id="SVGID_3_" d="M284.2,164.2l22.3-20.6c0,0-5.3-12.7-9.6-23c-3.5-8.4-9.6-15.5-17.4-20.2l-5.9-3.5
			c-4.9-3-10.2-5.1-15.8-6.2l-17.6-3.5c-9.4-1.9-19-1.4-28.2,1.4L194,94c-7.7,2.3-14.4,7.1-19,13.7c-9.5,13.2-24.8,34.7-24.8,34.7
			L180,172l0.9,57.9l105.5-1.9L284.2,164.2z"/>
	</defs>
	<clipPath id="SVGID_4_">
		<use xlink:href="#SVGID_3_"  style="overflow:visible;"/>
	</clipPath>
	<g class="st10">
		<path class="st11" d="M294.8,104.6l-6.3,1.5c-5.6,1.3-10.5,4.7-13.7,9.6l0,0c-1.2,1.9-3.2,3.2-5.4,3.6l-31.6,5.7
			c-2.9,0.5-5.1,3.1-5.1,6.1l0,0c0,3.4,2.6,6.2,6,6.3l29.4,1.6c2,0.1,3.5,1.8,3.4,3.7l0,0c0,1.6-1.3,2.9-2.9,3l-54.3,3.5
			c-1.6,0.1-3.1,1.2-3.7,2.7l0,0c-0.8,2,0.2,4.4,2.2,5.2c0.4,0.2,0.9,0.3,1.3,0.3l76.2,1.6l-12.7,4.6c-5.3,1.9-10.3,4.7-14.8,8.2
			l0,0c-2.4,1.9-5.1,3.3-7.9,4.1l-13.9,4.2c-1.2,0.4-2.3,1.2-3,2.2l0,0c-1.8,2.7-1.1,6.2,1.6,8c0.8,0.5,1.7,0.8,2.6,0.9l49.7,5.1
			L294.8,104.6z"/>
		<path class="st11" d="M173.2,109.4l-20,24.2l13.7,0.9c4.1,0.3,8.1,0.1,12.1-0.6l18.9-3.1c0.7-0.1,1.3-0.5,1.7-1l0,0
			c0.9-1.2,0.7-3-0.5-3.9c-0.2-0.2-0.4-0.3-0.7-0.4l-9.7-4c-3.4-1.4-6.2-3.8-8-7l0,0c-0.5-0.8-1.1-1.5-2-2L173.2,109.4z"/>
		<path class="st11" d="M174,205c-0.8,0,14.1,2.3,21.3,3.4c2.5,0.4,4.9,1.4,6.9,3l0,0c4.1,3.3,9,5.4,14.1,6.2L232,220
			c7.6,1.2,14.6,5,19.6,10.8l0,0l-80,2.3C171.6,233.2,175.1,205,174,205z"/>
		<path class="st8" d="M284.2,164.1v-34.2l14.3,21.3L284.2,164.1z"/>
		<path class="st8" d="M243.7,87.7l0.1,5.6l5.2-1.6l2-3.1L243.7,87.7z"/>
		<path class="st8" d="M213.4,86.9l0.7,2.6l-6.1,8.4L197.5,99c-3.9,0.4-7.7-1.1-10.2-4.2l0,0L213.4,86.9z"/>
		<path class="st8" d="M160.6,147.7l9.4,3.7l8.5-9.2l1.6,30.1C173.4,164.4,166.8,156.2,160.6,147.7z"/>
	</g>
</g>
<path class="st12" d="M162.1,143.4c0.7,5.1,2.7,9.8,5.9,13.8L180,172l-11.7,23.9c-2.9,5.9-9.2,9.4-15.7,8.7l0,0
	c-5.1-0.6-9.6-3.8-11.7-8.4l-3.9-8.4c-6.4-13.8-9.3-29-8.5-44.2c0.8-15.6,1.9-33.4,1.9-33.4l-9.8-4.6c-1.4-0.6-2.4-1.9-2.9-3.3
	l-2-6.6c-0.5-1.8-0.5-3.6,0.1-5.4c1.2-3.5,3.2-9.3,3.2-9.3l-2.4-17c-0.1-0.7,0.3-1.4,1-1.6l0,0c0.7-0.2,1.5,0.1,1.9,0.7l4.3,7.6
	l0.8-0.4c1.2-0.7,2.6-0.3,3.3,0.9l0.2,0.3c0.3,0.5,0.4,1,0.4,1.6l-0.2,3.6l1.4-0.4c0.6-0.2,1.3-0.1,1.9,0.2l0,0
	c1.1,0.6,1.7,1.8,1.4,3l-1,5.6l2.8,7.8l16.1-5.6l-4.4-15.4c0,0,3.8-7.9,5.3-10.8c0.3-0.7,1.1-1.2,1.9-1.1l0,0c0.7,0,1.3,0.3,1.8,0.8
	c0.5,0.5,0.7,1.2,0.6,1.9c-0.2,2.6-0.5,6.2-0.6,7c0,0.1,0,0.2,0,0.3c-0.1,1.6-0.9,15.5-0.9,15.5S159.8,126,162.1,143.4z"/>
<g>
	<defs>
		<path id="SVGID_5_" d="M162.1,143.4c0.7,5.1,2.7,9.8,5.9,13.8L180,172l-11.7,23.9c-2.9,5.9-9.2,9.4-15.7,8.7l0,0
			c-5.1-0.6-9.6-3.8-11.7-8.4l-3.9-8.4c-6.4-13.8-9.3-29-8.5-44.2c0.8-15.6,1.9-33.4,1.9-33.4l-9.8-4.6c-1.4-0.6-2.4-1.9-2.9-3.3
			l-2-6.6c-0.5-1.8-0.5-3.6,0.1-5.4c1.2-3.5,3.2-9.3,3.2-9.3l-2.4-17c-0.1-0.7,0.3-1.4,1-1.6l0,0c0.7-0.2,1.5,0.1,1.9,0.7l4.3,7.6
			l0.8-0.4c1.2-0.7,2.6-0.3,3.3,0.9l0.2,0.3c0.3,0.5,0.4,1,0.4,1.6l-0.2,3.6l1.4-0.4c0.6-0.2,1.3-0.1,1.9,0.2l0,0
			c1.1,0.6,1.7,1.8,1.4,3l-1,5.6l2.8,7.8l16.1-5.6l-4.4-15.4c0,0,3.8-7.9,5.3-10.8c0.3-0.7,1.1-1.2,1.9-1.1l0,0
			c0.7,0,1.3,0.3,1.8,0.8c0.5,0.5,0.7,1.2,0.6,1.9c-0.2,2.6-0.5,6.2-0.6,7c0,0.1,0,0.2,0,0.3c-0.1,1.6-0.9,15.5-0.9,15.5
			S159.8,126,162.1,143.4z"/>
	</defs>
	<clipPath id="SVGID_6_">
		<use xlink:href="#SVGID_5_"  style="overflow:visible;"/>
	</clipPath>
	<g class="st13">
		<path class="st14" d="M163.4,148.8l1.7,14.1l4.6-3.5L163.4,148.8z"/>
		<path class="st8" d="M130.2,110.3l11.4-0.2l-12.8,16.7L130.2,110.3z"/>
		<path class="st15" d="M124.6,96.8l5.6-9.2"/>
		<path class="st15" d="M119,86l8.4-8.2"/>
		<path class="st15" d="M120.6,79.4l2.6-6.4"/>
	</g>
</g>
<path class="st12" d="M284.2,164.1l22.4-20.8l5-38.8l-4.4-10.6c-1.7-4.1-0.7-8.8,2.6-11.8l3-2.8c0,0,2.4-24.2,3.1-32
	c0.1-0.6,0.4-1.2,0.9-1.5c0.5-0.4,1.1-0.5,1.7-0.4h0.3c0.9,0.2,1.6,1,1.7,2c0.1,5.5,0.2,22.4,0.2,22.4l1.5-3.2
	c0.5-1.1,1.7-1.8,2.9-1.6l0.7,0.1c1.4,0.2,2.5,1.3,2.5,2.7c0,0.5,0,0.9,0,0.9l1.9-2.3c0.7-0.9,1.9-1.2,3-0.9l0.4,0.1
	c0.9,0.3,1.6,1,1.9,1.9c0.3,0.8,0.6,1.6,0.6,1.6l0,0c1.3-1,3.2-0.7,4.2,0.7c0.2,0.3,0.4,0.7,0.5,1.1c0.1,0.3,0.1,0.5,0.1,0.6
	c0,0.2,0.1,0.4,0.1,0.5c0.7,19,0.1,24-4.3,32.4c0,0,1.6,33.8,2.6,55.5c0.5,11.6-2,23.1-7.4,33.3l-1.9,3.6c-2.5,4.8-7.2,8.2-12.6,9
	l0,0c-8.8,1.4-17.4-3.5-20.7-11.7L284.2,164.1z"/>
<g>
	<defs>
		<path id="SVGID_7_" d="M284.2,164.1l22.4-20.8l5-38.8l-4.4-10.6c-1.7-4.1-0.7-8.8,2.6-11.8l3-2.8c0,0,2.4-24.2,3.1-32
			c0.1-0.6,0.4-1.2,0.9-1.5c0.5-0.4,1.1-0.5,1.7-0.4h0.3c0.9,0.2,1.6,1,1.7,2c0.1,5.5,0.2,22.4,0.2,22.4l1.5-3.2
			c0.5-1.1,1.7-1.8,2.9-1.6l0.7,0.1c1.4,0.2,2.5,1.3,2.5,2.7c0,0.5,0,0.9,0,0.9l1.9-2.3c0.7-0.9,1.9-1.2,3-0.9l0.4,0.1
			c0.9,0.3,1.6,1,1.9,1.9c0.3,0.8,0.6,1.6,0.6,1.6l0,0c1.3-1,3.2-0.7,4.2,0.7c0.2,0.3,0.4,0.7,0.5,1.1c0.1,0.3,0.1,0.5,0.1,0.6
			c0,0.2,0.1,0.4,0.1,0.5c0.7,19,0.1,24-4.3,32.4c0,0,1.6,33.8,2.6,55.5c0.5,11.6-2,23.1-7.4,33.3l-1.9,3.6c-2.5,4.8-7.2,8.2-12.6,9
			l0,0c-8.8,1.4-17.4-3.5-20.7-11.7L284.2,164.1z"/>
	</defs>
	<clipPath id="SVGID_8_">
		<use xlink:href="#SVGID_7_"  style="overflow:visible;"/>
	</clipPath>
	<g class="st16">
		<path class="st15" d="M322.4,102c0,0-2.7-7.4,2-12.5c2.6-2.9,5.8-5.1,9.5-6.5"/>
		<path class="st15" d="M328.7,81.8l4.6,1.2l0,0c2.3-1.6,3.7-4.3,3.6-7.1c0-1.9,0-3.7,0-3.7c0.5,4.9-0.4,8.6-3.6,10.8l1,0.2
			c2.1,0.4,4.3-0.4,5.8-2l0,0"/>
		<path class="st15" d="M313.9,89.2l14.8-7.4l3.9-4.4c0.6-0.7,0.7-1.6,0.4-2.4l0,0c-0.5-1.3-2-1.9-3.3-1.4l-13,4.7"/>
		<path class="st8" d="M298.5,150.9l-7.2,35.8l-7-22.6L298.5,150.9z"/>
		<path class="st15" d="M306.8,146.1l-1.6,28.5"/>
	</g>
</g>
<path class="st12" d="M209.3,39.6c2.1-14.1,11.8-24.7,23.4-24.7c11.9,0,21.8,11.3,23.6,26c0.3,0,0.5,0,0.8,0c4,0,7.2,3.2,7.2,7.1
	c0,4-3.2,7.2-7.1,7.2c-0.6,0-1.2-0.1-1.8-0.2c-2.1,8.2-6.9,14.9-13,18.4l1.3,15.7c5.4,1.6,8.9,4.1,8.9,6.8c0,4.8-10.3,8.6-23.1,8.6
	c-12.7,0-23.1-3.9-23.1-8.6c0-2.5,3-4.8,7.6-6.4l-2.4-29.7c-0.1-0.3-0.2-0.6-0.3-0.8c-1,0.3-2,0.4-3,0.4c-5.7,0-10.4-4.4-10.4-9.9
	s4.6-9.9,10.4-9.9C208.6,39.6,209,39.6,209.3,39.6z"/>
<g>
	<defs>
		<path id="SVGID_9_" d="M209.3,39.6c2.1-14.1,11.8-24.7,23.4-24.7c11.9,0,21.8,11.3,23.6,26c0.3,0,0.5,0,0.8,0c4,0,7.2,3.2,7.2,7.1
			c0,4-3.2,7.2-7.1,7.2c-0.6,0-1.2-0.1-1.8-0.2c-2.1,8.2-6.9,14.9-13,18.4l1.3,15.7c5.4,1.6,8.9,4.1,8.9,6.8
			c0,4.8-10.3,8.6-23.1,8.6c-12.7,0-23.1-3.9-23.1-8.6c0-2.5,3-4.8,7.6-6.4l-2.4-29.7c-0.1-0.3-0.2-0.6-0.3-0.8c-1,0.3-2,0.4-3,0.4
			c-5.7,0-10.4-4.4-10.4-9.9s4.6-9.9,10.4-9.9C208.6,39.6,209,39.6,209.3,39.6z"/>
	</defs>
	<clipPath id="SVGID_10_">
		<use xlink:href="#SVGID_9_"  style="overflow:visible;"/>
	</clipPath>
	<g class="st17">
		<g id="Слой1">
			<path class="st8" d="M208.3,38.6l2.6,1.4c1.3,0.7,2.5,1.6,3.5,2.5l1.5,1.4l1.5-4.2c0.5-1.4,1.5-2.6,2.9-3.3l0.2-0.1
				c2.1-1.1,3.3-3.5,2.8-5.9l0,0c-0.3-1.6,0.2-3.2,1.3-4.3l0.9-0.8c2.4-2.4,6.2-2.9,9.1-1.2l0,0c2.5,1.4,5.5,1.7,8.2,0.8l9.5-3.1
				l-14.5-8.8c0,0-23.8,1.8-24.4,2.6C212.8,16.3,208.3,38.6,208.3,38.6z"/>
			<path class="st8" d="M210.4,60l4.8-3.4l-3.9,6.8L210.4,60z"/>
			<path class="st8" d="M214.1,89.4l0.5,5.1l-7.4,3.2l-2.5-2.4l4.5-4.9L214.1,89.4z"/>
			<path class="st8" d="M244.3,92.7l5-1.4l-3-2.7l-2.5,0.5L244.3,92.7z"/>
		</g>
		<path class="st8" d="M232.7,75.5l10.8-2.2l0.6,7.2L232.7,75.5z"/>
		<ellipse class="st18" cx="237.2" cy="62.7" rx="3.2" ry="4"/>
		<path class="st15" d="M245.1,43.4l-0.1,4.3"/>
		<path class="st15" d="M222.8,40l7.3-3.5"/>
		<path class="st15" d="M245,35.6l5.6,4.4"/>
		<path class="st15" d="M241.1,37.8l0.7,13.3h2.5c0.6,0,1.1,0.3,1.3,0.8l0,0c0.2,0.4,0.2,0.9,0,1.3c-0.2,0.4-0.6,0.7-1.1,0.8l-6,0.9
			v4.9"/>
		<path class="st15" d="M226.8,42.7l0.1,4.3"/>
		<path class="st15" d="M256.2,48.8c0,0,0-0.4,0-1c0-1.7,1.4-3,3.1-3c0.7,0,1.3,0.3,1.9,0.7l0,0"/>
		<path class="st15" d="M203.3,51.1c0,0-0.3-3.5,1.7-4.7l0.2-0.1c1.7-0.9,3.7-0.3,4.6,1.4l1.5,2.7"/>
	</g>
</g>
<g id="Слой21">
	<path class="st19" d="M116.5,53.6c-0.1-0.3-0.1-0.7,0-1c0.1-0.3,0.4-0.6,0.7-0.7l20.2-7.1c0.3-0.1,0.7-0.1,1,0.1
		c0.3,0.1,0.5,0.4,0.7,0.7l14.7,41.5c0.1,0.3,0.1,0.7-0.1,1c-0.1,0.3-0.4,0.5-0.7,0.7l-20.2,7.1c-0.3,0.1-0.7,0.1-1-0.1
		c-0.3-0.2-0.5-0.4-0.7-0.7L116.5,53.6z"/>
	
		<rect x="127.4" y="59.7" transform="matrix(0.9459 -0.3246 0.3246 0.9459 -13.3627 46.3849)" class="st20" width="9.9" height="7.1"/>
	<path class="st15" d="M134.3,60.7l-1.9-5.4c-0.4-1-1.5-1.6-2.6-1.2c0,0,0,0,0,0l-1,0.4c-0.8,0.3-1.3,1-1.4,1.9l0,0
		c0,0.3,0,0.6,0.1,0.8l1.2,3.5"/>
	
		<ellipse transform="matrix(0.9963 -8.559082e-02 8.559082e-02 0.9963 -4.9022 11.5315)" class="st21" cx="132" cy="62.9" rx="1.2" ry="1.2"/>
	<text transform="matrix(0.9435 -0.3312 0.3312 0.9435 129.9384 82.2561)" class="st22 st23">SOS</text>
</g>
</svg>
