<?xml version="1.0" encoding="UTF-8" standalone="no"?>
<!DOCTYPE svg PUBLIC "-//W3C//DTD SVG 1.1//EN" "http://www.w3.org/Graphics/SVG/1.1/DTD/svg11.dtd">
<svg width="100%" height="100%" viewBox="0 0 1536 2048" version="1.1" xmlns="http://www.w3.org/2000/svg" xmlns:xlink="http://www.w3.org/1999/xlink" xml:space="preserve" xmlns:serif="http://www.serif.com/" style="fill-rule:evenodd;clip-rule:evenodd;stroke-linecap:round;stroke-linejoin:round;stroke-miterlimit:1.5;">
    <g transform="matrix(0.809323,0,0,0.783864,12.1897,12.2068)">
        <g id="фон">
            <ellipse cx="749.359" cy="769.58" rx="556.02" ry="574.079" style="fill:rgb(229,241,237);stroke:rgb(229,241,237);stroke-width:7.53px;"/>
        </g>
    </g>
    <g id="растения" transform="matrix(1.41183,0.041349,-0.041349,1.41183,-306.2,-263.089)">
        <g transform="matrix(0.93565,-0.352929,0.352929,0.93565,-121.522,170.271)">
            <path d="M411.808,567.853L411.808,567.853L411.808,850.674L411.808,850.674L411.808,1188.63C309.055,1188.63 225.757,1104.54 225.757,1000.8C225.757,931.193 263.259,870.429 318.978,837.98C322.083,836.21 324.083,832.989 324.293,829.421C324.503,825.853 322.895,822.42 320.019,820.297C283.446,792.964 259.828,749.693 259.828,700.989C259.828,642.012 294.458,591.002 344.784,566.608C348.227,564.944 350.509,561.557 350.759,557.741C351.008,553.925 349.187,550.27 345.991,548.171C314.108,527.31 293.143,491.636 293.143,451.146C293.143,386.69 346.271,334.438 411.808,334.438L411.808,567.853Z" style="fill:rgb(62,10,205);"/>
            <g transform="matrix(1,0,0,0.878243,-10.5549,143.365)">
                <path d="M411.808,334.438L411.808,1410.72" style="fill:none;stroke:rgb(62,10,205);stroke-width:15.05px;"/>
            </g>
        </g>
        <g transform="matrix(0.81273,-0.26349,0.26349,0.81273,107.251,236.435)">
            <path d="M411.808,567.853L411.808,567.853L411.808,850.674L411.808,850.674L411.808,1188.63C309.055,1188.63 225.757,1104.54 225.757,1000.8C225.757,932.101 262.287,872.016 316.807,839.264C320.349,837.178 322.622,833.467 322.871,829.364C323.12,825.26 321.313,821.302 318.049,818.802C282.601,791.4 259.828,748.813 259.828,700.989C259.828,643.033 293.271,592.77 342.186,567.898C346.095,565.927 348.677,562.043 348.984,557.676C349.291,553.309 347.277,549.103 343.682,546.604C313.096,525.563 293.143,490.646 293.143,451.146C293.143,386.69 346.271,334.438 411.808,334.438L411.808,567.853Z" style="fill:rgb(255,198,0);"/>
            <g transform="matrix(1,0,0,0.878243,-10.5549,143.365)">
                <path d="M411.808,334.438L411.808,1410.72" style="fill:none;stroke:rgb(255,198,0);stroke-width:17.61px;"/>
            </g>
        </g>
        <g transform="matrix(0.897659,-0.392036,0.325001,0.744167,40.6677,498.606)">
            <path d="M411.808,567.853L411.808,567.853L411.808,850.674L411.808,850.674L411.808,1188.63C309.055,1188.63 225.757,1104.54 225.757,1000.8C225.757,932.68 261.673,873.031 315.43,840.099C318.875,838.014 321.135,833.871 321.36,829.23C321.584,824.59 319.74,820.157 316.52,817.602C281.947,790.167 259.828,748.122 259.828,700.989C259.828,643.591 292.629,593.74 340.776,568.625C344.476,566.695 346.972,562.433 347.243,557.581C347.515,552.729 345.516,548.101 342.064,545.59C312.417,524.364 293.143,489.969 293.143,451.146C293.143,386.69 346.271,334.438 411.808,334.438L411.808,567.853Z" style="fill:rgb(44,112,64);"/>
        </g>
    </g>
    <g id="женщина">
        <path d="M648.689,339.137C649.006,289.565 689.599,249.417 739.554,249.417C789.704,249.417 830.42,289.881 830.42,339.721C830.42,342.011 830.59,337.473 830.42,339.721C830.42,339.721 834.141,400.79 835.862,429.029C836.43,438.361 837.65,447.642 839.512,456.804C844.548,481.584 854.625,531.16 854.625,531.16C854.625,531.16 874.414,583.058 888.473,619.929C897.185,642.776 895.28,668.315 883.276,689.617C882.037,691.816 880.779,694.047 879.517,696.287C863.123,725.379 837.864,748.472 807.423,762.2C733.648,795.469 598.717,856.318 598.717,856.318C598.717,856.318 598.705,856.324 598.682,856.337C575.336,868.756 554.107,884.798 535.784,903.866C533.767,906.041 532.321,906.603 532.245,904.064C532.245,904.064 532.245,904.064 532.245,904.064C531.397,876.038 539.849,848.52 556.282,825.802C574.596,800.916 596.281,771.384 598.309,768.41C598.309,768.41 598.309,768.41 598.309,768.41C623.137,731.993 630.731,686.514 619.082,644.006C613.387,623.228 608.505,605.415 608.505,605.415C608.505,605.415 609.392,535.246 609.908,494.496C610.146,475.641 613.039,456.913 618.502,438.865C629.791,401.57 648.689,339.137 648.689,339.137L648.689,339.137Z" style="fill:rgb(105,188,163);"/>
        <clipPath id="_clip1">
            <path d="M648.689,339.137C649.006,289.565 689.599,249.417 739.554,249.417C789.704,249.417 830.42,289.881 830.42,339.721C830.42,342.011 830.59,337.473 830.42,339.721C830.42,339.721 834.141,400.79 835.862,429.029C836.43,438.361 837.65,447.642 839.512,456.804C844.548,481.584 854.625,531.16 854.625,531.16C854.625,531.16 874.414,583.058 888.473,619.929C897.185,642.776 895.28,668.315 883.276,689.617C882.037,691.816 880.779,694.047 879.517,696.287C863.123,725.379 837.864,748.472 807.423,762.2C733.648,795.469 598.717,856.318 598.717,856.318C598.717,856.318 598.705,856.324 598.682,856.337C575.336,868.756 554.107,884.798 535.784,903.866C533.767,906.041 532.321,906.603 532.245,904.064C532.245,904.064 532.245,904.064 532.245,904.064C531.397,876.038 539.849,848.52 556.282,825.802C574.596,800.916 596.281,771.384 598.309,768.41C598.309,768.41 598.309,768.41 598.309,768.41C623.137,731.993 630.731,686.514 619.082,644.006C613.387,623.228 608.505,605.415 608.505,605.415C608.505,605.415 609.392,535.246 609.908,494.496C610.146,475.641 613.039,456.913 618.502,438.865C629.791,401.57 648.689,339.137 648.689,339.137L648.689,339.137Z"/>
        </clipPath>
        <g clip-path="url(#_clip1)">
            <path d="M666.127,356.046C666.127,356.046 665.663,358.888 665.06,362.587C663.369,372.95 667.401,383.42 675.607,389.971C675.608,389.971 675.608,389.971 675.608,389.972C677.958,391.847 679.326,394.691 679.326,397.697C679.326,398.39 679.326,399.102 679.326,399.791C679.326,402.757 678.192,405.611 676.157,407.768C675.94,407.998 675.718,408.233 675.492,408.472C671.623,412.571 669.699,418.134 670.208,423.748C670.313,424.914 670.417,426.057 670.509,427.078C670.715,429.344 669.303,431.444 667.127,432.109C667.126,432.11 667.125,432.11 667.125,432.11C656.756,435.28 648.131,442.547 643.249,452.228C643.149,452.426 643.051,452.621 642.954,452.811C641.403,455.887 640.628,459.295 640.697,462.739C641.308,493.295 644.413,648.707 645.393,697.767C645.588,707.486 643.095,717.07 638.191,725.462C611.688,770.82 524.015,920.863 524.015,920.863L888.955,718.284L891.254,540.563C891.254,540.563 841.239,466.189 829.434,448.635C827.816,446.23 825.557,444.326 822.912,443.14C822.678,443.034 822.438,442.927 822.194,442.817C816.257,440.155 811.85,434.94 810.215,428.642C810.214,428.642 810.214,428.641 810.214,428.641C809.239,424.885 806.466,421.856 802.811,420.554C800.71,419.806 798.347,418.964 796.263,418.222C792.773,416.979 790.223,413.953 789.588,410.303C789.556,410.124 789.525,409.945 789.494,409.764C788.728,405.36 790.999,400.986 795.043,399.08C795.044,399.08 795.044,399.079 795.045,399.079C806.745,393.564 814.253,381.835 814.363,368.9C814.383,366.45 814.397,364.805 814.397,364.805L666.127,356.046Z" style="fill:rgb(25,25,27);"/>
        </g>
        <path d="M652.796,718.415L856.039,705.886C856.039,705.886 860.098,716.844 865.738,732.07C888.139,792.545 899.831,856.461 900.289,920.951C900.493,949.648 900.706,979.673 900.874,1003.38C901.086,1033.3 897.189,1063.12 889.29,1091.98C879.939,1126.16 867.32,1172.27 860.054,1198.82C856.182,1212.97 853.221,1227.36 851.191,1241.89C839.87,1322.9 800.892,1601.85 800.892,1601.85C800.892,1601.85 800.892,1601.85 800.892,1601.85C805.511,1614.89 815.825,1625.11 828.906,1629.61C832.331,1630.79 835.571,1631.9 838.06,1632.76C840.998,1633.77 843.168,1636.28 843.746,1639.33C844.589,1643.78 845.698,1649.64 845.698,1649.64L757.089,1649.95C757.089,1649.95 746.956,1589.84 742.186,1561.54C740.57,1551.96 739.88,1542.24 740.123,1532.53C740.587,1514.03 741.327,1484.53 741.327,1484.53C741.327,1484.53 729.514,1546.12 723.609,1576.89C721.437,1588.22 721.006,1599.81 722.331,1611.27C723.455,1620.99 724.807,1632.67 725.696,1640.36C726.326,1645.81 725.642,1651.32 723.7,1656.45C723.579,1656.77 723.456,1657.09 723.33,1657.42C718.106,1671.21 704.615,1680.08 689.885,1679.42C689.884,1679.42 689.884,1679.42 689.883,1679.42C675.074,1678.75 662.483,1668.39 658.977,1653.98C658.928,1653.78 658.878,1653.57 658.829,1653.37C657.217,1646.75 657.71,1639.78 660.24,1633.45C664.928,1621.72 672.213,1602.9 672.613,1598.29C673.058,1593.18 666.26,1548.97 662.829,1527.16C661.578,1519.21 659.877,1511.34 657.735,1503.59C653.214,1487.22 644.525,1455.77 635.993,1424.88C620.832,1370 618.598,1312.35 629.466,1256.45C629.466,1256.45 629.466,1256.45 629.466,1256.45C635.021,1227.88 633.076,1198.36 623.823,1170.77C619.701,1158.48 615,1144.46 610.177,1130.08C586.702,1060.08 577.558,986.065 583.29,912.454C583.771,906.283 584.247,900.167 584.712,894.2C588.378,847.122 602.931,801.539 627.223,761.045C640.743,738.507 652.796,718.415 652.796,718.415Z" style="fill:rgb(139,196,64);"/>
        <clipPath id="_clip2">
            <path d="M652.796,718.415L856.039,705.886C856.039,705.886 860.098,716.844 865.738,732.07C888.139,792.545 899.831,856.461 900.289,920.951C900.493,949.648 900.706,979.673 900.874,1003.38C901.086,1033.3 897.189,1063.12 889.29,1091.98C879.939,1126.16 867.32,1172.27 860.054,1198.82C856.182,1212.97 853.221,1227.36 851.191,1241.89C839.87,1322.9 800.892,1601.85 800.892,1601.85C800.892,1601.85 800.892,1601.85 800.892,1601.85C805.511,1614.89 815.825,1625.11 828.906,1629.61C832.331,1630.79 835.571,1631.9 838.06,1632.76C840.998,1633.77 843.168,1636.28 843.746,1639.33C844.589,1643.78 845.698,1649.64 845.698,1649.64L757.089,1649.95C757.089,1649.95 746.956,1589.84 742.186,1561.54C740.57,1551.96 739.88,1542.24 740.123,1532.53C740.587,1514.03 741.327,1484.53 741.327,1484.53C741.327,1484.53 729.514,1546.12 723.609,1576.89C721.437,1588.22 721.006,1599.81 722.331,1611.27C723.455,1620.99 724.807,1632.67 725.696,1640.36C726.326,1645.81 725.642,1651.32 723.7,1656.45C723.579,1656.77 723.456,1657.09 723.33,1657.42C718.106,1671.21 704.615,1680.08 689.885,1679.42C689.884,1679.42 689.884,1679.42 689.883,1679.42C675.074,1678.75 662.483,1668.39 658.977,1653.98C658.928,1653.78 658.878,1653.57 658.829,1653.37C657.217,1646.75 657.71,1639.78 660.24,1633.45C664.928,1621.72 672.213,1602.9 672.613,1598.29C673.058,1593.18 666.26,1548.97 662.829,1527.16C661.578,1519.21 659.877,1511.34 657.735,1503.59C653.214,1487.22 644.525,1455.77 635.993,1424.88C620.832,1370 618.598,1312.35 629.466,1256.45C629.466,1256.45 629.466,1256.45 629.466,1256.45C635.021,1227.88 633.076,1198.36 623.823,1170.77C619.701,1158.48 615,1144.46 610.177,1130.08C586.702,1060.08 577.558,986.065 583.29,912.454C583.771,906.283 584.247,900.167 584.712,894.2C588.378,847.122 602.931,801.539 627.223,761.045C640.743,738.507 652.796,718.415 652.796,718.415Z"/>
        </clipPath>
        <g clip-path="url(#_clip2)">
            <path d="M902.224,758.886C902.224,758.886 840.335,760.264 819.314,760.732C815.137,760.825 811.423,763.409 809.883,767.292C809.882,767.293 809.882,767.294 809.882,767.295C808.662,770.369 808.852,773.824 810.4,776.747C811.947,779.67 814.698,781.768 817.927,782.487C829.864,785.147 847.178,789.005 856.941,791.18C858.457,791.518 859.674,792.645 860.129,794.13C860.583,795.615 860.203,797.23 859.136,798.357C859.135,798.358 859.134,798.359 859.133,798.36C856.229,801.427 855.313,805.873 856.769,809.837C858.224,813.801 861.798,816.599 865.996,817.06C886.006,819.253 912.27,822.131 912.27,822.131L902.224,758.886Z" style="fill:none;stroke:rgb(248,248,249);stroke-width:6px;"/>
            <path d="M938.85,862.422C938.85,862.422 870.424,870.923 840.037,874.698C831.406,875.771 824.263,881.919 821.917,890.294C821.757,890.866 821.598,891.435 821.441,891.996C819.729,898.108 821.252,904.671 825.481,909.404C825.481,909.404 825.481,909.404 825.481,909.405C827.209,911.339 828.048,913.91 827.793,916.491C827.537,919.073 826.212,921.429 824.138,922.988C816.969,928.376 806.524,936.227 799.246,941.697C793.926,945.695 790.751,951.926 790.642,958.58C790.636,958.947 790.629,959.319 790.623,959.695C790.534,965.163 792.652,970.437 796.499,974.324C800.346,978.211 805.597,980.383 811.066,980.35C851.503,980.107 936.567,979.652 933.413,980.158C929.282,980.82 930.993,945.021 930.993,945.021C930.993,945.021 913.721,946.445 901.555,947.448C898.564,947.695 895.609,946.66 893.425,944.603C891.241,942.545 890.032,939.657 890.1,936.656C890.1,936.656 890.1,936.655 890.1,936.654C890.207,931.932 888.698,927.316 885.824,923.568C885.5,923.144 885.17,922.715 884.841,922.285C883.607,920.676 883.225,918.569 883.817,916.629C884.408,914.689 885.9,913.154 887.822,912.506C901.618,907.859 927.711,899.069 927.711,899.069L938.85,862.422Z" style="fill:none;stroke:rgb(248,248,249);stroke-width:6px;"/>
            <path d="M912.27,1095.97C912.27,1095.97 881.292,1103.48 859.838,1108.68C847.363,1111.71 837.326,1120.95 833.279,1133.13C833.279,1133.13 833.278,1133.13 833.278,1133.13C827.482,1150.58 836.924,1169.42 854.371,1175.23C880.129,1183.79 912.27,1194.48 912.27,1194.48L912.27,1095.97Z" style="fill:none;stroke:rgb(248,248,249);stroke-width:6px;"/>
            <path d="M604.215,1252.06C604.215,1252.06 643.792,1246.48 665.726,1243.39C673.895,1242.24 681.671,1247.26 683.991,1255.17C683.991,1255.17 683.992,1255.17 683.992,1255.17C686.285,1263 682.608,1271.34 675.285,1274.92C671.257,1276.89 666.644,1279.15 662.028,1281.41C657.99,1283.38 655.609,1287.66 656.06,1292.13C656.511,1296.61 659.699,1300.33 664.05,1301.45C672.114,1303.55 680.445,1305.71 686.836,1307.37C693.788,1309.18 699.325,1314.43 701.499,1321.27C701.5,1321.27 701.5,1321.27 701.5,1321.27C704.905,1331.99 699.944,1343.58 689.841,1348.52C681.519,1352.58 671.526,1357.47 662.852,1361.7C651.252,1367.37 646.002,1381.04 650.826,1393.02C650.826,1393.02 650.826,1393.02 650.826,1393.02L615.102,1457.14C615.102,1457.14 640.852,1453.11 662.355,1449.73C678.577,1447.19 694.06,1457.44 698.05,1473.37C698.051,1473.37 698.051,1473.37 698.051,1473.37C701.896,1488.72 693.777,1504.54 679.067,1510.37C649.778,1521.97 605.919,1539.34 605.919,1539.34L604.215,1252.06Z" style="fill:none;stroke:rgb(248,248,249);stroke-width:6px;"/>
            <path d="M580.266,822.131C580.266,822.131 591.119,827.919 604.598,835.107C635.083,851.363 651.49,885.522 645.125,919.478C645.125,919.478 645.125,919.478 645.125,919.479C642.914,931.274 637.585,942.262 629.692,951.302C627.974,953.27 626.17,955.336 624.348,957.423C612.715,970.746 612.367,990.51 623.523,1004.23C628.452,1010.3 633.721,1016.78 638.541,1022.71C649.269,1035.91 652.327,1053.75 646.606,1069.77C646.606,1069.77 646.606,1069.77 646.606,1069.77C640.78,1086.08 626.993,1098.26 610.087,1102.03C590.224,1106.47 566.737,1111.71 566.737,1111.71L580.266,822.131Z" style="fill:none;stroke:rgb(248,248,249);stroke-width:6px;"/>
            <path d="M637.94,705.886L880.82,691.147L909.686,771.158C909.686,771.158 870.384,756.503 856.237,751.228C852.908,749.986 849.649,748.564 846.475,746.968C843.621,745.533 839.727,743.575 835.476,741.437C817.356,732.326 795.654,734.164 779.325,746.194C779.325,746.194 779.325,746.194 779.324,746.194C772.255,751.402 763.041,752.707 754.804,749.668C752.182,748.7 749.409,747.677 746.725,746.686C736.957,743.082 726.165,743.446 716.661,747.7C714.409,748.709 712.107,749.739 709.919,750.719C702.532,754.026 693.883,752.599 687.949,747.095C687.949,747.094 687.948,747.094 687.948,747.093C682.391,741.939 673.887,741.66 668.005,746.441C646.068,764.595 595.879,806.004 591.29,808.768C585.402,812.315 637.94,705.886 637.94,705.886Z" style="fill:rgb(25,25,27);"/>
            <path d="M736.8,1252.86C736.8,1217.22 746.304,1182.22 764.333,1151.48C766.574,1147.66 768,1145.23 768,1145.23C786.892,1201.1 788.579,1258.96 774.881,1318.62C770.646,1336.96 770.596,1356.02 774.734,1374.39C777.238,1385.54 779.953,1397.59 781.911,1406.28C783.752,1414.45 784.847,1422.77 785.183,1431.14C785.347,1435.21 785.536,1439.92 785.73,1444.75C786.582,1465.97 781.885,1487.05 772.102,1505.9C757.163,1534.69 736.383,1574.74 736.383,1574.74C736.383,1574.74 740.238,1495.81 741.09,1478.35C741.201,1476.09 741.368,1473.83 741.593,1471.58C742.816,1459.31 747.059,1416.77 749.118,1396.11C749.876,1388.52 749.756,1380.87 748.761,1373.3C745.969,1352.08 740.045,1307.03 737.743,1289.52C737.115,1284.74 736.8,1279.93 736.8,1275.11C736.8,1269.67 736.8,1261.67 736.8,1252.86Z" style="fill:rgb(25,25,27);"/>
            <path d="M656.304,1608.13L637.94,1675.41L817.144,1694.65L876.644,1646.62L863.385,1605.18L656.304,1608.13Z" style="fill:rgb(255,107,0);"/>
            <path d="M653.227,1605.87L820.373,1600.73L812.181,1608.56C812.181,1608.56 802.266,1613.81 795.425,1617.43C791.499,1619.51 788.995,1623.54 788.873,1627.98C788.82,1629.93 788.763,1631.98 788.715,1633.74C788.64,1636.44 786.794,1638.76 784.186,1639.44C784.185,1639.44 784.184,1639.44 784.183,1639.44C779.52,1640.65 776.092,1644.62 775.568,1649.41C774.981,1654.77 774.313,1660.87 774.313,1660.87L724.361,1625.66C724.361,1625.66 713.184,1623.16 706.738,1621.71C703.884,1621.07 701.386,1619.36 699.764,1616.92C699.764,1616.92 699.764,1616.92 699.763,1616.92C697.606,1613.68 693.439,1612.46 689.872,1614.01C678.797,1618.83 656.675,1628.45 656.675,1628.45L653.227,1605.87Z" style="fill:rgb(25,25,27);"/>
            <path d="M658.84,1592.64L657.383,1606.88L829.625,1600.97L827.756,1588.01L658.84,1592.64Z" style="fill:rgb(44,112,64);"/>
        </g>
        <path d="M768,1102.76C777.079,1042.32 779.708,980.563 768,915.895L825.276,866.654" style="fill:none;stroke:black;stroke-width:6px;"/>
        <path d="M564.504,611.412C564.504,611.412 573.609,565.248 580,532.847C583.95,512.823 594.878,494.85 610.838,482.13C610.838,482.129 610.839,482.129 610.839,482.129C626.432,469.701 644.633,460.959 664.081,456.557C676.604,453.722 691.318,450.391 704.488,447.409C728.397,441.997 753.154,441.475 777.27,445.875C790.71,448.328 805.486,451.024 817.175,453.157C831.351,455.744 844.826,461.279 856.726,469.404C859.559,471.338 862.556,473.384 865.583,475.451C885.86,489.295 901.464,508.961 910.336,531.854C923.16,564.942 940.412,609.455 940.412,609.455L871.023,617.505L858.234,705.736L652.796,719.08L637.373,617.59L564.504,611.412Z" style="fill:rgb(255,107,0);"/>
        <clipPath id="_clip3">
            <path d="M564.504,611.412C564.504,611.412 573.609,565.248 580,532.847C583.95,512.823 594.878,494.85 610.838,482.13C610.838,482.129 610.839,482.129 610.839,482.129C626.432,469.701 644.633,460.959 664.081,456.557C676.604,453.722 691.318,450.391 704.488,447.409C728.397,441.997 753.154,441.475 777.27,445.875C790.71,448.328 805.486,451.024 817.175,453.157C831.351,455.744 844.826,461.279 856.726,469.404C859.559,471.338 862.556,473.384 865.583,475.451C885.86,489.295 901.464,508.961 910.336,531.854C923.16,564.942 940.412,609.455 940.412,609.455L871.023,617.505L858.234,705.736L652.796,719.08L637.373,617.59L564.504,611.412Z"/>
        </clipPath>
        <g clip-path="url(#_clip3)">
            <path d="M916.655,531.377L912.837,538.781L891.685,586.484C891.685,586.484 889.903,584.449 887.346,581.529C883.663,577.323 878.007,575.415 872.529,576.532C867.051,577.649 862.592,581.618 860.85,586.93C845.124,634.86 813.105,732.451 813.105,732.451L890.638,732.451L871.367,627.808L926.652,608.775C933.335,568.448 935.541,533.206 916.655,531.377Z" style="fill:rgb(25,25,27);"/>
            <path d="M637.94,615.292L566.464,615.808C566.464,615.808 586.246,593.076 604.317,572.31C610.561,565.136 620.077,561.71 629.461,563.257C638.845,564.804 646.757,571.104 650.367,579.903C650.367,579.904 650.367,579.904 650.367,579.904C650.667,580.634 650.911,581.386 651.097,582.154C653.654,592.67 672.974,672.118 678.415,694.493C679.363,698.39 680.463,702.248 681.714,706.059C684.546,714.686 689.584,730.033 689.584,730.033L639.843,732.451L637.94,615.292Z" style="fill:rgb(25,25,27);"/>
            <path d="M619.264,461.03C619.264,461.03 626.528,466.406 634.667,472.43C647.366,481.828 665.05,480.429 676.113,469.15C676.72,468.531 677.321,467.917 677.914,467.313C685.137,459.949 695.737,456.992 705.729,459.553C706.194,459.672 706.635,459.785 707.045,459.89C709.066,460.408 711.145,460.662 713.231,460.644C723.387,460.559 755.244,460.294 765.079,460.211C767.014,460.195 768.936,459.877 770.773,459.268C771.866,458.906 773.184,458.469 774.541,458.02C779.735,456.299 785.439,457.187 789.864,460.404C789.864,460.405 789.864,460.405 789.864,460.405C803.45,470.285 822.071,469.425 834.687,458.334C843.746,450.37 852.219,442.922 852.219,442.922L740.204,424.113L619.264,461.03Z" style="fill:rgb(25,25,27);"/>
        </g>
        <path d="M718.228,407.355C701.383,401.064 688.142,387.295 682.504,370.07C679.764,371.423 676.684,372.182 673.429,372.182C662.041,372.182 652.796,362.888 652.796,351.441C652.796,339.994 662.041,330.7 673.429,330.7C676.684,330.7 679.764,331.46 682.504,332.812C690.293,309.015 712.594,291.815 738.86,291.815C765.182,291.815 787.523,309.088 795.267,332.964C798.081,331.517 801.268,330.7 804.644,330.7C816.031,330.7 825.276,339.994 825.276,351.441C825.276,362.888 816.031,372.182 804.644,372.182C801.268,372.182 798.081,371.366 795.267,369.918C789.657,387.214 776.388,401.046 759.493,407.355L759.493,456.492C759.493,467.939 750.248,477.233 738.86,477.233C727.473,477.233 718.228,467.939 718.228,456.492L718.228,407.355Z" style="fill:white;"/>
        <clipPath id="_clip4">
            <path d="M718.228,407.355C701.383,401.064 688.142,387.295 682.504,370.07C679.764,371.423 676.684,372.182 673.429,372.182C662.041,372.182 652.796,362.888 652.796,351.441C652.796,339.994 662.041,330.7 673.429,330.7C676.684,330.7 679.764,331.46 682.504,332.812C690.293,309.015 712.594,291.815 738.86,291.815C765.182,291.815 787.523,309.088 795.267,332.964C798.081,331.517 801.268,330.7 804.644,330.7C816.031,330.7 825.276,339.994 825.276,351.441C825.276,362.888 816.031,372.182 804.644,372.182C801.268,372.182 798.081,371.366 795.267,369.918C789.657,387.214 776.388,401.046 759.493,407.355L759.493,456.492C759.493,467.939 750.248,477.233 738.86,477.233C727.473,477.233 718.228,467.939 718.228,456.492L718.228,407.355Z"/>
        </clipPath>
        <g clip-path="url(#_clip4)">
            <path d="M664.58,342.904C676.236,332.919 686.23,344.192 683.404,352.776" style="fill:none;stroke:rgb(25,25,27);stroke-width:4px;"/>
            <g transform="matrix(0.82683,-0.562452,0.562452,0.82683,50.5648,441.169)">
                <path d="M664.58,342.904C676.236,332.919 686.23,344.192 683.404,352.776" style="fill:none;stroke:rgb(25,25,27);stroke-width:4px;"/>
            </g>
            <path d="M703.455,338.357L717.325,328.555" style="fill:none;stroke:rgb(25,25,27);stroke-width:4px;"/>
            <path d="M753.996,328.555L765.13,338.357" style="fill:none;stroke:rgb(25,25,27);stroke-width:4px;"/>
            <path d="M722.421,387.964C729.007,376.757 737.848,374.685 748.604,380.362" style="fill:none;stroke:rgb(25,25,27);stroke-width:4px;"/>
            <ellipse cx="717.236" cy="347.79" rx="1.477" ry="1.331" style="fill:rgb(25,25,27);stroke:rgb(25,25,27);stroke-width:4px;"/>
            <g transform="matrix(1,0,0,1,35.2823,0.713697)">
                <ellipse cx="717.236" cy="347.79" rx="1.477" ry="1.331" style="fill:rgb(25,25,27);stroke:rgb(25,25,27);stroke-width:4px;"/>
            </g>
            <path d="M733.959,339.358L733.284,357.062C733.284,357.062 730.405,359.773 727.87,362.16C727.175,362.814 726.917,363.81 727.208,364.719C727.498,365.629 728.285,366.29 729.231,366.42C732.09,366.814 735.078,367.225 735.078,367.225" style="fill:none;stroke:rgb(25,25,27);stroke-width:4px;"/>
            <path d="M707.327,402.607C719.833,410.71 734,410.663 746.832,406.981L710.709,441.949L707.327,402.607Z" style="fill:rgb(25,25,27);"/>
            <g transform="matrix(1.09665,0,0,1,-67.0353,0)">
                <ellipse cx="695.547" cy="364.127" rx="1.97" ry="2.083" style="fill:rgb(255,107,0);"/>
            </g>
            <g transform="matrix(1.09665,0,0,1,-48.9137,0)">
                <ellipse cx="695.547" cy="364.127" rx="1.97" ry="2.083" style="fill:rgb(255,107,0);"/>
            </g>
            <g transform="matrix(1.09665,0,0,1,-59.3274,14.4243)">
                <ellipse cx="695.547" cy="364.127" rx="1.97" ry="2.083" style="fill:rgb(255,107,0);"/>
            </g>
        </g>
        <g id="Слой1">
            <path d="M724.972,287.266C724.972,287.266 725.783,290.015 726.817,293.523C729.577,302.881 736.244,310.591 745.107,314.672C745.107,314.672 745.107,314.672 745.108,314.672C747.624,315.831 750.344,316.479 753.113,316.58C753.513,316.595 753.923,316.61 754.332,316.624C757.543,316.742 760.488,318.441 762.196,321.162C763.317,322.947 764.6,324.991 765.675,326.703C767.218,329.161 769.076,331.407 771.202,333.384C776.079,337.921 784.811,346.044 784.811,346.044C787.279,339.982 789.839,335.298 795.775,332.96C788.074,299.565 764.388,281.249 724.972,287.266Z" style="fill:rgb(105,188,163);"/>
            <path d="M675.088,326.821L691.654,315.35C687.007,325.49 691.531,329.774 694.898,337.109C687.289,335.734 680.461,332.764 675.088,326.821Z" style="fill:rgb(105,188,163);"/>
        </g>
        <path d="M637.94,614.612C637.94,614.612 606.72,687.486 590.914,724.38C585.488,737.045 573.036,745.256 559.259,745.256C555.023,745.256 550.496,745.256 545.955,745.256C536.36,745.256 527.204,741.235 520.713,734.17C514.222,727.104 510.989,717.641 511.8,708.081C516.666,650.721 525.697,544.258 528.126,515.625C528.493,511.294 526.054,507.213 522.066,505.485C515.354,502.577 505.359,498.248 500.765,496.257C499.12,495.544 497.547,494.674 496.07,493.659C488.416,488.399 463.317,471.151 457.979,467.482C457.329,467.036 456.851,466.381 456.623,465.627C456.623,465.626 456.623,465.626 456.623,465.626C456.214,464.274 456.674,462.81 457.782,461.935C458.89,461.059 460.42,460.95 461.641,461.659C471.751,467.533 488.449,477.233 488.449,477.233C488.449,477.233 460.072,443.466 452.068,433.942C450.866,432.511 450.863,430.423 452.063,428.989C452.063,428.989 452.064,428.988 452.064,428.987C452.782,428.13 453.826,427.613 454.943,427.564C456.06,427.515 457.146,427.938 457.936,428.729C466.787,437.591 491.678,462.518 491.678,462.518C491.678,462.518 468.445,428.878 461.525,418.858C460.439,417.287 460.744,415.145 462.225,413.939C462.299,413.879 462.372,413.819 462.445,413.759C463.676,412.757 465.48,412.914 466.519,414.113C473.097,421.704 494.818,446.768 494.818,446.768C494.818,446.768 475.872,416.831 470.793,408.805C470.065,407.654 470.216,406.155 471.159,405.173C471.231,405.098 471.304,405.022 471.378,404.945C472.025,404.272 472.928,403.906 473.861,403.94C474.795,403.973 475.669,404.403 476.266,405.122C481.534,411.467 494.387,426.948 501.313,435.291C504.361,438.962 507.988,442.111 512.051,444.614C514.615,446.194 517.625,448.048 520.343,449.722C525.485,452.89 531.235,454.941 537.22,455.744C541.804,456.36 547.268,457.093 551.463,457.656C555.253,458.164 558.809,455.711 559.68,451.987C559.68,451.987 559.68,451.987 559.68,451.987C560.27,449.461 560.372,446.845 559.979,444.281C559.187,439.115 557.802,430.069 557.06,425.23C556.759,423.263 557.718,421.318 559.461,420.359C559.462,420.359 559.462,420.358 559.463,420.358C560.723,419.665 562.222,419.559 563.567,420.066C564.912,420.574 565.967,421.646 566.454,422.998C570.528,434.304 579.964,460.491 584.807,473.933C586.736,479.288 586.72,485.15 584.76,490.494C584.239,491.913 583.697,493.391 583.173,494.818C581.109,500.447 580.407,506.485 581.125,512.438C584.272,538.523 593.132,611.974 593.132,611.974L637.94,614.612Z" style="fill:white;"/>
        <clipPath id="_clip5">
            <path d="M637.94,614.612C637.94,614.612 606.72,687.486 590.914,724.38C585.488,737.045 573.036,745.256 559.259,745.256C555.023,745.256 550.496,745.256 545.955,745.256C536.36,745.256 527.204,741.235 520.713,734.17C514.222,727.104 510.989,717.641 511.8,708.081C516.666,650.721 525.697,544.258 528.126,515.625C528.493,511.294 526.054,507.213 522.066,505.485C515.354,502.577 505.359,498.248 500.765,496.257C499.12,495.544 497.547,494.674 496.07,493.659C488.416,488.399 463.317,471.151 457.979,467.482C457.329,467.036 456.851,466.381 456.623,465.627C456.623,465.626 456.623,465.626 456.623,465.626C456.214,464.274 456.674,462.81 457.782,461.935C458.89,461.059 460.42,460.95 461.641,461.659C471.751,467.533 488.449,477.233 488.449,477.233C488.449,477.233 460.072,443.466 452.068,433.942C450.866,432.511 450.863,430.423 452.063,428.989C452.063,428.989 452.064,428.988 452.064,428.987C452.782,428.13 453.826,427.613 454.943,427.564C456.06,427.515 457.146,427.938 457.936,428.729C466.787,437.591 491.678,462.518 491.678,462.518C491.678,462.518 468.445,428.878 461.525,418.858C460.439,417.287 460.744,415.145 462.225,413.939C462.299,413.879 462.372,413.819 462.445,413.759C463.676,412.757 465.48,412.914 466.519,414.113C473.097,421.704 494.818,446.768 494.818,446.768C494.818,446.768 475.872,416.831 470.793,408.805C470.065,407.654 470.216,406.155 471.159,405.173C471.231,405.098 471.304,405.022 471.378,404.945C472.025,404.272 472.928,403.906 473.861,403.94C474.795,403.973 475.669,404.403 476.266,405.122C481.534,411.467 494.387,426.948 501.313,435.291C504.361,438.962 507.988,442.111 512.051,444.614C514.615,446.194 517.625,448.048 520.343,449.722C525.485,452.89 531.235,454.941 537.22,455.744C541.804,456.36 547.268,457.093 551.463,457.656C555.253,458.164 558.809,455.711 559.68,451.987C559.68,451.987 559.68,451.987 559.68,451.987C560.27,449.461 560.372,446.845 559.979,444.281C559.187,439.115 557.802,430.069 557.06,425.23C556.759,423.263 557.718,421.318 559.461,420.359C559.462,420.359 559.462,420.358 559.463,420.358C560.723,419.665 562.222,419.559 563.567,420.066C564.912,420.574 565.967,421.646 566.454,422.998C570.528,434.304 579.964,460.491 584.807,473.933C586.736,479.288 586.72,485.15 584.76,490.494C584.239,491.913 583.697,493.391 583.173,494.818C581.109,500.447 580.407,506.485 581.125,512.438C584.272,538.523 593.132,611.974 593.132,611.974L637.94,614.612Z"/>
        </clipPath>
        <g clip-path="url(#_clip5)">
            <path d="M593.916,611.328L652.796,615.024L620.184,679.55L593.916,611.328Z" style="fill:rgb(25,25,27);"/>
            <path d="M499.165,510.032L549.644,503.215L524.774,539.148L499.165,510.032Z" style="fill:rgb(25,25,27);"/>
            <path d="M496.552,478.689L520.127,482.171" style="fill:none;stroke:rgb(25,25,27);stroke-width:4px;"/>
            <path d="M520.127,482.171C530.349,463.2 548.697,464.376 561.037,472.231" style="fill:none;stroke:rgb(25,25,27);stroke-width:4px;"/>
        </g>
        <g transform="matrix(-1,0,0,1,1505.75,0)">
            <path d="M637.94,614.612C637.94,614.612 610.866,686.093 596.77,723.307C591.766,736.518 579.112,745.256 564.985,745.256L559.691,745.256C550.309,745.256 541.32,741.481 534.751,734.781C528.183,728.082 524.586,719.021 524.771,709.64C525.939,650.433 528.197,535.94 528.658,512.594C528.708,510.043 527.212,507.714 524.871,506.7C520.221,504.686 512.3,501.254 506.311,498.66C500.977,496.349 495.879,493.528 491.088,490.236C480.752,483.132 462.46,470.562 457.984,467.486C457.331,467.037 456.85,466.379 456.621,465.62C456.62,465.618 456.62,465.617 456.619,465.615C456.212,464.265 456.671,462.803 457.777,461.929C458.883,461.054 460.412,460.945 461.631,461.654C471.74,467.526 488.449,477.233 488.449,477.233C488.449,477.233 457.447,439.787 451.613,432.74C451.049,432.059 450.976,431.097 451.431,430.339C451.431,430.338 451.431,430.338 451.431,430.338C451.911,429.538 452.726,428.996 453.65,428.865C454.574,428.733 455.508,429.024 456.193,429.658C465.018,437.831 491.678,462.518 491.678,462.518C491.678,462.518 465.095,426.151 459.802,418.911C459.251,418.157 459.207,417.146 459.69,416.347C459.771,416.213 459.855,416.075 459.94,415.933C460.316,415.312 460.956,414.898 461.677,414.812C462.398,414.725 463.118,414.974 463.631,415.488C470.979,422.858 494.818,446.768 494.818,446.768C494.818,446.768 475.609,414.55 471.567,407.771C471.118,407.017 471.161,406.068 471.676,405.358C471.791,405.199 471.913,405.031 472.038,404.859C472.49,404.236 473.204,403.856 473.974,403.831C474.743,403.806 475.481,404.138 475.973,404.731C481.321,411.18 495.745,428.571 502.429,436.63C504.736,439.412 507.506,441.777 510.616,443.619C518.061,448.031 531.733,456.132 531.733,456.132C531.733,456.132 531.733,456.132 531.733,456.132C534.644,453.515 535.723,449.419 534.479,445.707C532.618,440.152 529.966,432.238 528.633,428.263C528.139,426.788 528.659,425.162 529.919,424.247C529.919,424.247 529.92,424.246 529.921,424.246C530.984,423.473 532.327,423.193 533.61,423.476C534.894,423.758 535.995,424.576 536.636,425.723C546.251,442.93 580.032,503.382 580.032,503.382L593.132,611.974L637.94,614.612Z" style="fill:white;"/>
            <clipPath id="_clip6">
                <path d="M637.94,614.612C637.94,614.612 610.866,686.093 596.77,723.307C591.766,736.518 579.112,745.256 564.985,745.256L559.691,745.256C550.309,745.256 541.32,741.481 534.751,734.781C528.183,728.082 524.586,719.021 524.771,709.64C525.939,650.433 528.197,535.94 528.658,512.594C528.708,510.043 527.212,507.714 524.871,506.7C520.221,504.686 512.3,501.254 506.311,498.66C500.977,496.349 495.879,493.528 491.088,490.236C480.752,483.132 462.46,470.562 457.984,467.486C457.331,467.037 456.85,466.379 456.621,465.62C456.62,465.618 456.62,465.617 456.619,465.615C456.212,464.265 456.671,462.803 457.777,461.929C458.883,461.054 460.412,460.945 461.631,461.654C471.74,467.526 488.449,477.233 488.449,477.233C488.449,477.233 457.447,439.787 451.613,432.74C451.049,432.059 450.976,431.097 451.431,430.339C451.431,430.338 451.431,430.338 451.431,430.338C451.911,429.538 452.726,428.996 453.65,428.865C454.574,428.733 455.508,429.024 456.193,429.658C465.018,437.831 491.678,462.518 491.678,462.518C491.678,462.518 465.095,426.151 459.802,418.911C459.251,418.157 459.207,417.146 459.69,416.347C459.771,416.213 459.855,416.075 459.94,415.933C460.316,415.312 460.956,414.898 461.677,414.812C462.398,414.725 463.118,414.974 463.631,415.488C470.979,422.858 494.818,446.768 494.818,446.768C494.818,446.768 475.609,414.55 471.567,407.771C471.118,407.017 471.161,406.068 471.676,405.358C471.791,405.199 471.913,405.031 472.038,404.859C472.49,404.236 473.204,403.856 473.974,403.831C474.743,403.806 475.481,404.138 475.973,404.731C481.321,411.18 495.745,428.571 502.429,436.63C504.736,439.412 507.506,441.777 510.616,443.619C518.061,448.031 531.733,456.132 531.733,456.132C531.733,456.132 531.733,456.132 531.733,456.132C534.644,453.515 535.723,449.419 534.479,445.707C532.618,440.152 529.966,432.238 528.633,428.263C528.139,426.788 528.659,425.162 529.919,424.247C529.919,424.247 529.92,424.246 529.921,424.246C530.984,423.473 532.327,423.193 533.61,423.476C534.894,423.758 535.995,424.576 536.636,425.723C546.251,442.93 580.032,503.382 580.032,503.382L593.132,611.974L637.94,614.612Z"/>
            </clipPath>
            <g clip-path="url(#_clip6)">
                <g transform="matrix(-1,0,0,1,1505.75,0)">
                    <path d="M857.043,609.001L912.697,611.686L878.969,664.545L857.043,609.001Z" style="fill:rgb(25,25,27);"/>
                </g>
                <g transform="matrix(-1,0,0,1,1505.75,0)">
                    <path d="M984.502,511.904L967.772,506.522L981.692,526.662L984.502,511.904Z" style="fill:rgb(25,25,27);"/>
                </g>
                <g transform="matrix(-1,0,0,1,1505.75,0)">
                    <path d="M957.644,477.647C972.806,466.714 986.505,468.381 998.951,480.834" style="fill:none;stroke:rgb(25,25,27);stroke-width:4px;"/>
                </g>
            </g>
        </g>
    </g>
</svg>
