<?xml version="1.0" encoding="utf-8"?>
<!-- Generator: Adobe Illustrator 24.0.1, SVG Export Plug-In . SVG Version: 6.00 Build 0)  -->
<svg version="1.1" id="Layer_1" xmlns="http://www.w3.org/2000/svg" xmlns:xlink="http://www.w3.org/1999/xlink" x="0px" y="0px"
	 viewBox="0 0 703.7 410.1" style="enable-background:new 0 0 703.7 410.1;" xml:space="preserve">
<style type="text/css">
	.st0{clip-path:url(#SVGID_2_);}
	.st1{fill:#FFFFFF;}
	.st2{fill:none;stroke:#19191B;stroke-width:3.2;stroke-linecap:round;stroke-linejoin:round;}
</style>
<g>
	<defs>
		<rect id="SVGID_1_" width="703.7" height="408.8"/>
	</defs>
	<clipPath id="SVGID_2_">
		<use xlink:href="#SVGID_1_"  style="overflow:visible;"/>
	</clipPath>
	<g class="st0">
		<path class="st1" d="M581.3,408.8H121.7C54.4,408.8,0,354.4,0,287.1V121.7C0,54.4,54.4,0,121.7,0h459.6
			C648.6,0,703,54.4,703,121.7v165.4C703.7,354.4,648.6,408.8,581.3,408.8z"/>
		<path d="M149.6,176.1c29.7,0,53.7-24,53.7-53.7s-24-53.7-53.7-53.7s-53.7,24-53.7,53.7S120,176.1,149.6,176.1z"/>
		<path class="st2" d="M296.4,94.5h320.7"/>
		<path class="st2" d="M296.4,169.7h320.7"/>
		<path class="st2" d="M296.4,239.1h320.7"/>
		<path d="M214.8,322.2H84.5c-5.7,0-10.7-5-10.7-10.7v-57.3c0-34.4,27.9-62.3,62.3-62.3h27.9c34.4,0,62.3,27.9,62.3,62.3v57.3
			C225.5,317.1,220.5,322.2,214.8,322.2z"/>
	</g>
</g>
</svg>
