<?xml version="1.0" encoding="UTF-8" standalone="no"?>
<!DOCTYPE svg PUBLIC "-//W3C//DTD SVG 1.1//EN" "http://www.w3.org/Graphics/SVG/1.1/DTD/svg11.dtd">
<svg version="1.1" xmlns="http://www.w3.org/2000/svg" xmlns:xlink="http://www.w3.org/1999/xlink" preserveAspectRatio="xMidYMid meet" viewBox="0 0 640 640" width="640" height="640"><defs><path d="M161.07 296.66C119.79 296.66 86.43 263.29 86.43 222.01C86.43 211.87 86.43 130.71 86.43 120.57C86.43 79.29 119.79 45.93 161.07 45.93C189.26 45.93 414.77 45.93 442.96 45.93C484.23 45.93 517.6 79.29 517.6 120.57C517.6 130.71 517.6 211.87 517.6 222.01C518.03 263.29 484.23 296.66 442.96 296.66C386.58 296.66 189.26 296.66 161.07 296.66Z" id="b25xlUzS1J"></path><path d="M211.12 121C211.12 102.78 196.4 88.06 178.18 88.06C159.97 88.06 145.25 102.78 145.25 121C145.25 139.21 160.03 153.93 178.18 153.93C196.4 153.93 211.12 139.21 211.12 121Z" id="bStsNtQfi"></path><path d="M268.22 103.89L464.91 103.89" id="e1aKwGpd2v"></path><path d="M268.22 150.01L464.91 150.01" id="c2t9OCNe5w"></path><path d="M268.22 192.57L464.91 192.57" id="ag1nl2KBV"></path><path d="M138.25 243.54C134.76 243.54 131.69 240.47 131.69 236.98C131.69 233.46 131.69 205.35 131.69 201.84C131.69 180.74 148.8 163.62 169.9 163.62C171.61 163.62 185.3 163.62 187.01 163.62C208.11 163.62 225.22 180.74 225.22 201.84C225.22 205.35 225.22 233.46 225.22 236.98C224.73 240.41 221.67 243.54 218.17 243.54C202.19 243.54 146.25 243.54 138.25 243.54Z" id="b2fIaXhPaC"></path><path d="M516 114.36C533.75 149.1 519.96 191.72 485.21 209.48C450.46 227.23 407.84 213.43 390.09 178.69C372.33 143.94 386.13 101.32 420.88 83.57C455.62 65.81 498.25 79.61 516 114.36Z" id="fIjG5NH8s"></path><path d="M487.08 204.68C491.99 202.17 498.01 204.11 500.52 209.03C511.82 231.14 541.18 288.58 552.48 310.7C554.99 315.61 553.04 321.62 548.13 324.13C544.97 325.75 544.41 326.03 541.26 327.64C536.35 330.15 530.33 328.21 527.82 323.29C516.52 301.18 487.16 243.74 475.86 221.63C473.35 216.71 475.3 210.7 480.21 208.19C483.37 206.58 483.93 206.29 487.08 204.68Z" id="alfQvNFtZ"></path><path d="M407 99.01L477.67 99.01L477.67 102.08L407 102.08L407 99.01Z" id="b1gWZIVz5U"></path><path d="M385.41 145.95L477.67 145.95L477.67 149.02L385.41 149.02L385.41 145.95Z" id="e1kZcDn7Ls"></path><path d="M394.59 188.91L477.67 188.91L477.67 191.98L394.59 191.98L394.59 188.91Z" id="d2EdkrMytZ"></path><path d="M161.08 587.49C119.81 587.49 86.43 554.11 86.43 512.84C86.43 502.7 86.43 421.55 86.43 411.41C86.43 370.14 119.81 336.76 161.08 336.76C189.27 336.76 414.8 336.76 442.99 336.76C484.26 336.76 517.64 370.14 517.64 411.41C517.64 421.55 517.64 502.7 517.64 512.84C518.07 554.11 484.26 587.49 442.99 587.49C386.61 587.49 189.27 587.49 161.08 587.49Z" id="h4mkmes1VM"></path><path d="M86.43 407.01L86.43 452.68L518.07 452.68L518.07 407.01L86.43 407.01Z" id="bE5aCdPWn"></path><path d="M126.41 484.72L322.67 484.72" id="dHdtezA97"></path><path d="M126.41 515.9L322.67 515.9" id="b1P0KZAqT"></path></defs><g><g><g><g><use xlink:href="#b25xlUzS1J" opacity="1" fill="#ffffff" fill-opacity="1"></use><g><use xlink:href="#b25xlUzS1J" opacity="1" fill-opacity="0" stroke="#000000" stroke-width="1" stroke-opacity="0"></use></g></g><g><use xlink:href="#bStsNtQfi" opacity="1" fill="#000000" fill-opacity="1"></use><g><use xlink:href="#bStsNtQfi" opacity="1" fill-opacity="0" stroke="#000000" stroke-width="1" stroke-opacity="0"></use></g></g><g><use xlink:href="#e1aKwGpd2v" opacity="1" fill="#000000" fill-opacity="0"></use><g><use xlink:href="#e1aKwGpd2v" opacity="1" fill-opacity="0" stroke="#19191b" stroke-width="3.2" stroke-opacity="1"></use></g></g><g><use xlink:href="#c2t9OCNe5w" opacity="1" fill="#000000" fill-opacity="0"></use><g><use xlink:href="#c2t9OCNe5w" opacity="1" fill-opacity="0" stroke="#19191b" stroke-width="3.2" stroke-opacity="1"></use></g></g><g><use xlink:href="#ag1nl2KBV" opacity="1" fill="#000000" fill-opacity="0"></use><g><use xlink:href="#ag1nl2KBV" opacity="1" fill-opacity="0" stroke="#19191b" stroke-width="3.2" stroke-opacity="1"></use></g></g><g><use xlink:href="#b2fIaXhPaC" opacity="1" fill="#000000" fill-opacity="1"></use><g><use xlink:href="#b2fIaXhPaC" opacity="1" fill-opacity="0" stroke="#000000" stroke-width="1" stroke-opacity="0"></use></g></g></g><g><use xlink:href="#fIjG5NH8s" opacity="1" fill="#ffffff" fill-opacity="1"></use><g><use xlink:href="#fIjG5NH8s" opacity="1" fill-opacity="0" stroke="#000000" stroke-width="20" stroke-opacity="1"></use></g></g><g><use xlink:href="#alfQvNFtZ" opacity="1" fill="#000000" fill-opacity="1"></use></g><g><use xlink:href="#b1gWZIVz5U" opacity="1" fill="#0f0f0b" fill-opacity="1"></use><g><use xlink:href="#b1gWZIVz5U" opacity="1" fill-opacity="0" stroke="#000000" stroke-width="4" stroke-opacity="1"></use></g></g><g><use xlink:href="#e1kZcDn7Ls" opacity="1" fill="#0f0f0b" fill-opacity="1"></use><g><use xlink:href="#e1kZcDn7Ls" opacity="1" fill-opacity="0" stroke="#000000" stroke-width="4" stroke-opacity="1"></use></g></g><g><use xlink:href="#d2EdkrMytZ" opacity="1" fill="#0f0f0b" fill-opacity="1"></use><g><use xlink:href="#d2EdkrMytZ" opacity="1" fill-opacity="0" stroke="#000000" stroke-width="4" stroke-opacity="1"></use></g></g><g><g><use xlink:href="#h4mkmes1VM" opacity="1" fill="#ffffff" fill-opacity="1"></use><g><use xlink:href="#h4mkmes1VM" opacity="1" fill-opacity="0" stroke="#000000" stroke-width="1" stroke-opacity="0"></use></g></g><g><use xlink:href="#bE5aCdPWn" opacity="1" fill="#69bca3" fill-opacity="1"></use><g><use xlink:href="#bE5aCdPWn" opacity="1" fill-opacity="0" stroke="#000000" stroke-width="1" stroke-opacity="0"></use></g></g><g><use xlink:href="#dHdtezA97" opacity="1" fill="#000000" fill-opacity="0"></use><g><use xlink:href="#dHdtezA97" opacity="1" fill-opacity="0" stroke="#19191b" stroke-width="3.2" stroke-opacity="1"></use></g></g><g><use xlink:href="#b1P0KZAqT" opacity="1" fill="#000000" fill-opacity="0"></use><g><use xlink:href="#b1P0KZAqT" opacity="1" fill-opacity="0" stroke="#19191b" stroke-width="3.2" stroke-opacity="1"></use></g></g></g></g></g></svg>