<?xml version="1.0" encoding="UTF-8" standalone="no"?>
<!DOCTYPE svg PUBLIC "-//W3C//DTD SVG 1.1//EN" "http://www.w3.org/Graphics/SVG/1.1/DTD/svg11.dtd">
<svg width="100%" height="100%" viewBox="0 0 1260 1238" version="1.1" xmlns="http://www.w3.org/2000/svg" xmlns:xlink="http://www.w3.org/1999/xlink" xml:space="preserve" xmlns:serif="http://www.serif.com/" style="fill-rule:evenodd;clip-rule:evenodd;stroke-linecap:square;stroke-linejoin:round;stroke-miterlimit:1.5;">
    <g id="cloud" transform="matrix(2,0,0,1.99999,-877.31,-367.764)">
        <g transform="matrix(1,0,0,1,-67.5551,41.6483)">
            <g id="cloud2">
                <path d="M1139.38,376.733C1055.58,377.449 971.709,378.165 934.104,378.486C928.684,378.532 923.47,376.411 919.621,372.595C915.772,368.779 913.607,363.583 913.607,358.163C913.607,357.309 913.607,356.805 913.607,356.805C913.607,351.933 915.542,347.26 918.988,343.814C922.433,340.369 927.106,338.433 931.979,338.433L931.98,338.433C936.552,338.433 940.957,336.722 944.33,333.636C945.592,332.481 947.005,331.188 948.479,329.84C958.607,320.572 971.221,314.463 984.772,312.26C990.767,311.286 995.725,310.48 995.725,310.48L990.684,323.042C990.684,323.042 995.854,313.298 1001.87,301.957C1013.36,280.317 1034.97,265.922 1059.37,263.668C1064.23,263.219 1069.13,262.766 1073.81,262.334C1092.81,260.579 1111.93,263.909 1129.22,271.982C1133.12,273.804 1136.74,275.495 1139.48,276.774" style="fill:none;stroke:rgb(105,188,163);stroke-width:4px;"/>
            </g>
        </g>
        <g id="cloud1" transform="matrix(1,0,0,1,176.447,-60.6518)">
            <path d="M311.754,533.704C307.653,534.169 304.376,537.33 303.763,541.41C303.762,541.411 303.762,541.412 303.762,541.413C303.289,544.562 304.217,547.76 306.302,550.166C308.388,552.572 311.421,553.946 314.606,553.924C365.091,553.589 550.397,552.356 591.79,552.081C596.723,552.048 601.098,548.901 602.698,544.234C602.738,544.117 602.778,544 602.818,543.882C604.571,538.77 602.41,533.135 597.688,530.506C597.241,530.257 596.8,530.011 596.374,529.774C593.622,528.242 591.856,525.397 591.702,522.251L591.702,522.243C591.352,515.083 586.814,508.802 580.126,506.221L580.125,506.221C577.396,505.168 575.691,502.44 575.939,499.525C576.011,498.686 576.088,497.774 576.17,496.82C577.037,486.636 572.525,476.738 564.268,470.715L564.267,470.714C556.81,465.274 547.807,462.365 538.576,462.414C527.91,462.47 513.969,462.544 506.861,462.581C504.019,462.596 501.39,461.074 499.988,458.601L499.988,458.6C490.369,441.628 472.947,430.544 453.498,429.023C444.163,428.293 434.2,427.514 425.875,426.863C413.794,425.918 401.974,430.72 393.974,439.823C393.82,439.998 393.666,440.174 393.512,440.349C386.839,447.943 382.212,457.113 380.069,466.992C380.069,466.993 380.069,466.993 380.068,466.993C379.64,468.968 378.14,470.535 376.186,471.048C373.478,471.76 369.357,472.844 365.081,473.968C353.71,476.958 343.565,483.444 336.079,492.51L336.078,492.51C330.263,499.553 326.817,508.25 326.231,517.364C326.075,519.796 325.917,522.243 325.777,524.427C325.488,528.909 322.03,532.539 317.569,533.045C315.659,533.262 313.624,533.492 311.754,533.704Z" style="fill:none;stroke:rgb(105,188,163);stroke-width:4px;stroke-linecap:round;"/>
            <path d="M390.33,474.697L409.801,490.335" style="fill:none;stroke:rgb(105,188,163);stroke-width:4px;"/>
            <path d="M472.579,462.64L491.18,462.995" style="fill:none;stroke:rgb(105,188,163);stroke-width:4px;"/>
        </g>
    </g>
    <g id="girl" transform="matrix(1.60035,0,0,2.29082,-581.706,-760.2)">
        <g transform="matrix(1.24973,0,0,0.87305,408.46,333.784)">
            <path d="M196.847,241.169C197.322,239.068 197.595,236.925 197.663,234.772C199.303,187.667 238.069,149.939 285.577,149.939C334.146,149.939 373.577,189.37 373.577,237.939L373.577,597.891C373.577,597.891 167.187,597.927 165.552,597.891C76.973,595.959 16.352,501.73 55.955,428.559C70.472,401.738 95.389,384.665 118.279,374.044C152.482,358.103 177.376,327.223 185.696,290.417C190.564,268.961 195.12,248.808 196.847,241.169Z" style="fill:rgb(105,188,163);"/>
        </g>
        <g>
            <g transform="matrix(1.3051,0,0,0.924504,394.266,326.406)">
                <ellipse cx="282.941" cy="235.833" rx="63.2" ry="62.327" style="fill:rgb(25,25,27);"/>
            </g>
            <g transform="matrix(0.624864,0,0,0.436525,361.215,331.846)">
                <path d="M779.484,507.605L508.21,507.605C506.78,569.96 486.292,632.373 457.217,695.98L792.899,691.198C807.049,625.695 744.776,590.266 779.484,507.605Z" style="fill:rgb(25,25,27);"/>
            </g>
            <g transform="matrix(1.26963,0,0,0.87305,395.117,331.56)">
                <ellipse cx="355.139" cy="243.828" rx="19.686" ry="19.986" style="fill:rgb(25,25,27);"/>
            </g>
            <g transform="matrix(1.26963,0,0,0.87305,235.35,331.56)">
                <ellipse cx="355.139" cy="243.828" rx="19.686" ry="19.986" style="fill:rgb(25,25,27);"/>
            </g>
        </g>
        <g transform="matrix(1.35857,0,0,0.87305,366.446,362.03)">
            <path d="M486.323,178.963C486.323,176.007 485.242,173.172 483.319,171.081C481.397,168.991 478.788,167.816 476.069,167.816C464.083,167.816 444.364,167.816 432.377,167.816C429.658,167.816 427.05,168.991 425.127,171.081C423.204,173.172 422.124,176.007 422.124,178.963C422.124,203.864 422.124,263.769 422.124,288.669C422.124,291.626 423.204,294.461 425.127,296.551C427.05,298.642 429.658,299.816 432.377,299.816C444.364,299.816 464.083,299.816 476.069,299.816C478.788,299.816 481.397,298.642 483.319,296.551C485.242,294.461 486.323,291.626 486.323,288.669C486.323,263.769 486.323,203.864 486.323,178.963Z" style="fill:rgb(43,112,64);"/>
            <clipPath id="_clip1">
                <path d="M486.323,178.963C486.323,176.007 485.242,173.172 483.319,171.081C481.397,168.991 478.788,167.816 476.069,167.816C464.083,167.816 444.364,167.816 432.377,167.816C429.658,167.816 427.05,168.991 425.127,171.081C423.204,173.172 422.124,176.007 422.124,178.963C422.124,203.864 422.124,263.769 422.124,288.669C422.124,291.626 423.204,294.461 425.127,296.551C427.05,298.642 429.658,299.816 432.377,299.816C444.364,299.816 464.083,299.816 476.069,299.816C478.788,299.816 481.397,298.642 483.319,296.551C485.242,294.461 486.323,291.626 486.323,288.669C486.323,263.769 486.323,203.864 486.323,178.963Z"/>
            </clipPath>
            <g clip-path="url(#_clip1)">
                <g transform="matrix(0.923462,0,0,0.810456,17.8237,1.48289)">
                    <ellipse cx="448.928" cy="218.84" rx="4.981" ry="6.169" style="fill:rgb(25,25,27);stroke:white;stroke-width:2.17px;stroke-linecap:round;"/>
                </g>
                <g transform="matrix(-0.425134,0.00229085,0.00210732,0.499995,874.185,-36.8406)">
                    <path d="M983.953,421.32L985.453,421.317" style="fill:none;stroke:white;stroke-width:8.23px;stroke-linecap:round;"/>
                </g>
                <g transform="matrix(0.459944,0,0,0.5,-2.17759,-34.5723)">
                    <path d="M1012.44,421.281C1012.44,421.281 1024.72,421.17 1034.32,421.083C1037.29,421.056 1040.14,422.217 1042.25,424.306C1044.35,426.395 1045.53,429.239 1045.52,432.204C1045.51,440.885 1045.49,451.435 1045.49,451.435" style="fill:none;stroke:white;stroke-width:7.93px;stroke-linecap:round;"/>
                </g>
            </g>
        </g>
        <g transform="matrix(1.35857,0,0,0.87305,366.446,362.03)">
            <path d="M422.124,178.963C422.124,203.864 422.124,263.769 422.124,288.669C422.124,291.626 423.204,294.461 425.127,296.551C427.05,298.642 429.658,299.816 432.377,299.816C444.364,299.816 464.083,299.816 476.069,299.816" style="fill:none;stroke:black;stroke-width:3.79px;stroke-linecap:butt;"/>
        </g>
        <g transform="matrix(1.24973,0,0,0.87305,399.377,331.846)">
            <path d="M544.132,343.253C544.85,338.069 544.718,332.804 543.741,327.663C540.003,308.155 531.283,291.255 517.838,276.828C516.428,275.326 514.53,274.375 512.484,274.142C491.598,271.816 471.818,273.094 453.096,277.821C451.447,278.246 450.263,279.69 450.17,281.391C450.167,281.391 450.167,281.391 450.167,281.391C450.066,283.262 451.302,284.942 453.117,285.403C455.117,285.911 457.338,286.474 457.338,286.474C457.338,286.474 454.982,287.073 452.897,287.602C451.067,288.067 449.812,289.748 449.886,291.635C449.886,291.635 449.886,291.635 449.886,291.635C449.97,293.762 451.7,295.453 453.828,295.489C464.75,295.672 495.504,296.189 495.504,296.189C495.504,296.189 462.32,302.222 451.546,304.181C449.669,304.523 448.378,306.259 448.591,308.155C448.591,308.155 448.591,308.156 448.591,308.156C448.799,310.006 450.375,311.396 452.236,311.372C462.92,311.234 496.043,310.804 496.043,310.804C496.043,310.804 468.143,318.39 459.728,320.678C458.349,321.053 457.43,322.352 457.535,323.777C457.535,323.778 457.535,323.778 457.535,323.778C457.656,325.416 459.067,326.654 460.707,326.561C470.36,326.017 500.36,324.324 500.36,324.324L511.461,336.227L470.351,459.061L449.275,410.582L392.055,441.718C410.739,472.064 429.368,498.776 453.908,522.254C460.415,528.444 469.025,531.938 478.005,532.032C478.111,532.063 478.218,532.064 478.325,532.065C494.041,532.23 507.998,522.05 512.642,507.035C527.294,458.743 540.567,368.563 544.132,343.253Z" style="fill:white;"/>
            <clipPath id="_clip2">
                <path d="M544.132,343.253C544.85,338.069 544.718,332.804 543.741,327.663C540.003,308.155 531.283,291.255 517.838,276.828C516.428,275.326 514.53,274.375 512.484,274.142C491.598,271.816 471.818,273.094 453.096,277.821C451.447,278.246 450.263,279.69 450.17,281.391C450.167,281.391 450.167,281.391 450.167,281.391C450.066,283.262 451.302,284.942 453.117,285.403C455.117,285.911 457.338,286.474 457.338,286.474C457.338,286.474 454.982,287.073 452.897,287.602C451.067,288.067 449.812,289.748 449.886,291.635C449.886,291.635 449.886,291.635 449.886,291.635C449.97,293.762 451.7,295.453 453.828,295.489C464.75,295.672 495.504,296.189 495.504,296.189C495.504,296.189 462.32,302.222 451.546,304.181C449.669,304.523 448.378,306.259 448.591,308.155C448.591,308.155 448.591,308.156 448.591,308.156C448.799,310.006 450.375,311.396 452.236,311.372C462.92,311.234 496.043,310.804 496.043,310.804C496.043,310.804 468.143,318.39 459.728,320.678C458.349,321.053 457.43,322.352 457.535,323.777C457.535,323.778 457.535,323.778 457.535,323.778C457.656,325.416 459.067,326.654 460.707,326.561C470.36,326.017 500.36,324.324 500.36,324.324L511.461,336.227L470.351,459.061L449.275,410.582L392.055,441.718C410.739,472.064 429.368,498.776 453.908,522.254C460.415,528.444 469.025,531.938 478.005,532.032C478.111,532.063 478.218,532.064 478.325,532.065C494.041,532.23 507.998,522.05 512.642,507.035C527.294,458.743 540.567,368.563 544.132,343.253Z"/>
            </clipPath>
            <g clip-path="url(#_clip2)">
                <path d="M397.296,453.188L456.44,424.679L417.314,484.456L397.296,453.188Z" style="fill:rgb(25,25,27);"/>
            </g>
        </g>
        <g transform="matrix(1.24973,0,0,0.87305,399.377,331.846)">
            <path d="M465.141,473.824L476.127,441.803" style="fill:none;stroke:black;stroke-width:3.96px;"/>
        </g>
        <g transform="matrix(1.24973,0,0,0.87305,399.377,331.846)">
            <path d="M453.908,522.254C460.415,528.444 469.025,531.938 478.005,532.032C478.111,532.063 478.218,532.064 478.325,532.065C494.041,532.23 507.998,522.05 512.642,507.035C527.26,458.854 540.506,368.977 544.107,343.428C544.853,338.047 544.683,332.578 543.603,327.254C539.147,305.49 527.825,283.229 515.619,274.512" style="fill:none;stroke:black;stroke-width:3.96px;"/>
        </g>
        <g transform="matrix(1.24973,0,0,0.87305,399.377,331.846)">
            <path d="M178.239,457.262L113.922,428.016C132.226,387.822 163.632,355.033 203,335.014C298.998,286.2 416.391,324.449 465.205,420.446L401.376,452.845L383.392,599.884L187.107,599.601L178.239,457.262Z" style="fill:rgb(255,107,0);"/>
            <clipPath id="_clip3">
                <path d="M178.239,457.262L113.922,428.016C132.226,387.822 163.632,355.033 203,335.014C298.998,286.2 416.391,324.449 465.205,420.446L401.376,452.845L383.392,599.884L187.107,599.601L178.239,457.262Z"/>
            </clipPath>
            <g clip-path="url(#_clip3)">
                <path d="M401.376,452.925L404.795,424.679L424.003,441.41L401.376,452.925ZM178.273,457.24L176.279,429.736L159.54,448.754L178.273,457.24Z" style="fill:rgb(25,25,27);"/>
                <path d="M320.974,457.996L259.156,507.836L236.492,599.884L187.259,599.496L176.407,477.108L297.188,450.123L320.974,457.996Z" style="fill:rgb(25,25,27);"/>
            </g>
        </g>
        <g transform="matrix(1.12173,0,0,0.652114,428.43,465.641)">
            <path d="M408.447,623.546L175.292,623.546L182.192,597.49L401.546,597.49L408.447,623.546Z" style="fill:rgb(25,25,27);"/>
        </g>
        <g transform="matrix(1.24973,0,0,0.87305,396.577,325.299)">
            <path d="M314.627,327.679C314.627,339.269 305.217,348.679 293.627,348.679C282.037,348.679 272.627,339.269 272.627,327.679L272.627,277.679L314.627,277.679L314.627,327.679Z" style="fill:rgb(235,235,235);"/>
            <clipPath id="_clip4">
                <path d="M314.627,327.679C314.627,339.269 305.217,348.679 293.627,348.679C282.037,348.679 272.627,339.269 272.627,327.679L272.627,277.679L314.627,277.679L314.627,327.679Z"/>
            </clipPath>
            <g clip-path="url(#_clip4)">
                <g transform="matrix(0.5,0,0,0.589286,-33.9522,-66.6593)">
                    <path d="M697.159,584.331L697.159,640.472C660.252,644.413 629.056,635.995 603.989,614.31L697.159,584.331Z" style="fill:rgb(25,25,27);"/>
                </g>
            </g>
        </g>
        <g transform="matrix(0.624864,0,0,0.436525,363.487,331.846)">
            <circle cx="640.21" cy="467.633" r="132" style="fill:rgb(235,235,235);"/>
        </g>
        <g transform="matrix(0.624864,0,0,0.436525,363.487,331.846)">
            <path d="M512.228,435.212C526.691,378.015 578.54,335.633 640.21,335.633C713.062,335.633 772.21,394.78 772.21,467.633C772.21,469.68 772.163,471.716 772.07,473.751C768.919,474.156 765.701,474.365 762.436,474.365C726.887,474.365 697.081,449.58 689.374,416.365C689.259,415.86 688.807,415.504 688.289,415.509C688.005,415.511 687.72,415.512 687.436,415.512C655.442,415.512 628.101,395.437 617.331,367.201C592.029,366.286 572.17,375.539 560.702,398.112C567.818,416.496 567.72,437.641 558.724,456.915L512.228,435.212Z" style="fill:rgb(105,188,163);"/>
        </g>
        <g transform="matrix(1.26963,0,0,0.87305,395.117,323.105)">
            <ellipse cx="355.139" cy="243.828" rx="19.686" ry="19.986" style="fill:rgb(235,235,235);"/>
        </g>
        <g transform="matrix(1.26963,0,0,0.87305,235.35,323.105)">
            <ellipse cx="355.139" cy="243.828" rx="19.686" ry="19.986" style="fill:rgb(235,235,235);"/>
        </g>
        <g transform="matrix(-1.24973,0,0,0.873046,1717.83,168.208)">
            <path d="M690.446,416.686C690.446,416.686 690.447,416.685 690.449,416.683C693.207,413.428 697.749,412.324 701.693,413.948C705.638,415.572 708.086,419.554 707.752,423.807C707.717,424.254 707.698,424.499 707.698,424.499" style="fill:none;stroke:rgb(25,25,27);stroke-width:4px;"/>
            <g transform="matrix(0.697962,-0.716135,0.716135,0.697962,35.7618,627.601)">
                <path d="M690.446,416.686C690.446,416.686 690.447,416.685 690.449,416.683C693.207,413.428 697.749,412.324 701.693,413.948C705.638,415.572 708.086,419.554 707.752,423.807C707.717,424.254 707.698,424.499 707.698,424.499" style="fill:none;stroke:rgb(25,25,27);stroke-width:4px;"/>
            </g>
            <path d="M741.96,420.327L742.019,427.562" style="fill:none;stroke:rgb(25,25,27);stroke-width:7px;stroke-linecap:round;"/>
            <g transform="matrix(-1,0,0,1,1520.98,0)">
                <path d="M741.96,420.327L742.019,427.562" style="fill:none;stroke:rgb(25,25,27);stroke-width:7px;stroke-linecap:round;"/>
            </g>
            <path d="M756.164,414.221C756.164,414.221 756.163,418.258 756.162,421.827C756.162,425.313 755.075,428.712 753.055,431.553C752.441,432.416 751.787,433.335 751.143,434.24C750.326,435.389 750.22,436.899 750.871,438.151C751.521,439.402 752.817,440.184 754.227,440.175C757.866,440.153 761.493,440.131 761.493,440.131" style="fill:none;stroke:rgb(25,25,27);stroke-width:4px;"/>
            <path d="M741.936,449.131C741.936,449.131 742.58,449.264 743.617,449.476C753.626,451.531 764.009,450.774 773.613,447.288C776.189,446.353 778.063,445.673 778.063,445.673C778.063,445.673 775.193,453.659 773.009,459.736C771.507,463.914 767.904,466.984 763.54,467.803C763.484,467.813 763.428,467.824 763.372,467.834C757.711,468.896 752.114,465.701 750.148,460.287C748.318,455.246 746.434,450.055 746.434,450.055" style="fill:rgb(25,25,27);"/>
            <g>
                <clipPath id="_clip5">
                    <path d="M741.936,449.131C741.936,449.131 742.58,449.264 743.617,449.476C753.626,451.531 764.009,450.774 773.613,447.288C776.189,446.353 778.063,445.673 778.063,445.673C778.063,445.673 775.193,453.659 773.009,459.736C771.507,463.914 767.904,466.984 763.54,467.803C763.484,467.813 763.428,467.824 763.372,467.834C757.711,468.896 752.114,465.701 750.148,460.287C748.318,455.246 746.434,450.055 746.434,450.055"/>
                </clipPath>
                <g clip-path="url(#_clip5)">
                    <path d="M747.639,452.094C747.639,452.094 748.788,452.154 750.418,452.24C757.557,452.615 764.703,451.647 771.485,449.386C774.536,448.369 777.081,447.521 777.081,447.521C777.081,447.521 769.236,451.754 765.333,453.86C763.912,454.627 762.357,455.114 760.753,455.296C760.298,455.348 759.814,455.403 759.331,455.457C756.909,455.732 754.459,455.324 752.256,454.281C750.074,453.248 747.639,452.094 747.639,452.094Z" style="fill:white;"/>
                </g>
            </g>
            <path d="M741.936,449.131C741.936,449.131 742.58,449.264 743.617,449.476C753.626,451.531 764.009,450.774 773.613,447.288C776.189,446.353 778.063,445.673 778.063,445.673C778.063,445.673 775.193,453.659 773.009,459.736C771.507,463.914 767.904,466.984 763.54,467.803C763.484,467.813 763.428,467.824 763.372,467.834C757.711,468.896 752.114,465.701 750.148,460.287C748.318,455.246 746.564,450.73 746.564,450.73" style="fill:none;stroke:rgb(25,25,27);stroke-width:4px;"/>
            <g transform="matrix(1,0,0,1.04402,68.7001,-18.5528)">
                <ellipse cx="719.279" cy="438.18" rx="2.232" ry="2.044" style="fill:rgb(255,107,0);"/>
            </g>
            <g transform="matrix(1,0,0,1.04402,86.8913,-18.5528)">
                <ellipse cx="719.279" cy="438.18" rx="2.232" ry="2.044" style="fill:rgb(255,107,0);"/>
            </g>
            <g transform="matrix(1,0,0,1.04402,76.9441,-5.03861)">
                <ellipse cx="719.279" cy="438.18" rx="2.232" ry="2.044" style="fill:rgb(255,107,0);"/>
            </g>
        </g>
        <g transform="matrix(1.24973,0,0,0.873046,-183.775,144.241)">
            <g transform="matrix(1,0,0,1,-1.0423,-13.4666)">
                <path d="M587.295,659.039L645.937,685.593L686.381,664.55C686.381,664.55 735.412,642.806 746.015,638.104C747.248,637.557 748.682,637.742 749.736,638.583C749.746,638.591 749.755,638.599 749.765,638.607C750.557,639.239 751.002,640.209 750.966,641.221C750.93,642.234 750.416,643.169 749.581,643.743C744.766,647.054 736.765,652.556 736.765,652.556C736.765,652.556 775.624,646.501 786.841,644.753C787.607,644.633 788.387,644.844 788.989,645.332C789.591,645.821 789.958,646.541 790,647.315C790.003,647.374 790.004,647.408 790.004,647.408C790.64,651.002 757.2,659.982 755.737,659.999C754.319,660.015 782.943,655.27 790.387,654.039C791.461,653.862 792.544,654.297 793.197,655.168C793.233,655.216 793.27,655.265 793.307,655.315C793.809,655.984 793.956,656.855 793.7,657.652C793.445,658.449 792.82,659.073 792.023,659.326C783.3,662.096 761.135,669.135 761.135,669.135C761.135,669.135 783.874,667.258 790.877,666.68C792.095,666.58 793.244,667.254 793.751,668.365C793.751,668.366 793.752,668.367 793.752,668.368C794.148,669.237 794.119,670.242 793.671,671.086C793.224,671.931 792.41,672.519 791.468,672.679C782.51,674.203 761.403,677.794 761.403,677.794C761.403,677.794 780.003,681.24 787.635,682.654C788.478,682.81 789.222,683.3 789.697,684.013C790.172,684.727 790.338,685.602 790.158,686.439C790.157,686.445 790.156,686.45 790.155,686.455C789.834,687.947 788.447,688.962 786.928,688.818C779.645,688.126 759.941,686.255 759.941,686.255C743.441,696.505 724.193,700.308 702.778,699.024C702.778,699.024 642.983,761.254 610.109,787.274C598.977,796.086 575.56,798.939 564.982,790.468C555.876,783.175 552.033,775.81 552.44,760.252C552.842,744.93 565.27,707.223 587.295,659.039Z" style="fill:white;"/>
            </g>
            <g transform="matrix(1.03679,-0.0246531,-0.0246529,1.01653,464.758,177.32)">
                <path d="M127.884,525.412L183.645,491.961" style="fill:none;stroke:rgb(25,25,27);stroke-width:3.96px;"/>
            </g>
            <g transform="matrix(1,0,0,1,0.728521,-14.8696)">
                <path d="M610.109,787.274C598.977,796.086 584.327,799.101 570.62,795.401L570.619,795.401C557.9,791.969 548.88,779.704 550.971,766.698" style="fill:none;stroke:black;stroke-width:3.96px;stroke-linecap:butt;stroke-miterlimit:2;"/>
            </g>
            <g transform="matrix(0.999999,0,0,1,465.334,192.857)">
                <path d="M120.66,452.473L179.561,479.268L144.772,500.104L120.66,452.473Z" style="fill:rgb(25,25,27);"/>
            </g>
        </g>
    </g>
</svg>
