<?xml version="1.0" encoding="utf-8"?>
<!-- Generator: Adobe Illustrator 23.0.4, SVG Export Plug-In . SVG Version: 6.00 Build 0)  -->
<svg version="1.1" id="Layer_1" xmlns:vectornator="http://vectornator.io"
	 xmlns="http://www.w3.org/2000/svg" xmlns:xlink="http://www.w3.org/1999/xlink" x="0px" y="0px" viewBox="0 0 1536 2048"
	 style="enable-background:new 0 0 1536 2048;" xml:space="preserve">
<style type="text/css">
	.st0{fill:#2C7040;}
	.st1{fill:none;stroke:#2C7040;stroke-width:15.9993;stroke-linecap:round;stroke-linejoin:round;}
	.st2{fill:none;stroke:#69BCA3;stroke-width:23.9982;stroke-linecap:round;stroke-linejoin:round;}
	.st3{fill:#69BCA3;}
	.st4{clip-path:url(#SVGID_2_);}
	.st5{fill:#3E0ACD;}
	.st6{fill:#EFEFEF;}
	.st7{fill:none;}
	.st8{fill:#FFFFFF;stroke:#FFFFFF;stroke-width:0.7979;}
	.st9{clip-path:url(#SVGID_4_);}
	.st10{fill:#F8F8F9;}
	.st11{clip-path:url(#SVGID_6_);}
	.st12{fill:#FF6B00;}
	.st13{clip-path:url(#SVGID_8_);}
	.st14{fill:#FFFFFF;}
	.st15{fill:#8BC440;}
	.st16{fill:#FFFFFF;stroke:#FFFFFF;stroke-width:0.8;}
	.st17{fill:none;stroke:#FFFFFF;stroke-width:3.064;stroke-linecap:round;stroke-linejoin:round;}
	.st18{fill:#19191B;}
	.st19{fill:none;stroke:#FFFFFF;stroke-width:14;stroke-linecap:round;stroke-linejoin:round;}
	.st20{font-family:'Nunito-ExtraBold';}
	.st21{font-size:60px;}
</style>
<g id="Untitled" vectornator:layerName="Untitled">
	<g>
		<g>
			<path class="st0" d="M1271.7,838.5L1271.7,838.5l-87.5,225l0,0l-104.5,268.8c81.7,31.8,174-9.3,206.1-91.9
				c20.5-52.8,11.5-109.6-19.1-152.1c-2.8-3.8-3.6-8.7-2.1-13.2c1.4-4.5,4.9-8.1,9.4-9.6c34.4-11.8,63.4-37.8,77.5-74
				c17.1-44,7.8-91.9-20.3-126.6c-3.1-3.9-4.1-9-2.7-13.8c1.4-4.8,5.1-8.5,9.9-10c28.3-8.5,52.4-29.3,63.9-58.7
				c19.9-51.3-6.2-109.3-58.3-129.5L1271.7,838.5z"/>
			<path class="st1" d="M1320.5,737.7l-292.4,751.9"/>
		</g>
		<path class="st2" d="M1178.4,604.1l-150.2,885.6"/>
		<g>
			<path class="st3" d="M1244.5,802.8c-6.2-7.9-5.4-19.2,1.7-26.3c18.8-18.7,32-43.4,36.3-71.6c10.7-69.9-36.9-135.3-106.4-146
				s-134.6,37.4-145.4,107.3c-4.4,28.2,0.8,55.7,13.2,79.2c4.7,8.9,1.9,19.9-6.3,25.6c-32.4,22.6-55.9,57.7-62.3,99.6
				c-2.4,15.5-2.3,30.9,0.1,45.6c1.1,7.1-1.7,14.3-7.4,18.8c-36.6,29.2-62.7,71.4-70.3,120.7c-16.3,106.3,58.8,206.1,167.7,222.9
				c108.9,16.8,210.6-55.9,226.9-162.2c7.6-49.4-4.6-97.4-30.7-136.3c-4-6-4.6-13.6-1.4-20.1c6.6-13.4,11.4-28,13.7-43.5
				C1280.4,874.6,1268.6,834.1,1244.5,802.8z"/>
			<g vectornator:mask="#Mask">
				<g>
					<defs>
						<path id="SVGID_1_" d="M1244.5,802.8c-6.2-7.9-5.4-19.2,1.7-26.3c18.8-18.7,32-43.4,36.3-71.6c10.7-69.9-36.9-135.3-106.4-146
							s-134.6,37.4-145.4,107.3c-4.4,28.2,0.8,55.7,13.2,79.2c4.7,8.9,1.9,19.9-6.3,25.6c-32.4,22.6-55.9,57.7-62.3,99.6
							c-2.4,15.5-2.3,30.9,0.1,45.6c1.1,7.1-1.7,14.3-7.4,18.8c-36.6,29.2-62.7,71.4-70.3,120.7c-16.3,106.3,58.8,206.1,167.7,222.9
							c108.9,16.8,210.6-55.9,226.9-162.2c7.6-49.4-4.6-97.4-30.7-136.3c-4-6-4.6-13.6-1.4-20.1c6.6-13.4,11.4-28,13.7-43.5
							C1280.4,874.6,1268.6,834.1,1244.5,802.8z"/>
					</defs>
					<clipPath id="SVGID_2_">
						<use xlink:href="#SVGID_1_"  style="overflow:visible;"/>
					</clipPath>
					<g class="st4">
						<path class="st5" d="M1201.2,509.3l-136.3,767.4c-111.9-12.5-216.9,30.5-324.2,54.9L967,429.4L1201.2,509.3z"/>
					</g>
				</g>
			</g>
		</g>
	</g>
</g>
<path class="st6" d="M320.9,1781.1L924.3,250.1c0,0,87.5-11.4,122,30.7c34.5,42.1,5.7,1447.3,5.7,1447.3s-19.4,91.8-112.3,80.2
	S386,1844.4,320.9,1781.1z"/>
<g id="_x32_R4Q7H.tif">
	<g>
		<path d="M282,1023.1c0-225,1.2-450-0.7-675c-0.6-75.2,56.9-123.1,122-122.2c181.7,2.4,363.5,0.7,545.2,0.8
			c58.8,0,100.2,29.3,114.3,81.1c3.1,11.5,3.8,23.9,3.8,35.9c0.2,452.3,0.3,904.6,0.2,1356.9c0,76.2-45.6,121.3-122,121.4
			c-182.3,0.1-364.6,0-546.9,0c-67.6,0-115.7-47.5-115.8-115.3C281.9,1478.8,282,1251,282,1023.1z M306.6,1024.1
			c0,227.9,0,455.9,0,683.8c0,51.4,36.4,88.7,87.8,88.8c185.8,0.3,371.6,0.3,557.4,0c55-0.1,90.3-36.2,90.3-91.6
			c0-453.5-0.5-907.1,0.6-1360.6c0.1-51.4-39.7-94.7-94.5-94.3c-182.3,1.1-364.7,0.4-547,0.4c-58.8,0-94.7,36-94.7,94.9
			C306.6,571.7,306.6,797.9,306.6,1024.1z"/>
	</g>
</g>
<g>
	<path class="st7" d="M320.9,623.1h669.1l0,0v300l0,0H320.9l0,0V623.1L320.9,623.1z"/>
	<path class="st0" d="M444.2,729.1c17.3,0,28.7,11.2,28.7,28.7v62.6c0,17.5-11.4,28.7-28.7,28.7h-62.6c-17.3,0-28.7-11.2-28.7-28.7
		v-62.6c0-17.5,11.4-28.7,28.7-28.7H444.2z"/>
	<path class="st8" d="M396.7,759.4c0.4,0,0.8,0.1,1.1,0.3c1.1,0.4,7.6,6.4,8.8,13.9c0,0-0.7,3.2-3.8,7.6c0,0,0.7,3.2,8.1,10.8
		c7.6,7.6,10.7,8.3,10.7,8.3c4.3-3.2,7.6-3.9,7.6-3.9c7.6,1.2,13.4,7.9,13.8,9c1.5,3.5-4.3,8.3-4.3,8.3c-1.4,0.6-2.8,0.8-4.5,0.8
		c-12,0-28-15.9-28.8-16.7c-0.4-0.4-20.8-21.4-15.7-33.7C389.7,764.1,393.6,759.4,396.7,759.4 M396.7,756.6c-4.2,0-8.4,4.7-9.1,5.7
		l-0.3,0.3l-0.1,0.4c-5.8,13.7,13.8,34.2,16.2,36.7c1.9,1.9,17.8,17.5,30.7,17.5c2,0,3.8-0.4,5.4-1.1l0.4-0.1l0.3-0.3
		c1.2-1,7.3-6.5,5.1-11.5c-0.8-1.9-7.4-9.1-15.8-10.5l-0.5-0.1l-0.5,0.1c-0.4,0.1-3.2,0.7-7.3,3.5c-1.4-0.7-4.1-2.6-8.5-7
		c-4.3-4.4-6.2-7.2-6.9-8.6c2.6-4.1,3.2-7,3.4-7.3l0.1-0.6l-0.1-0.6c-1.4-8.6-8.5-15.2-10.4-16.2
		C398.2,756.8,397.5,756.6,396.7,756.6z"/>
</g>
<path class="st7" d="M320.9,397.2h669.1l0,0v300l0,0H320.9l0,0V397.2L320.9,397.2z"/>
<g>
	<path class="st5" d="M444.2,503.2c17.3,0,28.7,11.2,28.7,28.7v62.6c0,17.5-11.4,28.7-28.7,28.7h-62.6c-17.3,0-28.7-11.2-28.7-28.7
		v-62.6c0-17.5,11.4-28.7,28.7-28.7H444.2z"/>
	<g vectornator:mask="#Mask_9">
		<g>
			<defs>
				<path id="SVGID_3_" d="M444.2,503.2c17.3,0,28.7,11.2,28.7,28.7v62.6c0,17.5-11.4,28.7-28.7,28.7h-62.6
					c-17.3,0-28.7-11.2-28.7-28.7v-62.6c0-17.5,11.4-28.7,28.7-28.7H444.2z"/>
			</defs>
			<clipPath id="SVGID_4_">
				<use xlink:href="#SVGID_3_"  style="overflow:visible;"/>
			</clipPath>
			<g class="st9">
				<text transform="matrix(1 0 0 1 -297.9537 792)" class="st14" style="font-family:'ArialMT'; font-size:187.6936px;"> </text>
				<text transform="matrix(1 0 0 1 -297.9537 792)" class="st14" style="font-family:'ArialMT'; font-size:187.6936px;"> f</text>
				<text transform="matrix(1 0 0 1 -297.9537 792)" class="st14" style="font-family:'ArialMT'; font-size:187.6936px;"> </text>
			</g>
		</g>
	</g>
</g>
<path class="st10" d="M605.6,503.2c17.3,0,28.7,11.2,28.7,28.7v62.6c0,17.5-11.4,28.7-28.7,28.7H543c-17.3,0-28.7-11.2-28.7-28.7
	v-62.6c0-17.5,11.4-28.7,28.7-28.7H605.6z"/>
<g>
	<g>
		<defs>
			<path id="SVGID_5_" d="M605.6,503.2c17.3,0,28.7,11.2,28.7,28.7v62.6c0,17.5-11.4,28.7-28.7,28.7H543
				c-17.3,0-28.7-11.2-28.7-28.7v-62.6c0-17.5,11.4-28.7,28.7-28.7H605.6z"/>
		</defs>
		<use xlink:href="#SVGID_5_"  style="overflow:visible;fill:#DBDBDB;"/>
		<clipPath id="SVGID_6_">
			<use xlink:href="#SVGID_5_"  style="overflow:visible;"/>
		</clipPath>
		<g vectornator:mask="#Mask_10" class="st11">
			<g>
				<path class="st12" d="M623.4,546.8c0-9.6-7.8-17.5-17.5-17.5h-62.5c-9.6,0-17.5,7.8-17.5,17.5v34.9c0,9.6,7.8,17.5,17.5,17.5
					H606c9.6,0,17.5-7.8,17.5-17.5V546.8z"/>
				<g>
					<g vectornator:mask="#Mask_11">
						<defs>
							<path id="SVGID_7_" d="M623.4,546.8c0-9.6-7.8-17.5-17.5-17.5h-62.5c-9.6,0-17.5,7.8-17.5,17.5v34.9
								c0,9.6,7.8,17.5,17.5,17.5H606c9.6,0,17.5-7.8,17.5-17.5V546.8z"/>
						</defs>
						<clipPath id="SVGID_8_">
							<use xlink:href="#SVGID_7_"  style="overflow:visible;"/>
						</clipPath>
						<g class="st13">
							<path class="st14" d="M591.7,565.4l-27.6,14.2l0.4-29.1L591.7,565.4z"/>
						</g>
					</g>
				</g>
			</g>
		</g>
	</g>
	<g>
		<path class="st15" d="M773.4,503.2c17.3,0,28.7,11.2,28.7,28.7v62.6c0,17.5-11.4,28.7-28.7,28.7h-62.6
			c-17.3,0-28.7-11.2-28.7-28.7v-62.6c0-17.5,11.4-28.7,28.7-28.7H773.4z"/>
		<path class="st16" d="M729.6,544.2c0.3,0,0.6,0.1,0.8,0.2c0.8,0.3,5.6,4.6,6.5,10.1c0,0-0.5,2.3-2.8,5.5c0,0,0.5,2.3,6,7.8
			c5.6,5.5,7.9,6,7.9,6c3.2-2.3,5.6-2.8,5.6-2.8c5.6,0.9,9.9,5.7,10.2,6.5c1.1,2.5-3.2,6-3.2,6c-1,0.4-2.1,0.6-3.3,0.6
			c-8.9,0-20.7-11.5-21.3-12.1c-0.3-0.3-15.4-15.5-11.6-24.4C724.4,547.6,727.3,544.2,729.6,544.2 M729.6,542.2
			c-3.1,0-6.2,3.4-6.7,4.1l-0.2,0.2l-0.1,0.3c-4.3,9.9,10.2,24.8,12,26.6c1.4,1.4,13.2,12.7,22.7,12.7c1.5,0,2.8-0.3,4-0.8l0.3-0.1
			l0.2-0.2c0.9-0.7,5.4-4.7,3.8-8.3c-0.6-1.4-5.5-6.6-11.7-7.6l-0.4-0.1l-0.4,0.1c-0.3,0.1-2.4,0.5-5.4,2.5c-1-0.5-3-1.9-6.3-5.1
			c-3.2-3.2-4.6-5.2-5.1-6.2c1.9-3,2.4-5.1,2.5-5.3l0.1-0.4l-0.1-0.4c-1-6.2-6.3-11-7.7-11.7C730.7,542.3,730.2,542.2,729.6,542.2z"
			/>
		<path class="st17" d="M711.8,583.3c-3.4-5.6-5.3-12.1-5.3-19c0-20.3,16.6-36.9,37-36.9c20.4,0,36.9,16.5,36.9,36.9
			s-16.6,36.9-36.9,36.9c-7.5,0-14.4-2.2-20.2-6l-19.4,6L711.8,583.3z"/>
	</g>
	<g>
		<path class="st14" d="M935.2,503.2c17.3,0,28.7,11.2,28.7,28.7v62.6c0,17.5-11.4,28.7-28.7,28.7h-62.6
			c-17.3,0-28.7-11.2-28.7-28.7v-62.6c0-17.5,11.4-28.7,28.7-28.7H935.2z"/>
		<path class="st18" d="M898.3,536h15.4c1,0,2.4,0.7,3.1,1.5l4.2,6.2c0.4,0.6,1.1,1,1.8,1h9.1c2.1,0,3.8,1.7,3.8,3.9v28.2
			c0,2.1-1.7,3.9-3.8,3.9H880c-2.1,0-3.8-1.7-3.8-3.9v-28.2c0-2.1,1.7-3.9,3.8-3.9h9.1c0.7,0,1.4-0.4,1.8-0.9l4.2-6.3
			C895.8,536.7,897.2,536,898.3,536z M920.4,549.6c0,1.1,0.9,1.9,1.9,1.9c1.1,0,1.9-0.9,1.9-1.9c0-1.1-0.9-1.9-1.9-1.9
			C921.3,547.7,920.4,548.6,920.4,549.6z M892.5,562.3c0,7.5,6,13.6,13.5,13.6c7.4,0,13.5-6.1,13.5-13.6c0-7.5-6-13.6-13.5-13.6
			C898.5,548.7,892.5,554.8,892.5,562.3z M881.9,538h3.8c1.1,0,1.9,0.9,1.9,1.9v1.9H880v-1.9C880,538.8,880.9,538,881.9,538z
			 M895.4,562.3c0-5.9,4.7-10.7,10.6-10.7c5.8,0,10.6,4.8,10.6,10.7c0,5.9-4.7,10.7-10.6,10.7C900.1,573,895.4,568.2,895.4,562.3z"
			/>
	</g>
</g>
<g>
	<path d="M478,825.9c0,1.8-1.4,3.2-3.2,3.2h-12.9c-1.8,0-3.2-1.4-3.2-3.2v-8.2c0-4.7,4.3-8.5,9.7-8.5c5.3,0,9.7,3.8,9.7,8.5V825.9z
		 M468.4,803.5c-8.9,0-16.1,6.4-16.1,14.2v8.2c0,1.8-1.4,3.2-3.2,3.2c-1.8,0-3.2,1.4-3.2,3.2v22c0,1.8,1.4,3.2,3.2,3.2h38.7
		c1.8,0,3.2-1.4,3.2-3.2v-22c0-1.8-1.4-3.2-3.2-3.2c-1.8,0-3.2-1.4-3.2-3.2v-8.2C484.5,809.9,477.2,803.5,468.4,803.5z"/>
	<path d="M478,603c0,1.8-1.4,3.2-3.2,3.2h-12.9c-1.8,0-3.2-1.4-3.2-3.2v-8.2c0-4.7,4.3-8.5,9.7-8.5c5.3,0,9.7,3.8,9.7,8.5V603z
		 M468.4,580.6c-8.9,0-16.1,6.4-16.1,14.2v8.2c0,1.8-1.4,3.2-3.2,3.2c-1.8,0-3.2,1.4-3.2,3.2v22c0,1.8,1.4,3.2,3.2,3.2h38.7
		c1.8,0,3.2-1.4,3.2-3.2v-22c0-1.8-1.4-3.2-3.2-3.2c-1.8,0-3.2-1.4-3.2-3.2v-8.2C484.5,587,477.2,580.6,468.4,580.6z"/>
	<path d="M642.5,603.5c0,1.8-1.4,3.2-3.2,3.2h-12.9c-1.8,0-3.2-1.4-3.2-3.2v-8.2c0-4.7,4.3-8.5,9.7-8.5c5.3,0,9.7,3.8,9.7,8.5V603.5
		z M632.8,581.1c-8.9,0-16.1,6.4-16.1,14.2v8.2c0,1.8-1.4,3.2-3.2,3.2s-3.2,1.4-3.2,3.2v22c0,1.8,1.4,3.2,3.2,3.2h38.7
		c1.8,0,3.2-1.4,3.2-3.2v-22c0-1.8-1.4-3.2-3.2-3.2c-1.8,0-3.2-1.4-3.2-3.2v-8.2C648.9,587.4,641.7,581.1,632.8,581.1z"/>
	<path d="M811.1,603.5c0,1.8-1.4,3.2-3.2,3.2H795c-1.8,0-3.2-1.4-3.2-3.2v-8.2c0-4.7,4.3-8.5,9.7-8.5c5.3,0,9.7,3.8,9.7,8.5V603.5z
		 M801.5,581.1c-8.9,0-16.1,6.4-16.1,14.2v8.2c0,1.8-1.4,3.2-3.2,3.2s-3.2,1.4-3.2,3.2v22c0,1.8,1.4,3.2,3.2,3.2h38.7
		c1.8,0,3.2-1.4,3.2-3.2v-22c0-1.8-1.4-3.2-3.2-3.2s-3.2-1.4-3.2-3.2v-8.2C817.6,587.4,810.4,581.1,801.5,581.1z"/>
	<path d="M979.8,603.5c0,1.8-1.4,3.2-3.2,3.2h-12.9c-1.8,0-3.2-1.4-3.2-3.2v-8.2c0-4.7,4.3-8.5,9.7-8.5c5.3,0,9.7,3.8,9.7,8.5V603.5
		z M970.1,581.1c-8.9,0-16.1,6.4-16.1,14.2v8.2c0,1.8-1.4,3.2-3.2,3.2s-3.2,1.4-3.2,3.2v22c0,1.8,1.4,3.2,3.2,3.2h38.7
		c1.8,0,3.2-1.4,3.2-3.2v-22c0-1.8-1.4-3.2-3.2-3.2c-1.8,0-3.2-1.4-3.2-3.2v-8.2C986.2,587.4,979,581.1,970.1,581.1z"/>
</g>
<path class="st7" d="M470,891h696.3l0,0v300.1l0,0H470l0,0V891L470,891z"/>
<g id="OeN4Qa.tif">
	<g>
		<path class="st14" d="M447.4,533.3c0,4.9,0,9.8,0,14.7c-0.1,0-0.2,0-0.3,0c-2.7,0-5.3,0-8,0c-0.7,0-1.4,0-2,0.1
			c-0.9,0-1.7,0.2-2.5,0.5c-1.8,0.6-3,1.8-3.6,3.7c-0.3,1.1-0.5,2.2-0.5,3.4c0,3.5,0,7,0,10.6c0,0.3-0.1,0.3,0.3,0.3
			c5.2,0,10.4,0,15.6,0c0.1,0,0.1,0,0.2,0c0.1,0,0.2,0,0.2,0.2c-0.1,0.8-0.2,1.6-0.3,2.4c-0.1,0.7-0.2,1.4-0.3,2.1
			c-0.1,0.8-0.2,1.6-0.3,2.5c-0.1,0.7-0.2,1.4-0.3,2.1c-0.1,0.8-0.2,1.6-0.3,2.5c-0.1,0.7-0.2,1.4-0.3,2.1c-0.1,0.7-0.2,1.4-0.3,2.2
			c0,0.3,0,0.3-0.3,0.3c-4.5,0-9,0-13.5,0c-0.4,0-0.3,0-0.3,0.3c0,13.8,0,27.6,0,41.5c0,0.3,0,0.3-0.3,0.3c-5.4,0-10.9,0-16.3,0
			c0,0-0.1,0-0.1,0c-0.1,0-0.2,0-0.2-0.1c0-0.1,0-0.1,0-0.2c0-13.8,0-27.6,0-41.4c0-0.3,0-0.3-0.3-0.3c-4.6,0-9.1,0-13.7,0
			c-0.1,0-0.1,0-0.2,0c0-5.5,0-10.9,0-16.4c0.1,0,0.2,0,0.3,0c4.5,0,9.1,0,13.6,0c0.4,0,0.3,0,0.3-0.3c0-3.9,0-7.8,0-11.6
			c0-0.6,0-1.3,0-1.9c0-1.2,0.2-2.4,0.4-3.6c0.4-2.2,1.1-4.3,2.1-6.3c2.2-4.2,5.6-7.1,10-8.7c1.3-0.5,2.7-0.8,4.1-1
			c1.2-0.2,2.5-0.3,3.7-0.3c2.2,0,4.5,0.1,6.7,0.1c0.5,0,1,0,1.5,0.1c0.8,0.1,1.7,0.1,2.5,0.2c0.5,0,1,0.1,1.5,0.1
			C446.7,533.2,447.1,533.3,447.4,533.3z"/>
	</g>
</g>
<g>
	<path d="M1160.8,1194.5H455.6c-18.2,0-33-14.8-33-33v-159.2c0-18.2,14.8-33,33-33h705.2c18.2,0,33,14.8,33,33v159.2
		C1193.8,1179.8,1179,1194.5,1160.8,1194.5z"/>
	<path class="st19" d="M1079.9,1081.7l16.1,19.9l42.8-39.4"/>
	<path class="st14" d="M503.7,1043.7c-5.1-1.3-12.5,2.4-13.8,3.3l-0.5,0.2l-0.4,0.4c-13.6,12.8,0.8,40.7,2.6,44.1
		c1.4,2.6,13.6,24.1,29.4,28.1c2.5,0.6,4.8,0.7,7.2,0.5l0.6,0l0.5-0.2c2-0.7,12-4.7,11.7-10.6c-0.1-2.3-4.8-12-14.5-16l-0.6-0.3
		l-0.7,0c-0.6,0-4.3-0.3-10.6,1.4c-1.3-1.2-3.8-4-7.1-10.1c-3.2-6-4.2-9.6-4.4-11.2c5.1-3.6,7.3-6.5,7.6-6.8l0.4-0.5l0.1-0.6
		c2.4-9.5-3.3-18.8-5.2-20.4C505.5,1044.3,504.7,1044,503.7,1043.7z"/>
	<rect x="564" y="1058.8" class="st7" width="482.3" height="46.2"/>
	<text transform="matrix(1 0 0 1 563.9824 1101.3954)" class="st14 st20 st21">911 emergencias</text>
</g>
<g>
	<path d="M1160.8,1449.8H455.6c-18.2,0-33-14.8-33-33v-159.2c0-18.2,14.8-33,33-33h705.2c18.2,0,33,14.8,33,33v159.2
		C1193.8,1435,1179,1449.8,1160.8,1449.8z"/>
	<path class="st19" d="M1079.9,1337l16.1,19.9l42.8-39.4"/>
	<path class="st14" d="M503.7,1299c-5.1-1.3-12.5,2.4-13.8,3.3l-0.5,0.2l-0.4,0.4c-13.6,12.8,0.8,40.7,2.6,44.1
		c1.4,2.6,13.6,24.1,29.4,28.1c2.5,0.6,4.8,0.7,7.2,0.5l0.6,0l0.5-0.2c2-0.7,12-4.7,11.7-10.6c-0.1-2.3-4.8-12-14.5-16l-0.6-0.3
		l-0.7,0c-0.6,0-4.3-0.3-10.6,1.4c-1.3-1.2-3.8-4-7.1-10.1c-3.2-6-4.2-9.6-4.4-11.2c5.1-3.6,7.3-6.5,7.6-6.8l0.4-0.5l0.1-0.6
		c2.4-9.5-3.3-18.8-5.2-20.4C505.5,1299.6,504.7,1299.2,503.7,1299z"/>
	<rect x="564" y="1314.1" class="st7" width="482.3" height="46.2"/>
	<text transform="matrix(1 0 0 1 563.9824 1356.667)" class="st14 st20 st21">Ayuda</text>
</g>
<circle cx="674" cy="310.1" r="28"/>
</svg>
