<?xml version="1.0" encoding="utf-8"?>
<!-- Generator: Adobe Illustrator 24.0.1, SVG Export Plug-In . SVG Version: 6.00 Build 0)  -->
<svg version="1.1" id="Layer_1" xmlns:serif="http://www.serif.com/"
	 xmlns="http://www.w3.org/2000/svg" xmlns:xlink="http://www.w3.org/1999/xlink" x="0px" y="0px" viewBox="0 0 486.1 488.9"
	 style="enable-background:new 0 0 486.1 488.9;" xml:space="preserve">
<style type="text/css">
	.st0{fill-rule:evenodd;clip-rule:evenodd;fill:#E5F1ED;}
	.st1{fill-rule:evenodd;clip-rule:evenodd;fill:#FF6B00;}
	.st2{clip-path:url(#SVGID_2_);}
	.st3{fill-rule:evenodd;clip-rule:evenodd;fill:#19191B;}
	.st4{clip-path:url(#SVGID_4_);}
	.st5{fill-rule:evenodd;clip-rule:evenodd;fill:#FFFFFF;}
	.st6{fill:none;stroke:#19191B;stroke-width:0.7734;stroke-linecap:round;stroke-linejoin:round;stroke-miterlimit:10;}
	
		.st7{fill-rule:evenodd;clip-rule:evenodd;fill:#FF6B00;stroke:#19191B;stroke-width:0.7734;stroke-linecap:round;stroke-linejoin:round;stroke-miterlimit:10;}
	.st8{fill-rule:evenodd;clip-rule:evenodd;fill:#FFC600;}
	.st9{clip-path:url(#SVGID_6_);}
	.st10{fill:none;stroke:#F8F8F9;stroke-width:0.7734;stroke-linecap:round;stroke-linejoin:round;stroke-miterlimit:10;}
	.st11{clip-path:url(#SVGID_8_);}
	.st12{clip-path:url(#SVGID_10_);}
	.st13{fill-rule:evenodd;clip-rule:evenodd;fill:#3E0ACD;}
	.st14{clip-path:url(#SVGID_12_);}
	.st15{fill:none;stroke:#69BCA3;stroke-width:3;stroke-linecap:round;stroke-linejoin:round;stroke-miterlimit:10;}
	.st16{fill:none;stroke:#FF6B00;stroke-width:3;stroke-linecap:round;stroke-linejoin:round;stroke-miterlimit:10;}
	.st17{fill:none;stroke:#FFC600;stroke-width:3;stroke-linecap:round;stroke-linejoin:round;stroke-miterlimit:10;}
	.st18{fill:none;stroke:#8BC440;stroke-width:3;stroke-linecap:round;stroke-linejoin:round;stroke-miterlimit:10;}
	.st19{fill:none;stroke:#3E0ACD;stroke-width:3;stroke-linecap:round;stroke-linejoin:round;stroke-miterlimit:10;}
	.st20{fill:none;stroke:#2C7040;stroke-width:3;stroke-linecap:round;stroke-linejoin:round;stroke-miterlimit:10;}
</style>
<g>
	<g transform="matrix(0.964384,0,0,1.00095,72.33,-47.4584)">
		<g id="Слой3">
			<ellipse class="st0" cx="171.6" cy="348.4" rx="180.5" ry="173.9"/>
		</g>
	</g>
	<g id="мужчина" transform="matrix(0.98152,0.191357,-0.191357,0.98152,288.26,-114.647)">
		<path class="st1" d="M-24.7,202.4c-0.9-9.8,3-18.5,10.4-21.3c9.4-3.5,21,3.9,25.7,16.7c4.5,12,1.3,24.5-7,28.8l4.3,13.9l-16.2,5
			l-6.9-22.5c-2.2-1.9-4.2-4.3-5.9-7.1c-0.5,0.1-1,0.2-1.5,0.2c-3.9,0-7.1-3.2-7.1-7.1C-28.9,206-27.2,203.5-24.7,202.4z"/>
		<g>
			<g>
				<g>
					<g>
						<g>
							<g>
								<defs>
									<path id="SVGID_1_" d="M-24.7,202.4c-0.9-9.8,3-18.5,10.4-21.3c9.4-3.5,21,3.9,25.7,16.7c4.5,12,1.3,24.5-7,28.8l4.3,13.9
										l-16.2,5l-6.9-22.5c-2.2-1.9-4.2-4.3-5.9-7.1c-0.5,0.1-1,0.2-1.5,0.2c-3.9,0-7.1-3.2-7.1-7.1
										C-28.9,206-27.2,203.5-24.7,202.4z"/>
								</defs>
								<clipPath id="SVGID_2_">
									<use xlink:href="#SVGID_1_"  style="overflow:visible;"/>
								</clipPath>
								<g class="st2">
									<path class="st3" d="M-25.4,202c0,0,0.4-0.1,1-0.2c2.2-0.4,4.4-0.1,6.3,1c0.9,0.5,1.7,1,1.7,1c-1.9-3.1-1.9-5.3-0.3-7.5
										c0.8-1.2,0.8-2.8,0.1-4c-0.1-0.2-0.2-0.4-0.3-0.6c-0.3-0.5-0.4-1.1-0.4-1.6l0,0c0.1-1.7,1.4-3.1,3-3.3
										c1.4-0.2,2.9-0.3,4.2-0.5c1.5-0.2,3.1-0.5,4.5-0.9c2.6-0.8,6.6-2,6.6-2l-3.3-5.7l-13.2,0.9l-10.8,9.3L-25.4,202z"/>
									<path class="st3" d="M-20.3,215.8l5.6-3.5c0,0,0.2,1.5,0.3,2.6c0.1,0.9-0.1,1.9-0.6,2.7c-0.9,1.5-2.4,3.8-2.4,3.8
										L-20.3,215.8z"/>
									<path class="st3" d="M-7.7,204c0,0,2,1.3,3.9,2.5c2.1,1.3,4.5,2.1,7,2.1c2.4,0,5.1,0,5.1,0s-0.4,2.5-0.7,4.5
										c-0.2,1.3-0.9,2.5-1.8,3.5c-0.1,0.1-0.2,0.2-0.3,0.3c-1.1,1.1-2.7,1.6-4.3,1.3l0,0c-1.9-0.4-3.5-1.7-4.2-3.4
										C-4.9,210.7-7.7,204-7.7,204z"/>
									<g>
										<g>
											<g>
												<g>
													<g>
														<g>
															<defs>
																<path id="SVGID_3_" d="M-7.7,204c0,0,2,1.3,3.9,2.5c2.1,1.3,4.5,2.1,7,2.1c2.4,0,5.1,0,5.1,0s-0.4,2.5-0.7,4.5
																	c-0.2,1.3-0.9,2.5-1.8,3.5c-0.1,0.1-0.2,0.2-0.3,0.3c-1.1,1.1-2.7,1.6-4.3,1.3l0,0c-1.9-0.4-3.5-1.7-4.2-3.4
																	C-4.9,210.7-7.7,204-7.7,204z"/>
															</defs>
															<clipPath id="SVGID_4_">
																<use xlink:href="#SVGID_3_"  style="overflow:visible;"/>
															</clipPath>
															<g class="st4">
																<path class="st5" d="M-7.7,203.3l15.9,3.3l0,0c0.3,0.8,0.2,1.8-0.3,2.5s-1.4,1.1-2.3,1.1c-0.4,0-0.8,0-1.2-0.1
																	c-4.5-0.2-8.7-2.3-11.7-5.7c-0.3-0.3-0.4-0.5-0.4-0.5V203.3z"/>
															</g>
														</g>
													</g>
												</g>
											</g>
										</g>
									</g>
									<path class="st3" d="M-3.3,194.6c0.3-0.1,0.9,1,1.4,2.5s0.7,2.7,0.5,2.8c-0.3,0.1-0.9-1-1.4-2.5
										C-3.4,195.9-3.6,194.7-3.3,194.6z M6.6,192.9c0.2-0.1,0.7,0.9,1.1,2.1c0.4,1.2,0.6,2.2,0.4,2.3s-0.7-0.9-1.1-2.1
										C6.6,194,6.4,193,6.6,192.9z"/>
									<path class="st6" d="M-25.1,211.1c0,0-0.1-0.2-0.2-0.5c-0.6-1.7,0.3-3.5,1.9-4.1l0,0c1.2-0.4,2.5,0,3.2,1
										c0.3,0.4,0.5,0.7,0.5,0.7"/>
								</g>
							</g>
						</g>
					</g>
				</g>
			</g>
		</g>
		<g id="Слой2">
			<path class="st7" d="M3.3,189.3l4.2,9.1c0,0,4.6-1.7,6.5-2.4c0.5-0.2,1,0,1.2,0.4l0,0c0.2,0.4,0.1,0.9-0.3,1.2
				c-1.6,1.2-5.4,4-5.4,4l-1.3,5.9"/>
		</g>
		<path id="_xD83D__xDC55_" class="st8" d="M-2.2,357.1l65-36.1c0,0-16.1-44.5-22.7-62.6c-1.8-4.9-5.1-9.1-9.4-12l0,0
			c-5.9-3.9-12.6-6.4-19.6-7.1c-2.1-0.2-4.3-0.5-6.4-0.7c-6.5-0.7-13.1,0.2-19.1,2.6c-4.7,1.9-9.5,3.8-9.5,3.8l-23.9,12.7l9.3,33.1
			l0,0c4.9-1,10.1,0.2,14,3.4c0.1,0.1,0.2,0.2,0.3,0.3c2.5,2,4.3,4.7,5.3,7.8C-14.7,316.3-2.2,357.1-2.2,357.1z"/>
		<g>
			<g>
				<g>
					<g>
						<g>
							<g>
								<defs>
									<path id="SVGID_5_" d="M-2.2,357.1l65-36.1c0,0-16.1-44.5-22.7-62.6c-1.8-4.9-5.1-9.1-9.4-12l0,0
										c-5.9-3.9-12.6-6.4-19.6-7.1c-2.1-0.2-4.3-0.5-6.4-0.7c-6.5-0.7-13.1,0.2-19.1,2.6c-4.7,1.9-9.5,3.8-9.5,3.8l-23.9,12.7
										l9.3,33.1l0,0c4.9-1,10.1,0.2,14,3.4c0.1,0.1,0.2,0.2,0.3,0.3c2.5,2,4.3,4.7,5.3,7.8C-14.7,316.3-2.2,357.1-2.2,357.1z"/>
								</defs>
								<clipPath id="SVGID_6_">
									<use xlink:href="#SVGID_5_"  style="overflow:visible;"/>
								</clipPath>
								<g class="st9">
									<path class="st10" d="M44.2,248c0,0-11.9,3.4-18.2,5.3c-2.2,0.6-3.6,2.8-3.2,5.1l0,0c0.1,0.8-0.2,1.7-0.8,2.3
										c-2.3,2-7.5,6.6-7.5,6.6l0.4,8l33.3-10.1L44.2,248z"/>
									<path class="st10" d="M-26,320.2c0,0,13.3-3.9,23.2-6.7c2.6-0.8,5.5-0.4,7.8,1.1s3.9,3.9,4.2,6.6l0,0
										c0.1,0.9,0.6,1.6,1.4,2.1c0.7,0.5,1.7,0.6,2.5,0.3c3.2-1,8.1-2.6,12.1-3.8c1.5-0.5,3.1-0.2,4.3,0.7c1.2,0.9,2,2.4,2,3.9
										l0,0c0,2.3-1.4,4.4-3.5,5.3c-11.3,5-46,20.4-46,20.4L-26,320.2z"/>
									<path class="st10" d="M62.8,305.6c0,0-2.1,1.2-4.2,2.4c-2.8,1.6-5.2,3.9-6.9,6.7c-0.4,0.7-0.9,1.5-1.3,2.3
										c-0.3,0.6-0.3,1.3,0.1,1.8c0.4,0.5,1.1,0.7,1.7,0.5c5.5-1.7,14.7-4.7,14.7-4.7L62.8,305.6z"/>
									<path class="st10" d="M-18.1,287.7c-2.1-0.8-3.8-2.4-4.7-4.4s-0.9-4.4-0.1-6.4c1.4-3.5,3-7.4,4-10c0.3-0.7,0.9-1.3,1.7-1.6
										c0.8-0.3,1.6-0.2,2.3,0.2c1.2,0.7,2.5,1.5,3.7,2.2c1.7,1,2.8,2.7,2.9,4.7c0.1,1.8,0.3,4,0.4,5.6c0.1,1.3-0.1,2.6-0.6,3.8
										c-0.2,0.6-0.5,1.3-0.8,2C-10.7,287.3-14.6,289-18.1,287.7C-18,287.8-18,287.8-18.1,287.7z"/>
									<path class="st3" d="M-5.8,302.8c-0.3-0.7-1.1-1.2-1.9-1.2s-1.5,0.5-1.9,1.2c-2.8,6.3-7.1,15.6-7.1,15.6l-8-22.2l-13.7-5.3
										l-4.7-13.6l17-10.8l0,0c0,5,1.6,9.8,4.6,13.8c0.6,0.9-0.6-0.8,0,0c2.5,3.4,8.2,8.2,12.3,8.9c2.5,0.4,4.7,0.7,4.7,0.7v0.1
										l65.5,7.9c0,0-2.3,4.4-4.6,8.9c-3.1,5.9-9.5,9.3-16.2,8.5c-9.4-1.1-23.2-2.8-34.7-4.2c-4.7-0.6-8.9-3.5-11-7.7
										C-5.6,303.2-5.7,303-5.8,302.8z"/>
									<path class="st3" d="M-12,239.1l35.8-6.2l7.5,3l0,0c-1.2,3.6-3.9,6.5-7.4,8s-7.5,1.3-10.9-0.4c-0.2-0.1-0.5-0.2-0.7-0.3
										c-3.2-1.6-6.7-2.6-10.3-2.9C-3.7,239.8-12,239.1-12,239.1z"/>
									<path class="st6" d="M-14,242.2l-7.9,14.3c0,0,2.9-2.3,6.1-4.8c5.1-4,11.8-5.3,18-3.6c6.1,1.7,12.7,3.5,12.7,3.5l-5.4,10"
										/>
								</g>
							</g>
						</g>
					</g>
				</g>
			</g>
		</g>
		<g id="_xD83D__xDCAA__xD83C__xDFFB_">
			<g>
				<path class="st1" d="M-46.3,262.1l7.1,25.1c0,0-5.8,2.9-9.4,4.8c-2,1-3.7,2.5-4.9,4.3c-4.2,6.1-14.3,20.8-19.4,28.2
					c-1.9,2.8-2.4,6.3-1.4,9.5s2.3,7.1,3.1,9.7c0.5,1.7-0.1,3.5-1.6,4.4c-0.5,0.3-1,0.7-1.5,1c-1.1,0.7-2,1.7-2.7,2.8
					c-0.4,0.8-1,1.7-1.5,2.5c-0.9,1.5-2.7,2.2-4.4,1.7c-3.1-1-8.1-2.6-11.7-3.8c-2.3-0.8-3.7-3.1-3.2-5.5c1.1-5.6,3-15.1,3.6-18.3
					c0.1-0.7,0.3-1.4,0.6-2.1c2-5.3,11.3-29.5,16.2-42.3c2-5.1,5.7-9.3,10.6-11.8C-58.4,268.2-46.3,262.1-46.3,262.1z"/>
				<g>
					<g>
						<g>
							<g>
								<g>
									<g>
										<defs>
											<path id="SVGID_7_" d="M-46.3,262.1l7.1,25.1c0,0-5.8,2.9-9.4,4.8c-2,1-3.7,2.5-4.9,4.3c-4.2,6.1-14.3,20.8-19.4,28.2
												c-1.9,2.8-2.4,6.3-1.4,9.5s2.3,7.1,3.1,9.7c0.5,1.7-0.1,3.5-1.6,4.4c-0.5,0.3-1,0.7-1.5,1c-1.1,0.7-2,1.7-2.7,2.8
												c-0.4,0.8-1,1.7-1.5,2.5c-0.9,1.5-2.7,2.2-4.4,1.7c-3.1-1-8.1-2.6-11.7-3.8c-2.3-0.8-3.7-3.1-3.2-5.5
												c1.1-5.6,3-15.1,3.6-18.3c0.1-0.7,0.3-1.4,0.6-2.1c2-5.3,11.3-29.5,16.2-42.3c2-5.1,5.7-9.3,10.6-11.8
												C-58.4,268.2-46.3,262.1-46.3,262.1z"/>
										</defs>
										<clipPath id="SVGID_8_">
											<use xlink:href="#SVGID_7_"  style="overflow:visible;"/>
										</clipPath>
										<g class="st11">
											<path class="st3" d="M-46.3,262.4l7.5,24.6l-13,11.7L-46.3,262.4z"/>
										</g>
									</g>
								</g>
							</g>
						</g>
					</g>
				</g>
				<g>
					<path class="st6" d="M-83.9,336.8l0.7,7.5"/>
					<path class="st6" d="M-83.3,344.3l3.1,2.1"/>
					<path class="st6" d="M-80.2,346.3l-3.1,4.9"/>
					<path class="st6" d="M-83.3,351.3l1.6,2.9"/>
					<path class="st6" d="M-83.3,344.3l-9-2.3"/>
					<path class="st6" d="M-85.7,352.7l2.4-8.4"/>
					<path class="st6" d="M-90.3,351.3l2.6-8.1"/>
					<path class="st6" d="M-95.2,349.6l3-7.6"/>
				</g>
			</g>
			<g transform="matrix(1,0,0,1,36.149,14.7655)">
				<path class="st1" d="M-27.4,248.6l-13.2,26.7c0,0,39.1,7.2,54,9.9c3.6,0.7,7.3-0.3,10.2-2.6c8.7-7,27.2-22.1,31.3-25.5
					c0.6-0.5,1.2-0.9,1.8-1.3c2.2-1.3,8-4.7,12.8-7.5c4-2.4,5.6-7.3,3.8-11.6c-0.7-1.7-1.3-3.1-1.4-3.3v-0.1
					c-0.1-0.4-1.2-3.6-2.3-6.5c-0.4-1.3-1.4-2.3-2.7-2.8c-1.3-0.5-2.7-0.4-3.9,0.3c-0.4,0.2-0.8,0.4-1.2,0.6c-1,0.5-2.1,0.5-3-0.2
					l0,0c-1.4-1-3.4-0.7-4.5,0.7c-2.1,2.8-5.4,7.1-6.4,8.4c-0.2,0.3-0.4,0.6-0.5,0.9c-0.5,1-1.6,3.4-2.3,5c-0.4,0.9-1.1,1.7-1.9,2.2
					c-4.7,2.9-20.8,12.9-28.3,17.6c-2.5,1.5-5.5,1.9-8.3,0.9C-3.5,256.9-27.4,248.6-27.4,248.6z"/>
				<g>
					<g>
						<g>
							<g>
								<g>
									<g>
										<defs>
											<path id="SVGID_9_" d="M-27.4,248.6l-13.2,26.7c0,0,39.1,7.2,54,9.9c3.6,0.7,7.3-0.3,10.2-2.6c8.7-7,27.2-22.1,31.3-25.5
												c0.6-0.5,1.2-0.9,1.8-1.3c2.2-1.3,8-4.7,12.8-7.5c4-2.4,5.6-7.3,3.8-11.6c-0.7-1.7-1.3-3.1-1.4-3.3v-0.1
												c-0.1-0.4-1.2-3.6-2.3-6.5c-0.4-1.3-1.4-2.3-2.7-2.8c-1.3-0.5-2.7-0.4-3.9,0.3c-0.4,0.2-0.8,0.4-1.2,0.6
												c-1,0.5-2.1,0.5-3-0.2l0,0c-1.4-1-3.4-0.7-4.5,0.7c-2.1,2.8-5.4,7.1-6.4,8.4c-0.2,0.3-0.4,0.6-0.5,0.9
												c-0.5,1-1.6,3.4-2.3,5c-0.4,0.9-1.1,1.7-1.9,2.2c-4.7,2.9-20.8,12.9-28.3,17.6c-2.5,1.5-5.5,1.9-8.3,0.9
												C-3.5,256.9-27.4,248.6-27.4,248.6z"/>
										</defs>
										<clipPath id="SVGID_10_">
											<use xlink:href="#SVGID_9_"  style="overflow:visible;"/>
										</clipPath>
										<g class="st12">
											<g transform="matrix(1,0,0,1,-36.149,-14.7655)">
												<path class="st3" d="M8.8,263.8l4.6,30.8l-18-4L8.8,263.8z"/>
											</g>
											<g transform="matrix(1,0,0,1,-36.149,-14.7655)">
												<path class="st6" d="M90.1,245.6l6.1-4.4"/>
											</g>
										</g>
									</g>
								</g>
							</g>
						</g>
					</g>
				</g>
			</g>
		</g>
		<path id="_xD83D__xDC56_" class="st13" d="M-2.3,357.1L62.8,321c0,0,59.5-15,87.2-21.9c9-2.3,18.4-1.3,26.7,2.8
			c1.3,0.6,2.5,1.2,3.8,1.9c11.7,5.7,20.7,15.7,25,27.9c9.2,25.5,24.3,67.7,24.3,67.7s-2.6,7-3.9,10.6c-0.5,1.3-0.4,2.7,0.2,4
			c1,1.9,2.5,5,3.8,7.6c1.4,2.8,4.5,4.4,7.7,3.8c7.8-1.5,22.4-4.2,30.1-5.6c1.3-0.2,2.6,0.1,3.7,0.9c1,0.8,1.7,2,1.7,3.3l0,0
			l-50.5,23.5l-12.7-23.7c0,0-2,0.3-4.3,0.6c-4.3,0.6-8.6-1.3-10.9-5.1c-8.9-14.4-30.8-49.8-35.3-57c-0.5-0.9-1.2-1.6-1.9-2.3l0,0
			c-6.2-5.7-15.4-6.9-22.8-2.9c-8.8,4.7-20.1,10.8-26.3,14.1c-3,1.6-6.2,2.8-9.6,3.5c-9.5,2-29,6-29,6s-14,47.6-20.9,70.9
			c-2.4,8.1-7.6,15-14.7,19.5c-28.8,18.3-104,66.3-104,66.3s-34.7,37.2-37.8,39.4c-4.9,3.3-8.4-2.2-8.4-2.2l22.1-49.3l17.4-3.5
			c0,0-3.4-10-5.7-16.6c-1.1-3.2,0.5-6.7,3.7-7.9c4.9-2,12-4.8,16.9-6.7c3.7-1.5,6.8-4.1,8.8-7.4c3.3-5.3,8.4-13.6,12.4-20
			c3.4-5.5,9-9.4,15.4-10.7c18.2-3.6,29-12.2,30.5-26.9c0.1-1.4,0.1-2.7,0-4.1C4.5,411.5-2.3,357.1-2.3,357.1z"/>
		<g>
			<g>
				<g>
					<g>
						<g>
							<g>
								<defs>
									<path id="SVGID_11_" d="M-2.3,357.1L62.8,321c0,0,59.5-15,87.2-21.9c9-2.3,18.4-1.3,26.7,2.8c1.3,0.6,2.5,1.2,3.8,1.9
										c11.7,5.7,20.7,15.7,25,27.9c9.2,25.5,24.3,67.7,24.3,67.7s-2.6,7-3.9,10.6c-0.5,1.3-0.4,2.7,0.2,4c1,1.9,2.5,5,3.8,7.6
										c1.4,2.8,4.5,4.4,7.7,3.8c7.8-1.5,22.4-4.2,30.1-5.6c1.3-0.2,2.6,0.1,3.7,0.9c1,0.8,1.7,2,1.7,3.3l0,0l-50.5,23.5
										l-12.7-23.7c0,0-2,0.3-4.3,0.6c-4.3,0.6-8.6-1.3-10.9-5.1c-8.9-14.4-30.8-49.8-35.3-57c-0.5-0.9-1.2-1.6-1.9-2.3l0,0
										c-6.2-5.7-15.4-6.9-22.8-2.9c-8.8,4.7-20.1,10.8-26.3,14.1c-3,1.6-6.2,2.8-9.6,3.5c-9.5,2-29,6-29,6s-14,47.6-20.9,70.9
										c-2.4,8.1-7.6,15-14.7,19.5c-28.8,18.3-104,66.3-104,66.3s-34.7,37.2-37.8,39.4c-4.9,3.3-8.4-2.2-8.4-2.2l22.1-49.3
										l17.4-3.5c0,0-3.4-10-5.7-16.6c-1.1-3.2,0.5-6.7,3.7-7.9c4.9-2,12-4.8,16.9-6.7c3.7-1.5,6.8-4.1,8.8-7.4
										c3.3-5.3,8.4-13.6,12.4-20c3.4-5.5,9-9.4,15.4-10.7c18.2-3.6,29-12.2,30.5-26.9c0.1-1.4,0.1-2.7,0-4.1
										C4.5,411.5-2.3,357.1-2.3,357.1z"/>
								</defs>
								<clipPath id="SVGID_12_">
									<use xlink:href="#SVGID_11_"  style="overflow:visible;"/>
								</clipPath>
								<g class="st14">
									<path class="st3" d="M69.6,380.4l2.1-31.2c0,0,7.2,4.3,13.9,8.2c6.9,4,15.2,4.6,22.6,1.4s17.1-7.4,25.4-10.9
										c10.6-4.5,22.7-2.9,31.8,4.1l0,0c2.7,2.1,4.7,4.9,5.8,8.2c0.4,1.1,0.8,2.2,1.1,3.3c1.1,3.1,3,5.9,5.5,8
										c1.4,1.1,3.1,2.5,4.8,3.9c6.7,5.5,10.4,14,9.7,22.6l0,0c-0.2,2.8,0.8,5.5,2.8,7.5c2.3,2.3,5.4,5.4,7.4,7.4
										c1.4,1.4,2.6,2.9,3.6,4.6c1.6,2.6,4,6.4,4,6.4l-19.5,4.4l-16.1-39.2l-22.3-27.8l-16.1-1L96.7,379L69.6,380.4z"/>
									<path class="st3" d="M229.6,399.5c0,0-2.9,3.1-5.8,6.4c-4.4,4.8-9.9,8.5-16,10.7c-1.4,0.5-2.3,0.8-2.3,0.8l17.4,35
										l53.2-24.3l0.6-10.3l-41.2,5.3L229.6,399.5z"/>
									<path class="st3" d="M50.8,460.2c-14.5,10.1-24.4,6.9-29.5-9.1c0,0-16.9,25.9-24.7,30.7c-4.1,2.5-23.9,10.1-31.5,13
										c-2,0.8-3.8,2.1-5.2,3.7c-2.4,2.8-6.2,7.4-9.3,11.1c-3.4,4-7.8,6.9-12.8,8.3c-6.3,1.8-14.1,4-14.1,4l-34.8-0.9l-20.7,56
										l55,6l43.4-54.1L50.8,460.2z"/>
									<path class="st3" d="M-5,357.1l66.6-40.7l51.8-7.8c0,0-8.3,4.3-14.5,7.4c-4.2,2.2-8.7,3.8-13.3,4.9c-2.5,0.6-5.3,1.3-8.2,2
										c-9.5,2.3-17.9,7.8-23.8,15.7c-1.9,2.6-3.8,5.1-5.2,7c-1.5,2-3.5,3.5-5.8,4.4c-2,0.8-4.7,1.9-7.6,3.1
										c-11.2,4.5-19.9,13.7-23.9,25.1c-1.5,4.4-3,8.6-3.9,11.3c-0.7,1.9-1.7,3.6-3.1,5.1c-2.9,3-7.6,7.8-7.6,7.8L-5,357.1z"/>
								</g>
							</g>
						</g>
					</g>
				</g>
			</g>
		</g>
	</g>
	<g id="_xD83C__xDF8A_" transform="matrix(1,0,0,1,66.5243,20.1992)">
		<g transform="matrix(0.0911799,0.995834,-0.995834,0.0911799,1288.25,-185.684)">
			<path class="st15" d="M198.7,1029.1c0,0,0.9-1.3,2.1-3.1c4.1-6,11.5-8.6,18.4-6.4l0,0c6.6,2.1,10.9,8.3,10.5,15.2
				c-0.1,2.2-0.2,3.8-0.2,3.8"/>
		</g>
		<g transform="matrix(-0.994461,-0.105108,0.105108,-0.994461,1894.93,1300.9)">
			<path class="st16" d="M1673.2,988c0,0,0.9-1.3,2.1-3.1c4.1-6,11.5-8.6,18.4-6.4l0,0c6.6,2.1,10.9,8.3,10.5,15.2
				c-0.1,2.2-0.2,3.8-0.2,3.8"/>
		</g>
		<g transform="matrix(0.227662,0.97374,-0.97374,0.227662,505.689,178.72)">
			<path class="st17" d="M-28.1,484.6c0,0,0.9-1.3,2.1-3.1c4.1-6,11.5-8.6,18.4-6.4l0,0c6.6,2.1,10.9,8.3,10.5,15.2
				c-0.1,2.2-0.2,3.8-0.2,3.8"/>
		</g>
		<g transform="matrix(-0.798106,-0.602517,0.602517,-0.798106,740.132,1843.39)">
			<path class="st18" d="M1542.3,869.9c0,0,0.9-1.3,2.1-3.1c4.1-6,11.5-8.6,18.4-6.4l0,0c6.6,2.1,10.9,8.3,10.5,15.2
				c-0.1,2.2-0.2,3.8-0.2,3.8"/>
		</g>
		<g transform="matrix(-0.153946,-0.988079,0.988079,-0.153946,575.439,1878.03)">
			<path class="st17" d="M1699.6-70.2c0,0,0.9-1.3,2.1-3.1c4.1-6,11.5-8.6,18.4-6.4l0,0c6.6,2.1,10.9,8.3,10.5,15.2
				c-0.1,2.2-0.2,3.8-0.2,3.8"/>
		</g>
		<g transform="matrix(0.576978,-0.81676,0.81676,0.576978,-76.3433,1007.36)">
			<path class="st19" d="M947.1-323.3c0,0,0.9-1.3,2.1-3.1c4.1-6,11.5-8.6,18.4-6.4l0,0c6.6,2.1,10.9,8.3,10.5,15.2
				c-0.1,2.2-0.2,3.8-0.2,3.8"/>
		</g>
		<g transform="matrix(0.982717,-0.185114,0.185114,0.982717,-473.172,463.928)">
			<path class="st20" d="M613.8-243.7c0,0,0.9-1.3,2.1-3.1c4.1-6,11.5-8.6,18.4-6.4l0,0c6.6,2.1,10.9,8.3,10.5,15.2
				c-0.1,2.2-0.2,3.8-0.2,3.8"/>
		</g>
		<g transform="matrix(0.834596,0.550862,-0.550862,0.834596,-152.466,-293.611)">
			<path class="st18" d="M344.1,169.1c0,0,0.9-1.3,2.1-3.1c4.1-6,11.5-8.6,18.4-6.4l0,0c6.6,2.1,10.9,8.3,10.5,15.2
				c-0.1,2.2-0.2,3.8-0.2,3.8"/>
		</g>
		<g transform="matrix(0.216096,0.976372,-0.976372,0.216096,517.17,-181.013)">
			<path class="st16" d="M189.7,543.3c0,0,0.9-1.3,2.1-3.1c4.1-6,11.5-8.6,18.4-6.4l0,0c6.6,2.1,10.9,8.3,10.5,15.2
				c-0.1,2.2-0.2,3.8-0.2,3.8"/>
		</g>
		<g transform="matrix(-0.524196,0.851598,-0.851598,-0.524196,1349.41,-93.431)">
			<path class="st17" d="M717,996.2c0,0,0.9-1.3,2.1-3.1c4.1-6,11.5-8.6,18.4-6.4l0,0c6.6,2.1,10.9,8.3,10.5,15.2
				c-0.1,2.2-0.2,3.8-0.2,3.8"/>
		</g>
		<g transform="matrix(-0.96905,0.246863,-0.246863,-0.96905,1485.11,1343.43)">
			<path class="st16" d="M1052.2,1366.2c0,0,0.9-1.3,2.1-3.1c4.1-6,11.5-8.6,18.4-6.4l0,0c6.6,2.1,10.9,8.3,10.5,15.2
				c-0.1,2.2-0.2,3.8-0.2,3.8"/>
		</g>
		<g transform="matrix(0.863008,0.50519,-0.50519,0.863008,259.922,473.949)">
			<path class="st19" d="M-112.4-108.6c0,0,0.9-1.3,2.1-3.1c4.1-6,11.5-8.6,18.4-6.4l0,0c6.6,2.1,10.9,8.3,10.5,15.2
				c-0.1,2.2-0.2,3.8-0.2,3.8"/>
		</g>
		<g transform="matrix(-0.259157,-0.965835,0.965835,-0.259157,215.533,2265.62)">
			<path class="st15" d="M1888.8,352.8c0,0,0.9-1.3,2.1-3.1c4.1-6,11.5-8.6,18.4-6.4l0,0c6.6,2.1,10.9,8.3,10.5,15.2
				c-0.1,2.2-0.2,3.8-0.2,3.8"/>
		</g>
		<g transform="matrix(-0.494183,0.869358,-0.869358,-0.494183,1768.05,534.072)">
			<path class="st18" d="M480,1422.6c0,0,0.9-1.3,2.1-3.1c4.1-6,11.5-8.6,18.4-6.4l0,0c6.6,2.1,10.9,8.3,10.5,15.2
				c-0.1,2.2-0.2,3.8-0.2,3.8"/>
		</g>
		<g transform="matrix(0.962464,-0.27141,0.27141,0.962464,-303.57,1241.55)">
			<path class="st20" d="M677.9-704.1c0,0,0.9-1.3,2.1-3.1c4.1-6,11.5-8.6,18.4-6.4l0,0c6.6,2.1,10.9,8.3,10.5,15.2
				c-0.1,2.2-0.2,3.8-0.2,3.8"/>
		</g>
		<g transform="matrix(-0.867748,-0.497004,0.497004,-0.867748,933.424,1435.36)">
			<path class="st19" d="M1421.8,741.2c0,0,0.9-1.3,2.1-3.1c4.1-6,11.5-8.6,18.4-6.4l0,0c6.6,2.1,10.9,8.3,10.5,15.2
				c-0.1,2.2-0.2,3.8-0.2,3.8"/>
		</g>
		<g transform="matrix(0.931249,-0.364385,0.364385,0.931249,-496.806,937.448)">
			<path class="st20" d="M803.2-449.1c0,0,0.9-1.3,2.1-3.1c4.1-6,11.5-8.6,18.4-6.4l0,0c6.6,2.1,10.9,8.3,10.5,15.2
				c-0.1,2.2-0.2,3.8-0.2,3.8"/>
		</g>
	</g>
</g>
</svg>
