<svg width="27" height="27" viewBox="0 0 27 27" fill="none" xmlns="http://www.w3.org/2000/svg">
<path fill-rule="evenodd" clip-rule="evenodd" d="M21.2285 15C21.2285 16.4597 20.7747 17.8144 20 18.9365L24.1204 23C25.9198 20.8165 27 18.0328 27 15C27 11.9672 25.9203 9.18345 24.1209 7L20.0004 11.0635C20.7747 12.1856 21.2285 13.5403 21.2285 15Z" fill="white" fill-opacity="0.6"/>
<path fill-rule="evenodd" clip-rule="evenodd" d="M18.8636 20.3293C17.7213 21.0676 16.3423 21.5 14.8564 21.5C11.3755 21.5 8.48122 19.1312 7.85502 16H2C2.66898 22.1795 8.16968 27 14.8564 27C17.9441 27 20.7773 25.9711 23 24.2563L18.8636 20.3293Z" fill="white" fill-opacity="0.6"/>
<path fill-rule="evenodd" clip-rule="evenodd" d="M6.69146 13C7.40711 9.2995 10.7149 6.5 14.693 6.5C16.3912 6.5 17.9671 7.011 19.2726 7.8835L24 3.243C21.4598 1.216 18.2213 0 14.693 0C7.05106 0 0.764549 5.6965 0 13H6.69146Z" fill="white"/>
</svg>
