<?xml version="1.0" encoding="utf-8"?>
<!-- Generator: Adobe Illustrator 24.0.1, SVG Export Plug-In . SVG Version: 6.00 Build 0)  -->
<svg version="1.1" id="Layer_1" xmlns="http://www.w3.org/2000/svg" xmlns:xlink="http://www.w3.org/1999/xlink" x="0px" y="0px"
	 viewBox="0 0 392 653.4" style="enable-background:new 0 0 392 653.4;" xml:space="preserve">
<style type="text/css">
	.st0{fill-rule:evenodd;clip-rule:evenodd;fill:#3E0ACD;}
	.st1{fill:none;stroke:#3E0ACD;stroke-width:15.05;stroke-linecap:round;stroke-linejoin:round;}
	.st2{fill-rule:evenodd;clip-rule:evenodd;fill:#8BC440;}
	.st3{fill:none;stroke:#8BC440;stroke-width:17.61;stroke-linecap:round;stroke-linejoin:round;}
	.st4{fill-rule:evenodd;clip-rule:evenodd;fill:#FF6B00;}
	.st5{fill-rule:evenodd;clip-rule:evenodd;fill:#FFC600;}
	.st6{clip-path:url(#SVGID_2_);}
	.st7{fill:none;stroke:#FFFFFF;stroke-width:1.55;stroke-linecap:round;stroke-linejoin:round;}
	.st8{fill-rule:evenodd;clip-rule:evenodd;fill:#19191B;}
	.st9{clip-path:url(#SVGID_4_);}
	.st10{clip-path:url(#SVGID_6_);}
	.st11{fill:none;stroke:#19191B;stroke-width:1.55;stroke-linecap:round;stroke-linejoin:round;}
	.st12{clip-path:url(#SVGID_8_);}
	
		.st13{fill-rule:evenodd;clip-rule:evenodd;fill:#FFFFFF;stroke:#19191B;stroke-width:4.22;stroke-linecap:round;stroke-linejoin:round;}
	.st14{fill:#2C7040;stroke:#2C7040;stroke-width:1.19;stroke-linejoin:round;}
	
		.st15{fill-rule:evenodd;clip-rule:evenodd;fill:#19191B;stroke:#19191B;stroke-width:3.6;stroke-linecap:round;stroke-linejoin:round;}
	.st16{fill:#FFFFFF;}
	.st17{clip-path:url(#SVGID_10_);}
	.st18{clip-path:url(#SVGID_12_);}
	.st19{fill-rule:evenodd;clip-rule:evenodd;fill:#F8F8F9;}
	.st20{fill:#19191B;}
</style>
<title>unlock</title>
<path class="st0" d="M297.3,221.1L297.3,221.1l-78.6,130l0,0l-93.9,155.3c46.1,29.2,106.8,14.3,135.6-33.4
	c18.7-31,20-69.2,3.4-101.3c-0.9-1.7-0.9-3.7,0-5.4c0.9-1.7,2.5-2.8,4.5-3c24-2.1,46.6-15.3,60.1-37.7c16.4-27.1,15-60.4-0.8-85.9
	c-1.1-1.8-1.2-3.9-0.2-5.8c0.9-1.8,2.7-3,4.8-3c20.1-0.5,39.4-10.9,50.6-29.5c17.9-29.6,8.6-68.8-20.8-87.4L297.3,221.1z"/>
<path class="st1" d="M338.3,164L75.8,598.3"/>
<path class="st2" d="M167.6,234.2L167.6,234.2l-34.1,125.9l0,0L92.7,510.5c44.6,12.7,91-14.4,103.5-60.6c8.3-30.6-0.3-61.8-20-83.1
	c-1.3-1.4-1.8-3.3-1.4-5.2c0.4-1.8,1.6-3.4,3.4-4.1c19.6-8.3,34.2-25,39.5-45.2c6.8-24.9-0.8-51.4-19.7-69.4
	c-1.5-1.4-2.1-3.4-1.7-5.4c0.4-1.9,1.7-3.6,3.6-4.3c16.6-6,29.1-19.5,33.5-36.2c7.8-28.7-9-58.5-37.4-66.6L167.6,234.2z"/>
<path class="st3" d="M188,177.4L73.9,598"/>
<path class="st4" d="M208.9,315.4L208.9,315.4l-68.9,102l0,0l-82.4,122c43.7,31,99.6,25.7,124.8-11.7c16.6-24.6,15.9-56.9,1.1-85
	c-1-1.8-0.9-4,0.1-5.7c1-1.7,2.9-2.8,4.9-2.7c21.4,0.5,41-8,52.5-25c14-20.7,12.2-48.6-2.1-72.2c-1.1-1.8-1.1-4.1,0-5.9
	c1-1.8,3-2.9,5.1-2.8c17.8,1.3,34.4-5.3,43.8-19.3c15.7-23.3,5.9-58.1-22-77.9L208.9,315.4z"/>
<g id="мужчина">
	<path class="st5" d="M30.8,196.9l21.9,12.8l1,25.1l-4.1,6.2L48,286.2l111.5,0.5l0.9-35.6l-3.4-13.9l1.3-22.5l18.3-8.9l1-4.1
		c3.3-2.1-11.9-38.5-28.5-50.2c-12.1-8.6-41.3-10.9-41.3-10.9s-24.1,1.2-33.5,5.6c-5.7,2.6-12,7.3-16.1,10.6
		c-2.9,2.3-5.3,5.1-7.2,8.2L30.8,196.9z"/>
	<g>
		<defs>
			<path id="SVGID_1_" d="M30.8,196.9l21.9,12.8l1,25.1l-4.1,6.2L48,286.2l111.5,0.5l0.9-35.6l-3.4-13.9l1.3-22.5l18.3-8.9l1-4.1
				c3.3-2.1-11.9-38.5-28.5-50.2c-12.1-8.6-41.3-10.9-41.3-10.9s-24.1,1.2-33.5,5.6c-5.7,2.6-12,7.3-16.1,10.6
				c-2.9,2.3-5.3,5.1-7.2,8.2L30.8,196.9z"/>
		</defs>
		<clipPath id="SVGID_2_">
			<use xlink:href="#SVGID_1_"  style="overflow:visible;"/>
		</clipPath>
		<g class="st6">
			<path class="st7" d="M48.2,217.1l23.2,1.2c3.1,0.2,5.4,2.8,5.3,5.8l0,0c0,1.3-0.6,2.6-1.7,3.5l-0.5,0.4c-0.5,0.4-0.7,1.1-0.6,1.7
				c0.2,0.6,0.7,1.1,1.3,1.1l41.9,3.6c2.9,0.3,5,2.8,4.9,5.6l0,0c0,2.5-2,4.6-4.6,4.8l-69.8,3.7L48.2,217.1z"/>
			<path class="st7" d="M90.8,289.8c0,0,4.3-4,7-6.6c1.4-1.3,3.2-2.3,5.2-2.6l0,0c3.7-0.7,7-2.5,9.6-5.2l1-1c3.2-3.4,7.4-5.7,12-6.6
				l1.3-0.3c5.4-1.2,9.9-4.8,12.1-9.7c1.8-3.9,4.7-7.8,9.7-8.2l13.4-1.2l3.8,45.2L90.8,289.8z"/>
			<path class="st7" d="M164.4,163.3l-5.6,5.7c-1.2,1.3-2.8,2.2-4.5,2.8l-14.2,4.7c-1.7,0.6-3.1,2-3.5,3.8l0,0
				c-0.3,1-0.1,2.1,0.5,2.9c0.6,0.8,1.5,1.3,2.6,1.3h34.8L164.4,163.3z"/>
			<ellipse class="st7" cx="110.5" cy="201.7" rx="22.7" ry="9.9"/>
			<path class="st7" d="M51.3,158.8l15.9,1.5c1.5,0.2,2.9,0.8,3.9,1.9c0.1,0.1,0.2,0.2,0.2,0.3c1.1,1.2,1.3,2.9,0.6,4.3l0,0
				c-0.4,0.8-1.2,1.5-2.1,1.7l-6.6,1.9c-1.1,0.3-2,1.1-2.3,2.2l0,0c-0.4,1.2-1.5,2.1-2.8,2.2l-15.8,1.5L51.3,158.8z"/>
			<path class="st8" d="M80.7,142.4l3.8,5.8l13.7-6.9L80.7,142.4z"/>
			<path class="st8" d="M126.1,155.2l-2.7-13l16.2,2.6c0,0,6.9,4.9,10.8,7.7c0.5,0.4,0.8,1,0.7,1.6c-0.1,0.6-0.5,1.2-1.1,1.4
				l-8.7,3.1c-1.7,0.6-3.6,0.6-5.3,0L126.1,155.2z"/>
			<path class="st8" d="M31.1,197.1l13.1,2.3l8.7-12.8l0.8,48.1L31.1,197.1z"/>
			<path class="st8" d="M158.6,214l1.4-17.3l14.1,19.2L158.6,214z"/>
		</g>
	</g>
	<path id="голова" class="st4" d="M84.9,86.8c3-13.2,12-22.8,22.6-22.8c11.6,0,21.3,11.4,23.3,26.6c0.5-0.1,1.1-0.2,1.6-0.2
		c5.2,0.3,9.1,4.7,8.7,9.7c-0.3,4.6-4,8.2-8.7,8.5c-0.9,0-1.9-0.1-2.7-0.4c-1.2,4.4-3.2,8.6-6.1,12.3v23c4.5,1.8,7.3,4.3,7.3,7.1
		c0,5.5-10.9,9.9-24.3,9.9s-24.3-4.5-24.3-9.9c0-3.6,4.6-6.7,11.6-8.5v-18.8c-5-4.9-8.7-12.4-9.7-21.1c-4.4,0.9-8.7-1.9-9.6-6.2
		s1.9-8.5,6.3-9.4c0.5-0.1,1-0.1,1.4-0.2C83.2,86.4,84.1,86.6,84.9,86.8z"/>
	<g>
		<defs>
			<path id="SVGID_3_" d="M84.9,86.8c3-13.2,12-22.8,22.6-22.8c11.6,0,21.3,11.4,23.3,26.6c0.5-0.1,1.1-0.2,1.6-0.2
				c5.2,0.3,9.1,4.7,8.7,9.7c-0.3,4.6-4,8.2-8.7,8.5c-0.9,0-1.9-0.1-2.7-0.4c-1.2,4.4-3.2,8.6-6.1,12.3v23c4.5,1.8,7.3,4.3,7.3,7.1
				c0,5.5-10.9,9.9-24.3,9.9s-24.3-4.5-24.3-9.9c0-3.6,4.6-6.7,11.6-8.5v-18.8c-5-4.9-8.7-12.4-9.7-21.1c-4.4,0.9-8.7-1.9-9.6-6.2
				s1.9-8.5,6.3-9.4c0.5-0.1,1-0.1,1.4-0.2C83.2,86.4,84.1,86.6,84.9,86.8z"/>
		</defs>
		<clipPath id="SVGID_4_">
			<use xlink:href="#SVGID_3_"  style="overflow:visible;"/>
		</clipPath>
		<g class="st9">
			<path class="st8" d="M84.5,86l2,3.3l0.7-3.3c0.9-4.1,2.7-7.9,5.2-11.2l2.4-3.1l5.6,2.2c3.2,1.3,6.6,1.5,9.9,0.6
				c1.2-0.3,2.4-0.7,3.5-1.1c3-1.1,6.3,0.1,7.8,2.9l0,0c0.2,0.4,0.3,0.9,0.1,1.3c-0.2,0.6-0.6,1.6-1,2.7c-1,2.5-0.4,5.4,1.5,7.3l0,0
				c0.8,0.8,1.2,1.8,1.3,2.8c0.1,1.1,0.2,2.4,0.2,2.4l2.2-1.6c1.3-0.9,2.7-1.5,4.3-1.9l1.4-0.3l-4.4-15.5l-11.6-11
				c0,0-15.2-2.1-15.7-2.1S87,71.3,87,71.3L84.5,86z"/>
			<path class="st8" d="M94.1,123.3l0.4,0.4c2.2,2,4.9,3.5,7.9,4.2l2.3,0.6l-13.4,7L94.1,123.3z"/>
			<path class="st8" d="M93.9,140.4l0.2,7.9l-7.3-3.8L93.9,140.4z"/>
			<path class="st8" d="M123.8,140.4l-0.1,10.1l8.6-0.4L123.8,140.4z"/>
		</g>
	</g>
	<path id="рука" class="st4" d="M158.3,214.2l18.6-8.9c0,0,6.9-48.4,8.6-60.5c0.3-1.8,0.2-3.7-0.3-5.4
		c-1.3-5.2-4.2-16.4-5.3-20.6c-0.3-1,0-2.1,0.6-3l0.3-0.4c0.6-0.7,1.5-1.2,2.4-1.2c0.9,0,1.8,0.4,2.4,1.2l12,15.3l12.8-3.5l-0.2-3.5
		c0-0.6,0.2-1.3,0.7-1.8c0.4-0.5,1.1-0.7,1.7-0.7h0.4c0.8,0,1.5,0.4,1.9,1.1l1.6,2.5l3-6.3c0.3-0.8,1.2-1.2,2.1-0.9l0.2,0.1
		c0.8,0.3,1.3,1.1,1.1,1.9l-2.4,13.1c-0.2,1-0.1,2.1,0.2,3.1c0.3,1.1,0.8,2.5,1,3.4c0.2,0.5,0.2,1,0.2,1.5c0,0.4,0,1,0,1.5
		c0,0.8,0.2,1.5,0.5,2.2c0.4,0.8,0.8,1.8,1.2,2.4c0.2,0.5,0.4,1,0.6,1.6c0.1,0.2,0.1,0.4,0.1,0.6c0.3,1.4-0.1,2.9-1.1,3.9
		l-12.5,12.2c0,0-3.5,51.6-5,75c-0.4,7.1-3.7,13.7-9,18.5l-2,1.8c-4.2,3.8-9.9,5.6-15.6,5c-5.7-0.7-10.9-3.8-14.1-8.4l-3.4-4.8
		c-1.9-2.7-3.2-5.7-3.8-9c-0.2-1.2-0.4-2.4-0.6-3.4c-0.3-1.7-0.4-3.5-0.3-5.3C157.4,228.4,158.3,214.2,158.3,214.2z"/>
	<g>
		<defs>
			<path id="SVGID_5_" d="M158.3,214.2l18.6-8.9c0,0,6.9-48.4,8.6-60.5c0.3-1.8,0.2-3.7-0.3-5.4c-1.3-5.2-4.2-16.4-5.3-20.6
				c-0.3-1,0-2.1,0.6-3l0.3-0.4c0.6-0.7,1.5-1.2,2.4-1.2c0.9,0,1.8,0.4,2.4,1.2l12,15.3l12.8-3.5l-0.2-3.5c0-0.6,0.2-1.3,0.7-1.8
				c0.4-0.5,1.1-0.7,1.7-0.7h0.4c0.8,0,1.5,0.4,1.9,1.1l1.6,2.5l3-6.3c0.3-0.8,1.2-1.2,2.1-0.9l0.2,0.1c0.8,0.3,1.3,1.1,1.1,1.9
				l-2.4,13.1c-0.2,1-0.1,2.1,0.2,3.1c0.3,1.1,0.8,2.5,1,3.4c0.2,0.5,0.2,1,0.2,1.5c0,0.4,0,1,0,1.5c0,0.8,0.2,1.5,0.5,2.2
				c0.4,0.8,0.8,1.8,1.2,2.4c0.2,0.5,0.4,1,0.6,1.6c0.1,0.2,0.1,0.4,0.1,0.6c0.3,1.4-0.1,2.9-1.1,3.9l-12.5,12.2c0,0-3.5,51.6-5,75
				c-0.4,7.1-3.7,13.7-9,18.5l-2,1.8c-4.2,3.8-9.9,5.6-15.6,5c-5.7-0.7-10.9-3.8-14.1-8.4l-3.4-4.8c-1.9-2.7-3.2-5.7-3.8-9
				c-0.2-1.2-0.4-2.4-0.6-3.4c-0.3-1.7-0.4-3.5-0.3-5.3C157.4,228.4,158.3,214.2,158.3,214.2z"/>
		</defs>
		<clipPath id="SVGID_6_">
			<use xlink:href="#SVGID_5_"  style="overflow:visible;"/>
		</clipPath>
		<g class="st10">
			<path class="st11" d="M172.1,233.5l4.8-23.3"/>
			<path class="st8" d="M199.4,165.6l11.3-0.4v10.4L199.4,165.6z"/>
			<path class="st8" d="M158.2,214.2l16.3-7.8l-16.6,36.4c0,0-0.5-3-0.8-4.7c-0.1-0.7-0.2-1.5-0.1-2.2
				C157.2,231.3,158.2,214.2,158.2,214.2z"/>
			<path class="st11" d="M212.3,141.9l5.7,8.8"/>
			<path class="st11" d="M214.3,132.3l5.6,6.9"/>
			<path class="st11" d="M217.5,127.3l1.9,4.4"/>
		</g>
	</g>
	<path id="рука2" class="st4" d="M33.3,198.1l19.8,11.3l0.6,25.6L41,255.7c-3.6,6-10.2,9.7-17.3,9.7h-0.4c-4,0-8-1.1-11.5-3.1
		l0,0c-7.5-4.4-12-12.4-11.9-21c0.2-26.5,0.7-82.1,0.8-92.3c0-1,0.5-1.9,1.4-2.4l0.3-0.2c0.6-0.3,1.3-0.4,2-0.2
		c0.7,0.2,1.2,0.8,1.5,1.4l5.2,12.8l16.5,2c1.1,0.2,2.1,0.7,2.9,1.5c0.1,0.1,0.3,0.3,0.4,0.4c1.4,1.5,1.8,3.6,1.1,5.4
		c-0.4,1-0.7,1.8-0.7,1.8l0.8,1.3c0.9,1.5,1.1,3.3,0.4,4.9l-0.6,1.3l1.2,2.7c0.5,1.3,0.5,2.8,0,4.1c-0.1,0.2-0.2,0.4-0.2,0.6
		c-0.7,1.9-2.6,3.2-4.7,3.3h-2.4l2.7,16.4L33.3,198.1z"/>
	<g>
		<defs>
			<path id="SVGID_7_" d="M33.3,198.1l19.8,11.3l0.6,25.6L41,255.7c-3.6,6-10.2,9.7-17.3,9.7h-0.4c-4,0-8-1.1-11.5-3.1l0,0
				c-7.5-4.4-12-12.4-11.9-21c0.2-26.5,0.7-82.1,0.8-92.3c0-1,0.5-1.9,1.4-2.4l0.3-0.2c0.6-0.3,1.3-0.4,2-0.2
				c0.7,0.2,1.2,0.8,1.5,1.4l5.2,12.8l16.5,2c1.1,0.2,2.1,0.7,2.9,1.5c0.1,0.1,0.3,0.3,0.4,0.4c1.4,1.5,1.8,3.6,1.1,5.4
				c-0.4,1-0.7,1.8-0.7,1.8l0.8,1.3c0.9,1.5,1.1,3.3,0.4,4.9l-0.6,1.3l1.2,2.7c0.5,1.3,0.5,2.8,0,4.1c-0.1,0.2-0.2,0.4-0.2,0.6
				c-0.7,1.9-2.6,3.2-4.7,3.3h-2.4l2.7,16.4L33.3,198.1z"/>
		</defs>
		<clipPath id="SVGID_8_">
			<use xlink:href="#SVGID_7_"  style="overflow:visible;"/>
		</clipPath>
		<g class="st12">
			<path class="st8" d="M6.3,148.6l4.9,11.9L8,164.7L6.3,148.6z"/>
			<path class="st11" d="M22.1,170.7l8.2,1"/>
			<path class="st11" d="M22.1,178l8.2,1"/>
			<path class="st11" d="M28.6,208.7l5.3,35.9"/>
			<path class="st8" d="M33.3,198l20.5,37l-0.5-25.8L33.3,198z"/>
		</g>
	</g>
	<g id="Слой2">
		<path class="st13" d="M212.7,110.6c0-0.3,0-0.6-0.2-0.8c-0.2-0.2-0.4-0.4-0.7-0.5l-18.3-3.1c-0.3,0-0.6,0-0.8,0.2
			c-0.2,0.2-0.4,0.5-0.4,0.8l-6.2,38.4c-0.1,0.3,0,0.6,0.2,0.8c0.2,0.2,0.4,0.4,0.7,0.5l18.3,3.1c0.3,0,0.6,0,0.8-0.2
			c0.2-0.2,0.4-0.5,0.4-0.8L212.7,110.6z"/>
		<g id="Phone">
			<path class="st14" d="M194.4,129.8c0.1,0,0.2,0.1,0.2,0.1c0.9,1,1.4,2.3,1.4,3.6c-0.3,0.6-0.7,1.1-1.2,1.6c0,0,0,0.8,1.4,2.8
				c1.4,2.1,2.1,2.4,2.1,2.4c0.6-0.3,1.2-0.5,1.9-0.6c1.2,0.5,2.2,1.5,2.7,2.7c0.2,0.9-1.3,1.7-1.3,1.7c-0.3,0.1-0.7,0.1-1,0
				c-2.7-0.5-5.6-4.9-5.8-5.1c-0.2-0.2-3.8-5.8-2.1-8.4C192.6,130.6,193.7,129.7,194.4,129.8 M194.5,129.2c-0.9,0-1.7,0.3-2.3,0.9
				l-0.1,0.1v0.1c-1.9,2.9,1.7,8.5,2.1,9.1c0.4,0.5,3.3,4.8,6.2,5.3c0.4,0.1,0.8,0.1,1.3,0h0.1l0.1-0.1c0.3-0.2,1.9-1.2,1.6-2.4
				c-0.6-1.4-1.7-2.5-3.1-3.1h-0.1h-0.1c-0.6,0-1.2,0.2-1.8,0.5c-0.6-0.6-1.2-1.2-1.6-1.9c-0.5-0.7-0.9-1.5-1.2-2.3
				c0.4-0.5,0.8-1,1.1-1.5l0.1-0.1v-0.1c0-1.5-0.6-3-1.7-4.2C194.9,129.4,194.7,129.2,194.5,129.2L194.5,129.2z"/>
		</g>
		<polygon class="st15" points="196.9,117.7 205.3,119.1 204.4,125.3 195.9,123.9 		"/>
		<path class="st11" d="M197.6,117.9c0,0,0.4-3,0.7-5c0.1-0.5,0-0.9-0.3-1.3c-0.3-0.4-0.7-0.6-1.2-0.7l-0.9-0.1
			c-0.7-0.1-1.5,0.3-1.8,0.9l0,0c-0.1,0.2-0.2,0.5-0.2,0.7c-0.1,0.9-0.5,3.2-0.5,3.2"/>
		
			<ellipse transform="matrix(0.9984 -5.645893e-02 5.645893e-02 0.9984 -6.5217 11.5346)" class="st16" cx="200.9" cy="121.2" rx="1" ry="1.1"/>
	</g>
	<path id="_" class="st0" d="M48.2,286.6h111.1l71.2,322.6c0.3,1.2-0.1,2.4-1,3.2l-2.4,2.2c-1,0.9-1.1,2.4-0.2,3.4
		c0.2,0.2,0.4,0.3,0.6,0.5l32.6,18c2.1,1.2,3.2,3.5,2.7,5.8c-0.1,0.4-0.1,0.8-0.2,1.2c-0.3,1.6-1.3,3-2.8,3.8
		c-1.4,0.8-3.1,0.9-4.6,0.3l-42.4-17.2l-8.9-13.4c0,0-10.8-14.1-18.4-24.1c-4.9-6.4-8.2-13.9-9.7-21.7c-3.9-20.4-11.9-61.4-16-83.1
		c-1.7-9.1-5.4-17.7-10.7-25.3c-18.9-26.9-36.1-55.2-44.6-91.1c0,0-2.2,14.1-4.4,27.3c-2.4,15.1-2.7,30.5-1,45.7
		c1.7,14.6,3.7,32.4,4.7,41.5c0.5,4,0.7,8.1,0.7,12.1v44.2c0,4.6-0.3,9.2-0.9,13.8c-2.7,20.1-10.2,77.1-10.2,77.1l-56.9-0.8l0,0
		c3-5.1,7.9-8.8,13.6-10.3l12.3-3.3c0.9-0.3,1.6-1,1.7-1.9c0.2-0.9-0.2-1.8-1-2.4l-10-7c-1.5-1.1-2.5-2.8-2.7-4.6
		c-2.1-17.5-13.1-108.4-17.7-146.2c-1.3-10.9-1.7-22-1-33c1.2-19.8,3.2-52.3,4.2-69.9c0.5-8.1,1.5-16.2,3.2-24.1
		C42.6,313.8,48.2,286.6,48.2,286.6z"/>
	<g>
		<defs>
			<path id="SVGID_9_" d="M48.2,286.6h111.1l71.2,322.6c0.3,1.2-0.1,2.4-1,3.2l-2.4,2.2c-1,0.9-1.1,2.4-0.2,3.4
				c0.2,0.2,0.4,0.3,0.6,0.5l32.6,18c2.1,1.2,3.2,3.5,2.7,5.8c-0.1,0.4-0.1,0.8-0.2,1.2c-0.3,1.6-1.3,3-2.8,3.8
				c-1.4,0.8-3.1,0.9-4.6,0.3l-42.4-17.2l-8.9-13.4c0,0-10.8-14.1-18.4-24.1c-4.9-6.4-8.2-13.9-9.7-21.7
				c-3.9-20.4-11.9-61.4-16-83.1c-1.7-9.1-5.4-17.7-10.7-25.3c-18.9-26.9-36.1-55.2-44.6-91.1c0,0-2.2,14.1-4.4,27.3
				c-2.4,15.1-2.7,30.5-1,45.7c1.7,14.6,3.7,32.4,4.7,41.5c0.5,4,0.7,8.1,0.7,12.1v44.2c0,4.6-0.3,9.2-0.9,13.8
				c-2.7,20.1-10.2,77.1-10.2,77.1l-56.9-0.8l0,0c3-5.1,7.9-8.8,13.6-10.3l12.3-3.3c0.9-0.3,1.6-1,1.7-1.9c0.2-0.9-0.2-1.8-1-2.4
				l-10-7c-1.5-1.1-2.5-2.8-2.7-4.6c-2.1-17.5-13.1-108.4-17.7-146.2c-1.3-10.9-1.7-22-1-33c1.2-19.8,3.2-52.3,4.2-69.9
				c0.5-8.1,1.5-16.2,3.2-24.1C42.6,313.8,48.2,286.6,48.2,286.6z"/>
		</defs>
		<clipPath id="SVGID_10_">
			<use xlink:href="#SVGID_9_"  style="overflow:visible;"/>
		</clipPath>
		<g class="st17">
			<path class="st8" d="M44.6,286.6L39.5,312l31.2-10.7c3.5-1.2,7.3-1.4,10.9-0.6l0,0c1.5,0.3,2.9,0.8,4.3,1.4l0.7,0.3
				c8.5,3.8,17.7,5.5,27,5l5.7-0.3c6.6-0.3,13.1,1.6,18.4,5.5l0,0c4.4,3.2,9.2,5.7,14.3,7.5l19.1,6.6l-12-39.9L44.6,286.6z"/>
			<path class="st8" d="M104.7,372.6l-17.8-32l-0.5,0.7c-10.3,14.6-14,32.6-10.3,49.9c0.6,2.9,1.2,5.8,1.8,8.4
				c1.6,7.6,2,15.4,1.2,23.1c-0.8,8.6-2,20.5-3,30.8c-1.3,13.9-0.2,28,3.5,41.5l25.1,92.3l20.6-84.2L104.7,372.6z"/>
			<path class="st8" d="M50.1,605.7l55.2,23.8L94,649.2l-66.3-8.5L50.1,605.7z"/>
			<path class="st8" d="M195,618.7l41.5-9.8l34.1,37.5l-29.9,11.8L195,618.7z"/>
		</g>
	</g>
	<path class="st11" d="M76.8,93.9l0.8-1.1c0.8-1.1,2.2-1.7,3.6-1.5l0,0c1.4,0.3,2.5,1.2,2.9,2.5c0.2,0.7,0.4,1.3,0.4,1.3"/>
	<path class="st11" d="M128.4,97.8l1-1.1c0.4-0.5,0.9-0.8,1.5-1l1-0.4c1-0.4,2.1-0.3,3.1,0.2c1,0.5,1.7,1.4,1.9,2.5
		c0.4,1.6,0.7,3,0.7,3"/>
	<path class="st11" d="M93.8,86.5c0-2.3,0.3-3.7,2.9-4.2c0.5-0.1,0.9-0.1,1.4,0c0.3,0,0.7,0.1,1,0.2c1.1,0.3,1.9,1.2,1.8,2.3
		c0,4.5-0.1,15.4-0.1,15.4l-5.6,0.2c-0.5,0-1,0.2-1.3,0.6c-0.4,0.4-0.5,0.9-0.5,1.4l0,0c0,0.7,0.6,1.3,1.3,1.3c0,0,0,0,0,0l5.9-0.1
		l0.2,6.2"/>
	<path class="st8" d="M100.1,109.9c6,0.4,11.6-1.7,17.1-3.5l-4.8,9.6c-1,2.1-3,3.6-5.4,3.9l-0.9,0.1c-1.4,0.2-2.7-0.5-3.2-1.7
		C101.6,115.7,100.7,112.8,100.1,109.9z"/>
	<g>
		<defs>
			<path id="SVGID_11_" d="M100.1,109.9c6,0.4,11.6-1.7,17.1-3.5l-4.8,9.6c-1,2.1-3,3.6-5.4,3.9l-0.9,0.1c-1.4,0.2-2.7-0.5-3.2-1.7
				C101.6,115.7,100.7,112.8,100.1,109.9z"/>
		</defs>
		<clipPath id="SVGID_12_">
			<use xlink:href="#SVGID_11_"  style="overflow:visible;"/>
		</clipPath>
		<g class="st18">
			<path class="st19" d="M101.6,109.6l0.5,1.2c0.3,0.9,1.3,1.5,2.2,1.4l2.2-0.2c3.2-0.3,6.3-1.5,8.9-3.3l3.2-2.2l0.1-3.5
				L101.6,109.6z"/>
		</g>
	</g>
	<path class="st11" d="M110.5,90.3L110.5,90.3c2.6-1.1,5.7-0.6,7.7,1.4l0.5,0.4"/>
	<ellipse class="st20" cx="113.8" cy="96.9" rx="1.6" ry="1.6"/>
	<ellipse cx="96.6" cy="95.3" rx="1.6" ry="1.6"/>
	<path class="st11" d="M101,122.8l0.3,0.2c2.2,1.3,4.8,1.6,7.2,1l2-0.5"/>
</g>
</svg>
